<svg width="377" height="52" viewBox="0 0 377 52" fill="none" xmlns="http://www.w3.org/2000/svg">
<g clip-path="url(#clip0_67_470)">
<path d="M280.856 17.5533C280.841 17.4276 280.776 17.3129 280.676 17.2338C280.576 17.1546 280.449 17.1171 280.321 17.1295C280.247 17.1346 280.175 17.1604 280.115 17.2038L279.958 17.0771L280.622 16.3256L280.781 16.461C280.747 16.5153 280.733 16.5792 280.741 16.6423C280.758 16.7681 280.825 16.8822 280.926 16.9602C281.027 17.0382 281.156 17.0739 281.283 17.0596C281.345 17.0568 281.405 17.0414 281.459 17.0146C281.514 16.9877 281.563 16.9498 281.602 16.9034C281.642 16.857 281.671 16.803 281.688 16.7449C281.705 16.6868 281.71 16.6259 281.702 16.5659C281.685 16.4476 281.624 16.3396 281.532 16.2632C281.439 16.1868 281.32 16.1475 281.199 16.153C281.121 16.1583 281.045 16.1815 280.978 16.2207L280.834 16.0853L280.898 16.0066C281.053 15.8188 281.272 15.5872 281.476 15.3513L281.651 15.4736C281.619 15.5358 281.609 15.6063 281.622 15.6746C281.625 15.7355 281.641 15.7951 281.669 15.8495C281.696 15.904 281.735 15.9521 281.783 15.9907C281.831 16.0294 281.886 16.0578 281.946 16.0741C282.005 16.0904 282.067 16.0942 282.129 16.0853C282.191 16.0837 282.252 16.0696 282.309 16.0436C282.366 16.0176 282.416 15.9805 282.458 15.9344C282.499 15.8883 282.531 15.8343 282.55 15.7757C282.57 15.7171 282.577 15.6552 282.571 15.5938C282.557 15.4718 282.495 15.36 282.399 15.2825C282.303 15.2049 282.179 15.1676 282.056 15.1787C281.984 15.1858 281.914 15.2082 281.852 15.2442L281.682 15.1241C281.819 14.9559 281.956 14.8095 282.056 14.6872L282.343 14.3726L282.505 14.4993C282.475 14.5619 282.463 14.6315 282.472 14.7003C282.476 14.762 282.494 14.8221 282.523 14.877C282.552 14.932 282.591 14.9806 282.64 15.0201C282.688 15.0596 282.744 15.0892 282.804 15.1071C282.864 15.1249 282.927 15.1307 282.989 15.1241C283.052 15.1199 283.113 15.1035 283.17 15.0759C283.226 15.0482 283.276 15.0098 283.317 14.9629C283.358 14.916 283.39 14.8614 283.409 14.8025C283.429 14.7435 283.437 14.6813 283.432 14.6194C283.414 14.4976 283.35 14.387 283.253 14.3103C283.155 14.2335 283.032 14.1964 282.907 14.2066C282.843 14.2109 282.781 14.2304 282.726 14.2634L282.545 14.1367L283.48 13.0728C283.923 12.5529 283.702 12.1313 283.016 12.1313H280.69V11.9762C280.764 11.9625 280.83 11.9247 280.878 11.8691C280.921 11.8284 280.954 11.7798 280.977 11.7262C281 11.6725 281.012 11.6149 281.012 11.5567C281.012 11.4985 281 11.4409 280.977 11.3873C280.954 11.3336 280.921 11.285 280.878 11.2443C280.788 11.1614 280.67 11.1153 280.547 11.1153C280.423 11.1153 280.305 11.1614 280.215 11.2443C280.134 11.3287 280.089 11.4405 280.089 11.5567C280.089 11.6729 280.134 11.7847 280.215 11.8691C280.265 11.9194 280.329 11.9543 280.398 11.9696V12.1313H279.407V11.9783C279.478 11.9624 279.542 11.925 279.591 11.8713C279.633 11.8306 279.666 11.782 279.689 11.7284C279.712 11.6747 279.724 11.6171 279.724 11.5589C279.724 11.5007 279.712 11.4431 279.689 11.3894C279.666 11.3358 279.633 11.2872 279.591 11.2465C279.502 11.1601 279.383 11.1116 279.259 11.1116C279.135 11.1116 279.015 11.1601 278.927 11.2465C278.883 11.2859 278.847 11.334 278.823 11.3878C278.798 11.4417 278.786 11.5 278.786 11.5589C278.786 11.6179 278.798 11.6762 278.823 11.73C278.847 11.7838 278.883 11.832 278.927 11.8713C278.974 11.9214 279.035 11.9564 279.102 11.9718V12.1334H278.119V11.9718C278.181 11.9506 278.237 11.9163 278.283 11.8713C278.325 11.8306 278.359 11.782 278.382 11.7284C278.404 11.6747 278.416 11.6171 278.416 11.5589C278.416 11.5007 278.404 11.4431 278.382 11.3894C278.359 11.3358 278.325 11.2872 278.283 11.2465C278.193 11.1626 278.075 11.1159 277.951 11.1159C277.828 11.1159 277.709 11.1626 277.619 11.2465C277.578 11.2872 277.544 11.3356 277.522 11.3891C277.499 11.4425 277.487 11.4999 277.487 11.5578C277.487 11.6158 277.499 11.6731 277.522 11.7266C277.544 11.78 277.578 11.8285 277.619 11.8691C277.669 11.9152 277.727 11.9515 277.79 11.9762V12.1378H276.827V11.9762C276.892 11.9577 276.952 11.9248 277.002 11.88C277.045 11.8393 277.079 11.7904 277.102 11.7364C277.125 11.6823 277.137 11.6242 277.137 11.5655C277.137 11.5067 277.125 11.4486 277.102 11.3946C277.079 11.3405 277.045 11.2916 277.002 11.2509C276.91 11.1677 276.79 11.1215 276.665 11.1215C276.54 11.1215 276.419 11.1677 276.327 11.2509C276.25 11.3371 276.207 11.4482 276.207 11.5633C276.207 11.6783 276.25 11.7894 276.327 11.8757C276.378 11.9224 276.437 11.9588 276.502 11.9827V12.1378H274.303C273.581 12.1378 273.389 12.5594 273.845 13.0793L274.745 14.1257L274.555 14.2808C274.501 14.2387 274.434 14.2156 274.365 14.2153C274.302 14.2075 274.239 14.2121 274.179 14.2289C274.118 14.2457 274.062 14.2744 274.013 14.3132C273.964 14.352 273.924 14.4001 273.894 14.4548C273.864 14.5094 273.846 14.5693 273.841 14.631C273.835 14.6927 273.842 14.7549 273.861 14.8139C273.88 14.8728 273.911 14.9274 273.953 14.9742C273.994 15.0211 274.044 15.0593 274.1 15.0865C274.157 15.1137 274.218 15.1295 274.281 15.1328C274.406 15.1432 274.53 15.1045 274.626 15.0252C274.723 14.9459 274.784 14.8323 274.796 14.709C274.799 14.6406 274.789 14.5723 274.765 14.508L274.971 14.366L275.267 14.6959C275.367 14.8182 275.489 14.9493 275.604 15.1088L275.424 15.253C275.361 15.2169 275.29 15.1946 275.216 15.1874C275.093 15.177 274.97 15.2145 274.874 15.292C274.779 15.3695 274.717 15.4809 274.703 15.6025C274.699 15.6636 274.707 15.7249 274.727 15.7828C274.747 15.8407 274.779 15.8941 274.82 15.9399C274.861 15.9856 274.911 16.0228 274.967 16.0493C275.023 16.0758 275.084 16.091 275.146 16.094C275.207 16.1016 275.269 16.0969 275.329 16.0802C275.388 16.0635 275.444 16.0351 275.492 15.9968C275.54 15.9584 275.58 15.9109 275.609 15.8571C275.638 15.8032 275.656 15.7441 275.661 15.6833C275.661 15.6148 275.649 15.5468 275.626 15.4823L275.836 15.3382C276.04 15.5763 276.259 15.8275 276.422 16.0154L276.469 16.0765L276.279 16.2294C276.222 16.1844 276.152 16.1605 276.079 16.1617C275.956 16.1557 275.835 16.1944 275.739 16.2704C275.643 16.3465 275.578 16.4547 275.557 16.5746C275.552 16.6359 275.56 16.6976 275.58 16.7559C275.6 16.8142 275.631 16.868 275.673 16.914C275.714 16.9601 275.764 16.9975 275.82 17.024C275.876 17.0505 275.938 17.0656 276 17.0683C276.061 17.0756 276.124 17.0704 276.183 17.0531C276.243 17.0358 276.298 17.0068 276.346 16.9678C276.394 16.9288 276.433 16.8806 276.461 16.8262C276.49 16.7717 276.506 16.7121 276.511 16.6511C276.519 16.5899 276.512 16.5278 276.491 16.4697L276.681 16.3168L277.332 17.0683L277.15 17.2125C277.091 17.1702 277.022 17.1445 276.949 17.1382C276.886 17.131 276.822 17.1363 276.762 17.1538C276.701 17.1714 276.645 17.2008 276.596 17.2403C276.547 17.2799 276.506 17.3287 276.477 17.384C276.448 17.4393 276.43 17.4998 276.425 17.562C276.42 17.6848 276.463 17.8047 276.545 17.8967C276.628 17.9887 276.743 18.0457 276.867 18.0557C276.99 18.0619 277.111 18.0225 277.206 17.9453C277.301 17.8681 277.363 17.7587 277.38 17.6385C277.387 17.5741 277.379 17.5091 277.356 17.4484L277.549 17.2955L277.841 17.6428C277.94 17.7634 278.065 17.8605 278.207 17.9273C278.349 17.994 278.504 18.0286 278.661 18.0286C278.819 18.0286 278.974 17.994 279.116 17.9273C279.258 17.8605 279.383 17.7634 279.482 17.6428L279.768 17.313L279.923 17.4462C279.905 17.5081 279.899 17.5724 279.905 17.6363C279.92 17.7598 279.984 17.8725 280.083 17.9504C280.181 18.0283 280.306 18.0653 280.432 18.0535C280.552 18.0369 280.663 17.9765 280.741 17.8841C280.82 17.7917 280.861 17.6738 280.856 17.5533ZM281.044 16.3518C281.093 16.3366 281.142 16.3249 281.193 16.3168C281.232 16.3117 281.272 16.3143 281.31 16.3247C281.348 16.3351 281.384 16.3529 281.415 16.3772C281.446 16.4015 281.471 16.4316 281.49 16.4659C281.509 16.5002 281.521 16.5379 281.525 16.5768C281.532 16.6549 281.508 16.7327 281.458 16.7936C281.408 16.8544 281.336 16.8935 281.257 16.9023C281.177 16.9098 281.096 16.8866 281.033 16.8374C280.969 16.7882 280.928 16.7168 280.916 16.638C280.911 16.6131 280.911 16.5875 280.917 16.5627C280.922 16.538 280.932 16.5145 280.947 16.4938L280.385 16.0394C280.335 16.0681 280.279 16.0839 280.221 16.0853C280.182 16.0905 280.142 16.0875 280.104 16.0767C280.066 16.0659 280.03 16.0473 280 16.0223C279.969 15.9973 279.944 15.9663 279.926 15.9312C279.908 15.8962 279.898 15.8579 279.896 15.8188C279.892 15.7813 279.896 15.7434 279.907 15.7074C279.919 15.6714 279.937 15.6381 279.962 15.6095C279.987 15.5808 280.018 15.5575 280.052 15.5409C280.086 15.5243 280.123 15.5148 280.162 15.5129C280.202 15.5061 280.243 15.5075 280.282 15.517C280.321 15.5264 280.358 15.5438 280.391 15.5679C280.423 15.5921 280.45 15.6226 280.47 15.6574C280.49 15.6923 280.503 15.7309 280.507 15.7707C280.512 15.8208 280.512 15.8714 280.507 15.9214L281.044 16.3518ZM281.894 15.3775C281.94 15.3534 281.989 15.3371 282.04 15.3294C282.121 15.3223 282.201 15.3456 282.265 15.3946C282.329 15.4437 282.372 15.5148 282.385 15.5938C282.391 15.6744 282.364 15.754 282.311 15.8153C282.257 15.8766 282.181 15.9147 282.1 15.9214C282.019 15.9241 281.94 15.8977 281.877 15.8471C281.814 15.7964 281.772 15.725 281.759 15.6462C281.758 15.6001 281.768 15.5544 281.788 15.5129L281.217 15.0498C281.199 15.069 281.176 15.0841 281.151 15.0943C281.127 15.1045 281.1 15.1094 281.073 15.1088C280.993 15.1164 280.913 15.0935 280.85 15.0447C280.787 14.9959 280.745 14.9251 280.732 14.8466C280.73 14.7678 280.758 14.691 280.811 14.6316C280.863 14.5721 280.936 14.5342 281.016 14.5255C281.056 14.521 281.097 14.5244 281.136 14.5356C281.175 14.5468 281.211 14.5656 281.242 14.5908C281.274 14.6161 281.3 14.6472 281.319 14.6825C281.338 14.7178 281.35 14.7565 281.354 14.7964C281.351 14.8464 281.339 14.8954 281.317 14.9406L281.894 15.3775ZM282.766 14.4032C282.801 14.3734 282.846 14.3571 282.892 14.3573C282.972 14.3471 283.052 14.3678 283.117 14.4151C283.182 14.4623 283.226 14.5324 283.239 14.6107C283.243 14.6892 283.218 14.7665 283.168 14.8275C283.117 14.8884 283.046 14.9288 282.967 14.9406C282.927 14.9448 282.886 14.9411 282.847 14.9296C282.808 14.9181 282.772 14.8992 282.74 14.8738C282.709 14.8484 282.683 14.8171 282.663 14.7817C282.644 14.7463 282.632 14.7075 282.629 14.6675C282.619 14.6195 282.625 14.5698 282.646 14.5255L282.078 14.0646C282.061 14.0864 282.04 14.1041 282.015 14.1163C281.991 14.1284 281.964 14.1347 281.936 14.1345C281.896 14.1384 281.856 14.1343 281.818 14.1224C281.78 14.1105 281.745 14.0911 281.715 14.0653C281.684 14.0396 281.66 14.008 281.642 13.9726C281.625 13.9372 281.615 13.8986 281.613 13.8592C281.607 13.8214 281.609 13.7828 281.619 13.7457C281.629 13.7087 281.646 13.6742 281.671 13.6445C281.695 13.6147 281.726 13.5905 281.761 13.5733C281.795 13.5561 281.833 13.5463 281.872 13.5447C281.952 13.5377 282.033 13.5614 282.096 13.611C282.159 13.6606 282.201 13.7322 282.213 13.8112C282.218 13.8355 282.218 13.8607 282.213 13.8852C282.209 13.9096 282.198 13.9328 282.184 13.9532L282.766 14.4032ZM280.332 12.5856C280.371 12.5527 280.414 12.5255 280.46 12.5048V11.8276C280.412 11.8217 280.367 11.8002 280.332 11.7664C280.302 11.7408 280.279 11.7092 280.262 11.6738C280.246 11.6384 280.238 11.6 280.238 11.5611C280.238 11.5222 280.246 11.4838 280.262 11.4484C280.279 11.413 280.302 11.3814 280.332 11.3557C280.388 11.3082 280.46 11.2821 280.534 11.2821C280.609 11.2821 280.68 11.3082 280.737 11.3557C280.769 11.3798 280.795 11.4108 280.813 11.4465C280.831 11.4821 280.84 11.5213 280.84 11.5611C280.84 11.6009 280.831 11.6401 280.813 11.6757C280.795 11.7114 280.769 11.7424 280.737 11.7664C280.723 11.7842 280.705 11.7989 280.685 11.8095C280.665 11.82 280.642 11.8262 280.62 11.8276V12.5026C280.666 12.5176 280.707 12.5466 280.737 12.5856C280.769 12.6085 280.795 12.6386 280.813 12.6733C280.831 12.7081 280.84 12.7465 280.84 12.7855C280.84 12.8245 280.831 12.863 280.813 12.8977C280.795 12.9325 280.769 12.9625 280.737 12.9854C280.682 13.0362 280.609 13.0645 280.533 13.0645C280.458 13.0645 280.385 13.0362 280.33 12.9854C280.301 12.9606 280.277 12.9299 280.261 12.8953C280.245 12.8607 280.237 12.8231 280.237 12.785C280.237 12.747 280.246 12.7095 280.262 12.675C280.279 12.6406 280.302 12.6101 280.332 12.5856ZM279.044 12.5747C279.081 12.5388 279.128 12.5145 279.179 12.5048V11.8276C279.126 11.8217 279.078 11.7958 279.044 11.7555C279.016 11.73 278.994 11.699 278.979 11.6646C278.964 11.6302 278.956 11.5931 278.956 11.5556C278.956 11.5181 278.964 11.481 278.979 11.4466C278.994 11.4122 279.016 11.3813 279.044 11.3557C279.099 11.3013 279.174 11.2707 279.252 11.2707C279.33 11.2707 279.405 11.3013 279.46 11.3557C279.489 11.3808 279.512 11.4115 279.528 11.446C279.543 11.4804 279.552 11.5178 279.552 11.5556C279.552 11.5934 279.543 11.6308 279.528 11.6653C279.512 11.6997 279.489 11.7305 279.46 11.7555C279.425 11.7857 279.386 11.81 279.343 11.8276V12.5048C279.385 12.5223 279.425 12.5459 279.46 12.5747C279.489 12.6003 279.512 12.6317 279.528 12.6667C279.544 12.7017 279.552 12.7396 279.552 12.7779C279.552 12.8162 279.544 12.8541 279.528 12.8891C279.512 12.9241 279.489 12.9554 279.46 12.981C279.404 13.0334 279.33 13.0626 279.252 13.0626C279.175 13.0626 279.101 13.0334 279.044 12.981C279.016 12.955 278.994 12.9237 278.978 12.889C278.963 12.8542 278.955 12.8168 278.954 12.7788C278.954 12.7409 278.961 12.7032 278.976 12.6682C278.991 12.6331 279.012 12.6013 279.04 12.5747H279.044ZM277.752 12.5747C277.788 12.5424 277.831 12.5185 277.878 12.5048V11.8276C277.831 11.8129 277.788 11.7883 277.752 11.7555C277.725 11.7296 277.703 11.6986 277.688 11.6642C277.674 11.6299 277.666 11.593 277.666 11.5556C277.666 11.5183 277.674 11.4814 277.688 11.447C277.703 11.4127 277.725 11.3816 277.752 11.3557C277.809 11.3014 277.884 11.271 277.963 11.271C278.042 11.271 278.118 11.3014 278.175 11.3557C278.202 11.3816 278.224 11.4127 278.238 11.447C278.253 11.4814 278.261 11.5183 278.261 11.5556C278.261 11.593 278.253 11.6299 278.238 11.6642C278.224 11.6986 278.202 11.7296 278.175 11.7555C278.139 11.7887 278.096 11.8133 278.049 11.8276V12.5048C278.095 12.52 278.138 12.5438 278.175 12.5747C278.202 12.6012 278.224 12.6328 278.239 12.6677C278.254 12.7026 278.261 12.74 278.261 12.7779C278.261 12.8157 278.254 12.8532 278.239 12.8881C278.224 12.923 278.202 12.9546 278.175 12.981C278.117 13.0339 278.042 13.0632 277.963 13.0632C277.885 13.0632 277.809 13.0339 277.752 12.981C277.724 12.9549 277.702 12.9235 277.687 12.8888C277.672 12.8541 277.664 12.8167 277.663 12.7788C277.663 12.7409 277.67 12.7034 277.685 12.6683C277.699 12.6333 277.721 12.6015 277.748 12.5747H277.752ZM276.458 12.5747C276.494 12.5407 276.538 12.5166 276.586 12.5048V11.8276C276.537 11.816 276.492 11.7902 276.458 11.7533C276.426 11.7304 276.401 11.7005 276.383 11.6659C276.365 11.6314 276.356 11.5932 276.356 11.5545C276.356 11.5158 276.365 11.4777 276.383 11.4432C276.401 11.4086 276.426 11.3787 276.458 11.3557C276.485 11.3287 276.517 11.3071 276.552 11.2925C276.587 11.2778 276.625 11.2702 276.664 11.2702C276.702 11.2702 276.74 11.2778 276.775 11.2925C276.81 11.3071 276.842 11.3287 276.869 11.3557C276.899 11.3799 276.924 11.4104 276.94 11.445C276.957 11.4796 276.965 11.5174 276.965 11.5556C276.965 11.5939 276.957 11.6317 276.94 11.6663C276.924 11.7009 276.899 11.7313 276.869 11.7555C276.838 11.7921 276.795 11.8174 276.748 11.8276V12.5048C276.795 12.5144 276.837 12.539 276.869 12.5747C276.9 12.5993 276.924 12.6303 276.941 12.6654C276.958 12.7006 276.967 12.739 276.967 12.7779C276.967 12.8168 276.958 12.8552 276.941 12.8903C276.924 12.9255 276.9 12.9565 276.869 12.981C276.814 13.0336 276.74 13.063 276.664 13.063C276.587 13.063 276.513 13.0336 276.458 12.981C276.426 12.9575 276.4 12.9271 276.382 12.892C276.364 12.857 276.354 12.8183 276.354 12.779C276.353 12.7396 276.362 12.7008 276.379 12.6653C276.397 12.6299 276.422 12.5989 276.453 12.5747H276.458ZM275.323 14.1345C275.266 14.1356 275.212 14.117 275.168 14.0821L274.599 14.5408C274.621 14.5841 274.629 14.6329 274.621 14.6806C274.61 14.7577 274.57 14.8276 274.508 14.876C274.446 14.9244 274.368 14.9475 274.289 14.9406C274.211 14.9323 274.139 14.8941 274.088 14.8341C274.038 14.7742 274.013 14.6971 274.019 14.6194C274.022 14.5805 274.033 14.5424 274.051 14.5078C274.069 14.4731 274.095 14.4425 274.125 14.4179C274.156 14.3933 274.192 14.3752 274.23 14.3648C274.268 14.3543 274.308 14.3518 274.347 14.3573C274.403 14.3615 274.456 14.3804 274.502 14.4119L275.066 13.9641C275.043 13.9164 275.037 13.8627 275.048 13.8112C275.055 13.7344 275.091 13.6632 275.151 13.6133C275.21 13.5633 275.287 13.5386 275.365 13.5447C275.404 13.5474 275.442 13.5577 275.477 13.575C275.513 13.5924 275.544 13.6164 275.57 13.6457C275.596 13.675 275.615 13.7091 275.628 13.7459C275.64 13.7827 275.645 13.8216 275.642 13.8603C275.64 13.899 275.629 13.9369 275.612 13.9716C275.594 14.0063 275.57 14.0373 275.54 14.0628C275.51 14.0882 275.476 14.1077 275.439 14.12C275.401 14.1323 275.362 14.1372 275.323 14.1345ZM276.177 15.1241C276.135 15.1 276.068 15.1 276.028 15.0651L275.464 15.5129C275.467 15.5573 275.467 15.6018 275.464 15.6462C275.46 15.6866 275.448 15.7257 275.428 15.7613C275.409 15.797 275.382 15.8283 275.35 15.8536C275.317 15.8788 275.28 15.8975 275.241 15.9084C275.201 15.9193 275.16 15.9222 275.119 15.9171C275.042 15.9083 274.972 15.8703 274.923 15.8112C274.874 15.7521 274.85 15.6765 274.856 15.6003C274.866 15.5239 274.906 15.4542 274.966 15.4051C275.026 15.3561 275.103 15.3314 275.181 15.336C275.235 15.3453 275.289 15.3592 275.34 15.3775L275.902 14.9406C275.88 14.8967 275.872 14.8472 275.878 14.7986C275.882 14.7587 275.894 14.72 275.913 14.685C275.933 14.65 275.96 14.6194 275.992 14.5951C276.024 14.5709 276.061 14.5535 276.101 14.5442C276.14 14.5348 276.181 14.5337 276.221 14.5408C276.26 14.5421 276.299 14.5517 276.334 14.569C276.37 14.5864 276.401 14.611 276.425 14.6413C276.45 14.6715 276.468 14.7067 276.478 14.7444C276.488 14.7821 276.489 14.8215 276.482 14.8597C276.471 14.9333 276.434 15.0005 276.377 15.0491C276.32 15.0977 276.248 15.1243 276.172 15.1241H276.177ZM277.013 16.1027C276.969 16.0896 276.92 16.0743 276.863 16.0525L276.305 16.4894C276.305 16.5244 276.305 16.5724 276.305 16.6336C276.302 16.6727 276.29 16.7107 276.271 16.7454C276.253 16.78 276.227 16.8106 276.196 16.8353C276.165 16.8599 276.129 16.8782 276.091 16.889C276.053 16.8997 276.013 16.9028 275.973 16.8979C275.895 16.8871 275.823 16.8477 275.773 16.7874C275.723 16.7272 275.697 16.6505 275.701 16.5724C275.705 16.5339 275.717 16.4967 275.737 16.4629C275.756 16.4291 275.782 16.3995 275.812 16.3757C275.843 16.3519 275.879 16.3344 275.917 16.3243C275.955 16.3142 275.994 16.3116 276.033 16.3168C276.088 16.3211 276.142 16.3314 276.194 16.3474L276.748 15.9105C276.733 15.8617 276.727 15.8107 276.73 15.7598C276.733 15.7217 276.744 15.6846 276.762 15.6508C276.78 15.6169 276.804 15.5871 276.834 15.5629C276.864 15.5388 276.899 15.521 276.936 15.5105C276.973 15.5001 277.012 15.4971 277.051 15.502C277.131 15.5059 277.206 15.5396 277.262 15.5963C277.318 15.6531 277.35 15.7287 277.352 15.8078C277.35 15.8496 277.34 15.8906 277.322 15.9284C277.304 15.9662 277.279 15.9999 277.247 16.0276C277.215 16.0552 277.178 16.0761 277.138 16.0891C277.098 16.102 277.055 16.1066 277.013 16.1027ZM277.872 17.0923C277.819 17.0846 277.769 17.0627 277.728 17.029L277.15 17.4856C277.173 17.5317 277.185 17.5827 277.183 17.6341C277.172 17.7102 277.131 17.7791 277.07 17.8266C277.009 17.8741 276.931 17.8967 276.854 17.8897C276.813 17.8882 276.773 17.8783 276.736 17.8608C276.7 17.8433 276.667 17.8185 276.64 17.7879C276.614 17.7574 276.594 17.7217 276.582 17.6833C276.57 17.6448 276.566 17.6042 276.571 17.5642C276.582 17.4863 276.623 17.4157 276.686 17.3672C276.748 17.3187 276.828 17.2961 276.907 17.3042C276.957 17.3076 277.004 17.3251 277.044 17.3545L277.606 16.9176C277.597 16.8721 277.597 16.8254 277.606 16.78C277.607 16.7416 277.617 16.7038 277.633 16.6691C277.65 16.6344 277.674 16.6034 277.703 16.578C277.732 16.5527 277.766 16.5335 277.803 16.5216C277.84 16.5097 277.879 16.5055 277.918 16.5091C277.999 16.5158 278.074 16.5533 278.127 16.6136C278.18 16.674 278.208 16.7524 278.203 16.8324C278.193 16.9089 278.153 16.9785 278.091 17.0262C278.03 17.0739 277.952 17.0961 277.874 17.088L277.872 17.0923ZM278.956 17.029C278.851 17.0769 278.738 17.1009 278.623 17.099C278.508 17.0971 278.395 17.0694 278.292 17.0181C278.338 16.9541 278.365 16.8783 278.369 16.7996C278.375 16.7406 278.368 16.6812 278.349 16.6247C278.331 16.5683 278.302 16.516 278.263 16.4709C278.224 16.4258 278.176 16.3888 278.123 16.362C278.069 16.3351 278.011 16.3191 277.951 16.3146C277.852 16.3044 277.752 16.3202 277.661 16.3605L277.416 16.0831C277.468 16.0012 277.505 15.9111 277.526 15.8166C277.53 15.6958 277.485 15.5786 277.403 15.4894C277.32 15.4002 277.206 15.346 277.084 15.3382C276.986 15.3313 276.889 15.3517 276.803 15.3971C276.728 15.2923 276.644 15.2049 276.582 15.1066C276.637 15.0348 276.669 14.9478 276.672 14.8576C276.676 14.7732 276.658 14.6894 276.618 14.6147C276.578 14.5399 276.519 14.4771 276.446 14.4325C276.373 14.388 276.29 14.3634 276.205 14.3613C276.119 14.3592 276.035 14.3797 275.96 14.4207L275.714 14.1323C275.771 14.0563 275.81 13.9691 275.829 13.8767C275.834 13.7542 275.791 13.6345 275.708 13.5429C275.626 13.4512 275.511 13.3947 275.387 13.3852C275.291 13.3791 275.196 13.4003 275.112 13.4464C274.84 13.0881 275.022 12.8259 275.493 12.8259H276.214C276.211 12.8764 276.219 12.927 276.238 12.9739C276.257 13.0209 276.287 13.0629 276.325 13.0968C276.368 13.1427 276.42 13.1793 276.478 13.2043C276.536 13.2293 276.599 13.2422 276.662 13.2422C276.726 13.2422 276.788 13.2293 276.846 13.2043C276.905 13.1793 276.957 13.1427 277 13.0968C277.074 13.0278 277.119 12.9346 277.128 12.8347H277.491C277.495 12.8851 277.508 12.9342 277.532 12.9792C277.555 13.0243 277.587 13.0642 277.626 13.0968C277.668 13.1433 277.719 13.1805 277.776 13.206C277.833 13.2316 277.895 13.2447 277.958 13.2447C278.021 13.2447 278.083 13.2316 278.14 13.206C278.197 13.1805 278.248 13.1433 278.29 13.0968C278.327 13.0636 278.358 13.0233 278.379 12.9782C278.4 12.9332 278.412 12.8844 278.414 12.8347H278.783C278.795 12.9372 278.846 13.0313 278.927 13.0968C278.969 13.1433 279.02 13.1805 279.077 13.206C279.134 13.2316 279.196 13.2447 279.259 13.2447C279.322 13.2447 279.384 13.2316 279.441 13.206C279.498 13.1805 279.549 13.1433 279.591 13.0968C279.632 13.0663 279.665 13.0267 279.688 12.9811C279.71 12.9356 279.722 12.8854 279.721 12.8347H280.091C280.096 12.9346 280.141 13.0286 280.215 13.0968C280.256 13.1433 280.307 13.1805 280.365 13.206C280.422 13.2316 280.484 13.2447 280.547 13.2447C280.609 13.2447 280.671 13.2316 280.729 13.206C280.786 13.1805 280.837 13.1433 280.878 13.0968C280.919 13.0657 280.952 13.026 280.975 12.9807C280.998 12.9353 281.01 12.8854 281.011 12.8347H281.812C282.31 12.8347 282.46 13.1143 282.186 13.4704C282.095 13.4137 281.988 13.3869 281.881 13.3939C281.757 13.404 281.642 13.4606 281.56 13.5522C281.477 13.6437 281.434 13.7631 281.438 13.8854C281.446 13.9948 281.497 14.0968 281.58 14.1694L281.321 14.4425C281.233 14.3823 281.126 14.3573 281.02 14.3726C280.897 14.3847 280.783 14.4423 280.701 14.5338C280.619 14.6253 280.575 14.7441 280.578 14.8663C280.596 14.9716 280.65 15.0677 280.73 15.1394C280.635 15.2442 280.553 15.336 280.482 15.4255C280.385 15.3672 280.273 15.3398 280.159 15.3469C280.039 15.3559 279.927 15.4113 279.847 15.5012C279.768 15.5912 279.727 15.7084 279.735 15.8275C279.747 15.939 279.795 16.0437 279.872 16.1268L279.615 16.3977C279.525 16.3363 279.416 16.3099 279.308 16.3234C279.246 16.3254 279.186 16.3399 279.131 16.366C279.076 16.3921 279.027 16.4292 278.987 16.475C278.947 16.5208 278.917 16.5742 278.899 16.632C278.881 16.6897 278.876 16.7505 278.883 16.8105C278.884 16.888 278.91 16.9631 278.958 17.0246L278.956 17.029ZM280.062 17.6297C280.052 17.5784 280.058 17.5253 280.078 17.4768L279.502 17.0399C279.464 17.0755 279.415 17.0977 279.363 17.1033C279.283 17.1078 279.205 17.0824 279.143 17.0322C279.081 16.9819 279.041 16.9106 279.031 16.8324C279.026 16.7929 279.029 16.7528 279.04 16.7147C279.052 16.6765 279.071 16.6412 279.098 16.6111C279.124 16.581 279.157 16.5567 279.193 16.5399C279.23 16.523 279.269 16.514 279.31 16.5134C279.388 16.5064 279.466 16.5292 279.528 16.577C279.591 16.6249 279.632 16.6944 279.644 16.7712C279.65 16.8211 279.643 16.8718 279.622 16.9176L280.184 17.3545C280.225 17.3254 280.274 17.3081 280.325 17.3042C280.365 17.2987 280.405 17.3012 280.444 17.3114C280.482 17.3216 280.518 17.3393 280.549 17.3636C280.581 17.3879 280.607 17.4182 280.626 17.4526C280.646 17.4871 280.658 17.525 280.662 17.5642C280.666 17.6023 280.662 17.6407 280.65 17.6772C280.638 17.7138 280.619 17.7476 280.594 17.7766C280.569 17.8056 280.538 17.8293 280.503 17.8461C280.468 17.8629 280.43 17.8725 280.392 17.8744C280.354 17.8809 280.316 17.8797 280.279 17.8708C280.242 17.8619 280.208 17.8455 280.177 17.8227C280.147 17.7999 280.122 17.7712 280.104 17.7384C280.086 17.7055 280.074 17.6693 280.071 17.6319L280.062 17.6297Z" fill="#509ADB"/>
<path d="M281.126 20.7735C281.526 20.7388 281.925 20.8389 282.259 21.0575L283.144 20.0395C282.863 19.7759 282.694 19.4168 282.671 19.0346C282.653 18.817 282.678 18.5981 282.747 18.3904C282.815 18.1828 282.924 17.9906 283.068 17.8249C283.212 17.6593 283.388 17.5236 283.586 17.4256C283.784 17.3277 283.999 17.2694 284.22 17.2542C284.618 17.2143 285.017 17.3124 285.35 17.5317C285.622 17.2127 285.937 16.861 286.235 16.5202C285.954 16.2572 285.778 15.9027 285.74 15.5219C285.722 15.3017 285.749 15.0802 285.819 14.8704C285.889 14.6606 286.001 14.4666 286.147 14.2997C286.294 14.1329 286.473 13.9964 286.673 13.8983C286.873 13.8002 287.092 13.7425 287.315 13.7284C287.704 13.6924 288.094 13.7871 288.421 13.9971L289.306 12.9813C289.035 12.7184 288.87 12.3678 288.839 11.9939C288.82 11.7753 288.845 11.5552 288.913 11.3462C288.981 11.1373 289.09 10.9437 289.234 10.7767C289.378 10.6097 289.554 10.4725 289.752 10.3732C289.951 10.2739 290.167 10.2144 290.388 10.1982C290.777 10.1606 291.168 10.2554 291.494 10.4669C292.497 9.18236 291.937 8.17529 290.167 8.17529H287.262C287.229 8.48907 287.106 8.78715 286.908 9.0348C286.711 9.28245 286.445 9.46948 286.144 9.5741C285.843 9.67872 285.517 9.69662 285.206 9.62572C284.895 9.55482 284.61 9.39803 284.385 9.17362C284.114 8.90612 283.946 8.55266 283.912 8.17529H282.584C282.546 8.55509 282.372 8.90896 282.093 9.17362C281.773 9.47164 281.35 9.63761 280.91 9.63761C280.469 9.63761 280.046 9.47164 279.726 9.17362C279.447 8.91022 279.276 8.55493 279.246 8.17529H277.894C277.858 8.55457 277.686 8.90877 277.409 9.17362C277.088 9.47144 276.664 9.63722 276.223 9.63722C275.783 9.63722 275.359 9.47144 275.037 9.17362C274.763 8.90581 274.59 8.5536 274.546 8.17529H273.219C273.19 8.55584 273.018 8.91193 272.736 9.17362C272.415 9.47144 271.991 9.63722 271.55 9.63722C271.11 9.63722 270.686 9.47144 270.364 9.17362C270.081 8.91298 269.906 8.55676 269.875 8.17529H267.32C265.57 8.17529 264.999 9.14304 265.913 10.3992C266.222 10.2367 266.573 10.1668 266.922 10.1982C267.368 10.2349 267.781 10.4444 268.071 10.7808C268.361 11.1172 268.505 11.5533 268.47 11.9939C268.44 12.3245 268.304 12.6373 268.083 12.8873L269.001 13.9381C269.307 13.7669 269.658 13.6908 270.008 13.7196C270.317 13.7351 270.616 13.8358 270.87 14.0102C271.124 14.1847 271.323 14.426 271.445 14.7067C271.567 14.9875 271.607 15.2964 271.561 15.5984C271.514 15.9004 271.382 16.1835 271.181 16.4154C271.486 16.7627 271.796 17.1232 272.086 17.4596C272.395 17.284 272.751 17.2077 273.106 17.2411C273.328 17.2547 273.545 17.3117 273.744 17.4089C273.943 17.506 274.121 17.6414 274.267 17.8072C274.413 17.9729 274.524 18.1656 274.593 18.3741C274.663 18.5826 274.69 18.8027 274.672 19.0215C274.645 19.3623 274.508 19.6855 274.281 19.9434L275.183 20.9832C275.491 20.8036 275.848 20.7269 276.203 20.7648C276.426 20.7794 276.644 20.8376 276.844 20.9359C277.044 21.0342 277.223 21.1707 277.369 21.3375C277.515 21.5043 277.627 21.698 277.697 21.9076C277.766 22.1171 277.794 22.3383 277.776 22.5583C277.755 22.826 277.659 23.0825 277.498 23.2988C277.855 23.4844 278.251 23.5869 278.655 23.5986C279.058 23.6104 279.46 23.531 279.828 23.3666C279.664 23.1248 279.563 22.8473 279.533 22.5583C279.516 22.3373 279.545 22.1151 279.616 21.905C279.687 21.6949 279.801 21.5009 279.949 21.3346C280.098 21.1683 280.278 21.033 280.48 20.9367C280.682 20.8403 280.902 20.7848 281.126 20.7735ZM277.252 20.0963L274.736 17.2149C274.181 16.5595 273.261 15.5284 272.707 14.8862L270.183 12.0201C269.369 11.1026 269.74 10.362 270.997 10.362H286.421C287.671 10.362 288.034 11.1026 287.233 12.0201L284.722 14.8862C284.158 15.5284 283.233 16.5595 282.673 17.2149L280.153 20.0963C279.977 20.3087 279.756 20.4799 279.505 20.5975C279.254 20.7151 278.98 20.7761 278.702 20.7761C278.425 20.7761 278.151 20.7151 277.9 20.5975C277.649 20.4799 277.428 20.3087 277.252 20.0963Z" fill="#509ADB"/>
<path d="M304.126 0.190674H253.161C249.042 0.190674 247.818 2.64828 250.462 5.6826L258.79 15.229C260.647 17.3764 263.676 20.852 265.543 23.0016L273.86 32.5415C276.5 35.5824 280.799 35.5824 283.43 32.5415L291.756 23.0016C293.614 20.8564 296.652 17.3764 298.508 15.229L306.837 5.68915C309.478 2.64609 308.259 0.190674 304.126 0.190674ZM296.183 8.97033L292.822 12.8086L293.426 13.287C293.645 13.1683 293.886 13.094 294.134 13.0685C294.583 13.0267 295.032 13.1604 295.382 13.441C295.733 13.7215 295.959 14.1266 296.01 14.5693C296.028 15.0107 295.873 15.4418 295.576 15.7728C295.28 16.1038 294.866 16.3092 294.42 16.3461C293.974 16.383 293.531 16.2486 293.183 15.9709C292.835 15.6932 292.609 15.2936 292.552 14.8555C292.528 14.6102 292.564 14.3628 292.658 14.1346L292.063 13.6649L291.052 14.8271C290.656 15.264 290.202 15.7926 289.724 16.3366L290.309 16.8194C290.524 16.6921 290.766 16.6172 291.017 16.6009C291.234 16.5803 291.454 16.6022 291.664 16.6654C291.873 16.7287 292.068 16.832 292.237 16.9696C292.405 17.1071 292.545 17.2761 292.648 17.467C292.751 17.6579 292.814 17.8669 292.835 18.082C292.856 18.2972 292.834 18.5143 292.77 18.721C292.706 18.9277 292.601 19.1199 292.462 19.2866C292.323 19.4534 292.151 19.5914 291.958 19.6928C291.765 19.7942 291.553 19.8571 291.335 19.8777C291.112 19.9026 290.885 19.8838 290.669 19.8223C290.453 19.7608 290.251 19.6578 290.075 19.5192C289.899 19.3807 289.753 19.2092 289.644 19.0147C289.535 18.8202 289.466 18.6065 289.441 18.3857C289.423 18.1402 289.46 17.8938 289.552 17.6648L288.961 17.206C288.2 18.0624 287.443 18.934 286.859 19.585L286.638 19.8777L287.215 20.3408C287.434 20.2189 287.677 20.1444 287.928 20.1224C288.151 20.0955 288.377 20.1131 288.593 20.174C288.809 20.235 289.01 20.3382 289.185 20.4774C289.359 20.6166 289.504 20.7891 289.61 20.9845C289.716 21.18 289.781 21.3945 289.801 21.6152C289.822 21.836 289.797 22.0586 289.729 22.2698C289.661 22.481 289.55 22.6765 289.404 22.8447C289.258 23.0129 289.079 23.1504 288.877 23.249C288.676 23.3476 288.457 23.4054 288.233 23.4189C287.782 23.4589 287.332 23.3237 286.98 23.0418C286.628 22.76 286.401 22.3537 286.348 21.9093C286.322 21.6673 286.357 21.4227 286.45 21.1972L285.87 20.7319L283.511 23.4189L284.085 23.8842C284.308 23.7511 284.559 23.6711 284.819 23.6504C285.27 23.6055 285.72 23.7371 286.074 24.017C286.427 24.2969 286.655 24.7026 286.709 25.1468C286.739 25.5901 286.59 26.0271 286.296 26.3629C286.001 26.6987 285.584 26.9062 285.135 26.9403C284.685 26.9821 284.236 26.848 283.884 26.5666C283.533 26.2852 283.307 25.8791 283.255 25.4352C283.227 25.2027 283.258 24.967 283.346 24.7492L282.759 24.2905L281.735 25.4614C280.093 27.3292 277.436 27.3292 275.807 25.4614L274.701 24.214L274.017 24.7492C274.102 24.9677 274.134 25.2024 274.112 25.4352C274.061 25.8785 273.836 26.2843 273.485 26.5656C273.135 26.847 272.686 26.9815 272.236 26.9403C272.013 26.9251 271.796 26.8666 271.596 26.7681C271.396 26.6697 271.218 26.5332 271.071 26.3666C270.925 26.1999 270.813 26.0064 270.743 25.7971C270.672 25.5878 270.645 25.3668 270.661 25.1468C270.713 24.7034 270.94 24.2981 271.292 24.0181C271.644 23.7382 272.094 23.6062 272.544 23.6504C272.803 23.6721 273.053 23.752 273.276 23.8842L273.94 23.3533L271.583 20.6598L270.895 21.2037C270.984 21.428 271.021 21.6691 271.004 21.9093C270.953 22.3528 270.728 22.759 270.378 23.0411C270.028 23.3232 269.58 23.4588 269.13 23.4189C268.681 23.3858 268.263 23.1792 267.967 22.8438C267.671 22.5084 267.521 22.0714 267.55 21.6275C267.602 21.1843 267.828 20.7788 268.179 20.4976C268.53 20.2164 268.978 20.0818 269.428 20.1224C269.678 20.1407 269.92 20.2154 270.136 20.3408L270.829 19.7925L270.652 19.5741C270.057 18.9187 269.274 18.0143 268.495 17.1143L267.8 17.6713C267.89 17.8945 267.926 18.1355 267.904 18.3748C267.853 18.8158 267.628 19.2194 267.278 19.4984C266.929 19.7775 266.482 19.9098 266.034 19.8668C265.812 19.8535 265.595 19.7969 265.396 19.7004C265.196 19.6039 265.017 19.4693 264.871 19.3045C264.724 19.1396 264.611 18.9477 264.54 18.7397C264.469 18.5318 264.44 18.312 264.455 18.093C264.505 17.6493 264.73 17.243 265.082 16.9625C265.433 16.6819 265.883 16.5496 266.333 16.5944C266.586 16.612 266.831 16.6867 267.05 16.8128L267.734 16.2645C267.291 15.738 266.849 15.2378 266.492 14.8205L265.386 13.5797L264.682 14.128C264.782 14.3546 264.818 14.6038 264.786 14.8489C264.764 15.0681 264.698 15.2809 264.593 15.4749C264.487 15.6689 264.343 15.8402 264.17 15.9792C263.997 16.1181 263.798 16.2217 263.584 16.2842C263.37 16.3467 263.145 16.3667 262.923 16.3431C262.7 16.3325 262.481 16.2775 262.28 16.1814C262.078 16.0853 261.899 15.9501 261.751 15.7839C261.604 15.6178 261.492 15.424 261.423 15.2141C261.353 15.0043 261.327 14.7828 261.346 14.5627C261.4 14.1224 261.626 13.7201 261.974 13.4402C262.323 13.1604 262.768 13.0248 263.215 13.062C263.463 13.0823 263.702 13.1569 263.917 13.2804L264.625 12.7168L261.341 8.96159C259.7 7.08944 260.434 5.56682 262.988 5.56682H270.997V4.98792C270.759 4.92002 270.544 4.79113 270.373 4.61436C270.217 4.46968 270.092 4.29479 270.006 4.10051C269.921 3.90624 269.877 3.69673 269.877 3.48496C269.877 3.27319 269.921 3.06368 270.006 2.8694C270.092 2.67513 270.217 2.50023 270.373 2.35555C270.693 2.05479 271.118 1.88702 271.559 1.88702C272.001 1.88702 272.425 2.05479 272.745 2.35555C272.899 2.50155 273.022 2.67688 273.106 2.87097C273.19 3.06507 273.233 3.27392 273.233 3.48496C273.233 3.69599 273.19 3.90484 273.106 4.09894C273.022 4.29304 272.899 4.46836 272.745 4.61436C272.574 4.78034 272.369 4.90778 272.143 4.98792V5.56682H275.683V4.98792C275.45 4.9162 275.238 4.78776 275.068 4.61436C274.913 4.46885 274.79 4.29368 274.705 4.09952C274.621 3.90536 274.577 3.69626 274.577 3.48496C274.577 3.27365 274.621 3.06455 274.705 2.87039C274.79 2.67623 274.913 2.50106 275.068 2.35555C275.387 2.05472 275.81 1.8868 276.251 1.8868C276.692 1.8868 277.115 2.05472 277.434 2.35555C277.588 2.50155 277.711 2.67688 277.795 2.87097C277.878 3.06507 277.922 3.27392 277.922 3.48496C277.922 3.69599 277.878 3.90484 277.795 4.09894C277.711 4.29304 277.588 4.46836 277.434 4.61436C277.263 4.77981 277.059 4.90719 276.834 4.98792V5.56682H280.354V4.98792C280.126 4.91145 279.919 4.78355 279.75 4.61436C279.595 4.46885 279.471 4.29368 279.387 4.09952C279.302 3.90536 279.259 3.69626 279.259 3.48496C279.259 3.27365 279.302 3.06455 279.387 2.87039C279.471 2.67623 279.595 2.50106 279.75 2.35555C280.069 2.05458 280.493 1.8866 280.934 1.8866C281.375 1.8866 281.799 2.05458 282.118 2.35555C282.277 2.49884 282.404 2.67328 282.49 2.86774C282.577 3.0622 282.622 3.27241 282.622 3.48496C282.622 3.6975 282.577 3.90771 282.49 4.10217C282.404 4.29663 282.277 4.47107 282.118 4.61436C281.948 4.78767 281.737 4.91613 281.505 4.98792V5.56682H285.045V4.98792C284.812 4.90983 284.6 4.78231 284.423 4.61436C284.268 4.46852 284.145 4.29325 284.061 4.09913C283.977 3.90501 283.934 3.69608 283.934 3.48496C283.934 3.27383 283.977 3.0649 284.061 2.87078C284.145 2.67666 284.268 2.50139 284.423 2.35555C284.745 2.05442 285.172 1.88659 285.616 1.88659C286.059 1.88659 286.486 2.05442 286.808 2.35555C287.003 2.54602 287.144 2.78253 287.219 3.04245C287.294 3.30237 287.301 3.577 287.238 3.84006C287.175 4.10311 287.044 4.34578 286.859 4.54485C286.674 4.74391 286.44 4.89271 286.18 4.977V5.5559H294.532C297.086 5.57556 297.827 7.09818 296.183 8.97033Z" fill="#509ADB"/>
<path d="M270.019 14.2395C269.731 14.2127 269.442 14.297 269.215 14.4749C268.988 14.6528 268.839 14.9105 268.8 15.1942C268.774 15.3771 268.809 15.5633 268.9 15.725L266.831 17.3459C266.677 17.235 266.494 17.1698 266.304 17.1581C266.015 17.1266 265.725 17.2089 265.497 17.3872C265.269 17.5655 265.121 17.8254 265.085 18.1105C265.058 18.4003 265.149 18.6887 265.337 18.913C265.524 19.1373 265.794 19.2793 266.087 19.3081C266.381 19.3369 266.673 19.2502 266.902 19.0668C267.131 18.8834 267.277 18.6182 267.309 18.329C267.327 18.1502 267.302 17.9697 267.236 17.8025L269.278 16.1903C269.435 16.2838 269.613 16.3392 269.796 16.352C269.939 16.3726 270.085 16.3644 270.225 16.3279C270.364 16.2914 270.495 16.2274 270.61 16.1396C270.724 16.0519 270.819 15.9423 270.889 15.8174C270.959 15.6925 271.003 15.5549 271.018 15.4129C271.033 15.2708 271.018 15.1272 270.976 14.9908C270.933 14.8543 270.863 14.7278 270.769 14.6188C270.676 14.5098 270.561 14.4206 270.432 14.3566C270.302 14.2925 270.161 14.2549 270.017 14.2461L270.019 14.2395Z" fill="#509ADB"/>
<path d="M266.911 10.7005C266.62 10.6707 266.33 10.7541 266.101 10.9328C265.872 11.1116 265.723 11.3715 265.685 11.6573C265.678 11.8386 265.714 12.019 265.791 12.1838L263.724 13.8069C263.57 13.6999 263.39 13.6351 263.202 13.619C262.911 13.5891 262.62 13.6719 262.39 13.85C262.159 14.0281 262.008 14.2876 261.968 14.5737C261.951 14.7425 261.973 14.9129 262.033 15.0718C262.093 15.2308 262.189 15.374 262.314 15.4905C262.439 15.607 262.59 15.6936 262.754 15.7438C262.918 15.794 263.091 15.8064 263.261 15.78C263.431 15.7536 263.592 15.6891 263.733 15.5915C263.873 15.4939 263.989 15.3658 264.072 15.2171C264.154 15.0683 264.201 14.9028 264.209 14.7333C264.217 14.5638 264.185 14.3949 264.116 14.2394L266.163 12.6447C266.299 12.7449 266.456 12.8125 266.623 12.8423C266.79 12.872 266.962 12.8631 267.125 12.8162C267.287 12.7693 267.437 12.6857 267.561 12.572C267.686 12.4583 267.782 12.3177 267.842 12.1611C267.902 12.0044 267.925 11.8362 267.908 11.6696C267.891 11.503 267.835 11.3426 267.744 11.201C267.653 11.0594 267.531 10.9404 267.386 10.8536C267.241 10.7667 267.077 10.7143 266.908 10.7005H266.911Z" fill="#509ADB"/>
<path d="M272.34 8.65361C272.44 8.55916 272.52 8.44561 272.575 8.31982C272.629 8.19403 272.657 8.05862 272.657 7.9218C272.657 7.78497 272.629 7.64956 272.575 7.52377C272.52 7.39798 272.44 7.28442 272.34 7.18997C272.21 7.06487 272.051 6.97462 271.876 6.92783V4.47241C272.049 4.42579 272.209 4.33805 272.34 4.21682C272.44 4.12275 272.52 4.00957 272.575 3.88414C272.629 3.75871 272.657 3.62366 272.657 3.48718C272.657 3.35071 272.629 3.21565 272.575 3.09023C272.52 2.9648 272.44 2.85162 272.34 2.75755C272.135 2.56582 271.863 2.45898 271.58 2.45898C271.297 2.45898 271.026 2.56582 270.82 2.75755C270.721 2.85194 270.641 2.96523 270.587 3.09061C270.533 3.216 270.505 3.35089 270.505 3.48718C270.505 3.62348 270.533 3.75837 270.587 3.88375C270.641 4.00914 270.721 4.12243 270.82 4.21682C270.945 4.3352 271.097 4.42213 271.263 4.47023V6.92783C271.089 6.97942 270.931 7.07462 270.806 7.20415C270.68 7.33368 270.591 7.49313 270.546 7.66694C270.502 7.84076 270.503 8.02301 270.551 8.19593C270.599 8.36885 270.692 8.52653 270.82 8.65361C271.027 8.84198 271.299 8.94655 271.58 8.94655C271.862 8.94655 272.133 8.84198 272.34 8.65361Z" fill="#509ADB"/>
<path d="M273.077 17.7958C272.935 17.7803 272.791 17.7927 272.653 17.8322C272.516 17.8717 272.388 17.9376 272.276 18.026C272.165 18.1145 272.072 18.2238 272.003 18.3477C271.934 18.4717 271.891 18.6078 271.876 18.7482C271.853 18.9253 271.88 19.105 271.953 19.2681L269.895 20.8891C269.739 20.7858 269.557 20.7269 269.369 20.7187C269.158 20.7073 268.948 20.7576 268.766 20.8632C268.584 20.9688 268.438 21.125 268.346 21.3123C268.253 21.4997 268.219 21.7098 268.246 21.9163C268.274 22.1229 268.363 22.3168 268.502 22.4738C268.641 22.6307 268.824 22.7437 269.027 22.7986C269.231 22.8536 269.446 22.848 269.647 22.7826C269.847 22.7172 270.024 22.5949 270.154 22.431C270.284 22.2671 270.363 22.0689 270.38 21.8612C270.397 21.6835 270.365 21.5046 270.287 21.3435L272.353 19.7313C272.502 19.8358 272.676 19.8978 272.858 19.9104C273.003 19.9268 273.149 19.9148 273.289 19.8751C273.429 19.8354 273.56 19.7688 273.674 19.6791C273.788 19.5894 273.883 19.4783 273.953 19.3523C274.023 19.2263 274.068 19.0878 274.084 18.9448C274.094 18.8041 274.077 18.6626 274.032 18.5286C273.987 18.3947 273.915 18.2707 273.822 18.164C273.728 18.0572 273.614 17.9698 273.487 17.9066C273.359 17.8434 273.22 17.8057 273.077 17.7958Z" fill="#509ADB"/>
<path d="M277.024 8.64693C277.125 8.55339 277.205 8.4405 277.26 8.31521C277.315 8.18991 277.343 8.05487 277.343 7.91839C277.343 7.78191 277.315 7.64686 277.26 7.52157C277.205 7.39628 277.125 7.28339 277.024 7.18985C276.903 7.06559 276.75 6.97517 276.582 6.9277V4.47228C276.748 4.42471 276.901 4.33687 277.024 4.21669C277.125 4.12295 277.205 4.00987 277.26 3.8844C277.315 3.75893 277.343 3.62372 277.343 3.48706C277.343 3.3504 277.315 3.21518 277.26 3.08971C277.205 2.96424 277.125 2.85116 277.024 2.75742C276.819 2.56441 276.546 2.45679 276.262 2.45679C275.978 2.45679 275.705 2.56441 275.5 2.75742C275.305 2.95168 275.196 3.21385 275.196 3.48706C275.196 3.76026 275.305 4.02244 275.5 4.21669C275.634 4.33738 275.796 4.42495 275.971 4.47228V6.9277C275.794 6.97523 275.632 7.06531 275.5 7.18985C275.308 7.38645 275.201 7.64875 275.201 7.92167C275.201 8.19458 275.308 8.45688 275.5 8.65349C275.708 8.84269 275.98 8.94718 276.263 8.94597C276.546 8.94475 276.818 8.83792 277.024 8.64693Z" fill="#509ADB"/>
<path d="M286.355 8.67539C286.457 8.58156 286.538 8.46796 286.594 8.34167C286.65 8.21538 286.678 8.07912 286.678 7.94139C286.678 7.80365 286.65 7.66739 286.594 7.54111C286.538 7.41482 286.457 7.30122 286.355 7.20738C286.227 7.09483 286.076 7.01065 285.912 6.96053V4.49856C286.078 4.44574 286.229 4.35606 286.355 4.23641C286.457 4.14528 286.538 4.03404 286.594 3.90987C286.65 3.7857 286.679 3.65136 286.679 3.51552C286.679 3.37967 286.65 3.24533 286.594 3.12116C286.538 2.997 286.457 2.88576 286.355 2.79462C286.152 2.59901 285.879 2.4895 285.596 2.4895C285.312 2.4895 285.04 2.59901 284.837 2.79462C284.738 2.88748 284.659 2.99928 284.605 3.12322C284.551 3.24716 284.523 3.38063 284.523 3.51552C284.523 3.6504 284.551 3.78388 284.605 3.90781C284.659 4.03175 284.738 4.14355 284.837 4.23641C284.97 4.35635 285.127 4.44587 285.299 4.49856V6.96053C285.132 7.01277 284.976 7.09661 284.841 7.20738C284.741 7.30254 284.662 7.41657 284.608 7.54268C284.554 7.66878 284.526 7.80438 284.526 7.94139C284.526 8.07839 284.554 8.21399 284.608 8.3401C284.662 8.46621 284.741 8.58024 284.841 8.67539C285.049 8.85962 285.319 8.96151 285.598 8.96151C285.877 8.96151 286.147 8.85962 286.355 8.67539Z" fill="#509ADB"/>
<path d="M281.682 8.65345C281.782 8.55957 281.862 8.44658 281.916 8.32133C281.97 8.19608 281.999 8.06121 281.999 7.92491C281.999 7.78861 281.97 7.65373 281.916 7.52849C281.862 7.40324 281.782 7.29024 281.682 7.19637C281.563 7.06782 281.409 6.97475 281.239 6.92767V4.47225C281.406 4.42493 281.558 4.33705 281.682 4.21666C281.782 4.12259 281.862 4.00941 281.916 3.88398C281.971 3.75855 281.999 3.6235 281.999 3.48702C281.999 3.35055 281.971 3.21549 281.916 3.09006C281.862 2.96464 281.782 2.85146 281.682 2.75739C281.475 2.56792 281.203 2.46265 280.921 2.46265C280.638 2.46265 280.367 2.56792 280.16 2.75739C279.964 2.95108 279.854 3.21347 279.854 3.48702C279.854 3.76057 279.964 4.02296 280.16 4.21666C280.295 4.33652 280.457 4.42396 280.633 4.47225V6.92767C280.454 6.97657 280.29 7.06638 280.153 7.18981C279.958 7.38453 279.848 7.64754 279.848 7.92163C279.848 8.19573 279.958 8.45873 280.153 8.65345C280.361 8.84384 280.634 8.94964 280.917 8.94964C281.201 8.94964 281.474 8.84384 281.682 8.65345Z" fill="#509ADB"/>
<path d="M285.483 18.7242C285.467 18.5081 285.387 18.3015 285.252 18.1306C285.117 17.9598 284.933 17.8325 284.725 17.7648C284.516 17.6972 284.292 17.6923 284.081 17.7507C283.87 17.8092 283.681 17.9284 283.538 18.0932C283.396 18.2579 283.306 18.4608 283.281 18.6761C283.255 18.8913 283.295 19.1091 283.396 19.3018C283.496 19.4945 283.652 19.6534 283.844 19.7583C284.036 19.8631 284.255 19.9093 284.474 19.8907C284.664 19.8706 284.847 19.8062 285.007 19.7029L287.065 21.3173C286.991 21.4827 286.962 21.6638 286.979 21.8437C287.008 22.1334 287.153 22.3997 287.381 22.5841C287.609 22.7684 287.902 22.8557 288.196 22.8268C288.489 22.7978 288.759 22.6549 288.945 22.4296C289.132 22.2043 289.221 21.915 289.191 21.6253C289.163 21.4407 289.088 21.2662 288.973 21.1177C288.859 20.9691 288.708 20.8514 288.536 20.7751C288.363 20.6988 288.174 20.6665 287.985 20.681C287.797 20.6956 287.615 20.7566 287.457 20.8585L285.408 19.2398C285.48 19.078 285.506 18.8996 285.483 18.7242Z" fill="#509ADB"/>
<path d="M288.552 15.1898C288.515 14.907 288.369 14.649 288.144 14.4699C287.92 14.2908 287.634 14.2043 287.346 14.2286C287.2 14.2347 287.058 14.2698 286.927 14.3319C286.795 14.394 286.678 14.4817 286.582 14.5898C286.486 14.6978 286.414 14.824 286.369 14.9606C286.324 15.0972 286.307 15.2414 286.32 15.3845C286.333 15.5276 286.376 15.6666 286.445 15.793C286.514 15.9195 286.608 16.0308 286.722 16.1202C286.836 16.2097 286.967 16.2754 287.107 16.3133C287.247 16.3513 287.394 16.3607 287.538 16.3411C287.729 16.3244 287.912 16.263 288.074 16.1619L290.131 17.7807C290.053 17.9431 290.021 18.1238 290.041 18.3028C290.076 18.5884 290.224 18.8486 290.453 19.0269C290.682 19.2053 290.972 19.2873 291.262 19.2552C291.405 19.2451 291.544 19.2069 291.672 19.1429C291.8 19.079 291.913 18.9905 292.006 18.8827C292.099 18.7749 292.169 18.6499 292.212 18.5151C292.255 18.3803 292.271 18.2383 292.258 18.0974C292.222 17.8152 292.075 17.558 291.85 17.3805C291.625 17.203 291.339 17.1193 291.052 17.1472C290.864 17.1574 290.682 17.217 290.525 17.3197L288.459 15.7054C288.539 15.5457 288.571 15.3669 288.552 15.1898Z" fill="#509ADB"/>
<path d="M291.645 11.642C291.614 11.359 291.471 11.0995 291.248 10.9202C291.024 10.741 290.737 10.6564 290.45 10.6852C290.158 10.7075 289.888 10.8431 289.697 11.0621C289.506 11.2811 289.411 11.5658 289.432 11.8539C289.472 12.1355 289.619 12.3915 289.844 12.5692C290.068 12.7468 290.354 12.8325 290.64 12.8086C290.83 12.7886 291.013 12.725 291.174 12.6229L293.238 14.2351C293.153 14.3985 293.124 14.5849 293.156 14.7659C293.192 15.0486 293.338 15.3063 293.563 15.4842C293.788 15.6622 294.075 15.7462 294.362 15.7184C294.505 15.7085 294.645 15.6705 294.773 15.6065C294.901 15.5425 295.015 15.4539 295.108 15.3458C295.201 15.2377 295.271 15.1124 295.315 14.9772C295.358 14.842 295.373 14.6996 295.36 14.5584C295.327 14.2721 295.181 14.0102 294.953 13.8298C294.726 13.6493 294.435 13.5649 294.145 13.595C293.959 13.617 293.782 13.6846 293.63 13.7916L291.574 12.1598C291.651 11.9984 291.675 11.8177 291.645 11.642Z" fill="#509ADB"/>
<path d="M282.394 22.309C282.361 22.0231 282.215 21.7617 281.987 21.5818C281.76 21.4018 281.469 21.3177 281.18 21.3478C281.034 21.3565 280.892 21.3942 280.761 21.4586C280.63 21.523 280.514 21.6128 280.42 21.7227C280.326 21.8325 280.255 21.96 280.211 22.0977C280.168 22.2353 280.154 22.3801 280.169 22.5234C280.183 22.6667 280.228 22.8056 280.298 22.9316C280.369 23.0577 280.465 23.1683 280.58 23.2568C280.695 23.3453 280.827 23.41 280.968 23.4468C281.109 23.4837 281.256 23.4919 281.401 23.4712C281.59 23.4493 281.772 23.3866 281.934 23.2877L283.985 24.9042C283.911 25.0711 283.88 25.2534 283.894 25.4351C283.933 25.7182 284.082 25.9754 284.309 26.1514C284.537 26.3274 284.826 26.4082 285.114 26.3766C285.256 26.3673 285.396 26.3298 285.524 26.2664C285.651 26.203 285.765 26.1149 285.858 26.0074C285.951 25.8999 286.021 25.7751 286.064 25.6404C286.107 25.5057 286.122 25.3638 286.109 25.2232C286.075 24.936 285.927 24.6737 285.698 24.494C285.469 24.3142 285.177 24.2316 284.886 24.2641C284.705 24.291 284.531 24.3534 284.375 24.4476L282.306 22.8311C282.391 22.6708 282.422 22.4879 282.394 22.309Z" fill="#509ADB"/>
<path d="M276.179 21.3588C276.034 21.3413 275.887 21.3527 275.746 21.3924C275.606 21.4321 275.475 21.4993 275.361 21.59C275.247 21.6806 275.153 21.793 275.084 21.9203C275.015 22.0476 274.973 22.1872 274.96 22.331C274.932 22.5066 274.964 22.6865 275.051 22.8421L272.971 24.4565C272.817 24.3537 272.637 24.2968 272.451 24.2927C272.309 24.275 272.165 24.2855 272.027 24.3235C271.89 24.3615 271.761 24.4262 271.649 24.5139C271.537 24.6016 271.443 24.7104 271.375 24.8341C271.306 24.9578 271.262 25.0938 271.247 25.2342C271.235 25.3756 271.251 25.518 271.294 25.6532C271.338 25.7884 271.408 25.9139 271.501 26.0223C271.593 26.1307 271.707 26.2199 271.835 26.2849C271.962 26.3498 272.102 26.3892 272.245 26.4008C272.536 26.4321 272.827 26.3486 273.056 26.1685C273.284 25.9883 273.431 25.7263 273.464 25.4395C273.485 25.2628 273.45 25.0841 273.362 24.9284L275.44 23.2965C275.587 23.4034 275.761 23.4684 275.942 23.4844C276.087 23.5071 276.235 23.5006 276.378 23.4652C276.52 23.4297 276.654 23.3661 276.77 23.2782C276.887 23.1903 276.984 23.0799 277.057 22.9538C277.129 22.8276 277.174 22.6883 277.19 22.5443C277.206 22.4002 277.193 22.2545 277.15 22.1158C277.107 21.9772 277.036 21.8486 276.942 21.7377C276.847 21.6269 276.731 21.5361 276.6 21.471C276.469 21.4059 276.326 21.3677 276.179 21.3588Z" fill="#509ADB"/>
<path d="M47.4601 41.2469V31.4667H65.2692C68.1455 31.4667 70.4665 29.2494 70.4665 26.5187C70.4665 23.7881 68.1455 21.5642 65.2692 21.5642H42.2583C39.3997 21.5642 37.0698 23.7815 37.0698 26.5144V46.2058C37.0698 48.9387 39.3997 51.1516 42.2583 51.1516H77.1729C80.0492 51.1516 82.3658 48.9387 82.3658 46.2058V46.1949C82.3658 43.4686 80.047 41.2425 77.1729 41.2425L47.4601 41.2469Z" fill="#231F20"/>
<path d="M99.5885 26.9403L85.751 43.0753C85.3166 43.5705 84.9892 44.1483 84.7892 44.773C84.5891 45.3977 84.5206 46.0562 84.5877 46.7081C84.6549 47.3599 84.8563 47.9913 85.1796 48.5635C85.503 49.1356 85.9414 49.6365 86.4679 50.0352C87.5415 50.8692 88.8994 51.2627 90.2592 51.1337C91.6191 51.0047 92.8763 50.3633 93.7694 49.3427L106.299 34.7566L118.845 49.3427C119.738 50.3633 120.995 51.0047 122.355 51.1337C123.715 51.2627 125.073 50.8692 126.146 50.0352C126.672 49.636 127.109 49.1351 127.432 48.5633C127.755 47.9915 127.957 47.3607 128.025 46.7094C128.093 46.058 128.026 45.3999 127.827 44.7751C127.629 44.1503 127.304 43.5719 126.872 43.0753L113.023 26.9403L126.879 10.8293C127.31 10.3308 127.634 9.75094 127.831 9.12495C128.029 8.49896 128.095 7.8399 128.027 7.18779C127.958 6.53567 127.756 5.9041 127.433 5.33141C127.11 4.75872 126.672 4.25686 126.146 3.8563C125.073 3.02202 123.715 2.62823 122.355 2.7568C120.995 2.88536 119.738 3.52638 118.845 4.54661L106.304 19.1284L93.7716 4.54661C92.8782 3.52638 91.6208 2.88536 90.261 2.7568C88.9012 2.62823 87.5435 3.02202 86.4701 3.8563C85.9453 4.2579 85.5087 4.76076 85.1869 5.33426C84.8651 5.90777 84.665 6.53992 84.5985 7.19225C84.5321 7.84457 84.6008 8.50342 84.8004 9.12869C85.0001 9.75397 85.3265 10.3326 85.7599 10.8293L99.5885 26.9403Z" fill="#231F20"/>
<path d="M21.376 19.2397V46.4678C21.376 49.2028 23.697 51.4245 26.5733 51.4245C29.4497 51.4245 31.7618 49.2028 31.7618 46.4678V19.2397C31.7618 16.5068 29.443 14.2852 26.5733 14.2852C23.7036 14.2852 21.376 16.5068 21.376 19.2397Z" fill="#231F20"/>
<path d="M5.21974 11.38H75.4692C78.3301 11.38 80.6533 9.16049 80.6533 6.42108C80.6533 3.68167 78.3234 1.46655 75.4692 1.46655H5.21974C2.35887 1.46655 0.0334473 3.69697 0.0334473 6.4189C0.0334473 9.14083 2.35887 11.38 5.21974 11.38Z" fill="#231F20"/>
<path d="M186.769 51.156H222.258C225.119 51.156 227.442 48.9475 227.442 46.2146V6.42108C227.446 6.36505 227.446 6.30889 227.442 6.25287C227.442 6.12398 227.42 6.03441 227.405 5.91645C227.251 4.68003 226.641 3.54299 225.691 2.72224C224.742 1.9015 223.52 1.45451 222.258 1.46655H186.769C183.892 1.46655 181.573 3.69696 181.573 6.41889C181.573 9.14083 183.901 11.3778 186.769 11.3778H217.054V41.247H191.948V19.9106C191.948 17.169 189.625 14.9473 186.769 14.9473C183.892 14.9473 181.573 17.169 181.573 19.9062V46.2102C181.573 48.9431 183.901 51.156 186.769 51.156Z" fill="#231F20"/>
<path d="M137.545 34.0991C134.682 34.0991 132.346 36.323 132.346 39.058V46.2102C132.346 48.9431 134.682 51.156 137.545 51.156C140.408 51.156 142.738 48.9431 142.738 46.2102V39.058C142.738 36.323 140.417 34.0991 137.545 34.0991Z" fill="#231F20"/>
<path d="M171.593 19.2397C174.453 19.2397 176.777 17.0224 176.777 14.2852V6.58253C176.777 3.85622 174.453 1.63892 171.593 1.63892C168.732 1.63892 166.4 3.85622 166.4 6.58253V14.2852C166.4 17.0224 168.721 19.2463 171.593 19.2397Z" fill="#231F20"/>
<path d="M171.595 21.5641H142.738V6.57813C142.738 3.85183 140.417 1.63452 137.545 1.63452C134.673 1.63452 132.352 3.85183 132.346 6.57813V25.8392C132.346 25.9484 132.346 26.0577 132.346 26.1778C132.346 26.298 132.346 26.3963 132.346 26.5142C132.346 29.2449 134.682 31.4622 137.545 31.4622H166.4V46.2122C166.4 48.9451 168.725 51.158 171.592 51.158C174.46 51.158 176.783 48.9429 176.783 46.21V26.7305C176.779 26.6577 176.779 26.5848 176.783 26.512C176.783 23.7857 174.453 21.5641 171.595 21.5641Z" fill="#231F20"/>
<path d="M242.747 4.55096C242.47 4.21543 242.146 3.92112 241.785 3.67715C241.291 3.03999 240.654 2.5244 239.925 2.17078C239.196 1.81717 238.393 1.63514 237.581 1.63898C234.704 1.63898 232.388 3.85628 232.388 6.58258V46.1992C232.388 48.943 234.713 51.1559 237.576 51.1559C240.439 51.1559 242.785 48.943 242.785 46.1992V20.2032L267.809 49.3536C268.706 50.3735 269.965 51.0138 271.327 51.1419C272.689 51.27 274.048 50.8761 275.124 50.0418C275.648 49.6422 276.084 49.1417 276.407 48.5708C276.729 47.9999 276.931 47.3703 277 46.7201C277.069 46.0699 277.004 45.4126 276.809 44.788C276.613 44.1634 276.291 43.5845 275.863 43.0862L242.747 4.55096Z" fill="#231F20"/>
<path d="M319.466 1.639C318.656 1.6345 317.856 1.81635 317.13 2.17014C316.404 2.52392 315.771 3.03991 315.282 3.67717C314.916 3.92563 314.583 4.21928 314.293 4.55099L281.201 43.0753C280.771 43.5729 280.447 44.1516 280.25 44.7764C280.053 45.4012 279.987 46.0589 280.055 46.7098C280.124 47.3607 280.325 47.9911 280.648 48.5627C280.97 49.1344 281.407 49.6353 281.932 50.0352C282.914 50.7917 284.131 51.1878 285.377 51.1559H305.456C308.332 51.1559 310.666 48.943 310.666 46.2101V46.1992C310.666 43.4729 308.339 41.2468 305.456 41.249H296.187L314.275 20.1945V46.1905C314.275 48.9342 316.605 51.1472 319.466 51.1472C322.327 51.1472 324.668 48.9342 324.665 46.1905V6.58261C324.668 3.8563 322.333 1.639 319.466 1.639Z" fill="#231F20"/>
<path d="M352.621 19.8167C351.665 18.8534 350.371 18.2891 349.005 18.2399C347.64 18.1907 346.307 18.6605 345.282 19.5523C344.785 19.9856 344.381 20.5138 344.096 21.1051C343.811 21.6964 343.65 22.3386 343.623 22.993C343.596 23.6474 343.703 24.3005 343.938 24.9128C344.174 25.5252 344.532 26.0841 344.992 26.556L359.266 41.2492H339.651V11.5394H361.567C364.443 11.5394 366.758 9.31996 366.758 6.57618C366.758 3.8324 364.437 1.63257 361.567 1.63257H335.016C334.912 1.63257 334.821 1.63257 334.728 1.63257C334.635 1.63257 334.531 1.63257 334.434 1.63257C331.575 1.63257 329.252 3.84987 329.252 6.57618V46.2037C329.247 46.5317 329.279 46.8591 329.347 47.1802V47.202C329.414 47.5168 329.515 47.8237 329.648 48.1173V48.1283C329.779 48.423 329.935 48.7059 330.115 48.9737C330.229 49.1361 330.355 49.2902 330.491 49.4346C330.735 49.6902 330.748 49.7011 330.748 49.7011C331.738 50.6312 333.052 51.1497 334.419 51.1495H369.614C369.865 51.1504 370.116 51.1306 370.364 51.0905C371.128 51.2058 371.907 51.1533 372.648 50.9365C373.388 50.7197 374.071 50.3441 374.648 49.8366C375.146 49.4058 375.551 48.8796 375.838 48.2898C376.124 47.7 376.287 47.0589 376.315 46.4054C376.343 45.7518 376.237 45.0994 376.003 44.4876C375.768 43.8758 375.41 43.3174 374.951 42.8461L352.621 19.8167Z" fill="#231F20"/>
</g>
<defs>
<clipPath id="clip0_67_470">
<rect width="376.314" height="51.2427" fill="white" transform="translate(0.0334473 0.188477)"/>
</clipPath>
</defs>
</svg>
