<svg width="377" height="52" viewBox="0 0 377 52" fill="none" xmlns="http://www.w3.org/2000/svg">
<g clip-path="url(#clip0_78_288)">
<path d="M280.856 17.5535C280.841 17.4279 280.776 17.3132 280.676 17.234C280.576 17.1548 280.449 17.1174 280.321 17.1297C280.247 17.1349 280.175 17.1606 280.115 17.204L279.958 17.0773L280.622 16.3258L280.781 16.4613C280.747 16.5155 280.733 16.5794 280.741 16.6426C280.758 16.7683 280.825 16.8824 280.926 16.9604C281.027 17.0384 281.156 17.0741 281.283 17.0598C281.345 17.057 281.405 17.0417 281.459 17.0148C281.514 16.9879 281.563 16.9501 281.602 16.9037C281.642 16.8573 281.671 16.8033 281.688 16.7452C281.705 16.6871 281.71 16.6261 281.702 16.5661C281.685 16.4478 281.624 16.3399 281.532 16.2635C281.439 16.1871 281.32 16.1478 281.199 16.1532C281.121 16.1586 281.045 16.1817 280.978 16.221L280.834 16.0855L280.898 16.0069C281.053 15.819 281.272 15.5874 281.476 15.3515L281.651 15.4738C281.619 15.536 281.609 15.6065 281.622 15.6748C281.625 15.7357 281.641 15.7953 281.669 15.8497C281.696 15.9042 281.735 15.9523 281.783 15.991C281.831 16.0297 281.886 16.0581 281.946 16.0743C282.005 16.0906 282.067 16.0944 282.129 16.0855C282.191 16.084 282.252 16.0698 282.309 16.0438C282.366 16.0179 282.416 15.9807 282.458 15.9346C282.499 15.8885 282.531 15.8345 282.55 15.7759C282.57 15.7173 282.577 15.6554 282.571 15.594C282.557 15.472 282.495 15.3603 282.399 15.2827C282.303 15.2051 282.179 15.1679 282.056 15.1789C281.984 15.1861 281.914 15.2084 281.852 15.2445L281.682 15.1243C281.819 14.9561 281.956 14.8097 282.056 14.6874L282.343 14.3728L282.505 14.4995C282.475 14.5621 282.463 14.6318 282.472 14.7005C282.476 14.7622 282.494 14.8223 282.523 14.8773C282.552 14.9322 282.591 14.9809 282.64 15.0204C282.688 15.0599 282.744 15.0894 282.804 15.1073C282.864 15.1252 282.927 15.1309 282.989 15.1243C283.052 15.1202 283.113 15.1038 283.17 15.0761C283.226 15.0485 283.276 15.01 283.317 14.9631C283.358 14.9162 283.39 14.8617 283.409 14.8027C283.429 14.7438 283.437 14.6816 283.432 14.6197C283.414 14.4978 283.35 14.3872 283.253 14.3105C283.155 14.2338 283.032 14.1967 282.907 14.2068C282.843 14.2112 282.781 14.2306 282.726 14.2636L282.545 14.1369L283.48 13.073C283.923 12.5531 283.702 12.1315 283.016 12.1315H280.69V11.9764C280.764 11.9627 280.83 11.925 280.878 11.8694C280.921 11.8287 280.954 11.7801 280.977 11.7264C281 11.6728 281.012 11.6152 281.012 11.557C281.012 11.4988 281 11.4412 280.977 11.3875C280.954 11.3339 280.921 11.2853 280.878 11.2446C280.788 11.1617 280.67 11.1155 280.547 11.1155C280.423 11.1155 280.305 11.1617 280.215 11.2446C280.134 11.329 280.089 11.4408 280.089 11.557C280.089 11.6732 280.134 11.785 280.215 11.8694C280.265 11.9197 280.329 11.9546 280.398 11.9698V12.1315H279.407V11.9786C279.478 11.9627 279.542 11.9252 279.591 11.8715C279.633 11.8309 279.666 11.7823 279.689 11.7286C279.712 11.675 279.724 11.6174 279.724 11.5592C279.724 11.501 279.712 11.4433 279.689 11.3897C279.666 11.336 279.633 11.2875 279.591 11.2468C279.502 11.1603 279.383 11.1118 279.259 11.1118C279.135 11.1118 279.015 11.1603 278.927 11.2468C278.883 11.2861 278.847 11.3343 278.823 11.3881C278.798 11.4419 278.786 11.5002 278.786 11.5592C278.786 11.6181 278.798 11.6764 278.823 11.7302C278.847 11.7841 278.883 11.8322 278.927 11.8715C278.974 11.9216 279.035 11.9566 279.102 11.972V12.1337H278.119V11.972C278.181 11.9508 278.237 11.9165 278.283 11.8715C278.325 11.8309 278.359 11.7823 278.382 11.7286C278.404 11.675 278.416 11.6174 278.416 11.5592C278.416 11.501 278.404 11.4433 278.382 11.3897C278.359 11.336 278.325 11.2875 278.283 11.2468C278.193 11.1629 278.075 11.1161 277.951 11.1161C277.828 11.1161 277.709 11.1629 277.619 11.2468C277.578 11.2874 277.544 11.3359 277.522 11.3893C277.499 11.4428 277.487 11.5001 277.487 11.5581C277.487 11.616 277.499 11.6734 277.522 11.7268C277.544 11.7802 277.578 11.8287 277.619 11.8694C277.669 11.9154 277.727 11.9518 277.79 11.9764V12.1381H276.827V11.9764C276.892 11.958 276.952 11.9251 277.002 11.8803C277.045 11.8395 277.079 11.7907 277.102 11.7366C277.125 11.6826 277.137 11.6244 277.137 11.5657C277.137 11.507 277.125 11.4489 277.102 11.3948C277.079 11.3408 277.045 11.2919 277.002 11.2511C276.91 11.1679 276.79 11.1218 276.665 11.1218C276.54 11.1218 276.419 11.1679 276.327 11.2511C276.25 11.3374 276.207 11.4485 276.207 11.5635C276.207 11.6786 276.25 11.7897 276.327 11.8759C276.378 11.9227 276.437 11.9591 276.502 11.983V12.1381H274.303C273.581 12.1381 273.389 12.5597 273.845 13.0796L274.745 14.126L274.555 14.2811C274.501 14.2389 274.434 14.2158 274.365 14.2155C274.302 14.2077 274.239 14.2123 274.179 14.2292C274.118 14.246 274.062 14.2746 274.013 14.3134C273.964 14.3522 273.924 14.4004 273.894 14.455C273.864 14.5096 273.846 14.5695 273.841 14.6312C273.835 14.6929 273.842 14.7551 273.861 14.8141C273.88 14.8731 273.911 14.9276 273.953 14.9745C273.994 15.0213 274.044 15.0595 274.1 15.0867C274.157 15.114 274.218 15.1297 274.281 15.1331C274.406 15.1434 274.53 15.1048 274.626 15.0255C274.723 14.9462 274.784 14.8326 274.796 14.7093C274.799 14.6409 274.789 14.5726 274.765 14.5083L274.971 14.3663L275.267 14.6962C275.367 14.8185 275.489 14.9496 275.604 15.109L275.424 15.2532C275.361 15.2171 275.29 15.1948 275.216 15.1877C275.093 15.1772 274.97 15.2147 274.874 15.2923C274.779 15.3698 274.717 15.4812 274.703 15.6027C274.699 15.6638 274.707 15.7251 274.727 15.783C274.747 15.841 274.779 15.8944 274.82 15.9401C274.861 15.9859 274.911 16.0231 274.967 16.0495C275.023 16.076 275.084 16.0912 275.146 16.0943C275.207 16.1018 275.269 16.0971 275.329 16.0804C275.388 16.0637 275.444 16.0353 275.492 15.997C275.54 15.9587 275.58 15.9112 275.609 15.8573C275.638 15.8035 275.656 15.7444 275.661 15.6836C275.661 15.615 275.649 15.547 275.626 15.4826L275.836 15.3384C276.04 15.5765 276.259 15.8277 276.422 16.0156L276.469 16.0768L276.279 16.2297C276.222 16.1847 276.152 16.1607 276.079 16.162C275.956 16.1559 275.835 16.1946 275.739 16.2707C275.643 16.3467 275.578 16.4549 275.557 16.5749C275.552 16.6362 275.56 16.6978 275.58 16.7561C275.6 16.8144 275.631 16.8682 275.673 16.9143C275.714 16.9603 275.764 16.9977 275.82 17.0242C275.876 17.0507 275.938 17.0658 276 17.0686C276.061 17.0758 276.124 17.0706 276.183 17.0534C276.243 17.0361 276.298 17.0071 276.346 16.968C276.394 16.929 276.433 16.8808 276.461 16.8264C276.49 16.772 276.506 16.7124 276.511 16.6513C276.519 16.5902 276.512 16.528 276.491 16.47L276.681 16.3171L277.332 17.0686L277.15 17.2127C277.091 17.1704 277.022 17.1448 276.949 17.1385C276.886 17.1312 276.822 17.1365 276.762 17.1541C276.701 17.1716 276.645 17.201 276.596 17.2406C276.547 17.2801 276.506 17.329 276.477 17.3842C276.448 17.4395 276.43 17.5 276.425 17.5623C276.42 17.685 276.463 17.8049 276.545 17.8969C276.628 17.9889 276.743 18.0459 276.867 18.056C276.99 18.0621 277.111 18.0227 277.206 17.9455C277.301 17.8684 277.363 17.7589 277.38 17.6387C277.387 17.5744 277.379 17.5094 277.356 17.4487L277.549 17.2957L277.841 17.6431C277.94 17.7636 278.065 17.8608 278.207 17.9275C278.349 17.9942 278.504 18.0289 278.661 18.0289C278.819 18.0289 278.974 17.9942 279.116 17.9275C279.258 17.8608 279.383 17.7636 279.482 17.6431L279.768 17.3132L279.923 17.4465C279.905 17.5083 279.899 17.5726 279.905 17.6365C279.92 17.7601 279.984 17.8727 280.083 17.9506C280.181 18.0285 280.306 18.0655 280.432 18.0538C280.552 18.0371 280.663 17.9767 280.741 17.8843C280.82 17.7919 280.861 17.674 280.856 17.5535ZM281.044 16.352C281.093 16.3368 281.142 16.3251 281.193 16.3171C281.232 16.3119 281.272 16.3146 281.31 16.325C281.348 16.3353 281.384 16.3532 281.415 16.3774C281.446 16.4017 281.471 16.4319 281.49 16.4662C281.509 16.5005 281.521 16.5382 281.525 16.577C281.532 16.6551 281.508 16.7329 281.458 16.7938C281.408 16.8547 281.336 16.8937 281.257 16.9025C281.177 16.9101 281.096 16.8869 281.033 16.8376C280.969 16.7884 280.928 16.717 280.916 16.6382C280.911 16.6134 280.911 16.5878 280.917 16.563C280.922 16.5382 280.932 16.5148 280.947 16.494L280.385 16.0396C280.335 16.0684 280.279 16.0841 280.221 16.0855C280.182 16.0907 280.142 16.0878 280.104 16.0769C280.066 16.0661 280.03 16.0476 280 16.0226C279.969 15.9975 279.944 15.9665 279.926 15.9315C279.908 15.8964 279.898 15.8582 279.896 15.819C279.892 15.7815 279.896 15.7436 279.907 15.7076C279.919 15.6716 279.937 15.6383 279.962 15.6097C279.987 15.5811 280.018 15.5578 280.052 15.5412C280.086 15.5246 280.123 15.515 280.162 15.5132C280.202 15.5064 280.243 15.5077 280.282 15.5172C280.321 15.5267 280.358 15.544 280.391 15.5682C280.423 15.5923 280.45 15.6228 280.47 15.6577C280.49 15.6926 280.503 15.7311 280.507 15.7709C280.512 15.821 280.512 15.8716 280.507 15.9217L281.044 16.352ZM281.894 15.3777C281.94 15.3536 281.989 15.3374 282.04 15.3297C282.121 15.3225 282.201 15.3458 282.265 15.3949C282.329 15.4439 282.372 15.515 282.385 15.594C282.391 15.6747 282.364 15.7543 282.311 15.8156C282.257 15.8769 282.181 15.915 282.1 15.9217C282.019 15.9244 281.94 15.8979 281.877 15.8473C281.814 15.7967 281.772 15.7253 281.759 15.6464C281.758 15.6004 281.768 15.5546 281.788 15.5132L281.217 15.05C281.199 15.0692 281.176 15.0844 281.151 15.0945C281.127 15.1047 281.1 15.1096 281.073 15.109C280.993 15.1166 280.913 15.0937 280.85 15.0449C280.787 14.9962 280.745 14.9253 280.732 14.8469C280.73 14.7681 280.758 14.6913 280.811 14.6318C280.863 14.5723 280.936 14.5345 281.016 14.5258C281.056 14.5212 281.097 14.5247 281.136 14.5359C281.175 14.5471 281.211 14.5659 281.242 14.5911C281.274 14.6163 281.3 14.6475 281.319 14.6828C281.338 14.7181 281.35 14.7568 281.354 14.7966C281.351 14.8467 281.339 14.8957 281.317 14.9408L281.894 15.3777ZM282.766 14.4034C282.801 14.3737 282.846 14.3574 282.892 14.3575C282.972 14.3474 283.052 14.3681 283.117 14.4153C283.182 14.4625 283.226 14.5326 283.239 14.611C283.243 14.6895 283.218 14.7667 283.168 14.8277C283.117 14.8887 283.046 14.929 282.967 14.9408C282.927 14.945 282.886 14.9413 282.847 14.9298C282.808 14.9184 282.772 14.8994 282.74 14.874C282.709 14.8486 282.683 14.8173 282.663 14.7819C282.644 14.7465 282.632 14.7077 282.629 14.6678C282.619 14.6198 282.625 14.5701 282.646 14.5258L282.078 14.0648C282.061 14.0867 282.04 14.1044 282.015 14.1165C281.991 14.1287 281.964 14.1349 281.936 14.1347C281.896 14.1386 281.856 14.1345 281.818 14.1226C281.78 14.1107 281.745 14.0913 281.715 14.0656C281.684 14.0398 281.66 14.0083 281.642 13.9728C281.625 13.9374 281.615 13.8988 281.613 13.8595C281.607 13.8217 281.609 13.783 281.619 13.746C281.629 13.709 281.646 13.6744 281.671 13.6447C281.695 13.615 281.726 13.5907 281.761 13.5735C281.795 13.5563 281.833 13.5466 281.872 13.5449C281.952 13.5379 282.033 13.5617 282.096 13.6112C282.159 13.6608 282.201 13.7324 282.213 13.8114C282.218 13.8358 282.218 13.861 282.213 13.8854C282.209 13.9099 282.198 13.933 282.184 13.9534L282.766 14.4034ZM280.332 12.5859C280.371 12.5529 280.414 12.5257 280.46 12.5051V11.8279C280.412 11.822 280.367 11.8005 280.332 11.7667C280.302 11.7411 280.279 11.7095 280.262 11.6741C280.246 11.6387 280.238 11.6002 280.238 11.5613C280.238 11.5225 280.246 11.484 280.262 11.4486C280.279 11.4132 280.302 11.3816 280.332 11.356C280.388 11.3084 280.46 11.2823 280.534 11.2823C280.609 11.2823 280.68 11.3084 280.737 11.356C280.769 11.38 280.795 11.4111 280.813 11.4467C280.831 11.4823 280.84 11.5216 280.84 11.5613C280.84 11.6011 280.831 11.6403 280.813 11.676C280.795 11.7116 280.769 11.7426 280.737 11.7667C280.723 11.7845 280.705 11.7992 280.685 11.8097C280.665 11.8202 280.642 11.8264 280.62 11.8279V12.5029C280.666 12.5178 280.707 12.5468 280.737 12.5859C280.769 12.6088 280.795 12.6388 280.813 12.6736C280.831 12.7083 280.84 12.7468 280.84 12.7858C280.84 12.8248 280.831 12.8632 280.813 12.898C280.795 12.9327 280.769 12.9628 280.737 12.9857C280.682 13.0365 280.609 13.0647 280.533 13.0647C280.458 13.0647 280.385 13.0365 280.33 12.9857C280.301 12.9609 280.277 12.9301 280.261 12.8955C280.245 12.8609 280.237 12.8233 280.237 12.7853C280.237 12.7472 280.246 12.7097 280.262 12.6753C280.279 12.6408 280.302 12.6103 280.332 12.5859ZM279.044 12.575C279.081 12.539 279.128 12.5147 279.179 12.5051V11.8279C279.126 11.8219 279.078 11.7961 279.044 11.7558C279.016 11.7302 278.994 11.6993 278.979 11.6649C278.964 11.6305 278.956 11.5934 278.956 11.5559C278.956 11.5184 278.964 11.4813 278.979 11.4469C278.994 11.4125 279.016 11.3815 279.044 11.356C279.099 11.3016 279.174 11.271 279.252 11.271C279.33 11.271 279.405 11.3016 279.46 11.356C279.489 11.381 279.512 11.4118 279.528 11.4462C279.543 11.4807 279.552 11.5181 279.552 11.5559C279.552 11.5937 279.543 11.6311 279.528 11.6655C279.512 11.7 279.489 11.7308 279.46 11.7558C279.425 11.7859 279.386 11.8103 279.343 11.8279V12.5051C279.385 12.5226 279.425 12.5461 279.46 12.575C279.489 12.6006 279.512 12.6319 279.528 12.6669C279.544 12.7019 279.552 12.7398 279.552 12.7781C279.552 12.8165 279.544 12.8544 279.528 12.8894C279.512 12.9244 279.489 12.9557 279.46 12.9813C279.404 13.0337 279.33 13.0628 279.252 13.0628C279.175 13.0628 279.101 13.0337 279.044 12.9813C279.016 12.9553 278.994 12.924 278.978 12.8892C278.963 12.8545 278.955 12.817 278.954 12.7791C278.954 12.7411 278.961 12.7035 278.976 12.6684C278.991 12.6333 279.012 12.6016 279.04 12.575H279.044ZM277.752 12.575C277.788 12.5427 277.831 12.5188 277.878 12.5051V11.8279C277.831 11.8131 277.788 11.7885 277.752 11.7558C277.725 11.7299 277.703 11.6988 277.688 11.6645C277.674 11.6301 277.666 11.5932 277.666 11.5559C277.666 11.5186 277.674 11.4816 277.688 11.4473C277.703 11.4129 277.725 11.3819 277.752 11.356C277.809 11.3017 277.884 11.2713 277.963 11.2713C278.042 11.2713 278.118 11.3017 278.175 11.356C278.202 11.3819 278.224 11.4129 278.238 11.4473C278.253 11.4816 278.261 11.5186 278.261 11.5559C278.261 11.5932 278.253 11.6301 278.238 11.6645C278.224 11.6988 278.202 11.7299 278.175 11.7558C278.139 11.7889 278.096 11.8135 278.049 11.8279V12.5051C278.095 12.5203 278.138 12.544 278.175 12.575C278.202 12.6014 278.224 12.633 278.239 12.6679C278.254 12.7028 278.261 12.7403 278.261 12.7781C278.261 12.816 278.254 12.8535 278.239 12.8883C278.224 12.9232 278.202 12.9548 278.175 12.9813C278.117 13.0341 278.042 13.0635 277.963 13.0635C277.885 13.0635 277.809 13.0341 277.752 12.9813C277.724 12.9551 277.702 12.9238 277.687 12.889C277.672 12.8543 277.664 12.8169 277.663 12.779C277.663 12.7412 277.67 12.7036 277.685 12.6686C277.699 12.6335 277.721 12.6017 277.748 12.575H277.752ZM276.458 12.575C276.494 12.541 276.538 12.5168 276.586 12.5051V11.8279C276.537 11.8163 276.492 11.7904 276.458 11.7536C276.426 11.7306 276.401 11.7007 276.383 11.6662C276.365 11.6316 276.356 11.5935 276.356 11.5548C276.356 11.5161 276.365 11.4779 276.383 11.4434C276.401 11.4089 276.426 11.3789 276.458 11.356C276.485 11.3289 276.517 11.3074 276.552 11.2927C276.587 11.278 276.625 11.2704 276.664 11.2704C276.702 11.2704 276.74 11.278 276.775 11.2927C276.81 11.3074 276.842 11.3289 276.869 11.356C276.899 11.3802 276.924 11.4106 276.94 11.4452C276.957 11.4798 276.965 11.5176 276.965 11.5559C276.965 11.5942 276.957 11.632 276.94 11.6665C276.924 11.7011 276.899 11.7316 276.869 11.7558C276.838 11.7923 276.795 11.8177 276.748 11.8279V12.5051C276.795 12.5147 276.837 12.5392 276.869 12.575C276.9 12.5995 276.924 12.6305 276.941 12.6657C276.958 12.7008 276.967 12.7392 276.967 12.7781C276.967 12.817 276.958 12.8554 276.941 12.8906C276.924 12.9257 276.9 12.9567 276.869 12.9813C276.814 13.0339 276.74 13.0633 276.664 13.0633C276.587 13.0633 276.513 13.0339 276.458 12.9813C276.426 12.9578 276.4 12.9273 276.382 12.8923C276.364 12.8572 276.354 12.8185 276.354 12.7792C276.353 12.7399 276.362 12.701 276.379 12.6656C276.397 12.6302 276.422 12.5992 276.453 12.575H276.458ZM275.323 14.1347C275.266 14.1358 275.212 14.1172 275.168 14.0823L274.599 14.541C274.621 14.5843 274.629 14.6331 274.621 14.6809C274.61 14.7579 274.57 14.8279 274.508 14.8763C274.446 14.9246 274.368 14.9477 274.289 14.9408C274.211 14.9325 274.139 14.8943 274.088 14.8344C274.038 14.7744 274.013 14.6974 274.019 14.6197C274.022 14.5807 274.033 14.5427 274.051 14.508C274.069 14.4733 274.095 14.4427 274.125 14.4181C274.156 14.3935 274.192 14.3754 274.23 14.365C274.268 14.3546 274.308 14.3521 274.347 14.3575C274.403 14.3617 274.456 14.3806 274.502 14.4122L275.066 13.9643C275.043 13.9166 275.037 13.8629 275.048 13.8114C275.055 13.7347 275.091 13.6635 275.151 13.6135C275.21 13.5635 275.287 13.5389 275.365 13.5449C275.404 13.5476 275.442 13.5579 275.477 13.5753C275.513 13.5926 275.544 13.6166 275.57 13.646C275.596 13.6753 275.615 13.7093 275.628 13.7461C275.64 13.783 275.645 13.8218 275.642 13.8606C275.64 13.8993 275.629 13.9371 275.612 13.9718C275.594 14.0066 275.57 14.0376 275.54 14.063C275.51 14.0885 275.476 14.1079 275.439 14.1202C275.401 14.1325 275.362 14.1374 275.323 14.1347ZM276.177 15.1243C276.135 15.1003 276.068 15.1003 276.028 15.0653L275.464 15.5132C275.467 15.5575 275.467 15.6021 275.464 15.6464C275.46 15.6868 275.448 15.726 275.428 15.7616C275.409 15.7972 275.382 15.8286 275.35 15.8538C275.317 15.8791 275.28 15.8977 275.241 15.9086C275.201 15.9195 275.16 15.9225 275.119 15.9173C275.042 15.9085 274.972 15.8705 274.923 15.8115C274.874 15.7524 274.85 15.6767 274.856 15.6006C274.866 15.5241 274.906 15.4544 274.966 15.4054C275.026 15.3564 275.103 15.3317 275.181 15.3362C275.235 15.3455 275.289 15.3594 275.34 15.3777L275.902 14.9408C275.88 14.897 275.872 14.8475 275.878 14.7988C275.882 14.759 275.894 14.7203 275.913 14.6852C275.933 14.6502 275.96 14.6196 275.992 14.5954C276.024 14.5711 276.061 14.5538 276.101 14.5444C276.14 14.5351 276.181 14.5339 276.221 14.541C276.26 14.5423 276.299 14.5519 276.334 14.5693C276.37 14.5866 276.401 14.6113 276.425 14.6415C276.45 14.6718 276.468 14.707 276.478 14.7447C276.488 14.7824 276.489 14.8217 276.482 14.86C276.471 14.9335 276.434 15.0008 276.377 15.0493C276.32 15.0979 276.248 15.1245 276.172 15.1243H276.177ZM277.013 16.103C276.969 16.0899 276.92 16.0746 276.863 16.0527L276.305 16.4897C276.305 16.5246 276.305 16.5727 276.305 16.6338C276.302 16.673 276.29 16.711 276.271 16.7456C276.253 16.7803 276.227 16.8108 276.196 16.8355C276.165 16.8602 276.129 16.8784 276.091 16.8892C276.053 16.9 276.013 16.903 275.973 16.8982C275.895 16.8873 275.823 16.8479 275.773 16.7877C275.723 16.7274 275.697 16.6507 275.701 16.5727C275.705 16.5342 275.717 16.497 275.737 16.4632C275.756 16.4294 275.782 16.3997 275.812 16.3759C275.843 16.3521 275.879 16.3346 275.917 16.3245C275.955 16.3144 275.994 16.3119 276.033 16.3171C276.088 16.3214 276.142 16.3316 276.194 16.3477L276.748 15.9108C276.733 15.8619 276.727 15.8109 276.73 15.76C276.733 15.7219 276.744 15.6849 276.762 15.651C276.78 15.6172 276.804 15.5873 276.834 15.5632C276.864 15.5391 276.899 15.5212 276.936 15.5108C276.973 15.5003 277.012 15.4974 277.051 15.5022C277.131 15.5061 277.206 15.5398 277.262 15.5966C277.318 15.6534 277.35 15.7289 277.352 15.8081C277.35 15.8498 277.34 15.8909 277.322 15.9286C277.304 15.9664 277.279 16.0002 277.247 16.0278C277.215 16.0555 277.178 16.0764 277.138 16.0893C277.098 16.1022 277.055 16.1069 277.013 16.103ZM277.872 17.0926C277.819 17.0849 277.769 17.063 277.728 17.0292L277.15 17.4858C277.173 17.5319 277.185 17.5829 277.183 17.6344C277.172 17.7105 277.131 17.7793 277.07 17.8268C277.009 17.8743 276.931 17.8969 276.854 17.8899C276.813 17.8884 276.773 17.8786 276.736 17.861C276.7 17.8435 276.667 17.8187 276.64 17.7882C276.614 17.7576 276.594 17.722 276.582 17.6835C276.57 17.645 276.566 17.6045 276.571 17.5644C276.582 17.4865 276.623 17.4159 276.686 17.3674C276.748 17.3189 276.828 17.2964 276.907 17.3045C276.957 17.3079 277.004 17.3253 277.044 17.3547L277.606 16.9178C277.597 16.8724 277.597 16.8257 277.606 16.7802C277.607 16.7418 277.617 16.7041 277.633 16.6694C277.65 16.6346 277.674 16.6036 277.703 16.5783C277.732 16.5529 277.766 16.5337 277.803 16.5218C277.84 16.51 277.879 16.5057 277.918 16.5093C277.999 16.516 278.074 16.5535 278.127 16.6139C278.18 16.6742 278.208 16.7527 278.203 16.8326C278.193 16.9092 278.153 16.9787 278.091 17.0264C278.03 17.0741 277.952 17.0963 277.874 17.0882L277.872 17.0926ZM278.956 17.0292C278.851 17.0772 278.738 17.1011 278.623 17.0992C278.508 17.0973 278.395 17.0697 278.292 17.0183C278.338 16.9543 278.365 16.8785 278.369 16.7999C278.375 16.7408 278.368 16.6814 278.349 16.625C278.331 16.5686 278.302 16.5163 278.263 16.4712C278.224 16.4261 278.176 16.389 278.123 16.3622C278.069 16.3354 278.011 16.3193 277.951 16.3149C277.852 16.3047 277.752 16.3205 277.661 16.3608L277.416 16.0833C277.468 16.0015 277.505 15.9113 277.526 15.8168C277.53 15.6961 277.485 15.5788 277.403 15.4897C277.32 15.4005 277.206 15.3463 277.084 15.3384C276.986 15.3315 276.889 15.3519 276.803 15.3974C276.728 15.2925 276.644 15.2051 276.582 15.1068C276.637 15.0351 276.669 14.9481 276.672 14.8578C276.676 14.7735 276.658 14.6896 276.618 14.6149C276.578 14.5402 276.519 14.4773 276.446 14.4328C276.373 14.3882 276.29 14.3637 276.205 14.3616C276.119 14.3595 276.035 14.38 275.96 14.4209L275.714 14.1325C275.771 14.0565 275.81 13.9693 275.829 13.8769C275.834 13.7544 275.791 13.6348 275.708 13.5431C275.626 13.4515 275.511 13.3949 275.387 13.3854C275.291 13.3794 275.196 13.4006 275.112 13.4466C274.84 13.0883 275.022 12.8262 275.493 12.8262H276.214C276.211 12.8767 276.219 12.9273 276.238 12.9742C276.257 13.0211 276.287 13.0631 276.325 13.0971C276.368 13.1429 276.42 13.1795 276.478 13.2045C276.536 13.2295 276.599 13.2425 276.662 13.2425C276.726 13.2425 276.788 13.2295 276.846 13.2045C276.905 13.1795 276.957 13.1429 277 13.0971C277.074 13.0281 277.119 12.9348 277.128 12.8349H277.491C277.495 12.8853 277.508 12.9345 277.532 12.9795C277.555 13.0245 277.587 13.0645 277.626 13.0971C277.668 13.1436 277.719 13.1808 277.776 13.2063C277.833 13.2318 277.895 13.245 277.958 13.245C278.021 13.245 278.083 13.2318 278.14 13.2063C278.197 13.1808 278.248 13.1436 278.29 13.0971C278.327 13.0639 278.358 13.0235 278.379 12.9785C278.4 12.9334 278.412 12.8846 278.414 12.8349H278.783C278.795 12.9375 278.846 13.0316 278.927 13.0971C278.969 13.1436 279.02 13.1808 279.077 13.2063C279.134 13.2318 279.196 13.245 279.259 13.245C279.322 13.245 279.384 13.2318 279.441 13.2063C279.498 13.1808 279.549 13.1436 279.591 13.0971C279.632 13.0666 279.665 13.0269 279.688 12.9814C279.71 12.9358 279.722 12.8857 279.721 12.8349H280.091C280.096 12.9348 280.141 13.0288 280.215 13.0971C280.256 13.1436 280.307 13.1808 280.365 13.2063C280.422 13.2318 280.484 13.245 280.547 13.245C280.609 13.245 280.671 13.2318 280.729 13.2063C280.786 13.1808 280.837 13.1436 280.878 13.0971C280.919 13.066 280.952 13.0263 280.975 12.9809C280.998 12.9355 281.01 12.8856 281.011 12.8349H281.812C282.31 12.8349 282.46 13.1145 282.186 13.4706C282.095 13.4139 281.988 13.3871 281.881 13.3942C281.757 13.4042 281.642 13.4609 281.56 13.5524C281.477 13.6439 281.434 13.7633 281.438 13.8857C281.446 13.995 281.497 14.0971 281.58 14.1697L281.321 14.4427C281.233 14.3826 281.126 14.3576 281.02 14.3728C280.897 14.3849 280.783 14.4425 280.701 14.534C280.619 14.6256 280.575 14.7443 280.578 14.8665C280.596 14.9718 280.65 15.068 280.73 15.1396C280.635 15.2445 280.553 15.3362 280.482 15.4258C280.385 15.3675 280.273 15.34 280.159 15.3471C280.039 15.3561 279.927 15.4115 279.847 15.5015C279.768 15.5914 279.727 15.7086 279.735 15.8277C279.747 15.9392 279.795 16.0439 279.872 16.127L279.615 16.3979C279.525 16.3365 279.416 16.3101 279.308 16.3236C279.246 16.3256 279.186 16.3402 279.131 16.3662C279.076 16.3923 279.027 16.4294 278.987 16.4752C278.947 16.521 278.917 16.5745 278.899 16.6322C278.881 16.69 278.876 16.7508 278.883 16.8108C278.884 16.8883 278.91 16.9633 278.958 17.0249L278.956 17.0292ZM280.062 17.63C280.052 17.5786 280.058 17.5255 280.078 17.4771L279.502 17.0402C279.464 17.0757 279.415 17.0979 279.363 17.1035C279.283 17.108 279.205 17.0827 279.143 17.0324C279.081 16.9822 279.041 16.9108 279.031 16.8326C279.026 16.7932 279.029 16.7531 279.04 16.7149C279.052 16.6768 279.071 16.6415 279.098 16.6113C279.124 16.5812 279.157 16.5569 279.193 16.5401C279.23 16.5233 279.269 16.5143 279.31 16.5137C279.388 16.5067 279.466 16.5294 279.528 16.5773C279.591 16.6252 279.632 16.6946 279.644 16.7715C279.65 16.8213 279.643 16.872 279.622 16.9178L280.184 17.3547C280.225 17.3257 280.274 17.3083 280.325 17.3045C280.365 17.299 280.405 17.3014 280.444 17.3116C280.482 17.3218 280.518 17.3396 280.549 17.3639C280.581 17.3881 280.607 17.4184 280.626 17.4529C280.646 17.4873 280.658 17.5253 280.662 17.5644C280.666 17.6025 280.662 17.641 280.65 17.6775C280.638 17.714 280.619 17.7478 280.594 17.7768C280.569 17.8059 280.538 17.8295 280.503 17.8463C280.468 17.8631 280.43 17.8728 280.392 17.8747C280.354 17.8812 280.316 17.8799 280.279 17.871C280.242 17.8621 280.208 17.8458 280.177 17.823C280.147 17.8002 280.122 17.7714 280.104 17.7386C280.086 17.7058 280.074 17.6695 280.071 17.6322L280.062 17.63Z" fill="#BE312A"/>
<path d="M281.126 20.7735C281.526 20.7388 281.925 20.8389 282.259 21.0575L283.144 20.0395C282.863 19.7759 282.694 19.4168 282.671 19.0346C282.653 18.817 282.678 18.5981 282.747 18.3904C282.815 18.1828 282.924 17.9906 283.068 17.8249C283.212 17.6593 283.388 17.5236 283.586 17.4256C283.784 17.3277 283.999 17.2694 284.22 17.2542C284.618 17.2143 285.017 17.3124 285.35 17.5317C285.622 17.2127 285.937 16.861 286.235 16.5202C285.954 16.2572 285.778 15.9027 285.74 15.5219C285.722 15.3017 285.749 15.0802 285.819 14.8704C285.889 14.6606 286.001 14.4666 286.147 14.2997C286.294 14.1329 286.473 13.9964 286.673 13.8983C286.873 13.8002 287.092 13.7425 287.315 13.7284C287.704 13.6924 288.094 13.7871 288.421 13.9971L289.306 12.9813C289.035 12.7184 288.87 12.3678 288.839 11.9939C288.82 11.7753 288.845 11.5552 288.913 11.3462C288.981 11.1373 289.09 10.9437 289.234 10.7767C289.378 10.6097 289.554 10.4725 289.752 10.3732C289.951 10.2739 290.167 10.2144 290.388 10.1982C290.777 10.1606 291.168 10.2554 291.494 10.4669C292.497 9.18236 291.937 8.17529 290.167 8.17529H287.262C287.229 8.48907 287.106 8.78715 286.908 9.0348C286.711 9.28245 286.445 9.46948 286.144 9.5741C285.843 9.67872 285.517 9.69662 285.206 9.62572C284.895 9.55482 284.61 9.39803 284.385 9.17362C284.114 8.90612 283.946 8.55266 283.912 8.17529H282.584C282.546 8.55509 282.372 8.90896 282.093 9.17362C281.773 9.47164 281.35 9.63761 280.91 9.63761C280.469 9.63761 280.046 9.47164 279.726 9.17362C279.447 8.91022 279.276 8.55493 279.246 8.17529H277.894C277.858 8.55457 277.686 8.90877 277.409 9.17362C277.088 9.47144 276.664 9.63722 276.223 9.63722C275.783 9.63722 275.359 9.47144 275.037 9.17362C274.763 8.90581 274.59 8.5536 274.546 8.17529H273.219C273.19 8.55584 273.018 8.91193 272.736 9.17362C272.415 9.47144 271.991 9.63722 271.55 9.63722C271.11 9.63722 270.686 9.47144 270.364 9.17362C270.081 8.91298 269.906 8.55676 269.875 8.17529H267.32C265.57 8.17529 264.999 9.14304 265.913 10.3992C266.222 10.2367 266.573 10.1668 266.922 10.1982C267.368 10.2349 267.781 10.4444 268.071 10.7808C268.361 11.1172 268.505 11.5533 268.47 11.9939C268.44 12.3245 268.304 12.6373 268.083 12.8873L269.001 13.9381C269.307 13.7669 269.658 13.6908 270.008 13.7196C270.317 13.7351 270.616 13.8358 270.87 14.0102C271.124 14.1847 271.323 14.426 271.445 14.7067C271.567 14.9875 271.607 15.2964 271.561 15.5984C271.514 15.9004 271.382 16.1835 271.181 16.4154C271.486 16.7627 271.796 17.1232 272.086 17.4596C272.395 17.284 272.751 17.2077 273.106 17.2411C273.328 17.2547 273.545 17.3117 273.744 17.4089C273.943 17.506 274.121 17.6414 274.267 17.8072C274.413 17.9729 274.524 18.1656 274.593 18.3741C274.663 18.5826 274.69 18.8027 274.672 19.0215C274.645 19.3623 274.508 19.6855 274.281 19.9434L275.183 20.9832C275.491 20.8036 275.848 20.7269 276.203 20.7648C276.426 20.7794 276.644 20.8376 276.844 20.9359C277.044 21.0342 277.223 21.1707 277.369 21.3375C277.515 21.5043 277.627 21.698 277.697 21.9076C277.766 22.1171 277.794 22.3383 277.776 22.5583C277.755 22.826 277.659 23.0825 277.498 23.2988C277.855 23.4844 278.251 23.5869 278.655 23.5986C279.058 23.6104 279.46 23.531 279.828 23.3666C279.664 23.1248 279.563 22.8473 279.533 22.5583C279.516 22.3373 279.545 22.1151 279.616 21.905C279.687 21.6949 279.801 21.5009 279.949 21.3346C280.098 21.1683 280.278 21.033 280.48 20.9367C280.682 20.8403 280.902 20.7848 281.126 20.7735ZM277.252 20.0963L274.736 17.2149C274.181 16.5595 273.261 15.5284 272.707 14.8862L270.183 12.0201C269.369 11.1026 269.74 10.362 270.997 10.362H286.421C287.671 10.362 288.034 11.1026 287.233 12.0201L284.722 14.8862C284.158 15.5284 283.233 16.5595 282.673 17.2149L280.153 20.0963C279.977 20.3087 279.756 20.4799 279.505 20.5975C279.254 20.7151 278.98 20.7761 278.702 20.7761C278.425 20.7761 278.151 20.7151 277.9 20.5975C277.649 20.4799 277.428 20.3087 277.252 20.0963Z" fill="#BE312A"/>
<path d="M304.126 0.19043H253.161C249.042 0.19043 247.818 2.64803 250.462 5.68236L258.79 15.2288C260.647 17.3762 263.676 20.8518 265.543 23.0014L273.86 32.5412C276.5 35.5821 280.799 35.5821 283.43 32.5412L291.756 23.0014C293.614 20.8562 296.652 17.3762 298.508 15.2288L306.837 5.68891C309.478 2.64585 308.259 0.19043 304.126 0.19043ZM296.183 8.97009L292.822 12.8083L293.426 13.2867C293.645 13.168 293.886 13.0937 294.134 13.0683C294.583 13.0265 295.032 13.1602 295.382 13.4407C295.733 13.7213 295.959 14.1263 296.01 14.5691C296.028 15.0105 295.873 15.4416 295.576 15.7726C295.28 16.1036 294.866 16.3089 294.42 16.3458C293.974 16.3827 293.531 16.2483 293.183 15.9706C292.835 15.6929 292.609 15.2934 292.552 14.8552C292.528 14.61 292.564 14.3625 292.658 14.1343L292.063 13.6647L291.052 14.8268C290.656 15.2637 290.202 15.7924 289.724 16.3363L290.309 16.8191C290.524 16.6919 290.766 16.617 291.017 16.6007C291.234 16.58 291.454 16.6019 291.664 16.6652C291.873 16.7285 292.068 16.8318 292.237 16.9693C292.405 17.1069 292.545 17.2759 292.648 17.4668C292.751 17.6577 292.814 17.8666 292.835 18.0818C292.856 18.2969 292.834 18.5141 292.77 18.7208C292.706 18.9274 292.601 19.1196 292.462 19.2864C292.323 19.4531 292.151 19.5912 291.958 19.6926C291.765 19.794 291.553 19.8568 291.335 19.8775C291.112 19.9024 290.885 19.8836 290.669 19.822C290.453 19.7605 290.251 19.6576 290.075 19.519C289.899 19.3804 289.753 19.209 289.644 19.0145C289.535 18.82 289.466 18.6062 289.441 18.3854C289.423 18.14 289.46 17.8935 289.552 17.6645L288.961 17.2058C288.2 18.0621 287.443 18.9338 286.859 19.5848L286.638 19.8775L287.215 20.3406C287.434 20.2186 287.677 20.1442 287.928 20.1221C288.151 20.0952 288.377 20.1128 288.593 20.1738C288.809 20.2348 289.01 20.3379 289.185 20.4772C289.359 20.6164 289.504 20.7888 289.61 20.9843C289.716 21.1797 289.781 21.3942 289.801 21.615C289.822 21.8358 289.797 22.0583 289.729 22.2695C289.661 22.4807 289.55 22.6762 289.404 22.8444C289.258 23.0126 289.079 23.1501 288.877 23.2488C288.676 23.3474 288.457 23.4052 288.233 23.4186C287.782 23.4587 287.332 23.3234 286.98 23.0416C286.628 22.7597 286.401 22.3534 286.348 21.9091C286.322 21.6671 286.357 21.4225 286.45 21.1969L285.87 20.7316L283.511 23.4186L284.085 23.8839C284.308 23.7509 284.559 23.6709 284.819 23.6502C285.27 23.6052 285.72 23.7369 286.074 24.0168C286.427 24.2967 286.655 24.7024 286.709 25.1466C286.739 25.5898 286.59 26.0268 286.296 26.3627C286.001 26.6985 285.584 26.906 285.135 26.9401C284.685 26.9819 284.236 26.8477 283.884 26.5664C283.533 26.285 283.307 25.8788 283.255 25.4349C283.227 25.2024 283.258 24.9667 283.346 24.749L282.759 24.2902L281.735 25.4612C280.093 27.3289 277.436 27.3289 275.807 25.4612L274.701 24.2138L274.017 24.749C274.102 24.9675 274.134 25.2021 274.112 25.4349C274.061 25.8782 273.836 26.284 273.485 26.5654C273.135 26.8467 272.686 26.9812 272.236 26.9401C272.013 26.9249 271.796 26.8663 271.596 26.7679C271.396 26.6694 271.218 26.533 271.071 26.3663C270.925 26.1997 270.813 26.0062 270.743 25.7969C270.672 25.5875 270.645 25.3666 270.661 25.1466C270.713 24.7032 270.94 24.2978 271.292 24.0179C271.644 23.738 272.094 23.6059 272.544 23.6502C272.803 23.6718 273.053 23.7518 273.276 23.8839L273.94 23.3531L271.583 20.6595L270.895 21.2035C270.984 21.4277 271.021 21.6689 271.004 21.9091C270.953 22.3525 270.728 22.7587 270.378 23.0408C270.028 23.3229 269.58 23.4585 269.13 23.4186C268.681 23.3856 268.263 23.1789 267.967 22.8435C267.671 22.5082 267.521 22.0711 267.55 21.6273C267.602 21.1841 267.828 20.7786 268.179 20.4974C268.53 20.2162 268.978 20.0815 269.428 20.1221C269.678 20.1404 269.92 20.2152 270.136 20.3406L270.829 19.7923L270.652 19.5738C270.057 18.9185 269.274 18.0141 268.495 17.114L267.8 17.6711C267.89 17.8942 267.926 18.1352 267.904 18.3745C267.853 18.8156 267.628 19.2191 267.278 19.4982C266.929 19.7773 266.482 19.9096 266.034 19.8666C265.812 19.8532 265.595 19.7967 265.396 19.7002C265.196 19.6037 265.017 19.4691 264.871 19.3042C264.724 19.1393 264.611 18.9474 264.54 18.7395C264.469 18.5316 264.44 18.3118 264.455 18.0927C264.505 17.649 264.73 17.2428 265.082 16.9622C265.433 16.6816 265.883 16.5494 266.333 16.5941C266.586 16.6117 266.831 16.6865 267.05 16.8126L267.734 16.2643C267.291 15.7378 266.849 15.2375 266.492 14.8203L265.386 13.5795L264.682 14.1278C264.782 14.3544 264.818 14.6035 264.786 14.8487C264.764 15.0679 264.698 15.2806 264.593 15.4746C264.487 15.6686 264.343 15.84 264.17 15.9789C263.997 16.1178 263.798 16.2215 263.584 16.284C263.37 16.3464 263.145 16.3665 262.923 16.3429C262.7 16.3322 262.481 16.2772 262.28 16.1812C262.078 16.0851 261.899 15.9499 261.751 15.7837C261.604 15.6175 261.492 15.4237 261.423 15.2139C261.353 15.0041 261.327 14.7825 261.346 14.5625C261.4 14.1222 261.626 13.7198 261.974 13.44C262.323 13.1601 262.768 13.0245 263.215 13.0617C263.463 13.082 263.702 13.1567 263.917 13.2802L264.625 12.7166L261.341 8.96135C259.7 7.0892 260.434 5.56658 262.988 5.56658H270.997V4.98767C270.759 4.91977 270.544 4.79088 270.373 4.61412C270.217 4.46944 270.092 4.29454 270.006 4.10027C269.921 3.90599 269.877 3.69648 269.877 3.48471C269.877 3.27294 269.921 3.06343 270.006 2.86916C270.092 2.67488 270.217 2.49999 270.373 2.35531C270.693 2.05455 271.118 1.88677 271.559 1.88677C272.001 1.88677 272.425 2.05455 272.745 2.35531C272.899 2.50131 273.022 2.67663 273.106 2.87073C273.19 3.06482 273.233 3.27368 273.233 3.48471C273.233 3.69575 273.19 3.9046 273.106 4.0987C273.022 4.29279 272.899 4.46812 272.745 4.61412C272.574 4.7801 272.369 4.90754 272.143 4.98767V5.56658H275.683V4.98767C275.45 4.91596 275.238 4.78752 275.068 4.61412C274.913 4.46861 274.79 4.29344 274.705 4.09927C274.621 3.90511 274.577 3.69602 274.577 3.48471C274.577 3.27341 274.621 3.06431 274.705 2.87015C274.79 2.67599 274.913 2.50082 275.068 2.35531C275.387 2.05448 275.81 1.88656 276.251 1.88656C276.692 1.88656 277.115 2.05448 277.434 2.35531C277.588 2.50131 277.711 2.67663 277.795 2.87073C277.878 3.06482 277.922 3.27368 277.922 3.48471C277.922 3.69575 277.878 3.9046 277.795 4.0987C277.711 4.29279 277.588 4.46812 277.434 4.61412C277.263 4.77956 277.059 4.90695 276.834 4.98767V5.56658H280.354V4.98767C280.126 4.91121 279.919 4.78331 279.75 4.61412C279.595 4.46861 279.471 4.29344 279.387 4.09927C279.302 3.90511 279.259 3.69602 279.259 3.48471C279.259 3.27341 279.302 3.06431 279.387 2.87015C279.471 2.67599 279.595 2.50082 279.75 2.35531C280.069 2.05433 280.493 1.88635 280.934 1.88635C281.375 1.88635 281.799 2.05433 282.118 2.35531C282.277 2.4986 282.404 2.67304 282.49 2.8675C282.577 3.06196 282.622 3.27217 282.622 3.48471C282.622 3.69726 282.577 3.90746 282.49 4.10192C282.404 4.29638 282.277 4.47083 282.118 4.61412C281.948 4.78743 281.737 4.91589 281.505 4.98767V5.56658H285.045V4.98767C284.812 4.90959 284.6 4.78207 284.423 4.61412C284.268 4.46828 284.145 4.29301 284.061 4.09889C283.977 3.90477 283.934 3.69584 283.934 3.48471C283.934 3.27359 283.977 3.06465 284.061 2.87053C284.145 2.67642 284.268 2.50115 284.423 2.35531C284.745 2.05417 285.172 1.88635 285.616 1.88635C286.059 1.88635 286.486 2.05417 286.808 2.35531C287.003 2.54578 287.144 2.78229 287.219 3.04221C287.294 3.30213 287.301 3.57676 287.238 3.83981C287.175 4.10287 287.044 4.34554 286.859 4.5446C286.674 4.74367 286.44 4.89247 286.18 4.97675V5.55565H294.532C297.086 5.57531 297.827 7.09794 296.183 8.97009Z" fill="#BE312A"/>
<path d="M270.019 14.2393C269.731 14.2124 269.442 14.2967 269.215 14.4746C268.988 14.6525 268.839 14.9103 268.8 15.1939C268.774 15.3768 268.809 15.563 268.9 15.7248L266.831 17.3457C266.677 17.2347 266.494 17.1695 266.304 17.1578C266.015 17.1264 265.725 17.2087 265.497 17.387C265.269 17.5653 265.121 17.8251 265.085 18.1103C265.058 18.4 265.149 18.6884 265.337 18.9127C265.524 19.137 265.794 19.2791 266.087 19.3079C266.381 19.3367 266.673 19.2499 266.902 19.0666C267.131 18.8832 267.277 18.618 267.309 18.3287C267.327 18.15 267.302 17.9695 267.236 17.8023L269.278 16.1901C269.435 16.2836 269.613 16.339 269.796 16.3517C269.939 16.3723 270.085 16.3641 270.225 16.3276C270.364 16.2911 270.495 16.2271 270.61 16.1394C270.724 16.0517 270.819 15.9421 270.889 15.8172C270.959 15.6923 271.003 15.5547 271.018 15.4126C271.033 15.2706 271.018 15.127 270.976 14.9905C270.933 14.8541 270.863 14.7276 270.769 14.6186C270.676 14.5096 270.561 14.4204 270.432 14.3563C270.302 14.2923 270.161 14.2547 270.017 14.2458L270.019 14.2393Z" fill="#BE312A"/>
<path d="M266.911 10.7007C266.62 10.671 266.33 10.7544 266.101 10.9331C265.872 11.1118 265.723 11.3718 265.685 11.6576C265.678 11.8389 265.714 12.0193 265.791 12.184L263.724 13.8071C263.57 13.7001 263.39 13.6353 263.202 13.6193C262.911 13.5893 262.62 13.6721 262.39 13.8502C262.159 14.0283 262.008 14.2878 261.968 14.5739C261.951 14.7427 261.973 14.9131 262.033 15.0721C262.093 15.231 262.189 15.3742 262.314 15.4907C262.439 15.6072 262.59 15.6939 262.754 15.7441C262.918 15.7943 263.091 15.8066 263.261 15.7802C263.431 15.7538 263.592 15.6893 263.733 15.5918C263.873 15.4942 263.989 15.3661 264.072 15.2173C264.154 15.0685 264.201 14.903 264.209 14.7336C264.217 14.5641 264.185 14.3951 264.116 14.2397L266.163 12.645C266.299 12.7451 266.456 12.8127 266.623 12.8425C266.79 12.8723 266.962 12.8633 267.125 12.8165C267.287 12.7696 267.437 12.686 267.561 12.5723C267.686 12.4586 267.782 12.3179 267.842 12.1613C267.902 12.0047 267.925 11.8365 267.908 11.6699C267.891 11.5032 267.835 11.3428 267.744 11.2012C267.653 11.0596 267.531 10.9407 267.386 10.8538C267.241 10.767 267.077 10.7146 266.908 10.7007H266.911Z" fill="#BE312A"/>
<path d="M272.34 8.65361C272.44 8.55916 272.52 8.44561 272.575 8.31982C272.629 8.19403 272.657 8.05862 272.657 7.9218C272.657 7.78497 272.629 7.64956 272.575 7.52377C272.52 7.39798 272.44 7.28442 272.34 7.18997C272.21 7.06487 272.051 6.97462 271.876 6.92783V4.47241C272.049 4.42579 272.209 4.33805 272.34 4.21682C272.44 4.12275 272.52 4.00957 272.575 3.88414C272.629 3.75871 272.657 3.62366 272.657 3.48718C272.657 3.35071 272.629 3.21565 272.575 3.09023C272.52 2.9648 272.44 2.85162 272.34 2.75755C272.135 2.56582 271.863 2.45898 271.58 2.45898C271.297 2.45898 271.026 2.56582 270.82 2.75755C270.721 2.85194 270.641 2.96523 270.587 3.09061C270.533 3.216 270.505 3.35089 270.505 3.48718C270.505 3.62348 270.533 3.75837 270.587 3.88375C270.641 4.00914 270.721 4.12243 270.82 4.21682C270.945 4.3352 271.097 4.42213 271.263 4.47023V6.92783C271.089 6.97942 270.931 7.07462 270.806 7.20415C270.68 7.33368 270.591 7.49313 270.546 7.66694C270.502 7.84076 270.503 8.02301 270.551 8.19593C270.599 8.36885 270.692 8.52653 270.82 8.65361C271.027 8.84198 271.299 8.94655 271.58 8.94655C271.862 8.94655 272.133 8.84198 272.34 8.65361Z" fill="#BE312A"/>
<path d="M273.077 17.796C272.935 17.7805 272.791 17.7929 272.653 17.8324C272.516 17.8719 272.388 17.9378 272.276 18.0263C272.165 18.1147 272.072 18.2241 272.003 18.348C271.934 18.4719 271.891 18.608 271.876 18.7485C271.853 18.9255 271.88 19.1053 271.953 19.2684L269.895 20.8893C269.739 20.786 269.557 20.7271 269.369 20.7189C269.158 20.7076 268.948 20.7578 268.766 20.8634C268.584 20.969 268.438 21.1252 268.346 21.3126C268.253 21.4999 268.219 21.71 268.246 21.9166C268.274 22.1232 268.363 22.3171 268.502 22.474C268.641 22.6309 268.824 22.7439 269.027 22.7989C269.231 22.8538 269.446 22.8482 269.647 22.7829C269.847 22.7175 270.024 22.5952 270.154 22.4313C270.284 22.2674 270.363 22.0692 270.38 21.8614C270.397 21.6837 270.365 21.5048 270.287 21.3437L272.353 19.7315C272.502 19.836 272.676 19.898 272.858 19.9106C273.003 19.927 273.149 19.9151 273.289 19.8754C273.429 19.8357 273.56 19.769 273.674 19.6793C273.788 19.5896 273.883 19.4786 273.953 19.3525C274.023 19.2265 274.068 19.0881 274.084 18.9451C274.094 18.8043 274.077 18.6629 274.032 18.5289C273.987 18.3949 273.915 18.271 273.822 18.1642C273.728 18.0575 273.614 17.97 273.487 17.9068C273.359 17.8436 273.22 17.806 273.077 17.796Z" fill="#BE312A"/>
<path d="M277.024 8.64669C277.125 8.55314 277.205 8.44025 277.26 8.31496C277.315 8.18967 277.343 8.05463 277.343 7.91815C277.343 7.78166 277.315 7.64662 277.26 7.52133C277.205 7.39604 277.125 7.28315 277.024 7.1896C276.903 7.06534 276.75 6.97492 276.582 6.92746V4.47204C276.748 4.42447 276.901 4.33662 277.024 4.21645C277.125 4.12271 277.205 4.00963 277.26 3.88416C277.315 3.75869 277.343 3.62347 277.343 3.48681C277.343 3.35015 277.315 3.21494 277.26 3.08946C277.205 2.96399 277.125 2.85092 277.024 2.75718C276.819 2.56417 276.546 2.45654 276.262 2.45654C275.978 2.45654 275.705 2.56417 275.5 2.75718C275.305 2.95143 275.196 3.21361 275.196 3.48681C275.196 3.76001 275.305 4.02219 275.5 4.21645C275.634 4.33713 275.796 4.42471 275.971 4.47204V6.92746C275.794 6.97499 275.632 7.06506 275.5 7.1896C275.308 7.38621 275.201 7.64851 275.201 7.92142C275.201 8.19434 275.308 8.45664 275.5 8.65324C275.708 8.84245 275.98 8.94694 276.263 8.94572C276.546 8.94451 276.818 8.83767 277.024 8.64669Z" fill="#BE312A"/>
<path d="M286.355 8.67564C286.457 8.5818 286.538 8.4682 286.594 8.34191C286.65 8.21563 286.678 8.07937 286.678 7.94163C286.678 7.8039 286.65 7.66764 286.594 7.54135C286.538 7.41507 286.457 7.30146 286.355 7.20763C286.227 7.09507 286.076 7.0109 285.912 6.96077V4.4988C286.078 4.44598 286.229 4.3563 286.355 4.23666C286.457 4.14552 286.538 4.03428 286.594 3.91012C286.65 3.78595 286.679 3.65161 286.679 3.51576C286.679 3.37991 286.65 3.24557 286.594 3.12141C286.538 2.99724 286.457 2.886 286.355 2.79486C286.152 2.59925 285.879 2.48975 285.596 2.48975C285.312 2.48975 285.04 2.59925 284.837 2.79486C284.738 2.88773 284.659 2.99953 284.605 3.12346C284.551 3.2474 284.523 3.38088 284.523 3.51576C284.523 3.65065 284.551 3.78412 284.605 3.90806C284.659 4.03199 284.738 4.14379 284.837 4.23666C284.97 4.3566 285.127 4.44612 285.299 4.4988V6.96077C285.132 7.01301 284.976 7.09685 284.841 7.20763C284.741 7.30278 284.662 7.41681 284.608 7.54292C284.554 7.66903 284.526 7.80463 284.526 7.94163C284.526 8.07864 284.554 8.21424 284.608 8.34035C284.662 8.46646 284.741 8.58049 284.841 8.67564C285.049 8.85986 285.319 8.96176 285.598 8.96176C285.877 8.96176 286.147 8.85986 286.355 8.67564Z" fill="#BE312A"/>
<path d="M281.682 8.6537C281.782 8.55982 281.862 8.44682 281.916 8.32157C281.97 8.19633 281.999 8.06145 281.999 7.92515C281.999 7.78885 281.97 7.65398 281.916 7.52873C281.862 7.40348 281.782 7.29049 281.682 7.19661C281.563 7.06807 281.409 6.975 281.239 6.92791V4.47249C281.406 4.42518 281.558 4.3373 281.682 4.2169C281.782 4.12283 281.862 4.00965 281.916 3.88422C281.971 3.7588 281.999 3.62374 281.999 3.48727C281.999 3.35079 281.971 3.21574 281.916 3.09031C281.862 2.96488 281.782 2.8517 281.682 2.75763C281.475 2.56816 281.203 2.46289 280.921 2.46289C280.638 2.46289 280.367 2.56816 280.16 2.75763C279.964 2.95133 279.854 3.21372 279.854 3.48727C279.854 3.76082 279.964 4.0232 280.16 4.2169C280.295 4.33676 280.457 4.4242 280.633 4.47249V6.92791C280.454 6.97681 280.29 7.06662 280.153 7.19006C279.958 7.38478 279.848 7.64778 279.848 7.92188C279.848 8.19597 279.958 8.45898 280.153 8.6537C280.361 8.84409 280.634 8.94989 280.917 8.94989C281.201 8.94989 281.474 8.84409 281.682 8.6537Z" fill="#BE312A"/>
<path d="M285.483 18.7245C285.467 18.5083 285.387 18.3017 285.252 18.1309C285.117 17.96 284.933 17.8327 284.725 17.765C284.516 17.6974 284.292 17.6925 284.081 17.751C283.87 17.8094 283.681 17.9286 283.538 18.0934C283.396 18.2582 283.306 18.4611 283.281 18.6763C283.255 18.8915 283.295 19.1093 283.396 19.302C283.496 19.4947 283.652 19.6536 283.844 19.7585C284.036 19.8634 284.255 19.9095 284.474 19.891C284.664 19.8709 284.847 19.8065 285.007 19.7031L287.065 21.3175C286.991 21.4829 286.962 21.6641 286.979 21.844C287.008 22.1337 287.153 22.4 287.381 22.5843C287.609 22.7687 287.902 22.856 288.196 22.827C288.489 22.798 288.759 22.6552 288.945 22.4299C289.132 22.2045 289.221 21.9152 289.191 21.6255C289.163 21.441 289.088 21.2665 288.973 21.1179C288.859 20.9694 288.708 20.8516 288.536 20.7753C288.363 20.699 288.174 20.6667 287.985 20.6813C287.797 20.6959 287.615 20.7569 287.457 20.8587L285.408 19.24C285.48 19.0782 285.506 18.8999 285.483 18.7245Z" fill="#BE312A"/>
<path d="M288.552 15.1898C288.515 14.907 288.369 14.649 288.144 14.4699C287.92 14.2908 287.634 14.2043 287.346 14.2286C287.2 14.2347 287.058 14.2698 286.927 14.3319C286.795 14.394 286.678 14.4817 286.582 14.5898C286.486 14.6978 286.414 14.824 286.369 14.9606C286.324 15.0972 286.307 15.2414 286.32 15.3845C286.333 15.5276 286.376 15.6666 286.445 15.793C286.514 15.9195 286.608 16.0308 286.722 16.1202C286.836 16.2097 286.967 16.2754 287.107 16.3133C287.247 16.3513 287.394 16.3607 287.538 16.3411C287.729 16.3244 287.912 16.263 288.074 16.1619L290.131 17.7807C290.053 17.9431 290.021 18.1238 290.041 18.3028C290.076 18.5884 290.224 18.8486 290.453 19.0269C290.682 19.2053 290.972 19.2873 291.262 19.2552C291.405 19.2451 291.544 19.2069 291.672 19.1429C291.8 19.079 291.913 18.9905 292.006 18.8827C292.099 18.7749 292.169 18.6499 292.212 18.5151C292.255 18.3803 292.271 18.2383 292.258 18.0974C292.222 17.8152 292.075 17.558 291.85 17.3805C291.625 17.203 291.339 17.1193 291.052 17.1472C290.864 17.1574 290.682 17.217 290.525 17.3197L288.459 15.7054C288.539 15.5457 288.571 15.3669 288.552 15.1898Z" fill="#BE312A"/>
<path d="M291.645 11.642C291.614 11.359 291.471 11.0995 291.248 10.9202C291.024 10.741 290.737 10.6564 290.45 10.6852C290.158 10.7075 289.888 10.8431 289.697 11.0621C289.506 11.2811 289.411 11.5658 289.432 11.8539C289.472 12.1355 289.619 12.3915 289.844 12.5692C290.068 12.7468 290.354 12.8325 290.64 12.8086C290.83 12.7886 291.013 12.725 291.174 12.6229L293.238 14.2351C293.153 14.3985 293.124 14.5849 293.156 14.7659C293.192 15.0486 293.338 15.3063 293.563 15.4842C293.788 15.6622 294.075 15.7462 294.362 15.7184C294.505 15.7085 294.645 15.6705 294.773 15.6065C294.901 15.5425 295.015 15.4539 295.108 15.3458C295.201 15.2377 295.271 15.1124 295.315 14.9772C295.358 14.842 295.373 14.6996 295.36 14.5584C295.327 14.2721 295.181 14.0102 294.953 13.8298C294.726 13.6493 294.435 13.5649 294.145 13.595C293.959 13.617 293.782 13.6846 293.63 13.7916L291.574 12.1598C291.651 11.9984 291.675 11.8177 291.645 11.642Z" fill="#BE312A"/>
<path d="M282.394 22.309C282.361 22.0231 282.215 21.7617 281.987 21.5818C281.76 21.4018 281.469 21.3177 281.18 21.3478C281.034 21.3565 280.892 21.3942 280.761 21.4586C280.63 21.523 280.514 21.6128 280.42 21.7227C280.326 21.8325 280.255 21.96 280.211 22.0977C280.168 22.2353 280.154 22.3801 280.169 22.5234C280.183 22.6667 280.228 22.8056 280.298 22.9316C280.369 23.0577 280.465 23.1683 280.58 23.2568C280.695 23.3453 280.827 23.41 280.968 23.4468C281.109 23.4837 281.256 23.4919 281.401 23.4712C281.59 23.4493 281.772 23.3866 281.934 23.2877L283.985 24.9042C283.911 25.0711 283.88 25.2534 283.894 25.4351C283.933 25.7182 284.082 25.9754 284.309 26.1514C284.537 26.3274 284.826 26.4082 285.114 26.3766C285.256 26.3673 285.396 26.3298 285.524 26.2664C285.651 26.203 285.765 26.1149 285.858 26.0074C285.951 25.8999 286.021 25.7751 286.064 25.6404C286.107 25.5057 286.122 25.3638 286.109 25.2232C286.075 24.936 285.927 24.6737 285.698 24.494C285.469 24.3142 285.177 24.2316 284.886 24.2641C284.705 24.291 284.531 24.3534 284.375 24.4476L282.306 22.8311C282.391 22.6708 282.422 22.4879 282.394 22.309Z" fill="#BE312A"/>
<path d="M276.179 21.3591C276.034 21.3415 275.887 21.3529 275.746 21.3926C275.606 21.4323 275.475 21.4995 275.361 21.5902C275.247 21.6809 275.153 21.7932 275.084 21.9205C275.015 22.0478 274.973 22.1875 274.96 22.3312C274.932 22.5068 274.964 22.6867 275.051 22.8424L272.971 24.4568C272.817 24.354 272.637 24.2971 272.451 24.2929C272.309 24.2753 272.165 24.2858 272.027 24.3237C271.89 24.3617 271.761 24.4265 271.649 24.5141C271.537 24.6018 271.443 24.7107 271.375 24.8343C271.306 24.958 271.262 25.094 271.247 25.2344C271.235 25.3758 271.251 25.5182 271.294 25.6534C271.338 25.7887 271.408 25.9141 271.501 26.0225C271.593 26.1309 271.707 26.2201 271.835 26.2851C271.962 26.35 272.102 26.3894 272.245 26.401C272.536 26.4323 272.827 26.3488 273.056 26.1687C273.284 25.9886 273.431 25.7265 273.464 25.4398C273.485 25.2631 273.45 25.0844 273.362 24.9286L275.44 23.2968C275.587 23.4036 275.761 23.4686 275.942 23.4846C276.087 23.5074 276.235 23.5008 276.378 23.4654C276.52 23.43 276.654 23.3664 276.77 23.2785C276.887 23.1906 276.984 23.0802 277.057 22.954C277.129 22.8279 277.174 22.6885 277.19 22.5445C277.206 22.4005 277.193 22.2547 277.15 22.1161C277.107 21.9774 277.036 21.8488 276.942 21.738C276.847 21.6271 276.731 21.5364 276.6 21.4713C276.469 21.4061 276.326 21.368 276.179 21.3591Z" fill="#BE312A"/>
<path d="M47.4601 41.2467V31.4665H65.2692C68.1455 31.4665 70.4665 29.2492 70.4665 26.5185C70.4665 23.7878 68.1455 21.564 65.2692 21.564H42.2583C39.3997 21.564 37.0698 23.7813 37.0698 26.5141V46.2055C37.0698 48.9384 39.3997 51.1513 42.2583 51.1513H77.1729C80.0492 51.1513 82.3658 48.9384 82.3658 46.2055V46.1946C82.3658 43.4683 80.047 41.2423 77.1729 41.2423L47.4601 41.2467Z" fill="#231F20"/>
<path d="M99.5885 26.9403L85.751 43.0753C85.3166 43.5705 84.9892 44.1483 84.7892 44.773C84.5891 45.3977 84.5206 46.0562 84.5877 46.7081C84.6549 47.3599 84.8563 47.9913 85.1796 48.5635C85.503 49.1356 85.9414 49.6365 86.4679 50.0352C87.5415 50.8692 88.8994 51.2627 90.2592 51.1337C91.6191 51.0047 92.8763 50.3633 93.7694 49.3427L106.299 34.7566L118.845 49.3427C119.738 50.3633 120.995 51.0047 122.355 51.1337C123.715 51.2627 125.073 50.8692 126.146 50.0352C126.672 49.636 127.109 49.1351 127.432 48.5633C127.755 47.9915 127.957 47.3607 128.025 46.7094C128.093 46.058 128.026 45.3999 127.827 44.7751C127.629 44.1503 127.304 43.5719 126.872 43.0753L113.023 26.9403L126.879 10.8293C127.31 10.3308 127.634 9.75094 127.831 9.12495C128.029 8.49896 128.095 7.8399 128.027 7.18779C127.958 6.53567 127.756 5.9041 127.433 5.33141C127.11 4.75872 126.672 4.25686 126.146 3.8563C125.073 3.02202 123.715 2.62823 122.355 2.7568C120.995 2.88536 119.738 3.52638 118.845 4.54661L106.304 19.1284L93.7716 4.54661C92.8782 3.52638 91.6208 2.88536 90.261 2.7568C88.9012 2.62823 87.5435 3.02202 86.4701 3.8563C85.9453 4.2579 85.5087 4.76076 85.1869 5.33426C84.8651 5.90777 84.665 6.53992 84.5985 7.19225C84.5321 7.84457 84.6008 8.50342 84.8004 9.12869C85.0001 9.75397 85.3265 10.3326 85.7599 10.8293L99.5885 26.9403Z" fill="#231F20"/>
<path d="M21.376 19.2397V46.4678C21.376 49.2028 23.697 51.4245 26.5733 51.4245C29.4497 51.4245 31.7618 49.2028 31.7618 46.4678V19.2397C31.7618 16.5068 29.443 14.2852 26.5733 14.2852C23.7036 14.2852 21.376 16.5068 21.376 19.2397Z" fill="#231F20"/>
<path d="M5.21974 11.3797H75.4692C78.3301 11.3797 80.6533 9.16025 80.6533 6.42084C80.6533 3.68143 78.3234 1.46631 75.4692 1.46631H5.21974C2.35887 1.46631 0.0334473 3.69672 0.0334473 6.41865C0.0334473 9.14059 2.35887 11.3797 5.21974 11.3797Z" fill="#231F20"/>
<path d="M186.769 51.156H222.258C225.119 51.156 227.442 48.9475 227.442 46.2146V6.42108C227.446 6.36505 227.446 6.30889 227.442 6.25287C227.442 6.12398 227.42 6.03441 227.405 5.91645C227.251 4.68003 226.641 3.54299 225.691 2.72224C224.742 1.9015 223.52 1.45451 222.258 1.46655H186.769C183.892 1.46655 181.573 3.69696 181.573 6.41889C181.573 9.14083 183.901 11.3778 186.769 11.3778H217.054V41.247H191.948V19.9106C191.948 17.169 189.625 14.9473 186.769 14.9473C183.892 14.9473 181.573 17.169 181.573 19.9062V46.2102C181.573 48.9431 183.901 51.156 186.769 51.156Z" fill="#231F20"/>
<path d="M137.545 34.0991C134.682 34.0991 132.346 36.323 132.346 39.058V46.2102C132.346 48.9431 134.682 51.156 137.545 51.156C140.408 51.156 142.738 48.9431 142.738 46.2102V39.058C142.738 36.323 140.417 34.0991 137.545 34.0991Z" fill="#231F20"/>
<path d="M171.593 19.2395C174.453 19.2395 176.777 17.0222 176.777 14.285V6.58228C176.777 3.85598 174.453 1.63867 171.593 1.63867C168.732 1.63867 166.4 3.85598 166.4 6.58228V14.285C166.4 17.0222 168.721 19.246 171.593 19.2395Z" fill="#231F20"/>
<path d="M171.595 21.5643H142.738V6.57837C142.738 3.85207 140.417 1.63477 137.545 1.63477C134.673 1.63477 132.352 3.85207 132.346 6.57837V25.8394C132.346 25.9487 132.346 26.0579 132.346 26.178C132.346 26.2982 132.346 26.3965 132.346 26.5145C132.346 29.2451 134.682 31.4624 137.545 31.4624H166.4V46.2124C166.4 48.9453 168.725 51.1582 171.592 51.1582C174.46 51.1582 176.783 48.9431 176.783 46.2103V26.7307C176.779 26.658 176.779 26.585 176.783 26.5123C176.783 23.786 174.453 21.5643 171.595 21.5643Z" fill="#231F20"/>
<path d="M242.747 4.55072C242.47 4.21519 242.146 3.92087 241.785 3.67691C241.291 3.03975 240.654 2.52415 239.925 2.17054C239.196 1.81692 238.393 1.6349 237.581 1.63873C234.704 1.63873 232.388 3.85604 232.388 6.58234V46.1989C232.388 48.9427 234.713 51.1556 237.576 51.1556C240.439 51.1556 242.785 48.9427 242.785 46.1989V20.2029L267.809 49.3534C268.706 50.3733 269.965 51.0135 271.327 51.1416C272.689 51.2697 274.048 50.8758 275.124 50.0415C275.648 49.6419 276.084 49.1415 276.407 48.5706C276.729 47.9996 276.931 47.37 277 46.7199C277.069 46.0697 277.004 45.4124 276.809 44.7878C276.613 44.1632 276.291 43.5843 275.863 43.086L242.747 4.55072Z" fill="#231F20"/>
<path d="M319.466 1.63875C318.656 1.63425 317.856 1.81611 317.13 2.16989C316.404 2.52368 315.771 3.03966 315.282 3.67693C314.916 3.92539 314.583 4.21904 314.293 4.55074L281.201 43.0751C280.771 43.5726 280.447 44.1514 280.25 44.7761C280.053 45.4009 279.987 46.0587 280.055 46.7096C280.124 47.3604 280.325 47.9908 280.648 48.5625C280.97 49.1341 281.407 49.6351 281.932 50.035C282.914 50.7914 284.131 51.1875 285.377 51.1557H305.456C308.332 51.1557 310.666 48.9427 310.666 46.2099V46.199C310.666 43.4726 308.339 41.2466 305.456 41.2488H296.187L314.275 20.1942V46.1902C314.275 48.934 316.605 51.1469 319.466 51.1469C322.327 51.1469 324.668 48.934 324.665 46.1902V6.58236C324.668 3.85606 322.333 1.63875 319.466 1.63875Z" fill="#231F20"/>
<path d="M352.621 19.8164C351.665 18.8532 350.371 18.2888 349.005 18.2396C347.64 18.1905 346.307 18.6602 345.282 19.5521C344.785 19.9853 344.381 20.5135 344.096 21.1048C343.811 21.6962 343.65 22.3384 343.623 22.9928C343.596 23.6472 343.703 24.3003 343.938 24.9126C344.174 25.5249 344.532 26.0839 344.992 26.5557L359.266 41.2489H339.651V11.5392H361.567C364.443 11.5392 366.758 9.31971 366.758 6.57593C366.758 3.83215 364.437 1.63232 361.567 1.63232H335.016C334.912 1.63232 334.821 1.63232 334.728 1.63232C334.635 1.63232 334.531 1.63232 334.434 1.63232C331.575 1.63232 329.252 3.84963 329.252 6.57593V46.2034C329.247 46.5314 329.279 46.8589 329.347 47.1799V47.2018C329.414 47.5166 329.515 47.8234 329.648 48.1171V48.128C329.779 48.4228 329.935 48.7057 330.115 48.9734C330.229 49.1359 330.355 49.2899 330.491 49.4344C330.735 49.69 330.748 49.7009 330.748 49.7009C331.738 50.6309 333.052 51.1495 334.419 51.1492H369.614C369.865 51.1501 370.116 51.1304 370.364 51.0903C371.128 51.2056 371.907 51.153 372.648 50.9363C373.388 50.7195 374.071 50.3439 374.648 49.8363C375.146 49.4055 375.551 48.8793 375.838 48.2895C376.124 47.6998 376.287 47.0587 376.315 46.4051C376.343 45.7516 376.237 45.0992 376.003 44.4874C375.768 43.8756 375.41 43.3171 374.951 42.8458L352.621 19.8164Z" fill="#231F20"/>
</g>
<defs>
<clipPath id="clip0_78_288">
<rect width="376.314" height="51.2427" fill="white" transform="translate(0.0334473 0.188477)"/>
</clipPath>
</defs>
</svg>
