<svg width="377" height="52" viewBox="0 0 377 52" fill="none" xmlns="http://www.w3.org/2000/svg">
<g clip-path="url(#clip0_65_239)">
<path d="M280.856 17.5534C280.841 17.4277 280.776 17.3131 280.676 17.2339C280.576 17.1547 280.449 17.1173 280.321 17.1296C280.247 17.1348 280.175 17.1605 280.115 17.2039L279.958 17.0772L280.622 16.3257L280.781 16.4611C280.747 16.5154 280.733 16.5793 280.741 16.6425C280.758 16.7682 280.825 16.8823 280.926 16.9603C281.027 17.0383 281.156 17.074 281.283 17.0597C281.345 17.0569 281.405 17.0416 281.459 17.0147C281.514 16.9878 281.563 16.95 281.602 16.9035C281.642 16.8571 281.671 16.8032 281.688 16.7451C281.705 16.687 281.71 16.626 281.702 16.566C281.685 16.4477 281.624 16.3398 281.532 16.2634C281.439 16.187 281.32 16.1476 281.199 16.1531C281.121 16.1584 281.045 16.1816 280.978 16.2208L280.834 16.0854L280.898 16.0068C281.053 15.8189 281.272 15.5873 281.476 15.3514L281.651 15.4737C281.619 15.5359 281.609 15.6064 281.622 15.6747C281.625 15.7356 281.641 15.7952 281.669 15.8496C281.696 15.9041 281.735 15.9522 281.783 15.9909C281.831 16.0296 281.886 16.0579 281.946 16.0742C282.005 16.0905 282.067 16.0943 282.129 16.0854C282.191 16.0839 282.252 16.0697 282.309 16.0437C282.366 16.0178 282.416 15.9806 282.458 15.9345C282.499 15.8884 282.531 15.8344 282.55 15.7758C282.57 15.7172 282.577 15.6553 282.571 15.5939C282.557 15.4719 282.495 15.3602 282.399 15.2826C282.303 15.205 282.179 15.1678 282.056 15.1788C281.984 15.186 281.914 15.2083 281.852 15.2443L281.682 15.1242C281.819 14.956 281.956 14.8096 282.056 14.6873L282.343 14.3727L282.505 14.4994C282.475 14.562 282.463 14.6317 282.472 14.7004C282.476 14.7621 282.494 14.8222 282.523 14.8771C282.552 14.9321 282.591 14.9808 282.64 15.0203C282.688 15.0598 282.744 15.0893 282.804 15.1072C282.864 15.125 282.927 15.1308 282.989 15.1242C283.052 15.12 283.113 15.1037 283.17 15.076C283.226 15.0483 283.276 15.0099 283.317 14.963C283.358 14.9161 283.39 14.8616 283.409 14.8026C283.429 14.7437 283.437 14.6815 283.432 14.6196C283.414 14.4977 283.35 14.3871 283.253 14.3104C283.155 14.2336 283.032 14.1965 282.907 14.2067C282.843 14.211 282.781 14.2305 282.726 14.2635L282.545 14.1368L283.48 13.0729C283.923 12.553 283.702 12.1314 283.016 12.1314H280.69V11.9763C280.764 11.9626 280.83 11.9249 280.878 11.8692C280.921 11.8285 280.954 11.78 280.977 11.7263C281 11.6727 281.012 11.615 281.012 11.5568C281.012 11.4986 281 11.441 280.977 11.3874C280.954 11.3337 280.921 11.2851 280.878 11.2445C280.788 11.1615 280.67 11.1154 280.547 11.1154C280.423 11.1154 280.305 11.1615 280.215 11.2445C280.134 11.3288 280.089 11.4406 280.089 11.5568C280.089 11.6731 280.134 11.7848 280.215 11.8692C280.265 11.9196 280.329 11.9545 280.398 11.9697V12.1314H279.407V11.9785C279.478 11.9625 279.542 11.9251 279.591 11.8714C279.633 11.8307 279.666 11.7821 279.689 11.7285C279.712 11.6748 279.724 11.6172 279.724 11.559C279.724 11.5008 279.712 11.4432 279.689 11.3896C279.666 11.3359 279.633 11.2873 279.591 11.2466C279.502 11.1602 279.383 11.1117 279.259 11.1117C279.135 11.1117 279.015 11.1602 278.927 11.2466C278.883 11.286 278.847 11.3341 278.823 11.388C278.798 11.4418 278.786 11.5001 278.786 11.559C278.786 11.618 278.798 11.6763 278.823 11.7301C278.847 11.7839 278.883 11.8321 278.927 11.8714C278.974 11.9215 279.035 11.9565 279.102 11.9719V12.1336H278.119V11.9719C278.181 11.9507 278.237 11.9164 278.283 11.8714C278.325 11.8307 278.359 11.7821 278.382 11.7285C278.404 11.6748 278.416 11.6172 278.416 11.559C278.416 11.5008 278.404 11.4432 278.382 11.3896C278.359 11.3359 278.325 11.2873 278.283 11.2466C278.193 11.1628 278.075 11.116 277.951 11.116C277.828 11.116 277.709 11.1628 277.619 11.2466C277.578 11.2873 277.544 11.3358 277.522 11.3892C277.499 11.4426 277.487 11.5 277.487 11.5579C277.487 11.6159 277.499 11.6732 277.522 11.7267C277.544 11.7801 277.578 11.8286 277.619 11.8692C277.669 11.9153 277.727 11.9516 277.79 11.9763V12.1379H276.827V11.9763C276.892 11.9578 276.952 11.925 277.002 11.8802C277.045 11.8394 277.079 11.7905 277.102 11.7365C277.125 11.6824 277.137 11.6243 277.137 11.5656C277.137 11.5069 277.125 11.4487 277.102 11.3947C277.079 11.3406 277.045 11.2918 277.002 11.251C276.91 11.1678 276.79 11.1217 276.665 11.1217C276.54 11.1217 276.419 11.1678 276.327 11.251C276.25 11.3372 276.207 11.4483 276.207 11.5634C276.207 11.6785 276.25 11.7896 276.327 11.8758C276.378 11.9226 276.437 11.9589 276.502 11.9828V12.1379H274.303C273.581 12.1379 273.389 12.5596 273.845 13.0795L274.745 14.1259L274.555 14.281C274.501 14.2388 274.434 14.2157 274.365 14.2154C274.302 14.2076 274.239 14.2122 274.179 14.229C274.118 14.2459 274.062 14.2745 274.013 14.3133C273.964 14.3521 273.924 14.4003 273.894 14.4549C273.864 14.5095 273.846 14.5694 273.841 14.6311C273.835 14.6928 273.842 14.755 273.861 14.814C273.88 14.873 273.911 14.9275 273.953 14.9743C273.994 15.0212 274.044 15.0594 274.1 15.0866C274.157 15.1139 274.218 15.1296 274.281 15.1329C274.406 15.1433 274.53 15.1046 274.626 15.0253C274.723 14.9461 274.784 14.8325 274.796 14.7091C274.799 14.6408 274.789 14.5724 274.765 14.5082L274.971 14.3662L275.267 14.696C275.367 14.8184 275.489 14.9494 275.604 15.1089L275.424 15.2531C275.361 15.217 275.29 15.1947 275.216 15.1875C275.093 15.1771 274.97 15.2146 274.874 15.2921C274.779 15.3697 274.717 15.481 274.703 15.6026C274.699 15.6637 274.707 15.725 274.727 15.7829C274.747 15.8408 274.779 15.8942 274.82 15.94C274.861 15.9858 274.911 16.023 274.967 16.0494C275.023 16.0759 275.084 16.0911 275.146 16.0941C275.207 16.1017 275.269 16.097 275.329 16.0803C275.388 16.0636 275.444 16.0352 275.492 15.9969C275.54 15.9586 275.58 15.911 275.609 15.8572C275.638 15.8033 275.656 15.7442 275.661 15.6834C275.661 15.6149 275.649 15.5469 275.626 15.4825L275.836 15.3383C276.04 15.5764 276.259 15.8276 276.422 16.0155L276.469 16.0767L276.279 16.2296C276.222 16.1846 276.152 16.1606 276.079 16.1619C275.956 16.1558 275.835 16.1945 275.739 16.2705C275.643 16.3466 275.578 16.4548 275.557 16.5747C275.552 16.6361 275.56 16.6977 275.58 16.756C275.6 16.8143 275.631 16.8681 275.673 16.9142C275.714 16.9602 275.764 16.9976 275.82 17.0241C275.876 17.0506 275.938 17.0657 276 17.0684C276.061 17.0757 276.124 17.0705 276.183 17.0532C276.243 17.036 276.298 17.0069 276.346 16.9679C276.394 16.9289 276.433 16.8807 276.461 16.8263C276.49 16.7718 276.506 16.7123 276.511 16.6512C276.519 16.59 276.512 16.5279 276.491 16.4699L276.681 16.317L277.332 17.0684L277.15 17.2126C277.091 17.1703 277.022 17.1446 276.949 17.1383C276.886 17.1311 276.822 17.1364 276.762 17.1539C276.701 17.1715 276.645 17.2009 276.596 17.2404C276.547 17.28 276.506 17.3288 276.477 17.3841C276.448 17.4394 276.43 17.4999 276.425 17.5621C276.42 17.6849 276.463 17.8048 276.545 17.8968C276.628 17.9888 276.743 18.0458 276.867 18.0558C276.99 18.062 277.111 18.0226 277.206 17.9454C277.301 17.8682 277.363 17.7588 277.38 17.6386C277.387 17.5742 277.379 17.5092 277.356 17.4485L277.549 17.2956L277.841 17.643C277.94 17.7635 278.065 17.8607 278.207 17.9274C278.349 17.9941 278.504 18.0288 278.661 18.0288C278.819 18.0288 278.974 17.9941 279.116 17.9274C279.258 17.8607 279.383 17.7635 279.482 17.643L279.768 17.3131L279.923 17.4464C279.905 17.5082 279.899 17.5725 279.905 17.6364C279.92 17.7599 279.984 17.8726 280.083 17.9505C280.181 18.0284 280.306 18.0654 280.432 18.0537C280.552 18.037 280.663 17.9766 280.741 17.8842C280.82 17.7918 280.861 17.6739 280.856 17.5534ZM281.044 16.3519C281.093 16.3367 281.142 16.325 281.193 16.317C281.232 16.3118 281.272 16.3145 281.31 16.3248C281.348 16.3352 281.384 16.3531 281.415 16.3773C281.446 16.4016 281.471 16.4318 281.49 16.4661C281.509 16.5004 281.521 16.5381 281.525 16.5769C281.532 16.655 281.508 16.7328 281.458 16.7937C281.408 16.8546 281.336 16.8936 281.257 16.9024C281.177 16.91 281.096 16.8867 281.033 16.8375C280.969 16.7883 280.928 16.7169 280.916 16.6381C280.911 16.6132 280.911 16.5876 280.917 16.5629C280.922 16.5381 280.932 16.5146 280.947 16.4939L280.385 16.0395C280.335 16.0682 280.279 16.084 280.221 16.0854C280.182 16.0906 280.142 16.0877 280.104 16.0768C280.066 16.066 280.03 16.0475 280 16.0224C279.969 15.9974 279.944 15.9664 279.926 15.9314C279.908 15.8963 279.898 15.858 279.896 15.8189C279.892 15.7814 279.896 15.7435 279.907 15.7075C279.919 15.6715 279.937 15.6382 279.962 15.6096C279.987 15.581 280.018 15.5576 280.052 15.541C280.086 15.5244 280.123 15.5149 280.162 15.513C280.202 15.5062 280.243 15.5076 280.282 15.5171C280.321 15.5266 280.358 15.5439 280.391 15.5681C280.423 15.5922 280.45 15.6227 280.47 15.6576C280.49 15.6924 280.503 15.731 280.507 15.7708C280.512 15.8209 280.512 15.8715 280.507 15.9216L281.044 16.3519ZM281.894 15.3776C281.94 15.3535 281.989 15.3372 282.04 15.3295C282.121 15.3224 282.201 15.3457 282.265 15.3948C282.329 15.4438 282.372 15.5149 282.385 15.5939C282.391 15.6746 282.364 15.7541 282.311 15.8154C282.257 15.8767 282.181 15.9149 282.1 15.9216C282.019 15.9242 281.94 15.8978 281.877 15.8472C281.814 15.7965 281.772 15.7252 281.759 15.6463C281.758 15.6002 281.768 15.5545 281.788 15.513L281.217 15.0499C281.199 15.0691 281.176 15.0843 281.151 15.0944C281.127 15.1046 281.1 15.1095 281.073 15.1089C280.993 15.1165 280.913 15.0936 280.85 15.0448C280.787 14.9961 280.745 14.9252 280.732 14.8468C280.73 14.7679 280.758 14.6912 280.811 14.6317C280.863 14.5722 280.936 14.5344 281.016 14.5256C281.056 14.5211 281.097 14.5245 281.136 14.5358C281.175 14.547 281.211 14.5657 281.242 14.591C281.274 14.6162 281.3 14.6473 281.319 14.6826C281.338 14.7179 281.35 14.7566 281.354 14.7965C281.351 14.8466 281.339 14.8956 281.317 14.9407L281.894 15.3776ZM282.766 14.4033C282.801 14.3735 282.846 14.3573 282.892 14.3574C282.972 14.3473 283.052 14.368 283.117 14.4152C283.182 14.4624 283.226 14.5325 283.239 14.6108C283.243 14.6894 283.218 14.7666 283.168 14.8276C283.117 14.8886 283.046 14.9289 282.967 14.9407C282.927 14.9449 282.886 14.9412 282.847 14.9297C282.808 14.9183 282.772 14.8993 282.74 14.8739C282.709 14.8485 282.683 14.8172 282.663 14.7818C282.644 14.7464 282.632 14.7076 282.629 14.6676C282.619 14.6196 282.625 14.5699 282.646 14.5256L282.078 14.0647C282.061 14.0865 282.04 14.1042 282.015 14.1164C281.991 14.1285 281.964 14.1348 281.936 14.1346C281.896 14.1385 281.856 14.1344 281.818 14.1225C281.78 14.1106 281.745 14.0912 281.715 14.0654C281.684 14.0397 281.66 14.0081 281.642 13.9727C281.625 13.9373 281.615 13.8987 281.613 13.8594C281.607 13.8216 281.609 13.7829 281.619 13.7459C281.629 13.7088 281.646 13.6743 281.671 13.6446C281.695 13.6149 281.726 13.5906 281.761 13.5734C281.795 13.5562 281.833 13.5464 281.872 13.5448C281.952 13.5378 282.033 13.5616 282.096 13.6111C282.159 13.6607 282.201 13.7323 282.213 13.8113C282.218 13.8356 282.218 13.8608 282.213 13.8853C282.209 13.9097 282.198 13.9329 282.184 13.9533L282.766 14.4033ZM280.332 12.5858C280.371 12.5528 280.414 12.5256 280.46 12.5049V11.8277C280.412 11.8219 280.367 11.8004 280.332 11.7666C280.302 11.7409 280.279 11.7094 280.262 11.6739C280.246 11.6385 280.238 11.6001 280.238 11.5612C280.238 11.5223 280.246 11.4839 280.262 11.4485C280.279 11.4131 280.302 11.3815 280.332 11.3559C280.388 11.3083 280.46 11.2822 280.534 11.2822C280.609 11.2822 280.68 11.3083 280.737 11.3559C280.769 11.3799 280.795 11.411 280.813 11.4466C280.831 11.4822 280.84 11.5214 280.84 11.5612C280.84 11.601 280.831 11.6402 280.813 11.6758C280.795 11.7115 280.769 11.7425 280.737 11.7666C280.723 11.7844 280.705 11.799 280.685 11.8096C280.665 11.8201 280.642 11.8263 280.62 11.8277V12.5028C280.666 12.5177 280.707 12.5467 280.737 12.5858C280.769 12.6087 280.795 12.6387 280.813 12.6734C280.831 12.7082 280.84 12.7466 280.84 12.7857C280.84 12.8247 280.831 12.8631 280.813 12.8979C280.795 12.9326 280.769 12.9626 280.737 12.9855C280.682 13.0364 280.609 13.0646 280.533 13.0646C280.458 13.0646 280.385 13.0364 280.33 12.9855C280.301 12.9608 280.277 12.93 280.261 12.8954C280.245 12.8608 280.237 12.8232 280.237 12.7851C280.237 12.7471 280.246 12.7096 280.262 12.6751C280.279 12.6407 280.302 12.6102 280.332 12.5858ZM279.044 12.5748C279.081 12.5389 279.128 12.5146 279.179 12.5049V11.8277C279.126 11.8218 279.078 11.796 279.044 11.7556C279.016 11.7301 278.994 11.6991 278.979 11.6648C278.964 11.6304 278.956 11.5933 278.956 11.5558C278.956 11.5182 278.964 11.4811 278.979 11.4468C278.994 11.4124 279.016 11.3814 279.044 11.3559C279.099 11.3014 279.174 11.2709 279.252 11.2709C279.33 11.2709 279.405 11.3014 279.46 11.3559C279.489 11.3809 279.512 11.4116 279.528 11.4461C279.543 11.4806 279.552 11.5179 279.552 11.5558C279.552 11.5936 279.543 11.6309 279.528 11.6654C279.512 11.6999 279.489 11.7306 279.46 11.7556C279.425 11.7858 279.386 11.8101 279.343 11.8277V12.5049C279.385 12.5224 279.425 12.546 279.46 12.5748C279.489 12.6005 279.512 12.6318 279.528 12.6668C279.544 12.7018 279.552 12.7397 279.552 12.778C279.552 12.8163 279.544 12.8542 279.528 12.8892C279.512 12.9242 279.489 12.9556 279.46 12.9812C279.404 13.0335 279.33 13.0627 279.252 13.0627C279.175 13.0627 279.101 13.0335 279.044 12.9812C279.016 12.9552 278.994 12.9239 278.978 12.8891C278.963 12.8544 278.955 12.8169 278.954 12.7789C278.954 12.741 278.961 12.7034 278.976 12.6683C278.991 12.6332 279.012 12.6014 279.04 12.5748H279.044ZM277.752 12.5748C277.788 12.5426 277.831 12.5187 277.878 12.5049V11.8277C277.831 11.813 277.788 11.7884 277.752 11.7556C277.725 11.7298 277.703 11.6987 277.688 11.6644C277.674 11.63 277.666 11.5931 277.666 11.5558C277.666 11.5184 277.674 11.4815 277.688 11.4471C277.703 11.4128 277.725 11.3818 277.752 11.3559C277.809 11.3016 277.884 11.2712 277.963 11.2712C278.042 11.2712 278.118 11.3016 278.175 11.3559C278.202 11.3818 278.224 11.4128 278.238 11.4471C278.253 11.4815 278.261 11.5184 278.261 11.5558C278.261 11.5931 278.253 11.63 278.238 11.6644C278.224 11.6987 278.202 11.7298 278.175 11.7556C278.139 11.7888 278.096 11.8134 278.049 11.8277V12.5049C278.095 12.5202 278.138 12.5439 278.175 12.5748C278.202 12.6013 278.224 12.6329 278.239 12.6678C278.254 12.7027 278.261 12.7401 278.261 12.778C278.261 12.8159 278.254 12.8533 278.239 12.8882C278.224 12.9231 278.202 12.9547 278.175 12.9812C278.117 13.034 278.042 13.0634 277.963 13.0634C277.885 13.0634 277.809 13.034 277.752 12.9812C277.724 12.955 277.702 12.9236 277.687 12.8889C277.672 12.8542 277.664 12.8168 277.663 12.7789C277.663 12.7411 277.67 12.7035 277.685 12.6685C277.699 12.6334 277.721 12.6016 277.748 12.5748H277.752ZM276.458 12.5748C276.494 12.5408 276.538 12.5167 276.586 12.5049V11.8277C276.537 11.8161 276.492 11.7903 276.458 11.7535C276.426 11.7305 276.401 11.7006 276.383 11.666C276.365 11.6315 276.356 11.5934 276.356 11.5547C276.356 11.516 276.365 11.4778 276.383 11.4433C276.401 11.4088 276.426 11.3788 276.458 11.3559C276.485 11.3288 276.517 11.3073 276.552 11.2926C276.587 11.2779 276.625 11.2703 276.664 11.2703C276.702 11.2703 276.74 11.2779 276.775 11.2926C276.81 11.3073 276.842 11.3288 276.869 11.3559C276.899 11.38 276.924 11.4105 276.94 11.4451C276.957 11.4797 276.965 11.5175 276.965 11.5558C276.965 11.594 276.957 11.6318 276.94 11.6664C276.924 11.701 276.899 11.7315 276.869 11.7556C276.838 11.7922 276.795 11.8175 276.748 11.8277V12.5049C276.795 12.5145 276.837 12.5391 276.869 12.5748C276.9 12.5994 276.924 12.6304 276.941 12.6656C276.958 12.7007 276.967 12.7391 276.967 12.778C276.967 12.8169 276.958 12.8553 276.941 12.8905C276.924 12.9256 276.9 12.9566 276.869 12.9812C276.814 13.0338 276.74 13.0631 276.664 13.0631C276.587 13.0631 276.513 13.0338 276.458 12.9812C276.426 12.9576 276.4 12.9272 276.382 12.8921C276.364 12.8571 276.354 12.8184 276.354 12.7791C276.353 12.7398 276.362 12.7009 276.379 12.6655C276.397 12.63 276.422 12.599 276.453 12.5748H276.458ZM275.323 14.1346C275.266 14.1357 275.212 14.1171 275.168 14.0822L274.599 14.5409C274.621 14.5842 274.629 14.633 274.621 14.6807C274.61 14.7578 274.57 14.8278 274.508 14.8761C274.446 14.9245 274.368 14.9476 274.289 14.9407C274.211 14.9324 274.139 14.8942 274.088 14.8342C274.038 14.7743 274.013 14.6973 274.019 14.6196C274.022 14.5806 274.033 14.5426 274.051 14.5079C274.069 14.4732 274.095 14.4426 274.125 14.418C274.156 14.3934 274.192 14.3753 274.23 14.3649C274.268 14.3545 274.308 14.3519 274.347 14.3574C274.403 14.3616 274.456 14.3805 274.502 14.412L275.066 13.9642C275.043 13.9165 275.037 13.8628 275.048 13.8113C275.055 13.7345 275.091 13.6634 275.151 13.6134C275.21 13.5634 275.287 13.5387 275.365 13.5448C275.404 13.5475 275.442 13.5578 275.477 13.5752C275.513 13.5925 275.544 13.6165 275.57 13.6458C275.596 13.6751 275.615 13.7092 275.628 13.746C275.64 13.7828 275.645 13.8217 275.642 13.8604C275.64 13.8992 275.629 13.937 275.612 13.9717C275.594 14.0065 275.57 14.0374 275.54 14.0629C275.51 14.0884 275.476 14.1078 275.439 14.1201C275.401 14.1324 275.362 14.1373 275.323 14.1346ZM276.177 15.1242C276.135 15.1002 276.068 15.1002 276.028 15.0652L275.464 15.513C275.467 15.5574 275.467 15.6019 275.464 15.6463C275.46 15.6867 275.448 15.7258 275.428 15.7615C275.409 15.7971 275.382 15.8285 275.35 15.8537C275.317 15.879 275.28 15.8976 275.241 15.9085C275.201 15.9194 275.16 15.9223 275.119 15.9172C275.042 15.9084 274.972 15.8704 274.923 15.8113C274.874 15.7522 274.85 15.6766 274.856 15.6004C274.866 15.524 274.906 15.4543 274.966 15.4053C275.026 15.3563 275.103 15.3315 275.181 15.3361C275.235 15.3454 275.289 15.3593 275.34 15.3776L275.902 14.9407C275.88 14.8968 275.872 14.8474 275.878 14.7987C275.882 14.7588 275.894 14.7202 275.913 14.6851C275.933 14.6501 275.96 14.6195 275.992 14.5952C276.024 14.571 276.061 14.5536 276.101 14.5443C276.14 14.5349 276.181 14.5338 276.221 14.5409C276.26 14.5422 276.299 14.5518 276.334 14.5692C276.37 14.5865 276.401 14.6111 276.425 14.6414C276.45 14.6717 276.468 14.7068 276.478 14.7445C276.488 14.7822 276.489 14.8216 276.482 14.8599C276.471 14.9334 276.434 15.0006 276.377 15.0492C276.32 15.0978 276.248 15.1244 276.172 15.1242H276.177ZM277.013 16.1029C276.969 16.0898 276.92 16.0745 276.863 16.0526L276.305 16.4895C276.305 16.5245 276.305 16.5725 276.305 16.6337C276.302 16.6728 276.29 16.7109 276.271 16.7455C276.253 16.7802 276.227 16.8107 276.196 16.8354C276.165 16.8601 276.129 16.8783 276.091 16.8891C276.053 16.8998 276.013 16.9029 275.973 16.898C275.895 16.8872 275.823 16.8478 275.773 16.7875C275.723 16.7273 275.697 16.6506 275.701 16.5725C275.705 16.5341 275.717 16.4968 275.737 16.4631C275.756 16.4293 275.782 16.3996 275.812 16.3758C275.843 16.352 275.879 16.3345 275.917 16.3244C275.955 16.3143 275.994 16.3118 276.033 16.317C276.088 16.3212 276.142 16.3315 276.194 16.3475L276.748 15.9106C276.733 15.8618 276.727 15.8108 276.73 15.7599C276.733 15.7218 276.744 15.6847 276.762 15.6509C276.78 15.6171 276.804 15.5872 276.834 15.5631C276.864 15.539 276.899 15.5211 276.936 15.5106C276.973 15.5002 277.012 15.4973 277.051 15.5021C277.131 15.506 277.206 15.5397 277.262 15.5965C277.318 15.6532 277.35 15.7288 277.352 15.808C277.35 15.8497 277.34 15.8907 277.322 15.9285C277.304 15.9663 277.279 16.0001 277.247 16.0277C277.215 16.0553 277.178 16.0763 277.138 16.0892C277.098 16.1021 277.055 16.1068 277.013 16.1029ZM277.872 17.0925C277.819 17.0847 277.769 17.0628 277.728 17.0291L277.15 17.4857C277.173 17.5318 277.185 17.5828 277.183 17.6342C277.172 17.7103 277.131 17.7792 277.07 17.8267C277.009 17.8742 276.931 17.8968 276.854 17.8898C276.813 17.8883 276.773 17.8784 276.736 17.8609C276.7 17.8434 276.667 17.8186 276.64 17.7881C276.614 17.7575 276.594 17.7219 276.582 17.6834C276.57 17.6449 276.566 17.6043 276.571 17.5643C276.582 17.4864 276.623 17.4158 276.686 17.3673C276.748 17.3188 276.828 17.2963 276.907 17.3044C276.957 17.3077 277.004 17.3252 277.044 17.3546L277.606 16.9177C277.597 16.8723 277.597 16.8255 277.606 16.7801C277.607 16.7417 277.617 16.704 277.633 16.6692C277.65 16.6345 277.674 16.6035 277.703 16.5781C277.732 16.5528 277.766 16.5336 277.803 16.5217C277.84 16.5099 277.879 16.5056 277.918 16.5092C277.999 16.5159 278.074 16.5534 278.127 16.6137C278.18 16.6741 278.208 16.7526 278.203 16.8325C278.193 16.9091 278.153 16.9786 278.091 17.0263C278.03 17.074 277.952 17.0962 277.874 17.0881L277.872 17.0925ZM278.956 17.0291C278.851 17.0771 278.738 17.101 278.623 17.0991C278.508 17.0972 278.395 17.0696 278.292 17.0182C278.338 16.9542 278.365 16.8784 278.369 16.7997C278.375 16.7407 278.368 16.6813 278.349 16.6249C278.331 16.5684 278.302 16.5162 278.263 16.4711C278.224 16.426 278.176 16.3889 278.123 16.3621C278.069 16.3353 278.011 16.3192 277.951 16.3148C277.852 16.3045 277.752 16.3204 277.661 16.3606L277.416 16.0832C277.468 16.0014 277.505 15.9112 277.526 15.8167C277.53 15.696 277.485 15.5787 277.403 15.4895C277.32 15.4003 277.206 15.3461 277.084 15.3383C276.986 15.3314 276.889 15.3518 276.803 15.3973C276.728 15.2924 276.644 15.205 276.582 15.1067C276.637 15.035 276.669 14.948 276.672 14.8577C276.676 14.7734 276.658 14.6895 276.618 14.6148C276.578 14.5401 276.519 14.4772 276.446 14.4326C276.373 14.3881 276.29 14.3635 276.205 14.3614C276.119 14.3594 276.035 14.3798 275.96 14.4208L275.714 14.1324C275.771 14.0564 275.81 13.9692 275.829 13.8768C275.834 13.7543 275.791 13.6346 275.708 13.543C275.626 13.4513 275.511 13.3948 275.387 13.3853C275.291 13.3792 275.196 13.4005 275.112 13.4465C274.84 13.0882 275.022 12.8261 275.493 12.8261H276.214C276.211 12.8765 276.219 12.9271 276.238 12.9741C276.257 13.021 276.287 13.063 276.325 13.0969C276.368 13.1428 276.42 13.1794 276.478 13.2044C276.536 13.2294 276.599 13.2423 276.662 13.2423C276.726 13.2423 276.788 13.2294 276.846 13.2044C276.905 13.1794 276.957 13.1428 277 13.0969C277.074 13.028 277.119 12.9347 277.128 12.8348H277.491C277.495 12.8852 277.508 12.9343 277.532 12.9794C277.555 13.0244 277.587 13.0644 277.626 13.0969C277.668 13.1434 277.719 13.1807 277.776 13.2062C277.833 13.2317 277.895 13.2449 277.958 13.2449C278.021 13.2449 278.083 13.2317 278.14 13.2062C278.197 13.1807 278.248 13.1434 278.29 13.0969C278.327 13.0637 278.358 13.0234 278.379 12.9784C278.4 12.9333 278.412 12.8845 278.414 12.8348H278.783C278.795 12.9374 278.846 13.0314 278.927 13.0969C278.969 13.1434 279.02 13.1807 279.077 13.2062C279.134 13.2317 279.196 13.2449 279.259 13.2449C279.322 13.2449 279.384 13.2317 279.441 13.2062C279.498 13.1807 279.549 13.1434 279.591 13.0969C279.632 13.0664 279.665 13.0268 279.688 12.9813C279.71 12.9357 279.722 12.8855 279.721 12.8348H280.091C280.096 12.9347 280.141 13.0287 280.215 13.0969C280.256 13.1434 280.307 13.1807 280.365 13.2062C280.422 13.2317 280.484 13.2449 280.547 13.2449C280.609 13.2449 280.671 13.2317 280.729 13.2062C280.786 13.1807 280.837 13.1434 280.878 13.0969C280.919 13.0659 280.952 13.0262 280.975 12.9808C280.998 12.9354 281.01 12.8855 281.011 12.8348H281.812C282.31 12.8348 282.46 13.1144 282.186 13.4705C282.095 13.4138 281.988 13.387 281.881 13.394C281.757 13.4041 281.642 13.4608 281.56 13.5523C281.477 13.6438 281.434 13.7632 281.438 13.8856C281.446 13.9949 281.497 14.0969 281.58 14.1696L281.321 14.4426C281.233 14.3824 281.126 14.3574 281.02 14.3727C280.897 14.3848 280.783 14.4424 280.701 14.5339C280.619 14.6255 280.575 14.7442 280.578 14.8664C280.596 14.9717 280.65 15.0679 280.73 15.1395C280.635 15.2443 280.553 15.3361 280.482 15.4257C280.385 15.3673 280.273 15.3399 280.159 15.347C280.039 15.356 279.927 15.4114 279.847 15.5013C279.768 15.5913 279.727 15.7085 279.735 15.8276C279.747 15.9391 279.795 16.0438 279.872 16.1269L279.615 16.3978C279.525 16.3364 279.416 16.31 279.308 16.3235C279.246 16.3255 279.186 16.34 279.131 16.3661C279.076 16.3922 279.027 16.4293 278.987 16.4751C278.947 16.5209 278.917 16.5743 278.899 16.6321C278.881 16.6899 278.876 16.7507 278.883 16.8107C278.884 16.8881 278.91 16.9632 278.958 17.0247L278.956 17.0291ZM280.062 17.6299C280.052 17.5785 280.058 17.5254 280.078 17.4769L279.502 17.04C279.464 17.0756 279.415 17.0978 279.363 17.1034C279.283 17.1079 279.205 17.0825 279.143 17.0323C279.081 16.9821 279.041 16.9107 279.031 16.8325C279.026 16.7931 279.029 16.7529 279.04 16.7148C279.052 16.6767 279.071 16.6414 279.098 16.6112C279.124 16.5811 279.157 16.5568 279.193 16.54C279.23 16.5231 279.269 16.5141 279.31 16.5136C279.388 16.5065 279.466 16.5293 279.528 16.5772C279.591 16.6251 279.632 16.6945 279.644 16.7713C279.65 16.8212 279.643 16.8719 279.622 16.9177L280.184 17.3546C280.225 17.3256 280.274 17.3082 280.325 17.3044C280.365 17.2989 280.405 17.3013 280.444 17.3115C280.482 17.3217 280.518 17.3395 280.549 17.3637C280.581 17.388 280.607 17.4183 280.626 17.4527C280.646 17.4872 280.658 17.5252 280.662 17.5643C280.666 17.6024 280.662 17.6409 280.65 17.6774C280.638 17.7139 280.619 17.7477 280.594 17.7767C280.569 17.8057 280.538 17.8294 280.503 17.8462C280.468 17.863 280.43 17.8727 280.392 17.8745C280.354 17.881 280.316 17.8798 280.279 17.8709C280.242 17.862 280.208 17.8456 280.177 17.8228C280.147 17.8001 280.122 17.7713 280.104 17.7385C280.086 17.7056 280.074 17.6694 280.071 17.632L280.062 17.6299Z" fill="#63BD4C"/>
<path d="M281.126 20.7734C281.526 20.7387 281.925 20.8388 282.259 21.0574L283.144 20.0394C282.863 19.7758 282.694 19.4166 282.671 19.0345C282.653 18.8169 282.678 18.5979 282.747 18.3903C282.815 18.1826 282.924 17.9904 283.068 17.8248C283.212 17.6592 283.388 17.5235 283.586 17.4255C283.784 17.3275 283.999 17.2693 284.22 17.2541C284.618 17.2142 285.017 17.3123 285.35 17.5315C285.622 17.2126 285.937 16.8609 286.235 16.5201C285.954 16.257 285.778 15.9026 285.74 15.5218C285.722 15.3015 285.749 15.0801 285.819 14.8703C285.889 14.6605 286.001 14.4665 286.147 14.2996C286.294 14.1327 286.473 13.9963 286.673 13.8982C286.873 13.8001 287.092 13.7424 287.315 13.7283C287.704 13.6923 288.094 13.787 288.421 13.997L289.306 12.9812C289.035 12.7182 288.87 12.3676 288.839 11.9937C288.82 11.7752 288.845 11.555 288.913 11.3461C288.981 11.1372 289.09 10.9436 289.234 10.7766C289.378 10.6095 289.554 10.4724 289.752 10.3731C289.951 10.2738 290.167 10.2143 290.388 10.1981C290.777 10.1605 291.168 10.2553 291.494 10.4667C292.497 9.18224 291.937 8.17517 290.167 8.17517H287.262C287.229 8.48895 287.106 8.78702 286.908 9.03468C286.711 9.28233 286.445 9.46936 286.144 9.57398C285.843 9.6786 285.517 9.6965 285.206 9.6256C284.895 9.55469 284.61 9.39791 284.385 9.1735C284.114 8.90599 283.946 8.55254 283.912 8.17517H282.584C282.546 8.55496 282.372 8.90884 282.093 9.1735C281.773 9.47151 281.35 9.63749 280.91 9.63749C280.469 9.63749 280.046 9.47151 279.726 9.1735C279.447 8.9101 279.276 8.55481 279.246 8.17517H277.894C277.858 8.55445 277.686 8.90864 277.409 9.1735C277.088 9.47132 276.664 9.6371 276.223 9.6371C275.783 9.6371 275.359 9.47132 275.037 9.1735C274.763 8.90569 274.59 8.55348 274.546 8.17517H273.219C273.19 8.55571 273.018 8.91181 272.736 9.1735C272.415 9.47132 271.991 9.6371 271.55 9.6371C271.11 9.6371 270.686 9.47132 270.364 9.1735C270.081 8.91285 269.906 8.55663 269.875 8.17517H267.32C265.57 8.17517 264.999 9.14292 265.913 10.399C266.222 10.2366 266.573 10.1667 266.922 10.1981C267.368 10.2348 267.781 10.4443 268.071 10.7807C268.361 11.1171 268.505 11.5532 268.47 11.9937C268.44 12.3244 268.304 12.6371 268.083 12.8872L269.001 13.938C269.307 13.7668 269.658 13.6906 270.008 13.7195C270.317 13.735 270.616 13.8356 270.87 14.0101C271.124 14.1846 271.323 14.4259 271.445 14.7066C271.567 14.9873 271.607 15.2963 271.561 15.5983C271.514 15.9003 271.382 16.1833 271.181 16.4152C271.486 16.7626 271.796 17.123 272.086 17.4595C272.395 17.2839 272.751 17.2075 273.106 17.241C273.328 17.2545 273.545 17.3116 273.744 17.4087C273.943 17.5059 274.121 17.6413 274.267 17.807C274.413 17.9728 274.524 18.1655 274.593 18.374C274.663 18.5825 274.69 18.8026 274.672 19.0214C274.645 19.3622 274.508 19.6854 274.281 19.9433L275.183 20.9831C275.491 20.8034 275.848 20.7268 276.203 20.7647C276.426 20.7793 276.644 20.8375 276.844 20.9358C277.044 21.0341 277.223 21.1706 277.369 21.3374C277.515 21.5041 277.627 21.6979 277.697 21.9075C277.766 22.117 277.794 22.3382 277.776 22.5582C277.755 22.8259 277.659 23.0824 277.498 23.2987C277.855 23.4842 278.251 23.5868 278.655 23.5985C279.058 23.6102 279.46 23.5309 279.828 23.3664C279.664 23.1246 279.563 22.8472 279.533 22.5582C279.516 22.3371 279.545 22.115 279.616 21.9049C279.687 21.6947 279.801 21.5008 279.949 21.3345C280.098 21.1682 280.278 21.0329 280.48 20.9366C280.682 20.8402 280.902 20.7847 281.126 20.7734ZM277.252 20.0962L274.736 17.2148C274.181 16.5594 273.261 15.5283 272.707 14.8861L270.183 12.02C269.369 11.1024 269.74 10.3619 270.997 10.3619H286.421C287.671 10.3619 288.034 11.1024 287.233 12.02L284.722 14.8861C284.158 15.5283 283.233 16.5594 282.673 17.2148L280.153 20.0962C279.977 20.3086 279.756 20.4798 279.505 20.5974C279.254 20.715 278.98 20.776 278.702 20.776C278.425 20.776 278.151 20.715 277.9 20.5974C277.649 20.4798 277.428 20.3086 277.252 20.0962Z" fill="#63BD4C"/>
<path d="M304.126 0.190674H253.161C249.042 0.190674 247.818 2.64828 250.462 5.6826L258.79 15.229C260.647 17.3764 263.676 20.852 265.543 23.0016L273.86 32.5415C276.5 35.5824 280.799 35.5824 283.43 32.5415L291.756 23.0016C293.614 20.8564 296.652 17.3764 298.508 15.229L306.837 5.68915C309.478 2.64609 308.259 0.190674 304.126 0.190674ZM296.183 8.97033L292.822 12.8086L293.426 13.287C293.645 13.1683 293.886 13.094 294.134 13.0685C294.583 13.0267 295.032 13.1604 295.382 13.441C295.733 13.7215 295.959 14.1266 296.01 14.5693C296.028 15.0107 295.873 15.4418 295.576 15.7728C295.28 16.1038 294.866 16.3092 294.42 16.3461C293.974 16.383 293.531 16.2486 293.183 15.9709C292.835 15.6932 292.609 15.2936 292.552 14.8555C292.528 14.6102 292.564 14.3628 292.658 14.1346L292.063 13.6649L291.052 14.8271C290.656 15.264 290.202 15.7926 289.724 16.3366L290.309 16.8194C290.524 16.6921 290.766 16.6172 291.017 16.6009C291.234 16.5803 291.454 16.6022 291.664 16.6654C291.873 16.7287 292.068 16.832 292.237 16.9696C292.405 17.1071 292.545 17.2761 292.648 17.467C292.751 17.6579 292.814 17.8669 292.835 18.082C292.856 18.2972 292.834 18.5143 292.77 18.721C292.706 18.9277 292.601 19.1199 292.462 19.2866C292.323 19.4534 292.151 19.5914 291.958 19.6928C291.765 19.7942 291.553 19.8571 291.335 19.8777C291.112 19.9026 290.885 19.8838 290.669 19.8223C290.453 19.7608 290.251 19.6578 290.075 19.5192C289.899 19.3807 289.753 19.2092 289.644 19.0147C289.535 18.8202 289.466 18.6065 289.441 18.3857C289.423 18.1402 289.46 17.8938 289.552 17.6648L288.961 17.206C288.2 18.0624 287.443 18.934 286.859 19.585L286.638 19.8777L287.215 20.3408C287.434 20.2189 287.677 20.1444 287.928 20.1224C288.151 20.0955 288.377 20.1131 288.593 20.174C288.809 20.235 289.01 20.3382 289.185 20.4774C289.359 20.6166 289.504 20.7891 289.61 20.9845C289.716 21.18 289.781 21.3945 289.801 21.6152C289.822 21.836 289.797 22.0586 289.729 22.2698C289.661 22.481 289.55 22.6765 289.404 22.8447C289.258 23.0129 289.079 23.1504 288.877 23.249C288.676 23.3476 288.457 23.4054 288.233 23.4189C287.782 23.4589 287.332 23.3237 286.98 23.0418C286.628 22.76 286.401 22.3537 286.348 21.9093C286.322 21.6673 286.357 21.4227 286.45 21.1972L285.87 20.7319L283.511 23.4189L284.085 23.8842C284.308 23.7511 284.559 23.6711 284.819 23.6504C285.27 23.6055 285.72 23.7371 286.074 24.017C286.427 24.2969 286.655 24.7026 286.709 25.1468C286.739 25.5901 286.59 26.0271 286.296 26.3629C286.001 26.6987 285.584 26.9062 285.135 26.9403C284.685 26.9821 284.236 26.848 283.884 26.5666C283.533 26.2852 283.307 25.8791 283.255 25.4352C283.227 25.2027 283.258 24.967 283.346 24.7492L282.759 24.2905L281.735 25.4614C280.093 27.3292 277.436 27.3292 275.807 25.4614L274.701 24.214L274.017 24.7492C274.102 24.9677 274.134 25.2024 274.112 25.4352C274.061 25.8785 273.836 26.2843 273.485 26.5656C273.135 26.847 272.686 26.9815 272.236 26.9403C272.013 26.9251 271.796 26.8666 271.596 26.7681C271.396 26.6697 271.218 26.5332 271.071 26.3666C270.925 26.1999 270.813 26.0064 270.743 25.7971C270.672 25.5878 270.645 25.3668 270.661 25.1468C270.713 24.7034 270.94 24.2981 271.292 24.0181C271.644 23.7382 272.094 23.6062 272.544 23.6504C272.803 23.6721 273.053 23.752 273.276 23.8842L273.94 23.3533L271.583 20.6598L270.895 21.2037C270.984 21.428 271.021 21.6691 271.004 21.9093C270.953 22.3528 270.728 22.759 270.378 23.0411C270.028 23.3232 269.58 23.4588 269.13 23.4189C268.681 23.3858 268.263 23.1792 267.967 22.8438C267.671 22.5084 267.521 22.0714 267.55 21.6275C267.602 21.1843 267.828 20.7788 268.179 20.4976C268.53 20.2164 268.978 20.0818 269.428 20.1224C269.678 20.1407 269.92 20.2154 270.136 20.3408L270.829 19.7925L270.652 19.5741C270.057 18.9187 269.274 18.0143 268.495 17.1143L267.8 17.6713C267.89 17.8945 267.926 18.1355 267.904 18.3748C267.853 18.8158 267.628 19.2194 267.278 19.4984C266.929 19.7775 266.482 19.9098 266.034 19.8668C265.812 19.8535 265.595 19.7969 265.396 19.7004C265.196 19.6039 265.017 19.4693 264.871 19.3045C264.724 19.1396 264.611 18.9477 264.54 18.7397C264.469 18.5318 264.44 18.312 264.455 18.093C264.505 17.6493 264.73 17.243 265.082 16.9625C265.433 16.6819 265.883 16.5496 266.333 16.5944C266.586 16.612 266.831 16.6867 267.05 16.8128L267.734 16.2645C267.291 15.738 266.849 15.2378 266.492 14.8205L265.386 13.5797L264.682 14.128C264.782 14.3546 264.818 14.6038 264.786 14.8489C264.764 15.0681 264.698 15.2809 264.593 15.4749C264.487 15.6689 264.343 15.8402 264.17 15.9792C263.997 16.1181 263.798 16.2217 263.584 16.2842C263.37 16.3467 263.145 16.3667 262.923 16.3431C262.7 16.3325 262.481 16.2775 262.28 16.1814C262.078 16.0853 261.899 15.9501 261.751 15.7839C261.604 15.6178 261.492 15.424 261.423 15.2141C261.353 15.0043 261.327 14.7828 261.346 14.5627C261.4 14.1224 261.626 13.7201 261.974 13.4402C262.323 13.1604 262.768 13.0248 263.215 13.062C263.463 13.0823 263.702 13.1569 263.917 13.2804L264.625 12.7168L261.341 8.96159C259.7 7.08944 260.434 5.56682 262.988 5.56682H270.997V4.98792C270.759 4.92002 270.544 4.79113 270.373 4.61436C270.217 4.46968 270.092 4.29479 270.006 4.10051C269.921 3.90624 269.877 3.69673 269.877 3.48496C269.877 3.27319 269.921 3.06368 270.006 2.8694C270.092 2.67513 270.217 2.50023 270.373 2.35555C270.693 2.05479 271.118 1.88702 271.559 1.88702C272.001 1.88702 272.425 2.05479 272.745 2.35555C272.899 2.50155 273.022 2.67688 273.106 2.87097C273.19 3.06507 273.233 3.27392 273.233 3.48496C273.233 3.69599 273.19 3.90484 273.106 4.09894C273.022 4.29304 272.899 4.46836 272.745 4.61436C272.574 4.78034 272.369 4.90778 272.143 4.98792V5.56682H275.683V4.98792C275.45 4.9162 275.238 4.78776 275.068 4.61436C274.913 4.46885 274.79 4.29368 274.705 4.09952C274.621 3.90536 274.577 3.69626 274.577 3.48496C274.577 3.27365 274.621 3.06455 274.705 2.87039C274.79 2.67623 274.913 2.50106 275.068 2.35555C275.387 2.05472 275.81 1.8868 276.251 1.8868C276.692 1.8868 277.115 2.05472 277.434 2.35555C277.588 2.50155 277.711 2.67688 277.795 2.87097C277.878 3.06507 277.922 3.27392 277.922 3.48496C277.922 3.69599 277.878 3.90484 277.795 4.09894C277.711 4.29304 277.588 4.46836 277.434 4.61436C277.263 4.77981 277.059 4.90719 276.834 4.98792V5.56682H280.354V4.98792C280.126 4.91145 279.919 4.78355 279.75 4.61436C279.595 4.46885 279.471 4.29368 279.387 4.09952C279.302 3.90536 279.259 3.69626 279.259 3.48496C279.259 3.27365 279.302 3.06455 279.387 2.87039C279.471 2.67623 279.595 2.50106 279.75 2.35555C280.069 2.05458 280.493 1.8866 280.934 1.8866C281.375 1.8866 281.799 2.05458 282.118 2.35555C282.277 2.49884 282.404 2.67328 282.49 2.86774C282.577 3.0622 282.622 3.27241 282.622 3.48496C282.622 3.6975 282.577 3.90771 282.49 4.10217C282.404 4.29663 282.277 4.47107 282.118 4.61436C281.948 4.78767 281.737 4.91613 281.505 4.98792V5.56682H285.045V4.98792C284.812 4.90983 284.6 4.78231 284.423 4.61436C284.268 4.46852 284.145 4.29325 284.061 4.09913C283.977 3.90501 283.934 3.69608 283.934 3.48496C283.934 3.27383 283.977 3.0649 284.061 2.87078C284.145 2.67666 284.268 2.50139 284.423 2.35555C284.745 2.05442 285.172 1.88659 285.616 1.88659C286.059 1.88659 286.486 2.05442 286.808 2.35555C287.003 2.54602 287.144 2.78253 287.219 3.04245C287.294 3.30237 287.301 3.577 287.238 3.84006C287.175 4.10311 287.044 4.34578 286.859 4.54485C286.674 4.74391 286.44 4.89271 286.18 4.977V5.5559H294.532C297.086 5.57556 297.827 7.09818 296.183 8.97033Z" fill="#63BD4C"/>
<path d="M270.019 14.2394C269.731 14.2125 269.442 14.2969 269.215 14.4748C268.988 14.6527 268.839 14.9104 268.8 15.194C268.774 15.377 268.809 15.5632 268.9 15.7249L266.831 17.3458C266.677 17.2349 266.494 17.1697 266.304 17.1579C266.015 17.1265 265.725 17.2088 265.497 17.3871C265.269 17.5654 265.121 17.8252 265.085 18.1104C265.058 18.4002 265.149 18.6886 265.337 18.9129C265.524 19.1372 265.794 19.2792 266.087 19.308C266.381 19.3368 266.673 19.2501 266.902 19.0667C267.131 18.8833 267.277 18.6181 267.309 18.3289C267.327 18.1501 267.302 17.9696 267.236 17.8024L269.278 16.1902C269.435 16.2837 269.613 16.3391 269.796 16.3518C269.939 16.3724 270.085 16.3642 270.225 16.3277C270.364 16.2913 270.495 16.2272 270.61 16.1395C270.724 16.0518 270.819 15.9422 270.889 15.8173C270.959 15.6924 271.003 15.5548 271.018 15.4127C271.033 15.2707 271.018 15.1271 270.976 14.9907C270.933 14.8542 270.863 14.7277 270.769 14.6187C270.676 14.5097 270.561 14.4205 270.432 14.3565C270.302 14.2924 270.161 14.2548 270.017 14.246L270.019 14.2394Z" fill="#63BD4C"/>
<path d="M266.911 10.7005C266.62 10.6707 266.33 10.7541 266.101 10.9328C265.872 11.1116 265.723 11.3715 265.685 11.6573C265.678 11.8386 265.714 12.019 265.791 12.1838L263.724 13.8069C263.57 13.6999 263.39 13.6351 263.202 13.619C262.911 13.5891 262.62 13.6719 262.39 13.85C262.159 14.0281 262.008 14.2876 261.968 14.5737C261.951 14.7425 261.973 14.9129 262.033 15.0718C262.093 15.2308 262.189 15.374 262.314 15.4905C262.439 15.607 262.59 15.6936 262.754 15.7438C262.918 15.794 263.091 15.8064 263.261 15.78C263.431 15.7536 263.592 15.6891 263.733 15.5915C263.873 15.4939 263.989 15.3658 264.072 15.2171C264.154 15.0683 264.201 14.9028 264.209 14.7333C264.217 14.5638 264.185 14.3949 264.116 14.2394L266.163 12.6447C266.299 12.7449 266.456 12.8125 266.623 12.8423C266.79 12.872 266.962 12.8631 267.125 12.8162C267.287 12.7693 267.437 12.6857 267.561 12.572C267.686 12.4583 267.782 12.3177 267.842 12.1611C267.902 12.0044 267.925 11.8362 267.908 11.6696C267.891 11.503 267.835 11.3426 267.744 11.201C267.653 11.0594 267.531 10.9404 267.386 10.8536C267.241 10.7667 267.077 10.7143 266.908 10.7005H266.911Z" fill="#63BD4C"/>
<path d="M272.34 8.65349C272.44 8.55904 272.52 8.44549 272.575 8.3197C272.629 8.19391 272.657 8.0585 272.657 7.92167C272.657 7.78484 272.629 7.64944 272.575 7.52365C272.52 7.39786 272.44 7.2843 272.34 7.18985C272.21 7.06474 272.051 6.9745 271.876 6.92771V4.47229C272.049 4.42566 272.209 4.33793 272.34 4.2167C272.44 4.12263 272.52 4.00945 272.575 3.88402C272.629 3.75859 272.657 3.62354 272.657 3.48706C272.657 3.35058 272.629 3.21553 272.575 3.0901C272.52 2.96468 272.44 2.85149 272.34 2.75743C272.135 2.56569 271.863 2.45886 271.58 2.45886C271.297 2.45886 271.026 2.56569 270.82 2.75743C270.721 2.85182 270.641 2.96511 270.587 3.09049C270.533 3.21587 270.505 3.35076 270.505 3.48706C270.505 3.62336 270.533 3.75825 270.587 3.88363C270.641 4.00902 270.721 4.12231 270.82 4.2167C270.945 4.33508 271.097 4.42201 271.263 4.4701V6.92771C271.089 6.97929 270.931 7.07449 270.806 7.20403C270.68 7.33356 270.591 7.49301 270.546 7.66682C270.502 7.84064 270.503 8.02289 270.551 8.19581C270.599 8.36873 270.692 8.52641 270.82 8.65349C271.027 8.84186 271.299 8.94643 271.58 8.94643C271.862 8.94643 272.133 8.84186 272.34 8.65349Z" fill="#63BD4C"/>
<path d="M273.077 17.7959C272.935 17.7804 272.791 17.7928 272.653 17.8323C272.516 17.8718 272.388 17.9377 272.276 18.0262C272.165 18.1146 272.072 18.2239 272.003 18.3479C271.934 18.4718 271.891 18.6079 271.876 18.7483C271.853 18.9254 271.88 19.1051 271.953 19.2683L269.895 20.8892C269.739 20.7859 269.557 20.727 269.369 20.7188C269.158 20.7074 268.948 20.7577 268.766 20.8633C268.584 20.9689 268.438 21.1251 268.346 21.3124C268.253 21.4998 268.219 21.7099 268.246 21.9165C268.274 22.123 268.363 22.3169 268.502 22.4739C268.641 22.6308 268.824 22.7438 269.027 22.7988C269.231 22.8537 269.446 22.8481 269.647 22.7827C269.847 22.7174 270.024 22.5951 270.154 22.4312C270.284 22.2673 270.363 22.0691 270.38 21.8613C270.397 21.6836 270.365 21.5047 270.287 21.3436L272.353 19.7314C272.502 19.8359 272.676 19.8979 272.858 19.9105C273.003 19.9269 273.149 19.9149 273.289 19.8752C273.429 19.8355 273.56 19.7689 273.674 19.6792C273.788 19.5895 273.883 19.4784 273.953 19.3524C274.023 19.2264 274.068 19.088 274.084 18.945C274.094 18.8042 274.077 18.6628 274.032 18.5288C273.987 18.3948 273.915 18.2709 273.822 18.1641C273.728 18.0574 273.614 17.9699 273.487 17.9067C273.359 17.8435 273.22 17.8059 273.077 17.7959Z" fill="#63BD4C"/>
<path d="M277.024 8.64693C277.125 8.55339 277.205 8.4405 277.26 8.31521C277.315 8.18991 277.343 8.05487 277.343 7.91839C277.343 7.78191 277.315 7.64686 277.26 7.52157C277.205 7.39628 277.125 7.28339 277.024 7.18985C276.903 7.06559 276.75 6.97517 276.582 6.9277V4.47228C276.748 4.42471 276.901 4.33687 277.024 4.21669C277.125 4.12295 277.205 4.00987 277.26 3.8844C277.315 3.75893 277.343 3.62372 277.343 3.48706C277.343 3.3504 277.315 3.21518 277.26 3.08971C277.205 2.96424 277.125 2.85116 277.024 2.75742C276.819 2.56441 276.546 2.45679 276.262 2.45679C275.978 2.45679 275.705 2.56441 275.5 2.75742C275.305 2.95168 275.196 3.21385 275.196 3.48706C275.196 3.76026 275.305 4.02244 275.5 4.21669C275.634 4.33738 275.796 4.42495 275.971 4.47228V6.9277C275.794 6.97523 275.632 7.06531 275.5 7.18985C275.308 7.38645 275.201 7.64875 275.201 7.92167C275.201 8.19458 275.308 8.45688 275.5 8.65349C275.708 8.84269 275.98 8.94718 276.263 8.94597C276.546 8.94475 276.818 8.83792 277.024 8.64693Z" fill="#63BD4C"/>
<path d="M286.355 8.67539C286.457 8.58156 286.538 8.46796 286.594 8.34167C286.65 8.21538 286.678 8.07912 286.678 7.94139C286.678 7.80365 286.65 7.66739 286.594 7.54111C286.538 7.41482 286.457 7.30122 286.355 7.20738C286.227 7.09483 286.076 7.01065 285.912 6.96053V4.49856C286.078 4.44574 286.229 4.35606 286.355 4.23641C286.457 4.14528 286.538 4.03404 286.594 3.90987C286.65 3.7857 286.679 3.65136 286.679 3.51552C286.679 3.37967 286.65 3.24533 286.594 3.12116C286.538 2.997 286.457 2.88576 286.355 2.79462C286.152 2.59901 285.879 2.4895 285.596 2.4895C285.312 2.4895 285.04 2.59901 284.837 2.79462C284.738 2.88748 284.659 2.99928 284.605 3.12322C284.551 3.24716 284.523 3.38063 284.523 3.51552C284.523 3.6504 284.551 3.78388 284.605 3.90781C284.659 4.03175 284.738 4.14355 284.837 4.23641C284.97 4.35635 285.127 4.44587 285.299 4.49856V6.96053C285.132 7.01277 284.976 7.09661 284.841 7.20738C284.741 7.30254 284.662 7.41657 284.608 7.54268C284.554 7.66878 284.526 7.80438 284.526 7.94139C284.526 8.07839 284.554 8.21399 284.608 8.3401C284.662 8.46621 284.741 8.58024 284.841 8.67539C285.049 8.85962 285.319 8.96151 285.598 8.96151C285.877 8.96151 286.147 8.85962 286.355 8.67539Z" fill="#63BD4C"/>
<path d="M281.682 8.65357C281.782 8.5597 281.862 8.4467 281.916 8.32145C281.97 8.19621 281.999 8.06133 281.999 7.92503C281.999 7.78873 281.97 7.65385 281.916 7.52861C281.862 7.40336 281.782 7.29036 281.682 7.19649C281.563 7.06794 281.409 6.97488 281.239 6.92779V4.47237C281.406 4.42505 281.558 4.33718 281.682 4.21678C281.782 4.12271 281.862 4.00953 281.916 3.8841C281.971 3.75867 281.999 3.62362 281.999 3.48714C281.999 3.35067 281.971 3.21561 281.916 3.09019C281.862 2.96476 281.782 2.85158 281.682 2.75751C281.475 2.56804 281.203 2.46277 280.921 2.46277C280.638 2.46277 280.367 2.56804 280.16 2.75751C279.964 2.95121 279.854 3.21359 279.854 3.48714C279.854 3.76069 279.964 4.02308 280.16 4.21678C280.295 4.33664 280.457 4.42408 280.633 4.47237V6.92779C280.454 6.97669 280.29 7.0665 280.153 7.18993C279.958 7.38465 279.848 7.64766 279.848 7.92176C279.848 8.19585 279.958 8.45885 280.153 8.65357C280.361 8.84396 280.634 8.94976 280.917 8.94976C281.201 8.94976 281.474 8.84396 281.682 8.65357Z" fill="#63BD4C"/>
<path d="M285.483 18.7243C285.467 18.5082 285.387 18.3016 285.252 18.1308C285.117 17.9599 284.933 17.8326 284.725 17.7649C284.516 17.6973 284.292 17.6924 284.081 17.7509C283.87 17.8093 283.681 17.9285 283.538 18.0933C283.396 18.2581 283.306 18.461 283.281 18.6762C283.255 18.8914 283.295 19.1092 283.396 19.3019C283.496 19.4946 283.652 19.6535 283.844 19.7584C284.036 19.8633 284.255 19.9094 284.474 19.8909C284.664 19.8708 284.847 19.8064 285.007 19.703L287.065 21.3174C286.991 21.4828 286.962 21.664 286.979 21.8438C287.008 22.1335 287.153 22.3999 287.381 22.5842C287.609 22.7686 287.902 22.8559 288.196 22.8269C288.489 22.7979 288.759 22.6551 288.945 22.4297C289.132 22.2044 289.221 21.9151 289.191 21.6254C289.163 21.4409 289.088 21.2663 288.973 21.1178C288.859 20.9693 288.708 20.8515 288.536 20.7752C288.363 20.6989 288.174 20.6666 287.985 20.6812C287.797 20.6957 287.615 20.7567 287.457 20.8586L285.408 19.2399C285.48 19.0781 285.506 18.8997 285.483 18.7243Z" fill="#63BD4C"/>
<path d="M288.552 15.1897C288.515 14.9069 288.369 14.6489 288.144 14.4698C287.92 14.2907 287.634 14.2042 287.346 14.2285C287.2 14.2346 287.058 14.2697 286.927 14.3318C286.795 14.3939 286.678 14.4816 286.582 14.5897C286.486 14.6977 286.414 14.8239 286.369 14.9605C286.324 15.0971 286.307 15.2413 286.32 15.3844C286.333 15.5275 286.376 15.6664 286.445 15.7929C286.514 15.9194 286.608 16.0307 286.722 16.1201C286.836 16.2096 286.967 16.2752 287.107 16.3132C287.247 16.3512 287.394 16.3606 287.538 16.3409C287.729 16.3243 287.912 16.2629 288.074 16.1618L290.131 17.7806C290.053 17.9429 290.021 18.1237 290.041 18.3027C290.076 18.5882 290.224 18.8485 290.453 19.0268C290.682 19.2051 290.972 19.2872 291.262 19.2551C291.405 19.245 291.544 19.2068 291.672 19.1428C291.8 19.0788 291.913 18.9904 292.006 18.8826C292.099 18.7748 292.169 18.6498 292.212 18.515C292.255 18.3801 292.271 18.2382 292.258 18.0973C292.222 17.8151 292.075 17.5579 291.85 17.3804C291.625 17.2029 291.339 17.1192 291.052 17.147C290.864 17.1573 290.682 17.2169 290.525 17.3196L288.459 15.7052C288.539 15.5456 288.571 15.3668 288.552 15.1897Z" fill="#63BD4C"/>
<path d="M291.645 11.642C291.614 11.359 291.471 11.0995 291.248 10.9202C291.024 10.741 290.737 10.6564 290.45 10.6852C290.158 10.7075 289.888 10.8431 289.697 11.0621C289.506 11.2811 289.411 11.5658 289.432 11.8539C289.472 12.1355 289.619 12.3915 289.844 12.5692C290.068 12.7468 290.354 12.8325 290.64 12.8086C290.83 12.7886 291.013 12.725 291.174 12.6229L293.238 14.2351C293.153 14.3985 293.124 14.5849 293.156 14.7659C293.192 15.0486 293.338 15.3063 293.563 15.4842C293.788 15.6622 294.075 15.7462 294.362 15.7184C294.505 15.7085 294.645 15.6705 294.773 15.6065C294.901 15.5425 295.015 15.4539 295.108 15.3458C295.201 15.2377 295.271 15.1124 295.315 14.9772C295.358 14.842 295.373 14.6996 295.36 14.5584C295.327 14.2721 295.181 14.0102 294.953 13.8298C294.726 13.6493 294.435 13.5649 294.145 13.595C293.959 13.617 293.782 13.6846 293.63 13.7916L291.574 12.1598C291.651 11.9984 291.675 11.8177 291.645 11.642Z" fill="#63BD4C"/>
<path d="M282.394 22.3091C282.361 22.0232 282.215 21.7619 281.987 21.5819C281.76 21.4019 281.469 21.3178 281.18 21.3479C281.034 21.3566 280.892 21.3943 280.761 21.4587C280.63 21.5231 280.514 21.613 280.42 21.7228C280.326 21.8326 280.255 21.9602 280.211 22.0978C280.168 22.2354 280.154 22.3802 280.169 22.5235C280.183 22.6668 280.228 22.8057 280.298 22.9317C280.369 23.0578 280.465 23.1684 280.58 23.2569C280.695 23.3455 280.827 23.4101 280.968 23.4469C281.109 23.4838 281.256 23.4921 281.401 23.4713C281.59 23.4494 281.772 23.3868 281.934 23.2878L283.985 24.9043C283.911 25.0712 283.88 25.2536 283.894 25.4352C283.933 25.7183 284.082 25.9755 284.309 26.1515C284.537 26.3275 284.826 26.4083 285.114 26.3767C285.256 26.3674 285.396 26.3299 285.524 26.2665C285.651 26.2031 285.765 26.115 285.858 26.0075C285.951 25.9 286.021 25.7752 286.064 25.6405C286.107 25.5058 286.122 25.3639 286.109 25.2233C286.075 24.9361 285.927 24.6739 285.698 24.4941C285.469 24.3143 285.177 24.2317 284.886 24.2643C284.705 24.2911 284.531 24.3535 284.375 24.4478L282.306 22.8312C282.391 22.6709 282.422 22.488 282.394 22.3091Z" fill="#63BD4C"/>
<path d="M276.179 21.3588C276.034 21.3413 275.887 21.3527 275.746 21.3924C275.606 21.4321 275.475 21.4993 275.361 21.59C275.247 21.6806 275.153 21.793 275.084 21.9203C275.015 22.0476 274.973 22.1872 274.96 22.331C274.932 22.5066 274.964 22.6865 275.051 22.8421L272.971 24.4565C272.817 24.3537 272.637 24.2968 272.451 24.2927C272.309 24.275 272.165 24.2855 272.027 24.3235C271.89 24.3615 271.761 24.4262 271.649 24.5139C271.537 24.6016 271.443 24.7104 271.375 24.8341C271.306 24.9578 271.262 25.0938 271.247 25.2342C271.235 25.3756 271.251 25.518 271.294 25.6532C271.338 25.7884 271.408 25.9139 271.501 26.0223C271.593 26.1307 271.707 26.2199 271.835 26.2849C271.962 26.3498 272.102 26.3892 272.245 26.4008C272.536 26.4321 272.827 26.3486 273.056 26.1685C273.284 25.9883 273.431 25.7263 273.464 25.4395C273.485 25.2628 273.45 25.0841 273.362 24.9284L275.44 23.2965C275.587 23.4034 275.761 23.4684 275.942 23.4844C276.087 23.5071 276.235 23.5006 276.378 23.4652C276.52 23.4297 276.654 23.3661 276.77 23.2782C276.887 23.1903 276.984 23.0799 277.057 22.9538C277.129 22.8276 277.174 22.6883 277.19 22.5443C277.206 22.4002 277.193 22.2545 277.15 22.1158C277.107 21.9772 277.036 21.8486 276.942 21.7377C276.847 21.6269 276.731 21.5361 276.6 21.471C276.469 21.4059 276.326 21.3677 276.179 21.3588Z" fill="#63BD4C"/>
<path d="M47.4601 41.2469V31.4667H65.2692C68.1455 31.4667 70.4665 29.2494 70.4665 26.5187C70.4665 23.7881 68.1455 21.5642 65.2692 21.5642H42.2583C39.3997 21.5642 37.0698 23.7815 37.0698 26.5144V46.2058C37.0698 48.9387 39.3997 51.1516 42.2583 51.1516H77.1729C80.0492 51.1516 82.3658 48.9387 82.3658 46.2058V46.1949C82.3658 43.4686 80.047 41.2425 77.1729 41.2425L47.4601 41.2469Z" fill="#231F20"/>
<path d="M99.5885 26.9403L85.751 43.0753C85.3166 43.5705 84.9892 44.1483 84.7892 44.773C84.5891 45.3977 84.5206 46.0562 84.5877 46.7081C84.6549 47.3599 84.8563 47.9913 85.1796 48.5635C85.503 49.1356 85.9414 49.6365 86.4679 50.0352C87.5415 50.8692 88.8994 51.2627 90.2592 51.1337C91.6191 51.0047 92.8763 50.3633 93.7694 49.3427L106.299 34.7566L118.845 49.3427C119.738 50.3633 120.995 51.0047 122.355 51.1337C123.715 51.2627 125.073 50.8692 126.146 50.0352C126.672 49.636 127.109 49.1351 127.432 48.5633C127.755 47.9915 127.957 47.3607 128.025 46.7094C128.093 46.058 128.026 45.3999 127.827 44.7751C127.629 44.1503 127.304 43.5719 126.872 43.0753L113.023 26.9403L126.879 10.8293C127.31 10.3308 127.634 9.75094 127.831 9.12495C128.029 8.49896 128.095 7.8399 128.027 7.18779C127.958 6.53567 127.756 5.9041 127.433 5.33141C127.11 4.75872 126.672 4.25686 126.146 3.8563C125.073 3.02202 123.715 2.62823 122.355 2.7568C120.995 2.88536 119.738 3.52638 118.845 4.54661L106.304 19.1284L93.7716 4.54661C92.8782 3.52638 91.6208 2.88536 90.261 2.7568C88.9012 2.62823 87.5435 3.02202 86.4701 3.8563C85.9453 4.2579 85.5087 4.76076 85.1869 5.33426C84.8651 5.90777 84.665 6.53992 84.5985 7.19225C84.5321 7.84457 84.6008 8.50342 84.8004 9.12869C85.0001 9.75397 85.3265 10.3326 85.7599 10.8293L99.5885 26.9403Z" fill="#231F20"/>
<path d="M21.376 19.2398V46.4679C21.376 49.2029 23.697 51.4246 26.5733 51.4246C29.4497 51.4246 31.7618 49.2029 31.7618 46.4679V19.2398C31.7618 16.507 29.443 14.2853 26.5733 14.2853C23.7036 14.2853 21.376 16.507 21.376 19.2398Z" fill="#231F20"/>
<path d="M5.21974 11.3799H75.4692C78.3301 11.3799 80.6533 9.16037 80.6533 6.42096C80.6533 3.68155 78.3234 1.46643 75.4692 1.46643H5.21974C2.35887 1.46643 0.0334473 3.69684 0.0334473 6.41878C0.0334473 9.14071 2.35887 11.3799 5.21974 11.3799Z" fill="#231F20"/>
<path d="M186.769 51.1559H222.258C225.119 51.1559 227.442 48.9473 227.442 46.2145V6.42095C227.446 6.36493 227.446 6.30877 227.442 6.25275C227.442 6.12386 227.42 6.03429 227.405 5.91633C227.251 4.67991 226.641 3.54287 225.691 2.72212C224.742 1.90138 223.52 1.45439 222.258 1.46642H186.769C183.892 1.46642 181.573 3.69684 181.573 6.41877C181.573 9.1407 183.901 11.3777 186.769 11.3777H217.054V41.2469H191.948V19.9105C191.948 17.1689 189.625 14.9472 186.769 14.9472C183.892 14.9472 181.573 17.1689 181.573 19.9061V46.2101C181.573 48.943 183.901 51.1559 186.769 51.1559Z" fill="#231F20"/>
<path d="M137.545 34.099C134.682 34.099 132.346 36.3229 132.346 39.0579V46.2101C132.346 48.9429 134.682 51.1559 137.545 51.1559C140.408 51.1559 142.738 48.9429 142.738 46.2101V39.0579C142.738 36.3229 140.417 34.099 137.545 34.099Z" fill="#231F20"/>
<path d="M171.593 19.2399C174.453 19.2399 176.777 17.0226 176.777 14.2853V6.58265C176.777 3.85635 174.453 1.63904 171.593 1.63904C168.732 1.63904 166.4 3.85635 166.4 6.58265V14.2853C166.4 17.0226 168.721 19.2464 171.593 19.2399Z" fill="#231F20"/>
<path d="M171.595 21.5642H142.738V6.57825C142.738 3.85195 140.417 1.63464 137.545 1.63464C134.673 1.63464 132.352 3.85195 132.346 6.57825V25.8393C132.346 25.9485 132.346 26.0578 132.346 26.1779C132.346 26.2981 132.346 26.3964 132.346 26.5143C132.346 29.245 134.682 31.4623 137.545 31.4623H166.4V46.2123C166.4 48.9452 168.725 51.1581 171.592 51.1581C174.46 51.1581 176.783 48.943 176.783 46.2101V26.7306C176.779 26.6579 176.779 26.5849 176.783 26.5122C176.783 23.7859 174.453 21.5642 171.595 21.5642Z" fill="#231F20"/>
<path d="M242.747 4.55096C242.47 4.21543 242.146 3.92112 241.785 3.67715C241.291 3.03999 240.654 2.5244 239.925 2.17078C239.196 1.81717 238.393 1.63514 237.581 1.63898C234.704 1.63898 232.388 3.85628 232.388 6.58258V46.1992C232.388 48.943 234.713 51.1559 237.576 51.1559C240.439 51.1559 242.785 48.943 242.785 46.1992V20.2032L267.809 49.3536C268.706 50.3735 269.965 51.0138 271.327 51.1419C272.689 51.27 274.048 50.8761 275.124 50.0418C275.648 49.6422 276.084 49.1417 276.407 48.5708C276.729 47.9999 276.931 47.3703 277 46.7201C277.069 46.0699 277.004 45.4126 276.809 44.788C276.613 44.1634 276.291 43.5845 275.863 43.0862L242.747 4.55096Z" fill="#231F20"/>
<path d="M319.466 1.639C318.656 1.6345 317.856 1.81635 317.13 2.17014C316.404 2.52392 315.771 3.03991 315.282 3.67717C314.916 3.92563 314.583 4.21928 314.293 4.55099L281.201 43.0753C280.771 43.5729 280.447 44.1516 280.25 44.7764C280.053 45.4012 279.987 46.0589 280.055 46.7098C280.124 47.3607 280.325 47.9911 280.648 48.5627C280.97 49.1344 281.407 49.6353 281.932 50.0352C282.914 50.7917 284.131 51.1878 285.377 51.1559H305.456C308.332 51.1559 310.666 48.943 310.666 46.2101V46.1992C310.666 43.4729 308.339 41.2468 305.456 41.249H296.187L314.275 20.1945V46.1905C314.275 48.9342 316.605 51.1472 319.466 51.1472C322.327 51.1472 324.668 48.9342 324.665 46.1905V6.58261C324.668 3.8563 322.333 1.639 319.466 1.639Z" fill="#231F20"/>
<path d="M352.621 19.8165C351.665 18.8533 350.371 18.2889 349.005 18.2398C347.64 18.1906 346.307 18.6603 345.282 19.5522C344.785 19.9854 344.381 20.5136 344.096 21.105C343.811 21.6963 343.65 22.3385 343.623 22.9929C343.596 23.6473 343.703 24.3004 343.938 24.9127C344.174 25.525 344.532 26.084 344.992 26.5558L359.266 41.249H339.651V11.5393H361.567C364.443 11.5393 366.758 9.31983 366.758 6.57606C366.758 3.83228 364.437 1.63245 361.567 1.63245H335.016C334.912 1.63245 334.821 1.63245 334.728 1.63245C334.635 1.63245 334.531 1.63245 334.434 1.63245C331.575 1.63245 329.252 3.84975 329.252 6.57606V46.2036C329.247 46.5315 329.279 46.859 329.347 47.1801V47.2019C329.414 47.5167 329.515 47.8235 329.648 48.1172V48.1281C329.779 48.4229 329.935 48.7058 330.115 48.9736C330.229 49.136 330.355 49.29 330.491 49.4345C330.735 49.6901 330.748 49.701 330.748 49.701C331.738 50.631 333.052 51.1496 334.419 51.1494H369.614C369.865 51.1502 370.116 51.1305 370.364 51.0904C371.128 51.2057 371.907 51.1531 372.648 50.9364C373.388 50.7196 374.071 50.344 374.648 49.8365C375.146 49.4057 375.551 48.8794 375.838 48.2897C376.124 47.6999 376.287 47.0588 376.315 46.4053C376.343 45.7517 376.237 45.0993 376.003 44.4875C375.768 43.8757 375.41 43.3172 374.951 42.8459L352.621 19.8165Z" fill="#231F20"/>
</g>
<defs>
<clipPath id="clip0_65_239">
<rect width="376.314" height="51.2427" fill="white" transform="translate(0.0334473 0.188477)"/>
</clipPath>
</defs>
</svg>
