<svg width="160" height="117" viewBox="0 0 160 117" fill="none" xmlns="http://www.w3.org/2000/svg">
<g clip-path="url(#clip0_640_5275)">
<path d="M6.97803 66.1078L7.3972 66.8006C7.68804 67.0198 8.04455 67.1332 8.40814 67.1222C8.94972 67.0684 9.45136 66.8123 9.8136 66.4047C10.3314 65.9099 25.6435 56.7063 25.6435 56.7063L26.0626 55.494L8.80265 65.613C8.38148 65.8832 7.89661 66.0368 7.3972 66.0583" fill="white"/>
<path d="M6.97803 66.1078L7.3972 66.8006C7.68804 67.0198 8.04455 67.1332 8.40814 67.1222C8.94972 67.0684 9.45136 66.8123 9.8136 66.4047C10.3314 65.9099 25.6435 56.7063 25.6435 56.7063L26.0626 55.494L8.80265 65.613C8.38148 65.8832 7.89661 66.0368 7.3972 66.0583" stroke="#BE312A" stroke-width="2" stroke-linejoin="round"/>
<path d="M9.04918 64.4997C9.6666 64.342 10.2568 64.0918 10.7998 63.7575C11.4902 63.2626 24.8544 55.2961 24.8544 55.2961L26.0379 55.7661L24.3859 57.0279L9.86287 65.8604C9.86287 65.8604 8.38344 66.949 7.81633 66.7016C7.24922 66.4542 7.00264 66.1326 7.32319 65.7367C7.85627 65.268 8.43444 64.8537 9.04918 64.4997Z" fill="white" stroke="#BE312A" stroke-width="2" stroke-linejoin="round"/>
<path d="M71.1852 31.7179C71.1852 31.7179 71.0619 31.1489 71.4317 30.9262C71.7308 30.7163 72.0793 30.5884 72.4427 30.5551C72.916 30.4779 73.4012 30.5291 73.8481 30.7035C74.5139 30.9262 74.5139 31.2478 74.6125 31.5942C74.6693 31.9133 74.6693 32.24 74.6125 32.5591L72.7139 33.4003L71.0619 32.8313L71.1852 31.7179Z" fill="white" stroke="#BE312A" stroke-width="2" stroke-linejoin="round"/>
<path d="M36.9858 49.7788H64.3059C64.532 49.6813 64.7323 49.5321 64.8907 49.3431C65.0491 49.1541 65.1612 48.9305 65.2182 48.6902C65.3518 48.1236 65.2819 47.5279 65.0209 47.0078L68.4976 44.5337L72.0975 45.5728L74.1934 51.6839L69.2619 54.8012L65.8592 55.4197L32.6461 56.2362L36.9858 49.7788Z" fill="white" stroke="#BE312A" stroke-width="2" stroke-linejoin="round"/>
<path d="M84.6973 20.3371L76.1659 11.3314C77.039 10.8435 77.9553 10.4377 78.9028 10.119C81.1661 9.3656 83.523 8.93259 85.9055 8.83252C88.7791 8.74193 91.6555 8.86598 94.5108 9.20363C95.0532 9.37682 96.8039 9.45104 98.5546 9.77268C100.073 10.0402 101.56 10.463 102.993 11.0345C103.511 11.2571 105.015 11.752 106.075 12.2715C107.178 12.85 108.241 13.503 109.256 14.226C110.197 14.7392 111.095 15.3266 111.943 15.9827C112.239 16.3538 96.8779 22.3411 91.9711 24.2461C91.5273 24.4193 91.2314 24.0482 91.0834 23.5781C90.9355 23.1081 103.807 18.4568 108.343 16.7001C108.664 16.7001 110.267 15.661 109.33 15.1415C107.5 13.797 105.523 12.668 103.437 11.7767C101.117 10.843 98.6591 10.2997 96.1628 10.1685C95.5464 10.1685 95.2505 10.9355 95.0779 11.3066C94.5354 12.5931 92.6122 16.3785 92.6122 16.8981C92.6122 17.4176 91.3547 17.4671 91.3547 17.4671L94.4368 10.6881C94.4368 10.6881 94.7327 9.77268 93.8697 9.67371C93.0067 9.57475 86.6945 9.37682 85.1411 9.47578C82.6746 9.69672 80.2642 10.3411 78.0152 11.3808C77.2508 12.1973 78.5576 12.7663 78.7796 13.2117C79.0015 13.657 84.2288 18.6547 84.2288 18.6547C84.6306 18.4161 85.0742 18.2565 85.5356 18.1846C85.9055 18.1846 86.6945 19.1495 86.6945 19.1495L85.7329 20.6092L84.6973 20.3371Z" fill="white" stroke="#BE312A" stroke-width="2" stroke-linejoin="round"/>
<path d="M82.9219 30.852L86.2999 23.6771L92.4888 24.6173L87.9519 35.5033L83.8342 34.4147L82.9219 30.852Z" fill="white" stroke="#BE312A" stroke-width="2" stroke-linejoin="round"/>
<path d="M84.204 25.409C84.0808 23.6711 84.0808 21.9265 84.204 20.1886C84.8698 19.3474 86.793 21.5246 88.4944 21.5246C89.4313 21.5246 91.4039 19.9907 92.0943 20.3123C92.7847 20.634 92.6368 24.6173 92.6368 25.409C92.6368 26.7945 90.7382 27.8831 88.4204 27.8831C86.1026 27.8831 84.204 26.7945 84.204 25.409Z" fill="white" stroke="#BE312A" stroke-width="2" stroke-linejoin="round"/>
<path d="M84.1301 20.3865C84.1301 19.001 86.0041 17.9124 88.3465 17.9124C90.6889 17.9124 92.5629 19.001 92.5629 20.3865C92.5629 21.772 90.6643 22.8606 88.3465 22.8606C86.0287 22.8606 84.1301 21.7473 84.1301 20.3865Z" fill="white" stroke="#BE312A" stroke-width="2" stroke-linejoin="round"/>
<path d="M68.0044 48.7892L68.2017 50.719L69.5085 52.1292L72.1961 50.6695L71.7769 48.9871L69.4345 48.4923L68.0044 48.7892Z" fill="white" stroke="#BE312A" stroke-width="2" stroke-linejoin="round"/>
<path d="M60.2127 48.5912C60.9426 48.773 61.6593 49.0045 62.3579 49.284C63.3036 49.9744 64.1356 50.8092 64.8236 51.7581C65.588 52.6735 65.5633 53.0446 66.451 53.0694C67.3386 53.0941 67.7578 53.0694 67.9551 52.5498C68.1523 52.0302 68.177 50.7685 68.6948 50.6447C68.9365 50.5785 69.1844 50.537 69.4345 50.521L69.6071 51.2138L69.04 51.5602L68.8674 52.3024L68.0537 53.5394C67.4618 53.6829 66.8602 53.7821 66.2537 53.8363C65.9481 53.7865 65.658 53.6668 65.4058 53.4867C65.1536 53.3065 64.946 53.0706 64.799 52.7972C64.3305 52.0797 63.5414 51.0653 63.5414 51.0653C63.0262 50.5856 62.4549 50.1702 61.8401 49.8283L60.1141 49.4819L59.3251 48.5912H60.2127Z" fill="white" stroke="#BE312A" stroke-width="2" stroke-linejoin="round"/>
<path d="M59.9169 51.3622C60.5215 51.4557 61.1368 51.4557 61.7415 51.3622C62.7848 50.9949 63.7987 50.5483 64.7743 50.0262C66.3031 49.1603 67.24 47.9975 67.8811 47.8737C68.5222 47.75 68.4975 48.5418 68.4975 48.5418C68.0107 48.6517 67.5553 48.8717 67.166 49.185C66.4795 49.7999 65.7171 50.3237 64.8976 50.7437C63.9234 51.2726 62.8883 51.6797 61.8155 51.956C61.117 52.148 60.3861 52.1902 59.6703 52.0797" fill="white"/>
<path d="M59.9169 51.3622C60.5215 51.4557 61.1368 51.4557 61.7415 51.3622C62.7848 50.9949 63.7987 50.5483 64.7743 50.0262C66.3031 49.1603 67.24 47.9975 67.8811 47.8737C68.5222 47.75 68.4975 48.5418 68.4975 48.5418C68.0107 48.6517 67.5553 48.8717 67.166 49.185C66.4795 49.7999 65.7171 50.3237 64.8976 50.7437C63.9234 51.2726 62.8883 51.6797 61.8155 51.956C61.117 52.148 60.3861 52.1902 59.6703 52.0797" stroke="#BE312A" stroke-width="2" stroke-linejoin="round"/>
<path d="M39.0569 50.719C39.0569 50.719 40.0678 50.5458 40.5363 50.3973C41.5801 49.9857 42.6622 49.679 43.7664 49.4819C44.6863 49.3737 45.5999 49.2168 46.5033 49.0118L46.3554 49.6551L43.3472 50.1499L41.2267 50.719L39.6487 51.0653H39.0076L39.0569 50.719Z" fill="white" stroke="#BE312A" stroke-width="2" stroke-linejoin="round"/>
<path d="M38.8843 51.288C39.8486 51.2919 40.8122 51.234 41.7691 51.1148C42.213 50.9416 44.9992 50.4221 44.9992 50.4221C45.4174 50.3817 45.8385 50.3817 46.2567 50.4221C46.8238 50.4221 46.2567 50.9911 46.2567 50.9911L44.8759 51.1148C44.4074 51.1148 42.9773 51.4364 42.9773 51.4364L41.6212 51.6591L40.0431 51.8323H38.9829L38.3171 51.5849L38.8843 51.288Z" fill="white" stroke="#BE312A" stroke-width="2" stroke-linejoin="round"/>
<path d="M38.9829 51.7828L41.9171 51.6096H44.0376L45.7636 51.8076L46.1088 52.4014L44.6294 52.2777C44.0629 52.2383 43.4945 52.2383 42.928 52.2777C42.1071 52.2211 41.2832 52.2211 40.4623 52.2777C39.9006 52.4057 39.3328 52.5048 38.761 52.5745L38.3171 52.1539L38.9829 51.7828Z" fill="white" stroke="#BE312A" stroke-width="2" stroke-linejoin="round"/>
<path d="M37.7747 50.4963L38.9336 50.62V51.8076H36.9857L37.2816 50.4221L37.7747 50.4963Z" fill="white" stroke="#BE312A" stroke-width="2" stroke-linejoin="round"/>
<path d="M36.8131 51.956L36.9611 53.0199L38.8843 52.822V51.8571L36.8131 51.956Z" fill="white" stroke="#BE312A" stroke-width="2" stroke-linejoin="round"/>
<path d="M64.4291 38.0516L65.3414 47.3047C65.3414 47.3047 65.6126 48.0222 66.1058 47.849C66.4458 47.7472 66.7759 47.6147 67.092 47.4531C67.1262 46.8929 67.1262 46.331 67.092 45.7708C67.092 45.177 66.7715 45.0533 66.7715 45.0533V41.07L65.6373 40.5504V39.3876L64.4291 38.0516Z" fill="white" stroke="#BE312A" stroke-width="2" stroke-linejoin="round"/>
<path d="M47.3417 51.3622L59.1771 51.956L58.8072 53.4405L47.4649 53.9353L46.8485 52.5003L47.3417 51.3622Z" fill="white" stroke="#BE312A" stroke-width="2" stroke-linejoin="round"/>
<path d="M46.2075 52.822C46.2075 52.822 46.2075 53.8611 46.602 53.96C46.9965 54.059 59.8182 53.96 59.8182 53.96V52.9704H58.2402V53.3663H54.9608L54.7882 52.9457H50.991V53.292H47.8842L47.613 52.7972L46.2075 52.822Z" fill="white" stroke="#BE312A" stroke-width="2" stroke-linejoin="round"/>
<path d="M45.9609 51.7333L46.1089 52.8219H47.5637L47.8349 52.2282H50.7444L50.9417 52.8219H54.7882L55.0841 52.3271H58.1416V52.8219H59.547L59.6703 51.4859L45.9609 51.7333Z" fill="white" stroke="#BE312A" stroke-width="2" stroke-linejoin="round"/>
<path d="M46.8486 47.0078H51.78L51.9526 47.5274H54.8868L55.1334 47.0326H60.2374L59.5717 51.9807H45.7637L46.8486 47.0078Z" fill="white" stroke="#BE312A" stroke-width="2" stroke-linejoin="round"/>
<path d="M50.1773 47.9727C50.2757 48.0067 50.3579 48.0762 50.408 48.1677C50.4581 48.2591 50.4726 48.366 50.4485 48.4675L50.0294 50.2984C50.0205 50.3508 50.0013 50.4009 49.9727 50.4456C49.9442 50.4904 49.9069 50.529 49.8632 50.559C49.8195 50.589 49.7702 50.6099 49.7182 50.6204C49.6663 50.6308 49.6128 50.6307 49.5609 50.62C49.4626 50.586 49.3803 50.5165 49.3302 50.4251C49.2801 50.3336 49.2656 50.2267 49.2897 50.1252L49.7088 48.2944C49.7325 48.1916 49.7938 48.1014 49.8806 48.0419C49.9673 47.9823 50.0733 47.9576 50.1773 47.9727Z" fill="white" stroke="#BE312A" stroke-width="2" stroke-linejoin="round"/>
<path d="M52.1991 47.9727C52.2502 47.9893 52.2974 48.0162 52.3378 48.0517C52.3781 48.0872 52.4109 48.1306 52.434 48.1792C52.457 48.2278 52.47 48.2807 52.472 48.3345C52.474 48.3884 52.4651 48.442 52.4457 48.4923L52.0265 50.2984C52.0207 50.353 52.0036 50.4058 51.9764 50.4534C51.9491 50.501 51.9123 50.5425 51.8683 50.575C51.8242 50.6076 51.7739 50.6306 51.7204 50.6426C51.667 50.6546 51.6117 50.6554 51.558 50.6447C51.4543 50.6106 51.3679 50.5373 51.3173 50.4402C51.2666 50.3432 51.2557 50.2302 51.2868 50.1252L51.7306 48.3191C51.7364 48.2645 51.7535 48.2117 51.7808 48.1641C51.808 48.1164 51.8448 48.075 51.8889 48.0424C51.9329 48.0099 51.9833 47.9868 52.0367 47.9748C52.0901 47.9628 52.1454 47.9621 52.1991 47.9727Z" fill="white" stroke="#BE312A" stroke-width="2" stroke-linejoin="round"/>
<path d="M55.2813 47.9727C55.3318 47.9869 55.3789 48.0111 55.4199 48.0438C55.461 48.0765 55.4951 48.117 55.5203 48.1631C55.5456 48.2091 55.5614 48.2598 55.567 48.3121C55.5725 48.3643 55.5676 48.4172 55.5526 48.4675L55.1334 50.2984C55.1245 50.3508 55.1053 50.4009 55.0767 50.4456C55.0482 50.4904 55.0109 50.529 54.9672 50.559C54.9235 50.589 54.8742 50.6099 54.8222 50.6204C54.7703 50.6308 54.7168 50.6307 54.6649 50.62C54.5666 50.586 54.4843 50.5165 54.4342 50.4251C54.3841 50.3336 54.3696 50.2267 54.3937 50.1252L54.8128 48.2944C54.8365 48.1916 54.8978 48.1014 54.9846 48.0419C55.0713 47.9823 55.1773 47.9576 55.2813 47.9727Z" fill="white" stroke="#BE312A" stroke-width="2" stroke-linejoin="round"/>
<path d="M57.3032 47.9727C57.407 48.0068 57.4933 48.0802 57.544 48.1772C57.5947 48.2743 57.6056 48.3873 57.5745 48.4923L57.1553 50.2984C57.1495 50.353 57.1324 50.4058 57.1052 50.4534C57.0779 50.501 57.0411 50.5425 56.997 50.575C56.953 50.6076 56.9026 50.6306 56.8492 50.6426C56.7958 50.6546 56.7405 50.6554 56.6868 50.6448C56.5831 50.6106 56.4967 50.5373 56.4461 50.4402C56.3954 50.3432 56.3845 50.2302 56.4156 50.1252L56.8348 48.3191C56.853 48.2117 56.912 48.1157 56.9993 48.0511C57.0867 47.9865 57.1957 47.9584 57.3032 47.9727Z" fill="white" stroke="#BE312A" stroke-width="2" stroke-linejoin="round"/>
<path d="M26.7776 46.3151L17.26 38.7691L15.534 38.967C15.534 38.967 11.6628 41.4411 10.9231 42.2081C8.4345 44.0924 6.41696 46.5318 5.03005 49.3335C3.99328 51.4267 3.38144 53.7057 3.23009 56.0383C3.18957 58.5771 3.82817 61.0803 5.07937 63.2874C6.85468 66.281 7.54508 66.0584 7.86562 66.4047C8.18617 66.7511 8.87656 65.3161 8.87656 65.3161L6.92865 63.3121L5.62183 61.407C5.07809 60.4453 4.72633 59.3864 4.58623 58.2897C4.52629 56.6327 4.642 54.974 4.93143 53.3415C5.22731 52.7725 5.05471 52.624 6.28757 52.5498C7.52042 52.4756 24.6818 52.6735 24.6818 52.6735L25.1256 51.2138H6.48483C6.48483 51.2138 5.57251 50.9911 5.84374 50.2489C6.50349 48.9207 7.25318 47.6394 8.08754 46.414C8.63292 45.7447 9.22627 45.1163 9.86285 44.5337C10.4793 43.9152 11.1697 43.3709 11.8108 42.8266C12.4518 42.2823 14.2765 41.07 14.6463 40.5999C14.9435 40.3432 15.3038 40.1711 15.6897 40.1015C16.0757 40.0319 16.4731 40.0673 16.8408 40.204C17.2821 40.4642 17.6881 40.7801 18.049 41.1442C18.6654 41.639 26.4324 48.5665 26.4324 48.5665L26.7776 46.3151Z" fill="white" stroke="#BE312A" stroke-width="2" stroke-linejoin="round"/>
<path d="M7.2493 66.2563C7.2493 66.0831 4.90687 58.166 4.98084 58.0176C5.05481 57.8691 5.54796 57.6959 5.89316 57.6217C6.23835 57.5475 6.70684 57.2753 6.92875 57.399C7.15067 57.5227 9.27118 65.5388 9.39446 65.7615C9.41601 66.0126 9.34126 66.2625 9.18547 66.4602C9.02968 66.6579 8.80459 66.7885 8.55612 66.8253C8.4334 66.877 8.30152 66.9033 8.16842 66.9025C8.03532 66.9017 7.90376 66.8739 7.78166 66.8207C7.65956 66.7675 7.54945 66.6901 7.45795 66.5931C7.36646 66.4961 7.29549 66.3816 7.2493 66.2563Z" fill="white" stroke="#BE312A" stroke-width="2" stroke-linejoin="round"/>
<path d="M3.55069 52.3271C3.55069 52.1539 1.20826 44.2368 1.28223 44.0884C1.3562 43.9399 1.84935 43.7668 2.19455 43.6925C2.53975 43.6183 3.00823 43.3462 3.23015 43.4699C3.45206 43.5936 5.57257 51.6096 5.69586 51.8323C5.7174 52.0834 5.64265 52.3333 5.48686 52.531C5.33108 52.7287 5.10599 52.8593 4.85751 52.8962C4.73479 52.9479 4.60291 52.9741 4.46981 52.9733C4.33671 52.9725 4.20515 52.9447 4.08305 52.8915C3.96095 52.8384 3.85084 52.761 3.75935 52.664C3.66785 52.567 3.59688 52.4524 3.55069 52.3271Z" fill="white" stroke="#BE312A" stroke-width="2" stroke-linejoin="round"/>
<path d="M15.5093 39.0907C15.5093 38.9175 13.7094 31.3468 13.7833 31.1983C13.8573 31.0499 14.3505 30.9509 14.671 30.8767C14.9915 30.8025 15.4354 30.6046 15.6573 30.7283C15.8792 30.852 17.4326 38.5217 17.4819 38.7196C17.5312 38.9175 17.26 39.5855 16.6436 39.5855C16.4271 39.6611 16.1903 39.6521 15.9801 39.5604C15.77 39.4687 15.6019 39.3011 15.5093 39.0907Z" fill="white" stroke="#BE312A" stroke-width="2" stroke-linejoin="round"/>
<path d="M15.7066 31.0994C15.7066 31.0994 15.7066 31.6931 15.7066 31.9653C15.1611 32.2123 14.5772 32.3629 13.9806 32.4106C12.963 32.9729 11.9829 33.601 11.0464 34.2909C10.1588 35.1321 8.95058 36.1218 7.89032 37.0867C6.39506 38.5211 5.14548 40.1929 4.19176 42.0349C3.57533 43.7667 3.67396 43.3461 3.67396 43.3461C3.75616 43.4208 3.8223 43.5114 3.86832 43.6126C3.91434 43.7138 3.93927 43.8234 3.94158 43.9346C3.94389 44.0458 3.92353 44.1563 3.88175 44.2593C3.83997 44.3623 3.77765 44.4557 3.69861 44.5337C3.25479 45.1275 3.05753 45.0038 3.05753 45.0038C2.92723 45.2285 2.82771 45.4699 2.76164 45.7213C2.48723 46.9546 2.38762 48.2206 2.46576 49.4819C2.61423 51.0106 3.09391 52.4883 3.87121 53.8116C4.10168 54.1302 4.31566 54.4605 4.5123 54.8012C4.90032 55.5398 5.41823 56.202 6.04104 56.7557C6.65747 57.1516 7.52047 56.9784 7.61909 57.5969C7.71772 58.2155 7.6191 58.6608 7.1013 58.9329C6.5835 59.2051 5.25201 59.3535 5.22736 58.8092C5.15701 58.4876 5.05799 58.1729 4.93147 57.8691C4.18256 57.0205 3.50621 56.1101 2.90959 55.1476C2.28654 53.8807 1.79095 52.5546 1.43016 51.189C1.15571 49.8633 1.08916 48.5026 1.2329 47.1562C1.29956 46.5196 1.42334 45.8903 1.60276 45.2759C1.60276 45.078 0.789075 44.7564 1.20825 44.2368C1.45073 43.9314 1.75277 43.6788 2.0959 43.4946L2.53973 42.5049C3.29082 41.2061 4.11402 39.9506 5.00544 38.7443C5.74818 37.722 6.57282 36.7621 7.47115 35.8744C8.65469 34.761 9.93686 33.9198 10.4547 33.4003C11.2319 32.7763 12.0563 32.2138 12.9204 31.7179C12.917 31.4633 13.0047 31.216 13.1676 31.0208C13.3305 30.8256 13.5577 30.6955 13.808 30.654C14.3241 30.5874 14.8485 30.6468 15.3368 30.8272L15.7066 31.0994Z" fill="white" stroke="#BE312A" stroke-width="2" stroke-linejoin="round"/>
<path d="M4.93152 58.2155C4.93152 57.7701 5.20275 57.3001 5.79452 57.1516C6.03324 57.0636 6.29699 57.0741 6.52804 57.1807C6.7591 57.2874 6.93864 57.4815 7.02737 57.7207C7.02737 58.166 6.75614 58.6361 6.16437 58.7845C5.92514 58.86 5.66648 58.8436 5.43865 58.7384C5.21082 58.6332 5.03007 58.4469 4.93152 58.2155Z" fill="white" stroke="#BE312A" stroke-width="2" stroke-linejoin="round"/>
<path d="M1.28223 44.2863C1.28223 43.841 1.55345 43.3709 2.14523 43.2225C2.38426 43.141 2.64534 43.1546 2.87469 43.2604C3.10404 43.3663 3.28421 43.5564 3.37808 43.7915C3.39962 44.0426 3.32487 44.2925 3.16909 44.4902C3.0133 44.6879 2.78821 44.8185 2.53974 44.8554C2.2976 44.9443 2.03039 44.9345 1.79534 44.8281C1.5603 44.7218 1.37611 44.5273 1.28223 44.2863Z" fill="white" stroke="#BE312A" stroke-width="2" stroke-linejoin="round"/>
<path d="M13.7833 31.3963C13.7833 30.9757 14.0792 30.5551 14.6463 30.4314C14.7594 30.3804 14.8826 30.3559 15.0065 30.36C15.1304 30.364 15.2518 30.3964 15.3613 30.4547C15.4708 30.513 15.5656 30.5957 15.6385 30.6963C15.7113 30.797 15.7602 30.913 15.7816 31.0356C15.8029 31.1581 15.796 31.2839 15.7615 31.4034C15.727 31.5229 15.6657 31.6329 15.5823 31.725C15.499 31.817 15.3957 31.8888 15.2805 31.9347C15.1653 31.9807 15.0412 31.9996 14.9176 31.9901C14.6887 32.0601 14.4415 32.0371 14.2293 31.9261C14.0172 31.815 13.857 31.6247 13.7833 31.3963Z" fill="white" stroke="#BE312A" stroke-width="2" stroke-linejoin="round"/>
<path d="M74.292 12.6426C76.1694 13.0246 78.0221 13.5203 79.8398 14.1271C81.2586 14.8203 82.7158 15.4316 84.2041 15.9579C85.0044 16.2269 85.831 16.4093 86.6698 16.5022L87.163 18.6794L85.6589 18.5062L80.4562 16.5022L74.4399 15.0178L73.4783 13.1869L74.292 12.6426Z" fill="white" stroke="#BE312A" stroke-width="2" stroke-linejoin="round"/>
<path d="M85.8561 18.3083C85.7815 17.5928 85.7815 16.8714 85.8561 16.1558C86.2753 15.562 87.3356 16.5764 88.3218 16.5764C89.3081 16.5764 90.2944 15.6115 90.7876 16.0074C91.2807 16.4032 90.9602 17.8877 90.9602 18.3083C90.9602 19.2485 89.7766 20.0402 88.3465 20.0402C86.9164 20.0402 85.8561 19.2485 85.8561 18.3083Z" fill="white" stroke="#BE312A" stroke-width="2" stroke-linejoin="round"/>
<path d="M85.9054 16.3785C85.9054 15.4136 87.0643 14.6466 88.5191 14.6466C89.9738 14.6466 91.1327 15.4136 91.1327 16.3785C91.1327 17.3434 89.9738 18.1104 88.5191 18.1104C87.0643 18.1104 85.9054 17.3187 85.9054 16.3785Z" fill="white" stroke="#BE312A" stroke-width="2" stroke-linejoin="round"/>
<path d="M86.2999 16.2053C86.3447 15.9257 86.4494 15.6593 86.607 15.4243C86.7645 15.1893 86.971 14.9915 87.2122 14.8446C87.5413 14.6057 87.9405 14.4838 88.3465 14.4982C88.9876 14.4982 89.0122 14.325 89.7026 14.7704C89.9329 14.9312 90.1205 15.146 90.2494 15.396C90.3783 15.646 90.4445 15.9238 90.4423 16.2053C90.4423 16.9476 89.53 17.5661 88.4204 17.5661C87.3109 17.5661 86.2999 16.9476 86.2999 16.2053Z" fill="white" stroke="#BE312A" stroke-width="2" stroke-linejoin="round"/>
<path d="M87.2616 14.6219C87.2616 14.1766 87.7794 13.8055 88.4205 13.8055C89.0616 13.8055 89.604 14.1766 89.604 14.6219C89.604 15.0672 89.0862 15.4136 88.4205 15.4136C87.7547 15.4136 87.2616 15.0425 87.2616 14.6219Z" fill="white" stroke="#BE312A" stroke-width="2" stroke-linejoin="round"/>
<path d="M87.804 14.4982C87.804 14.2755 88.0752 14.1024 88.4204 14.1024C88.7656 14.1024 89.0121 14.2755 89.0121 14.4982C89.0121 14.7209 88.7656 14.8446 88.4204 14.8446C88.0752 14.8446 87.804 14.8446 87.804 14.4982Z" fill="white" stroke="#BE312A" stroke-width="2" stroke-linejoin="round"/>
<path d="M91.5026 16.3538C91.5507 16.6706 91.5293 16.9942 91.4399 17.3018C91.3504 17.6095 91.1951 17.8939 90.9848 18.1351C90.5567 18.5076 90.1758 18.9314 89.8506 19.3969C92.781 20.6835 95.7865 21.7906 98.8504 22.7122C102.522 22.9117 106.201 22.9117 109.872 22.7122C110.932 22.4153 111.697 20.9556 110.735 20.4113C109.774 19.867 103.338 17.7887 103.338 17.7887C103.338 17.7887 98.16 16.7001 95.5217 16.4032C94.1954 16.1489 92.8347 16.1321 91.5026 16.3538Z" fill="white" stroke="#BE312A" stroke-width="2" stroke-linejoin="round"/>
<path d="M133.148 53.7868C133.705 54.0317 134.241 54.3213 134.751 54.6528C135.047 54.8507 135.713 54.6528 135.935 55.1476C136.157 55.6424 135.935 56.2362 135.935 56.4589C135.935 56.6815 135.515 57.2258 134.998 57.6217C134.338 58.0159 133.635 58.3314 132.902 58.5618L132.261 57.5227V55.0486L133.148 53.7868Z" fill="white" stroke="#BE312A" stroke-width="2" stroke-linejoin="round"/>
<path d="M133.148 52.9704C133.712 53.2065 134.257 53.4878 134.776 53.8116C135.33 54.27 135.705 54.9094 135.836 55.6177C135.836 56.1125 135.417 56.3846 134.899 56.8052C134.245 57.187 133.55 57.4941 132.828 57.7207L132.162 56.6815V54.4301L133.148 52.9704Z" fill="white" stroke="#BE312A" stroke-width="2" stroke-linejoin="round"/>
<path d="M93.697 58.735L122.25 58.8588C122.867 59.2418 123.519 59.5649 124.198 59.8236C126.735 59.9034 129.273 59.7043 131.768 59.2299C132.039 59.1062 133.05 58.735 132.951 58.6361C132.305 58.5406 131.649 58.5406 131.003 58.6361C129.046 58.8422 127.078 58.9414 125.11 58.933C124.083 58.5834 123.078 58.1703 122.102 57.6959H93.8943L93.697 58.735Z" fill="white" stroke="#BE312A" stroke-width="2" stroke-linejoin="round"/>
<path d="M144.984 40.4515C144.639 40.4515 144.565 41.0452 144.565 41.0452L130.017 51.8076L122.225 52.6487L91.2314 52.525L90.5903 53.193L92.341 58.933L120.327 58.067L124.445 59.2546L131.842 58.5866C131.842 58.5866 148.855 69.2499 148.954 69.4726C149.128 69.8381 149.401 70.1468 149.743 70.3633C149.966 70.4845 150.216 70.548 150.47 70.548C150.724 70.548 150.974 70.4845 151.198 70.3633C151.641 70.0416 151.567 69.8437 151.567 69.6705C151.567 69.4973 151.567 69.1757 151.567 69.1757C154.551 66.5532 154.033 66.4295 156.104 62.5451C158.175 58.6608 156.745 54.0095 156.104 51.8076C155.463 49.6056 152.011 46.0429 151.173 45.0038C149.472 43.2526 147.558 41.7231 145.477 40.4515C145.402 40.408 145.317 40.3852 145.23 40.3852C145.144 40.3852 145.059 40.408 144.984 40.4515ZM145.798 42.3565C146.026 42.3136 146.26 42.3136 146.488 42.3565C147.475 42.8491 148.402 43.4552 149.25 44.1626C149.669 44.6574 150.704 45.4491 151.715 46.6367C152.344 47.3855 152.928 48.1702 153.466 48.9871C154.39 50.1122 154.979 51.4754 155.167 52.9209C155.167 53.5642 154.723 53.6384 154.255 53.7868C153.787 53.9353 135.466 54.1332 135.466 54.1332C134.827 54.1825 134.183 54.1154 133.568 53.9353C133.296 53.7868 133.321 53.5642 133.272 53.0446C133.233 52.468 133.233 51.8894 133.272 51.3127L144.713 42.505C145.064 42.397 145.43 42.3469 145.798 42.3565ZM155.044 55.1228C155.192 55.1228 155.389 55.2713 155.562 55.6424C156.037 57.7223 155.829 59.9005 154.97 61.8524C154.607 63.5711 153.75 65.1453 152.504 66.38C152.115 66.8214 151.631 67.1686 151.088 67.3957C150.546 67.6228 149.96 67.7238 149.373 67.6913C148.978 67.6913 134.135 58.067 133.173 57.4237C133.041 57.2531 132.963 57.0459 132.951 56.83C132.952 56.5832 133.002 56.3392 133.099 56.1125C133.201 55.9097 133.356 55.7384 133.547 55.6164C133.738 55.4945 133.958 55.4266 134.184 55.4197L154.896 55.296C154.93 55.2264 154.981 55.1667 155.044 55.1228Z" fill="white" stroke="#BE312A" stroke-width="2" stroke-linejoin="round"/>
<path d="M97.6669 51.1148C96.8031 51.6752 95.9792 52.2953 95.2011 52.9704C94.2626 53.6114 93.2314 54.1037 92.1437 54.4301L91.9464 54.9991L93.2779 54.6775L95.9409 53.1436L97.4943 51.9313L98.3326 51.4364V50.7684L97.6669 51.1148Z" fill="white" stroke="#BE312A" stroke-width="2" stroke-linejoin="round"/>
<path d="M98.2093 53.9105C97.863 53.9344 97.53 54.0543 97.2477 54.2569C96.6824 54.5064 96.0611 54.6004 95.4477 54.5291L93.5244 53.8363L92.0943 53.6136L91.4286 54.2074L93.7464 54.6775L95.8422 55.1723L97.223 54.9249L98.3572 54.3064L98.2093 53.9105Z" fill="white" stroke="#BE312A" stroke-width="2" stroke-linejoin="round"/>
<path d="M112.289 52.1045C112.735 52.1318 113.175 52.2235 113.595 52.3766C114.463 52.7596 115.362 53.0659 116.283 53.292C117.047 53.4405 119.982 53.7374 119.982 53.7374V54.2817C119.041 54.2493 118.103 54.1667 117.171 54.0343L115.001 53.4652L112.535 52.7725H111.869L112.289 52.1045Z" fill="white" stroke="#BE312A" stroke-width="2" stroke-linejoin="round"/>
<path d="M119.858 54.4301H117.393C116.78 54.4019 116.178 54.2593 115.617 54.0095C114.848 53.6384 114.005 53.444 113.152 53.4405L111.721 53.6384L111.968 54.2075C112.373 54.056 112.796 53.9562 113.226 53.9106C113.802 54.0091 114.371 54.1497 114.927 54.3312L116.406 54.9497L117.935 55.0734L119.439 54.8012L120.056 54.5291" fill="white"/>
<path d="M119.858 54.4301H117.393C116.78 54.4019 116.178 54.2593 115.617 54.0095C114.848 53.6384 114.005 53.444 113.152 53.4405L111.721 53.6384L111.968 54.2075C112.373 54.056 112.796 53.9562 113.226 53.9106C113.802 54.0091 114.371 54.1497 114.927 54.3312L116.406 54.9497L117.935 55.0734L119.439 54.8012L120.056 54.5291" stroke="#BE312A" stroke-width="2" stroke-linejoin="round"/>
<path d="M120.302 54.4301V55.3208C119.763 55.6183 119.181 55.8271 118.576 55.9393C117.87 55.9769 117.162 55.9769 116.456 55.9393C115.79 55.9393 113.472 55.494 113.053 55.4445C112.544 55.4185 112.033 55.4185 111.524 55.4445V54.8012C111.999 54.7442 112.479 54.7442 112.954 54.8012C113.571 54.9249 114.31 54.9497 114.853 55.0734C115.476 55.213 116.114 55.2713 116.751 55.2466C117.444 55.2446 118.136 55.195 118.823 55.0981C119.33 54.9083 119.824 54.6851 120.302 54.4301Z" fill="white" stroke="#BE312A" stroke-width="2" stroke-linejoin="round"/>
<path d="M120.154 54.8012L120.499 55.9641L122.595 55.7661V54.6281L120.154 54.8012Z" fill="white" stroke="#BE312A" stroke-width="2" stroke-linejoin="round"/>
<path d="M122.053 53.3415L120.056 53.6879V54.7765L122.201 54.6033L122.053 53.3415Z" fill="white" stroke="#BE312A" stroke-width="2" stroke-linejoin="round"/>
<path d="M155.167 54.4301C155.167 54.2817 155.932 49.9025 156.4 47.4532C156.457 46.9143 156.573 46.3833 156.745 45.8697C157.123 45.832 157.502 45.832 157.88 45.8697C158.171 45.9426 158.452 46.0506 158.718 46.1914C158.665 47.5107 158.475 48.8208 158.151 50.1004C157.732 52.2282 157.239 54.3311 157.239 54.4301C157.166 54.6605 157.015 54.8583 156.812 54.9892C156.61 55.1202 156.368 55.1762 156.129 55.1476C155.562 55.0239 155.118 54.7023 155.167 54.4301Z" fill="white" stroke="#BE312A" stroke-width="2" stroke-linejoin="round"/>
<path d="M156.745 45.9687C156.745 45.6223 157.263 45.3749 157.806 45.4244C158.348 45.4739 158.816 45.7955 158.792 46.1171C158.767 46.4388 158.274 46.6862 157.707 46.6614C157.14 46.6367 156.721 46.2903 156.745 45.9687Z" fill="white" stroke="#BE312A" stroke-width="2" stroke-linejoin="round"/>
<path d="M151.666 60.269C152.634 59.4801 153.518 58.593 154.304 57.6217C155.645 56.2544 156.584 54.5421 157.017 52.6735C157.288 50.3541 157.18 48.0057 156.696 45.7213C155.531 42.4435 153.604 39.4918 151.074 37.1114C149.665 36.0521 148.2 35.0693 146.685 34.1673L147.03 32.9055L148.337 33.9199C148.337 33.9199 150.803 35.7754 151.912 36.5671C153.536 38.0305 154.969 39.693 156.178 41.5153C156.931 42.9165 157.598 44.3624 158.175 45.845C158.523 47.9293 158.598 50.0503 158.397 52.154C158.221 53.8763 157.582 55.5183 156.548 56.9042C155.932 57.7949 152.628 61.5308 152.628 61.5308L151.666 60.269Z" fill="white" stroke="#BE312A" stroke-width="2" stroke-linejoin="round"/>
<path d="M156.499 46.0676C156.499 45.6718 157.017 45.3502 157.682 45.3502C158.348 45.3502 158.866 45.6718 158.866 46.0676C158.866 46.4635 158.323 46.7851 157.682 46.7851C157.041 46.7851 156.499 46.4635 156.499 46.0676Z" fill="white" stroke="#BE312A" stroke-width="2" stroke-linejoin="round"/>
<path d="M66.3277 56.9042C66.2675 56.4451 66.3483 55.9784 66.5594 55.5666C66.7704 55.1547 67.1016 54.8172 67.5088 54.5992C67.9159 54.3812 68.3797 54.293 68.8382 54.3463C69.2966 54.3997 69.7279 54.5921 70.0746 54.8978C70.4212 55.2036 70.6666 55.6082 70.7781 56.0575C70.8896 56.5069 70.8618 56.9797 70.6985 57.4129C70.5351 57.846 70.244 58.2188 69.864 58.4816C69.4839 58.7444 69.0331 58.8846 68.5715 58.8835C68.0129 58.9174 67.4636 58.7284 67.0433 58.3577C66.623 57.9869 66.3658 57.4644 66.3277 56.9042Z" fill="white" stroke="#BE312A" stroke-width="2" stroke-linejoin="round"/>
<path d="M66.0072 55.3208L64.9716 60.6648L67.5852 63.3121L68.7934 58.1165L66.0072 55.3208Z" fill="white" stroke="#BE312A" stroke-width="2" stroke-linejoin="round"/>
<path d="M67.6345 63.3616L69.0153 63.7822L70.2235 58.5619L68.8427 58.1165L67.6345 63.3616Z" fill="white" stroke="#BE312A" stroke-width="2" stroke-linejoin="round"/>
<path d="M69.0399 63.8069L70.0262 63.4853L71.1851 58.2155L70.1741 58.5619L69.0399 63.8069Z" fill="white" stroke="#BE312A" stroke-width="2" stroke-linejoin="round"/>
<path d="M66.0564 55.1971L67.4619 54.8507V55.1971C67.4619 55.1971 66.8208 55.3208 67.0427 55.7166C67.1999 55.9802 67.4312 56.1912 67.7076 56.3233C67.984 56.4553 68.2931 56.5025 68.5961 56.4589C69.1385 56.2857 68.9413 56.4589 68.9413 56.4589L69.0399 56.9042C69.0399 56.9042 68.2262 56.9042 68.818 57.3495C69.4098 57.7949 69.681 58.0918 70.1741 57.9928C70.4202 57.9713 70.6677 57.9713 70.9138 57.9928L71.259 58.2155L70.3221 58.5866L68.9413 58.0918L66.0564 55.1971Z" fill="white" stroke="#BE312A" stroke-width="2" stroke-linejoin="round"/>
<path d="M71.0865 59.3783C71.0865 59.3783 72.2208 60.3927 72.6153 60.8133C72.9312 61.1764 73.2042 61.5749 73.429 62.0008V62.7926L74.0207 60.6648L72.2208 58.7845L71.5057 58.2155L70.9386 58.834L71.0865 59.3783Z" fill="white" stroke="#BE312A" stroke-width="2" stroke-linejoin="round"/>
<path d="M74.9824 79.468L80.1604 67.0975C80.2493 66.9506 80.3716 66.827 80.5174 66.7367C80.6631 66.6464 80.828 66.592 80.9987 66.5779C81.6644 66.4542 82.9959 68.0624 83.1439 68.1613C83.4514 68.418 83.8302 68.5735 84.2288 68.6067C84.651 68.6644 85.0799 68.5678 85.437 68.3345C85.6589 68.2108 86.8671 68.3345 87.6068 68.3345C89.1493 67.9111 90.6447 67.3308 92.0697 66.6027C93.0689 65.8424 94.0162 65.0159 94.9053 64.1286C95.0679 63.7864 95.1999 63.4303 95.2998 63.0647C95.343 62.9348 95.4009 62.8102 95.4724 62.6936C95.4724 62.6936 95.8916 62.3967 95.8916 62.174C95.8916 61.9514 95.8916 61.0359 95.8916 61.0359L89.3328 65.5635L80.3083 64.4997L76.2645 70.9571L73.6755 79.6411L74.9824 79.468Z" fill="white" stroke="#BE312A" stroke-width="2" stroke-linejoin="round"/>
<path d="M87.6314 53.3415L78.3603 51.956L75.5247 57.399L73.9713 59.3783C73.0919 58.721 72.2672 57.9928 71.5056 57.2011L70.4207 57.7207L73.3056 60.4669C73.5827 60.8013 73.739 61.2198 73.7494 61.6545L66.4756 78.4783L66.1057 79.6412L68.3002 82.4616L74.3165 80.1855C74.3165 80.1855 79.5685 67.2707 79.7164 66.8501C79.8131 66.3167 80.0816 65.8299 80.4808 65.4646C80.6682 65.3314 80.8922 65.2599 81.1219 65.2599C81.3516 65.2599 81.5755 65.3314 81.763 65.4646C82.2669 65.8887 82.7369 66.352 83.1684 66.8501C83.525 67.1702 83.9583 67.3918 84.426 67.4933C85.1657 67.4933 85.2396 67.2707 85.6341 67.2212C86.0287 67.1717 86.004 67.2212 86.4478 67.2212C87.7927 67.2915 89.1312 66.9921 90.319 66.3553C91.6438 65.815 92.8818 65.0813 93.9929 64.1781C94.4672 63.7546 94.9044 63.2911 95.2997 62.7926C95.6449 62.273 95.2997 61.8524 95.497 61.605C95.6942 61.3576 95.9408 61.2834 95.9655 60.7638C95.9901 60.2442 93.8943 58.2897 93.8943 58.2897L87.6314 53.3415ZM90.0971 61.4318L92.0203 63.1389C92.0203 63.1389 92.0203 63.4358 91.3299 63.9059C90.6395 64.376 88.6177 65.3656 87.8779 65.0935C87.1685 64.6836 86.5139 64.1848 85.93 63.609L90.0971 61.4318Z" fill="white" stroke="#BE312A" stroke-width="2" stroke-linejoin="round"/>
<path d="M72.1714 50.8427L66.9688 53.6384C66.8797 53.7796 66.8288 53.9416 66.8208 54.1085C66.8188 54.1927 66.8354 54.2764 66.8696 54.3534C66.9037 54.4304 66.9544 54.4989 67.0181 54.5538L70.3715 57.6959C70.5499 57.738 70.7355 57.738 70.9139 57.6959C71.1852 57.5722 75.8453 54.059 75.8453 54.059L72.1714 50.8427Z" fill="white" stroke="#BE312A" stroke-width="2" stroke-linejoin="round"/>
<path d="M72.344 50.4221L66.9934 53.5394C66.9754 53.647 66.984 53.7574 67.0184 53.8609C67.0528 53.9644 67.1119 54.0579 67.1906 54.1332L70.5687 57.2753C70.747 57.3174 70.9327 57.3174 71.1111 57.2753C71.3824 57.1516 76.0425 53.6384 76.0425 53.6384L72.344 50.4221Z" fill="white" stroke="#BE312A" stroke-width="2" stroke-linejoin="round"/>
<path d="M74.9331 55.395C74.7197 55.448 74.5335 55.5785 74.4105 55.7613C74.2875 55.9442 74.2365 56.1663 74.2673 56.3847C74.2673 57.2259 74.4646 58.2155 75.1057 58.5124C75.6983 58.8219 76.3413 59.023 77.0043 59.1062C77.2455 59.1062 77.4827 59.1675 77.6939 59.2843C77.9052 59.4011 78.0836 59.5696 78.2125 59.7742C78.3385 59.9416 78.4067 60.1457 78.4067 60.3556C78.4067 60.5654 78.3385 60.7695 78.2125 60.937C77.9539 61.3221 77.6653 61.6861 77.3495 62.0256C77.1522 62.2483 76.6591 62.6689 76.4125 62.8915C76.1659 63.1176 75.9503 63.3755 75.7714 63.6585C75.6336 63.8598 75.5179 64.0755 75.4262 64.3018" stroke="#BE312A" stroke-width="2" stroke-linejoin="round"/>
<path d="M75.6234 58.265C75.3901 57.2072 75.2499 56.131 75.2042 55.0486C75.6138 55.0001 76.0276 55.0001 76.4371 55.0486C76.733 55.0486 77.3247 54.9002 77.4973 55.0486C77.5589 56.1199 77.5589 57.1937 77.4973 58.265C77.4973 58.6113 77.0782 58.8835 76.585 58.8835C76.0919 58.8835 75.6234 58.6113 75.6234 58.265Z" fill="white" stroke="#BE312A" stroke-width="2" stroke-linejoin="round"/>
<path d="M75.007 55.2218C75.007 54.826 75.5987 54.5043 76.3384 54.5043C77.0782 54.5043 77.6453 54.826 77.6453 55.2218C77.6453 55.6177 77.0535 55.9393 76.3384 55.9393C75.6234 55.9393 75.007 55.6177 75.007 55.2218Z" fill="white" stroke="#BE312A" stroke-width="2" stroke-linejoin="round"/>
<path d="M68.6455 47.0078C68.6455 47.0078 68.2017 47.2552 68.1277 47.4532C68.0537 47.6511 67.7085 47.948 68.1277 48.1954C68.4681 48.4101 68.8322 48.5844 69.2126 48.7149H71.0126L75.3276 52.5993C75.3276 52.5993 74.8098 54.1085 74.9824 54.4549C75.2646 54.786 75.5975 55.0699 75.9686 55.296L77.4481 54.8754L77.7933 54.0095L77.9905 53.4157L78.459 53.0199L78.6563 52.6488L71.2591 45.5728L70.5687 46.3893L68.6455 47.0078Z" fill="white" stroke="#BE312A" stroke-width="2" stroke-linejoin="round"/>
<path d="M77.9658 53.2425C77.9436 53.749 77.886 54.2534 77.7932 54.7517C77.5494 55.0696 77.2261 55.3171 76.8563 55.4692C76.585 55.4692 75.6234 55.6424 75.4261 55.4692C75.1713 55.1931 75.0003 54.8498 74.933 54.4796C74.933 54.2322 75.1549 53.0941 75.1549 53.0941L71.0372 49.2345C70.4486 49.1521 69.8559 49.1025 69.2619 49.0861C69.0166 49.0803 68.7754 49.0222 68.5543 48.9155C68.3332 48.8089 68.1373 48.6561 67.9797 48.4675C67.6345 48.0469 67.8071 47.8243 67.9797 47.4779C68.0159 47.3669 68.0805 47.2673 68.167 47.1892C68.2536 47.1111 68.359 47.057 68.4728 47.0326C68.4728 47.0326 68.0044 47.8243 68.2016 48.0717C68.4419 48.2895 68.7169 48.4651 69.0153 48.5912H70.8892L75.5001 52.5498L75.1056 54.2569C75.1056 54.2569 75.1056 54.8754 75.6481 54.9497C76.0792 54.9705 76.511 54.9289 76.9302 54.826C77.198 54.6935 77.4146 54.4761 77.5467 54.2074C77.6644 53.8766 77.8045 53.5543 77.9658 53.2425Z" fill="white" stroke="#BE312A" stroke-width="2" stroke-linejoin="round"/>
<path d="M75.8453 54.9002C75.8453 54.9002 75.6234 52.2282 75.6973 52.1787C75.8444 52.1555 75.9941 52.1555 76.1412 52.1787C76.25 52.1891 76.3531 52.2322 76.4371 52.3024C76.4371 52.3024 76.4371 54.9249 76.4371 54.9992C76.4371 55.091 76.4007 55.1791 76.336 55.2441C76.2712 55.309 76.1834 55.3455 76.0919 55.3455C76.0003 55.3455 75.9125 55.309 75.8478 55.2441C75.783 55.1791 75.7467 55.091 75.7467 54.9992L75.8453 54.9002Z" fill="white" stroke="#BE312A" stroke-width="2" stroke-linejoin="round"/>
<path d="M75.6974 52.2034C75.6974 52.055 75.87 51.9313 76.0672 51.9313C76.2645 51.9313 76.4124 52.055 76.4124 52.2034C76.4124 52.3519 76.2398 52.4756 76.0672 52.4756C75.8946 52.4756 75.6974 52.3519 75.6974 52.2034Z" fill="white" stroke="#BE312A" stroke-width="2" stroke-linejoin="round"/>
<path d="M78.9028 52.7477L80.5795 58.5124C80.5795 58.5124 81.4672 60.8133 82.0836 61.1844C82.7 61.5555 83.563 62.174 83.563 62.174L84.2534 56.1867L80.9247 52.2281L78.9028 52.7477Z" fill="white" stroke="#BE312A" stroke-width="2" stroke-linejoin="round"/>
<path d="M88.6177 61.1596L84.7712 62.842L84.6233 60.6153L87.6068 59.3783L88.6177 61.1596Z" fill="white" stroke="#BE312A" stroke-width="2" stroke-linejoin="round"/>
<path d="M83.6369 66.1573C83.6369 65.9841 82.9712 56.731 83.1191 56.632C83.2671 56.5331 83.489 56.7558 83.7602 56.7805C83.9884 56.8223 84.2223 56.8223 84.4506 56.7805H84.7711C84.9191 56.7805 85.1657 65.9841 85.1657 66.3058C85.1657 66.6274 84.8204 66.8501 84.4013 66.8501C83.9821 66.8501 83.6369 66.4542 83.6369 66.1573Z" fill="white" stroke="#BE312A" stroke-width="2" stroke-linejoin="round"/>
<path d="M91.8478 50.9169L92.193 60.8133L84.9684 57.8938L83.2424 52.2282L84.8945 50.1004L87.3602 48.5912L91.8478 50.9169Z" fill="white" stroke="#BE312A" stroke-width="2" stroke-linejoin="round"/>
<path d="M67.4373 74.2229L67.9551 76.9196L74.3906 78.0577L74.1933 75.5836L67.4373 74.2229Z" fill="white" stroke="#BE312A" stroke-width="2" stroke-linejoin="round"/>
<path d="M74.366 78.132L78.2618 68.4088H77.1276L74.1194 75.2867L74.366 78.132Z" fill="white" stroke="#BE312A" stroke-width="2" stroke-linejoin="round"/>
<path d="M88.2725 50.7437C87.7055 50.9456 87.1668 51.22 86.6698 51.5601C86.0533 52.0055 84.6725 52.5993 84.5492 53.1188C84.426 53.6384 85.5355 54.727 85.5355 54.727V55.8156C85.3727 56.1201 85.124 56.3697 84.8205 56.5331C84.352 56.7557 83.1684 56.9289 82.8972 56.5331C82.626 56.1372 81.2698 55.1723 79.8891 54.059C78.5083 52.9456 77.5713 51.8323 77.5713 51.8323C76.3011 50.8601 74.9285 50.0304 73.4782 49.3582C72.4919 49.1108 72.0234 48.1706 71.6536 47.948C71.2837 47.7253 66.9441 43.5936 66.9441 43.5936L66.0564 40.6989L63.5907 37.1856V36.1713L86.3739 45.0038L90.245 48.0222L88.2725 50.7437Z" fill="white" stroke="#BE312A" stroke-width="2" stroke-linejoin="round"/>
<path d="M88.3218 49.8283C87.1169 50.4312 85.9552 51.1173 84.8451 51.8818C84.5403 52.2397 84.3436 52.6774 84.278 53.1436L85.3383 54.4301C85.4335 54.65 85.4537 54.8954 85.3958 55.128C85.3378 55.3606 85.2049 55.5676 85.0177 55.7167C84.7335 55.9417 84.3875 56.0741 84.0261 56.0962C83.6647 56.1184 83.3052 56.0291 82.9959 55.8404C80.8516 54.1319 78.8097 52.2979 76.8809 50.3479L74.5878 49.0366C73.8716 48.6878 73.1796 48.2911 72.5166 47.849L67.018 42.7276C66.8605 41.9217 66.6209 41.1341 66.303 40.3773L63.8373 36.5177L74.2672 31.9653L75.5741 33.1034L92.119 47.4532L88.3218 49.8283Z" fill="white" stroke="#BE312A" stroke-width="2" stroke-linejoin="round"/>
<path d="M67.0427 79.1711C67.0427 79.1711 67.4372 77.3897 67.5112 77.1176L68.2263 75.0888C68.4226 75.062 68.6217 75.062 68.818 75.0888C69.0399 75.0888 68.3742 76.4001 68.0783 77.5629C67.9117 78.2878 67.7963 79.0236 67.7331 79.7648L67.0427 79.1711Z" fill="white" stroke="#BE312A" stroke-width="2" stroke-linejoin="round"/>
<path d="M68.2263 80.3092C68.4259 79.3658 68.698 78.4394 69.04 77.5382C69.3415 76.8011 69.7306 76.1033 70.1989 75.4599C70.1989 75.4599 70.9879 75.262 70.9386 75.6084C70.8893 75.9547 69.6811 77.2165 69.4099 78.3794C69.2437 79.1138 69.1202 79.8573 69.04 80.6061L68.2263 80.3092Z" fill="white" stroke="#BE312A" stroke-width="2" stroke-linejoin="round"/>
<path d="M69.5084 80.0865C69.933 79.2275 70.4192 78.4007 70.9632 77.6124C71.4328 76.9776 71.9794 76.4042 72.5906 75.9053C72.5906 75.9053 73.4042 75.9053 73.281 76.2269C73.1577 76.5485 71.6536 77.4887 71.1111 78.5526C70.7646 79.2053 70.4679 79.8835 70.2235 80.5813L69.5084 80.0865Z" fill="white" stroke="#BE312A" stroke-width="2" stroke-linejoin="round"/>
<path d="M88.2231 31.5695L88.5437 33.2518L87.8779 34.9837V35.6517L86.4232 39.0907L86.078 38.398L85.8561 39.1897H85.3383L86.2999 36.6414L88.2231 31.5695Z" fill="white" stroke="#BE312A" stroke-width="2" stroke-linejoin="round"/>
<path d="M79.7412 34.8105L81.8617 30.5056L88.2479 31.5447L87.0644 34.6374C87.2052 34.8429 87.2901 35.0816 87.3109 35.3301C87.4054 35.5855 87.4054 35.8664 87.3109 36.1218L86.6205 37.8042L86.3 36.5919L85.4123 39.066L81.196 37.4083L79.7412 34.8105Z" fill="white" stroke="#BE312A" stroke-width="2" stroke-linejoin="round"/>
<path d="M81.7383 35.6517L84.4506 36.1465C84.4791 36.1492 84.5067 36.158 84.5315 36.1725C84.5563 36.1869 84.5776 36.2066 84.594 36.2301C84.6105 36.2537 84.6216 36.2805 84.6266 36.3088C84.6317 36.3371 84.6305 36.3661 84.6232 36.3939C84.6112 36.4552 84.5766 36.5096 84.5263 36.5463C84.476 36.583 84.4137 36.5993 84.352 36.5919L81.6644 36.1218C81.6058 36.1052 81.5546 36.0693 81.5188 36.02C81.483 35.9706 81.4648 35.9106 81.4671 35.8496C81.4837 35.7909 81.5194 35.7395 81.5686 35.7036C81.6178 35.6677 81.6776 35.6494 81.7383 35.6517Z" fill="white" stroke="#BE312A" stroke-width="2" stroke-linejoin="round"/>
<path d="M82.8233 32.4107L85.5109 32.8807C85.5719 32.8928 85.6262 32.9275 85.6628 32.978C85.6993 33.0285 85.7156 33.0909 85.7082 33.1529C85.7024 33.1825 85.6907 33.2106 85.6737 33.2355C85.6568 33.2604 85.6349 33.2816 85.6096 33.2978C85.5842 33.314 85.5558 33.3249 85.5262 33.3297C85.4965 33.3346 85.4661 33.3333 85.437 33.3261L82.7247 32.8807C82.6952 32.8749 82.6671 32.8632 82.6423 32.8461C82.6175 32.8291 82.5964 32.8072 82.5802 32.7818C82.5641 32.7563 82.5533 32.7279 82.5484 32.6981C82.5436 32.6683 82.5448 32.6379 82.5521 32.6086C82.5548 32.5768 82.5643 32.546 82.5799 32.5182C82.5955 32.4904 82.6169 32.4663 82.6426 32.4475C82.6684 32.4287 82.6978 32.4157 82.729 32.4094C82.7602 32.403 82.7923 32.4035 82.8233 32.4107Z" fill="white" stroke="#BE312A" stroke-width="2" stroke-linejoin="round"/>
<path d="M82.3301 33.6724L85.0424 34.1425C85.1034 34.1546 85.1577 34.1893 85.1943 34.2398C85.2308 34.2902 85.2471 34.3527 85.2397 34.4147C85.2339 34.4443 85.2222 34.4724 85.2052 34.4973C85.1883 34.5222 85.1664 34.5434 85.1411 34.5596C85.1157 34.5758 85.0873 34.5867 85.0576 34.5915C85.028 34.5964 84.9976 34.5951 84.9684 34.5879L82.2562 34.1425C82.2267 34.1367 82.1986 34.1249 82.1738 34.1079C82.149 34.0909 82.1279 34.069 82.1117 34.0436C82.0956 34.0181 82.0848 33.9897 82.0799 33.9599C82.0751 33.9301 82.0763 33.8997 82.0836 33.8704C82.0866 33.8411 82.0955 33.8127 82.1095 33.7868C82.1236 33.7609 82.1427 33.7381 82.1656 33.7197C82.1886 33.7013 82.2149 33.6877 82.2432 33.6795C82.2714 33.6714 82.301 33.669 82.3301 33.6724Z" fill="white" stroke="#BE312A" stroke-width="2" stroke-linejoin="round"/>
<path d="M87.1382 34.4889L86.4232 34.8105L85.8807 36.5177L86.2999 36.6414" stroke="#BE312A" stroke-width="2" stroke-linejoin="round"/>
<path d="M79.3713 34.6373C79.9078 34.6492 80.4397 34.7409 80.9494 34.9095C81.3685 35.1321 82.5028 35.9486 82.5028 35.9486L87.4342 40.6246L89.8999 44.0389L89.2588 44.9048L85.0671 41.0947L78.5823 35.3796L79.3713 34.6373Z" fill="white" stroke="#BE312A" stroke-width="2" stroke-linejoin="round"/>
<path d="M81.9356 36.4187L85.5849 39.8082C85.6334 39.8626 85.6602 39.9331 85.6602 40.0061C85.6602 40.0791 85.6334 40.1496 85.5849 40.204C85.5267 40.2545 85.4523 40.2823 85.3753 40.2823C85.2983 40.2823 85.224 40.2545 85.1657 40.204L81.5165 36.864C81.4896 36.8386 81.4682 36.8079 81.4536 36.7739C81.4389 36.7398 81.4314 36.7032 81.4314 36.6661C81.4314 36.629 81.4389 36.5924 81.4536 36.5583C81.4682 36.5243 81.4896 36.4936 81.5165 36.4682C81.538 36.4338 81.567 36.4047 81.6012 36.3831C81.6355 36.3614 81.6741 36.3477 81.7143 36.3429C81.7545 36.3382 81.7952 36.3425 81.8335 36.3556C81.8718 36.3687 81.9067 36.3903 81.9356 36.4187Z" fill="white" stroke="#BE312A" stroke-width="2" stroke-linejoin="round"/>
<path d="M63.862 35.4785C63.862 35.4785 63.5908 35.9486 63.862 36.2702C63.9327 36.4389 64.0535 36.5817 64.2079 36.6791C64.3623 36.7765 64.5428 36.8238 64.725 36.8145C66.0057 36.4872 67.2656 36.0824 68.4975 35.6022L70.4701 34.761L73.8974 32.4849C73.9506 32.3965 73.9827 32.2968 73.9911 32.1939C73.9994 32.0909 73.9839 31.9875 73.9456 31.8915C73.9074 31.7956 73.8475 31.7099 73.7707 31.6412C73.6939 31.5724 73.6022 31.5225 73.5029 31.4952C72.8381 31.3383 72.1459 31.3383 71.481 31.4952L70.692 31.6684L70.4948 30.9015C70.462 31.3426 70.269 31.7564 69.9523 32.0643C69.2886 32.3997 68.5252 32.479 67.8071 32.287C67.2154 32.089 66.6729 31.0499 66.6729 31.0499C66.6729 31.0499 66.9195 32.8065 66.6729 33.1776C66.2575 33.572 65.8213 33.9436 65.3661 34.291L63.862 35.4785Z" fill="white" stroke="#BE312A" stroke-width="2" stroke-linejoin="round"/>
<path d="M66.5742 31.2478C66.5742 30.5304 67.4865 29.9861 68.5468 30.0355C69.607 30.085 70.47 30.6788 70.4454 31.3715C70.4207 32.0643 69.5331 32.6333 68.4728 32.6086C67.4126 32.5839 66.5742 31.9406 66.5742 31.2478Z" fill="white" stroke="#BE312A" stroke-width="2" stroke-linejoin="round"/>
<path d="M63.9359 35.4043C63.9695 35.2165 64.0506 35.0405 64.1715 34.8932C64.2924 34.7459 64.449 34.6322 64.6263 34.5631H65.0455C65.2216 34.5643 65.39 34.6355 65.514 34.761C65.6297 34.8391 65.7272 34.9415 65.7996 35.0611C65.8719 35.1807 65.9175 35.3147 65.9331 35.4538C65.9331 35.8002 65.4893 36.097 64.9222 36.097C64.3551 36.097 63.9359 35.7507 63.9359 35.4043Z" fill="white" stroke="#BE312A" stroke-width="2" stroke-linejoin="round"/>
<path d="M71.5056 31.7427C71.5435 31.5565 71.6262 31.3825 71.7465 31.2359C71.8669 31.0892 72.0212 30.9744 72.196 30.9015H72.6152C72.7859 30.9068 72.9503 30.9676 73.0837 31.0746C73.1994 31.1527 73.2969 31.2551 73.3693 31.3747C73.4416 31.4943 73.4872 31.6283 73.5028 31.7674C73.5028 32.1138 73.059 32.4107 72.4919 32.4107C71.9248 32.4107 71.5056 32.1632 71.5056 31.7427Z" fill="white" stroke="#BE312A" stroke-width="2" stroke-linejoin="round"/>
<path d="M58.1662 8.28821C57.1552 8.13976 56.1443 8.63458 55.9963 9.15414C55.7817 10.2718 55.8324 11.4245 56.1443 12.5189C56.4895 13.8054 58.3634 17.4671 58.61 17.9867C58.8566 18.5062 61.8154 24.1472 61.8647 24.2214L64.1332 29.1696C64.3324 29.2413 64.5504 29.2413 64.7496 29.1696C65.0702 29.0211 64.7496 27.982 64.7496 27.982L61.6428 21.1782L59.547 17.3187L57.9443 13.5085C57.6657 12.8826 57.4589 12.2268 57.3278 11.554C57.3278 10.886 57.1306 10.4159 57.3278 10.0448C57.5251 9.6737 59.4977 10.2922 60.1387 10.7623C60.7798 11.2324 61.0264 9.69844 61.0264 9.69844C60.2318 8.95659 59.237 8.46609 58.1662 8.28821Z" fill="white" stroke="#BE312A" stroke-width="2" stroke-linejoin="round"/>
<path d="M60.9278 11.8262L60.1635 11.1334C60.1842 10.784 60.3234 10.4523 60.558 10.1933C60.8721 9.92897 61.2437 9.74251 61.6429 9.64896L62.4812 10.3417L60.9278 11.8262Z" fill="white" stroke="#BE312A" stroke-width="2" stroke-linejoin="round"/>
<path d="M60.8784 94.1888C60.9895 94.9966 61.2487 95.7767 61.6428 96.4897C62.1113 96.9846 62.6784 97.9247 63.64 97.9742C64.6701 98.0647 65.7012 97.8126 66.5742 97.2567C67.7015 96.608 68.7105 95.7714 69.5577 94.7826C70.3937 93.9771 71.138 93.0809 71.7769 92.1106L72.2207 90.1808L71.9248 89.9334L64.2811 88.9438L61.988 90.9478L60.8784 94.1888Z" fill="white" stroke="#BE312A" stroke-width="2" stroke-linejoin="round"/>
<path d="M60.6318 93.125C60.693 93.9911 60.9367 94.8344 61.3469 95.5991C61.8154 96.0939 62.3825 97.034 63.3441 97.0835C64.6721 96.9884 65.9499 96.5353 67.0427 95.7722C67.7824 95.1785 71.7029 90.9725 71.7029 90.9725L71.5056 89.2901L64.1085 87.9789L61.8154 89.9829L60.6318 93.125Z" fill="white" stroke="#BE312A" stroke-width="2" stroke-linejoin="round"/>
<path d="M67.5112 31.2973L66.377 22.2669L68.6701 21.5494L69.5577 31.1489C69.4351 31.3061 69.2826 31.4374 69.1091 31.535C68.9355 31.6327 68.7444 31.6949 68.5468 31.7179C68.1673 31.6851 67.8065 31.5386 67.5112 31.2973Z" fill="white" stroke="#BE312A" stroke-width="2" stroke-linejoin="round"/>
<path d="M66.5743 31.3963L65.1195 28.2294L64.725 29.8129L64.9222 31.0746L66.1304 32.3612L66.5743 31.3963Z" fill="white" stroke="#BE312A" stroke-width="2" stroke-linejoin="round"/>
<path d="M63.1223 33.3013C63.2776 33.6288 63.5507 33.8852 63.8867 34.0188C64.1711 34.1181 64.4256 34.2884 64.6264 34.5136L66.9195 33.3261L66.5743 31.7921L65.0456 30.4809L63.5908 31.421L63.147 32.4354L63.1223 33.3013Z" fill="white" stroke="#BE312A" stroke-width="2" stroke-linejoin="round"/>
<path d="M69.7303 67.4686C69.7303 67.4686 71.407 63.6832 71.555 63.6832C71.7029 63.6832 77.3001 64.6234 77.3001 64.6234C77.3001 64.6234 78.3603 64.6234 78.6069 65.0687C78.8535 65.5141 78.3603 66.1326 78.3603 66.1326L74.4892 75.1878L66.8455 73.827L68.5715 69.9674H69.1879L70.4207 67.4933L69.7303 67.4686Z" fill="white" stroke="#BE312A" stroke-width="2" stroke-linejoin="round"/>
<path d="M66.7468 73.9012L67.092 74.8909L74.4892 76.2516L75.1056 75.0888H75.5494L76.659 72.491L76.2891 72.2683L77.4727 69.4479H77.9165L79.0014 66.9738L78.5576 66.8006L78.9768 65.9594L78.7548 65.1924L74.5138 75.2372L66.7468 73.9012Z" fill="white" stroke="#BE312A" stroke-width="2" stroke-linejoin="round"/>
<path d="M69.681 67.5428V68.8293L70.2975 67.5923L69.681 67.5428Z" fill="white" stroke="#BE312A" stroke-width="2" stroke-linejoin="round"/>
<path d="M72.7878 65.7367L75.6481 66.2316C75.7679 66.2441 75.8784 66.3025 75.9565 66.3947C76.0346 66.4868 76.0742 66.6056 76.0672 66.7264C76.0328 66.8381 75.9582 66.9329 75.8579 66.9924C75.7576 67.0518 75.6389 67.0717 75.5248 67.048L72.6399 66.5779C72.5245 66.5597 72.42 66.4988 72.347 66.4072C72.2741 66.3157 72.2378 66.2001 72.2454 66.0831C72.2796 65.9698 72.3531 65.8726 72.4526 65.809C72.5521 65.7455 72.6711 65.7198 72.7878 65.7367Z" fill="white" stroke="#BE312A" stroke-width="2" stroke-linejoin="round"/>
<path d="M72.1715 67.3696L75.0317 67.8644C75.0904 67.8634 75.1485 67.8755 75.2019 67.8999C75.2553 67.9242 75.3027 67.9602 75.3405 68.0053C75.3783 68.0503 75.4056 68.1032 75.4204 68.1602C75.4352 68.2171 75.4372 68.2767 75.4262 68.3345C75.4177 68.3928 75.397 68.4485 75.3656 68.4982C75.3343 68.548 75.2928 68.5905 75.244 68.6232C75.1952 68.6558 75.1401 68.6778 75.0823 68.6878C75.0245 68.6977 74.9653 68.6954 74.9084 68.6809L72.0235 68.1861C71.9651 68.1799 71.9085 68.1622 71.8569 68.1339C71.8054 68.1057 71.7599 68.0674 71.7232 68.0214C71.6865 67.9753 71.6593 67.9225 71.6431 67.8658C71.627 67.8091 71.6222 67.7498 71.629 67.6913C71.6434 67.6343 71.6688 67.5807 71.7039 67.5337C71.739 67.4866 71.7831 67.447 71.8335 67.4171C71.8839 67.3872 71.9397 67.3676 71.9977 67.3595C72.0557 67.3513 72.1148 67.3548 72.1715 67.3696Z" fill="white" stroke="#BE312A" stroke-width="2" stroke-linejoin="round"/>
<path d="M71.0126 69.72L73.8728 70.2148C73.9326 70.2174 73.9911 70.2328 74.0444 70.26C74.0978 70.2871 74.1447 70.3254 74.1821 70.3723C74.2195 70.4192 74.2464 70.4735 74.2611 70.5317C74.2758 70.5899 74.2779 70.6506 74.2673 70.7097C74.2558 70.7657 74.233 70.8188 74.2004 70.8656C74.1677 70.9125 74.1259 70.9522 74.0774 70.9823C74.0289 71.0124 73.9749 71.0323 73.9185 71.0407C73.8621 71.0491 73.8046 71.0459 73.7495 71.0313L70.8646 70.5365C70.7492 70.5182 70.6448 70.4573 70.5718 70.3658C70.4988 70.2743 70.4625 70.1586 70.4701 70.0417C70.4845 69.9847 70.5099 69.9311 70.545 69.8841C70.5801 69.837 70.6242 69.7974 70.6746 69.7675C70.725 69.7376 70.7808 69.718 70.8388 69.7099C70.8969 69.7017 70.9559 69.7052 71.0126 69.72Z" fill="white" stroke="#BE312A" stroke-width="2" stroke-linejoin="round"/>
<path d="M70.3961 71.254L73.2563 71.7488C73.3147 71.7549 73.3713 71.7727 73.4229 71.8009C73.4744 71.8292 73.5199 71.8675 73.5566 71.9135C73.5933 71.9595 73.6205 72.0124 73.6367 72.0691C73.6529 72.1257 73.6577 72.1851 73.6508 72.2436C73.6364 72.3006 73.611 72.3541 73.5759 72.4012C73.5408 72.4482 73.4968 72.4879 73.4463 72.5178C73.3959 72.5477 73.3401 72.5673 73.2821 72.5754C73.2241 72.5836 73.165 72.5801 73.1083 72.5652L70.2481 72.0952C70.1897 72.089 70.1331 72.0713 70.0815 72.043C70.03 72.0147 69.9845 71.9765 69.9478 71.9305C69.9111 71.8844 69.8839 71.8315 69.8677 71.7749C69.8516 71.7182 69.8468 71.6589 69.8536 71.6003C69.8652 71.5411 69.8887 71.4849 69.9226 71.4351C69.9565 71.3853 70.0001 71.3429 70.0508 71.3105C70.1016 71.2781 70.1583 71.2564 70.2177 71.2467C70.277 71.2369 70.3377 71.2394 70.3961 71.254Z" fill="white" stroke="#BE312A" stroke-width="2" stroke-linejoin="round"/>
<path d="M74.5385 75.1878V76.2516" stroke="#BE312A" stroke-width="2" stroke-linejoin="round"/>
<path d="M87.6807 56.2115C89.0122 54.9744 90.5656 54.5291 91.1573 55.1723C91.7491 55.8156 93.0806 57.0526 92.8833 57.6464C92.6861 58.2402 90.4176 57.9681 89.8258 58.6113C89.2341 59.2546 89.2094 61.5802 88.519 61.7287C87.8286 61.8771 86.5711 59.9226 86.3245 59.6505C85.7328 58.933 86.2999 57.4238 87.6807 56.2115Z" fill="white" stroke="#BE312A" stroke-width="2" stroke-linejoin="round"/>
<path d="M89.2588 58.0175C90.5903 56.7805 92.1437 56.3352 92.7354 56.9784C93.3272 57.6217 92.7354 59.1556 91.3793 60.3679C90.0232 61.5802 88.4944 62.0503 87.9026 61.3823C87.3109 60.7143 87.9026 59.2299 89.2588 58.0175Z" fill="white" stroke="#BE312A" stroke-width="2" stroke-linejoin="round"/>
<path d="M97.9381 49.8283L112.017 50.0509L112.215 54.9991L106.617 54.8754V54.4054H103.56L103.289 54.8507H97.9628L97.9381 49.8283Z" fill="white" stroke="#BE312A" stroke-width="2" stroke-linejoin="round"/>
<path d="M100.922 50.8427C100.959 50.8425 100.997 50.8503 101.031 50.8655C101.066 50.8807 101.097 50.9029 101.123 50.9309C101.148 50.9589 101.168 50.9919 101.18 51.0278C101.192 51.0637 101.196 51.1018 101.193 51.1395V53.391C101.196 53.43 101.192 53.4693 101.18 53.5066C101.168 53.5439 101.149 53.5785 101.124 53.6084C101.099 53.6383 101.068 53.6629 101.033 53.6808C100.998 53.6987 100.961 53.7095 100.922 53.7126C100.881 53.7127 100.84 53.7043 100.802 53.6879C100.765 53.6714 100.731 53.6473 100.703 53.6171C100.675 53.5868 100.654 53.5511 100.641 53.5122C100.627 53.4733 100.622 53.432 100.626 53.391V51.1395C100.626 51.0608 100.657 50.9853 100.712 50.9296C100.768 50.8739 100.843 50.8427 100.922 50.8427Z" fill="white" stroke="#BE312A" stroke-width="2" stroke-linejoin="round"/>
<path d="M103.042 50.9416C103.121 50.9416 103.196 50.9729 103.251 51.0286C103.307 51.0843 103.338 51.1598 103.338 51.2385V53.4899C103.341 53.531 103.336 53.5722 103.323 53.6112C103.31 53.6501 103.288 53.6858 103.261 53.7161C103.233 53.7463 103.199 53.7704 103.161 53.7869C103.124 53.8033 103.083 53.8117 103.042 53.8116C103.003 53.8085 102.965 53.7976 102.931 53.7798C102.896 53.7619 102.865 53.7373 102.84 53.7074C102.815 53.6775 102.796 53.6429 102.784 53.6056C102.772 53.5683 102.768 53.529 102.771 53.4899V51.2385C102.771 51.1639 102.798 51.0919 102.849 51.0369C102.899 50.9818 102.968 50.9478 103.042 50.9416Z" fill="white" stroke="#BE312A" stroke-width="2" stroke-linejoin="round"/>
<path d="M106.346 50.9911C106.385 50.9911 106.424 50.9988 106.459 51.0137C106.495 51.0286 106.528 51.0505 106.555 51.0781C106.583 51.1056 106.605 51.1384 106.62 51.1744C106.634 51.2104 106.642 51.249 106.642 51.288V53.5642C106.642 53.6429 106.611 53.7184 106.555 53.7741C106.5 53.8298 106.425 53.8611 106.346 53.8611C106.272 53.8549 106.203 53.8208 106.153 53.7658C106.102 53.7108 106.075 53.6388 106.075 53.5642V51.288C106.075 51.2134 106.102 51.1414 106.153 51.0864C106.203 51.0313 106.272 50.9973 106.346 50.9911Z" fill="white" stroke="#BE312A" stroke-width="2" stroke-linejoin="round"/>
<path d="M108.269 51.0653C108.348 51.0653 108.423 51.0966 108.479 51.1523C108.534 51.208 108.565 51.2835 108.565 51.3622V53.6137C108.565 53.6924 108.534 53.7679 108.479 53.8236C108.423 53.8793 108.348 53.9106 108.269 53.9106C108.232 53.9107 108.194 53.9029 108.16 53.8877C108.125 53.8725 108.094 53.8503 108.068 53.8223C108.043 53.7944 108.023 53.7613 108.011 53.7254C107.999 53.6895 107.995 53.6514 107.998 53.6137V51.3622C107.995 51.3245 107.999 51.2864 108.011 51.2505C108.023 51.2145 108.043 51.1815 108.068 51.1536C108.094 51.1256 108.125 51.1033 108.16 51.0882C108.194 51.073 108.232 51.0652 108.269 51.0653Z" fill="white" stroke="#BE312A" stroke-width="2" stroke-linejoin="round"/>
<path d="M106.494 54.4301H103.56L102.82 56.4589H107.431L106.494 54.4301Z" fill="white" stroke="#BE312A" stroke-width="2" stroke-linejoin="round"/>
<path d="M97.9381 54.9744V57.4485H111.746L112.239 54.9744H106.593V56.4589H103.387V54.9249L97.9381 54.9744Z" fill="white" stroke="#BE312A" stroke-width="2" stroke-linejoin="round"/>
<path d="M82.8726 54.9002C82.9128 54.7115 82.9992 54.5357 83.1241 54.3889C83.2489 54.242 83.4082 54.1287 83.5876 54.059H84.0068C84.0908 54.057 84.1741 54.0737 84.2509 54.1079C84.3276 54.1421 84.3959 54.193 84.4506 54.2569C84.5698 54.3337 84.6712 54.4352 84.7478 54.5548C84.8243 54.6743 84.8744 54.809 84.8944 54.9497C84.8944 55.2961 84.4506 55.5929 83.8835 55.5929C83.3164 55.5929 82.8726 55.2466 82.8726 54.9002Z" fill="white" stroke="#BE312A" stroke-width="2" stroke-linejoin="round"/>
<path d="M92.5382 47.0078L95.7682 49.1355C95.7859 49.5926 95.7445 50.0499 95.645 50.4963C95.5711 50.7002 95.4324 50.874 95.2504 50.9911C94.9701 51.1427 94.6566 51.222 94.3381 51.222C94.0197 51.222 93.7062 51.1427 93.4258 50.9911L91.6012 49.3087L91.9464 46.8346L92.5382 47.0078Z" fill="white" stroke="#BE312A" stroke-width="2" stroke-linejoin="round"/>
<path d="M92.5382 46.2656L95.645 48.9871C95.7052 49.0939 95.7435 49.2117 95.7575 49.3336C95.7715 49.4554 95.7609 49.5789 95.7264 49.6966C95.6919 49.8143 95.6342 49.9239 95.5566 50.0187C95.4791 50.1136 95.3834 50.1919 95.2751 50.2489C94.9947 50.4005 94.6813 50.4798 94.3628 50.4798C94.0443 50.4798 93.7308 50.4005 93.4505 50.2489L91.6012 48.5665L91.9464 46.0924L92.5382 46.2656Z" fill="white" stroke="#BE312A" stroke-width="2" stroke-linejoin="round"/>
<path d="M93.2286 49.3335C93.2728 49.1456 93.3639 48.9721 93.4933 48.8293C93.6227 48.6864 93.7862 48.579 93.9683 48.517C94.1069 48.4914 94.249 48.4914 94.3875 48.517C94.5582 48.5223 94.7226 48.5831 94.856 48.6902C94.9787 48.7656 95.084 48.8663 95.1648 48.9858C95.2456 49.1053 95.3 49.2407 95.3245 49.3829C95.3245 49.7541 94.856 50.0262 94.2642 50.0262C93.6725 50.0262 93.2286 49.7046 93.2286 49.3335Z" fill="white" stroke="#BE312A" stroke-width="2" stroke-linejoin="round"/>
<path d="M60.9277 11.7767V11.084L64.577 9.45105L65.4646 9.69846L60.9277 11.7767Z" fill="white" stroke="#BE312A" stroke-width="2" stroke-linejoin="round"/>
<path d="M90.3438 32.8313C91.2068 26.1512 91.8972 19.9907 91.8972 19.9907C91.8972 19.9907 91.8972 18.9763 92.7848 18.8279C93.0608 18.7372 93.3527 18.7058 93.6415 18.7356C93.9304 18.7654 94.2097 18.8559 94.4615 19.0011C94.698 19.109 94.8944 19.2891 95.0228 19.5157C95.1513 19.7423 95.2051 20.0038 95.1766 20.2629C95.1766 21.0793 91.9958 50.6695 91.9958 50.6695C91.8508 50.8856 91.6563 51.0637 91.4287 51.1891C91.0561 51.3576 90.6537 51.4501 90.2451 51.4612C89.7801 51.4542 89.3235 51.3354 88.9137 51.1148C88.7698 51.0534 88.6405 50.9621 88.5343 50.8469C88.428 50.7318 88.3473 50.5955 88.2972 50.4468C88.1 49.8283 89.3082 40.9216 90.3438 32.8313Z" fill="white" stroke="#BE312A" stroke-width="2" stroke-linejoin="round"/>
<path d="M91.6998 22.638C92.1707 22.9473 92.6991 23.1577 93.2532 23.2565C93.8092 23.2907 94.3657 23.1977 94.8806 22.9843" fill="white"/>
<path d="M91.6998 22.638C92.1707 22.9473 92.6991 23.1577 93.2532 23.2565C93.8092 23.2907 94.3657 23.1977 94.8806 22.9843" stroke="#BE312A" stroke-width="2" stroke-linejoin="round"/>
<path d="M91.5519 23.2565C92.0153 23.5628 92.5351 23.773 93.0806 23.875C93.6447 23.9113 94.2097 23.8183 94.7326 23.6029" fill="white"/>
<path d="M91.5519 23.2565C92.0153 23.5628 92.5351 23.773 93.0806 23.875C93.6447 23.9113 94.2097 23.8183 94.7326 23.6029" stroke="#BE312A" stroke-width="2" stroke-linejoin="round"/>
<path d="M89.0615 43.9399C89.5871 44.2571 90.1623 44.4829 90.7629 44.6079C91.3668 44.6375 91.9706 44.545 92.5382 44.3358" fill="white"/>
<path d="M89.0615 43.9399C89.5871 44.2571 90.1623 44.4829 90.7629 44.6079C91.3668 44.6375 91.9706 44.545 92.5382 44.3358" stroke="#BE312A" stroke-width="2" stroke-linejoin="round"/>
<path d="M93.5492 60.6154C93.5492 60.4422 93.1793 51.1643 93.3519 51.0653C93.5245 50.9664 93.8204 51.2385 94.1163 51.2633C94.3434 51.3161 94.5796 51.3161 94.8067 51.2633C94.8067 51.2633 95.1026 51.2633 95.1519 51.2633C95.2012 51.2633 95.1519 60.4669 95.1519 60.7885C95.1519 61.1102 94.7574 61.3328 94.3382 61.3081C93.919 61.2834 93.5245 60.9122 93.5492 60.6154Z" fill="white" stroke="#BE312A" stroke-width="2" stroke-linejoin="round"/>
<path d="M37.7008 101.438L59.7442 91.2694C59.9187 91.0484 60.0459 90.7938 60.118 90.5214C60.1901 90.249 60.2056 89.9646 60.1634 89.686C59.9168 88.919 72.1468 88.0283 72.1468 88.0283C72.3208 88.6811 72.3709 89.3609 72.2947 90.0323C72.1714 91.1952 71.0618 91.6405 70.692 92.5064C70.3221 93.3724 70.4208 93.7435 71.0618 94.263C71.7029 94.7826 81.7384 108.39 81.7384 108.39L80.8261 111.953L79.8398 111.631C80.0562 111.477 80.2118 111.251 80.2794 110.993C80.347 110.736 80.3223 110.462 80.2096 110.221C79.7658 109.38 68.2756 94.0898 68.2756 94.0898C68.2756 94.0898 66.2784 93.125 65.6126 94.5352C64.9469 95.9454 58.2155 113.116 58.2155 113.116C58.2434 113.461 58.3803 113.789 58.6064 114.052C58.8325 114.314 59.136 114.498 59.473 114.575C60.7305 114.897 55.2073 113.759 55.2073 113.759C55.2073 113.759 60.3853 101.537 62.1853 96.4402C62.4072 95.797 62.6045 95.3022 62.7524 94.9063C63.1716 93.8672 62.3825 93.3476 61.8894 93.0507C61.3963 92.7538 60.5579 92.7538 59.7196 93.0507C58.8812 93.3476 43.939 100.003 39.624 102.304C39.0569 102.601 38.9829 103.491 38.835 103.615C37.4542 104.555 38.3912 104.209 38.3912 104.209L36.9857 102.601L37.7008 101.438Z" fill="white" stroke="#BE312A" stroke-width="2" stroke-linejoin="round"/>
<path d="M61.2236 32.8807L63.5167 3.76062C63.5984 3.44994 63.793 3.18116 64.0622 3.00717C64.3315 2.83319 64.6558 2.76659 64.9715 2.82047C65.2869 2.83855 65.5908 2.94569 65.8482 3.12953C66.1056 3.31338 66.306 3.56645 66.4263 3.85959L64.9222 31.7921L62.851 33.2766C62.5816 33.4291 62.2701 33.4899 61.9633 33.4498C61.6681 33.3341 61.4116 33.1368 61.2236 32.8807Z" fill="white" stroke="#BE312A" stroke-width="2" stroke-linejoin="round"/>
<path d="M58.7579 13.0632L59.1771 16.7744L66.1551 22.5143C66.2733 22.5938 66.4065 22.648 66.5465 22.6735C66.6865 22.6991 66.8302 22.6954 66.9688 22.6627C67.3386 22.5143 76.4371 17.9372 76.4371 17.9372V14.2013L58.7579 13.0632Z" fill="white" stroke="#BE312A" stroke-width="2" stroke-linejoin="round"/>
<path d="M67.0181 18.8279L75.6974 14.6219C75.6974 14.6219 76.3385 14.3745 76.2399 14.1271C76.0831 13.9004 75.8917 13.7001 75.6728 13.5333C75.3522 13.1869 69.4592 8.58509 69.4592 8.58509C69.275 8.46514 69.0658 8.38936 68.8477 8.36362C68.6296 8.33788 68.4086 8.36286 68.2017 8.43665C67.4619 8.75828 59.1772 12.6179 59.1772 12.6179C59.1772 12.6179 58.5114 12.9148 58.8566 13.1869C59.2018 13.4591 65.7606 18.8526 65.7606 18.8526C65.9324 18.9567 66.1273 19.0162 66.3277 19.0258C66.5695 19.0114 66.8052 18.9438 67.0181 18.8279Z" fill="white" stroke="#BE312A" stroke-width="2" stroke-linejoin="round"/>
<path d="M65.7113 18.8031L66.0812 22.4895" stroke="#BE312A" stroke-width="2" stroke-linejoin="round"/>
<path d="M66.9688 18.8526L67.3386 22.539" stroke="#BE312A" stroke-width="2" stroke-linejoin="round"/>
<path d="M59.9662 88.4489C59.9662 87.6077 59.621 85.2079 60.1634 84.5399C61.2237 83.2781 63.788 84.045 65.9578 84.045C68.1277 84.045 70.3961 83.2286 71.5057 84.243C72.6153 85.2573 71.9495 87.4098 71.9495 88.4489C71.9495 90.923 69.2619 92.8281 65.9578 92.8281C62.6538 92.8281 59.9662 90.8735 59.9662 88.4489Z" fill="white" stroke="#BE312A" stroke-width="2" stroke-linejoin="round"/>
<path d="M59.8182 85.4553C59.8182 82.9812 62.5059 81.0761 65.8099 81.0761C69.114 81.0761 71.8016 83.0306 71.8016 85.4553C71.8016 87.8799 69.04 89.8591 65.8099 89.8591C62.5798 89.8591 59.8182 87.9046 59.8182 85.4553Z" fill="white" stroke="#BE312A" stroke-width="2" stroke-linejoin="round"/>
<path d="M68.818 35.8002L69.0152 37.9032L76.4124 44.8801C76.5623 44.9926 76.7381 45.0652 76.9235 45.0911C77.1089 45.1171 77.2978 45.0955 77.4726 45.0285L84.8698 41.7627V40.0309L68.818 35.8002Z" fill="white" stroke="#BE312A" stroke-width="2" stroke-linejoin="round"/>
<path d="M69.1879 35.2559L75.5002 32.6581C75.7974 32.483 76.1476 32.4215 76.4864 32.4849C76.6563 32.5119 76.8186 32.5743 76.963 32.668C77.1074 32.7618 77.2306 32.8848 77.3248 33.0292L84.0069 38.9917C84.0069 38.9917 85.0425 39.6597 85.0671 39.9566C85.0918 40.2535 84.5 40.402 84.5 40.402L78.2371 43.2224C77.9117 43.4426 77.5153 43.531 77.1275 43.4699C76.749 43.3875 76.4097 43.1781 76.1659 42.8761L69.3359 36.3197C69.1426 36.1543 68.9835 35.9526 68.8674 35.7259C68.7934 35.4785 69.1879 35.2559 69.1879 35.2559Z" fill="white" stroke="#BE312A" stroke-width="2" stroke-linejoin="round"/>
<path d="M78.0398 43.3709V44.9296" stroke="#BE312A" stroke-width="2" stroke-linejoin="round"/>
<path d="M76.4371 43.1977V44.7564" stroke="#BE312A" stroke-width="2" stroke-linejoin="round"/>
<path d="M68.2756 80.0122C70.5726 79.7084 72.8873 79.5596 75.2042 79.5669C76.1412 79.8143 82.9465 79.8143 85.7575 80.1112C88.0631 80.4088 90.3513 80.83 92.6121 81.373C92.9708 81.6104 93.2765 81.9198 93.51 82.2818C93.7434 82.6438 93.8995 83.0504 93.9683 83.476C93.9858 83.7313 93.9858 83.9876 93.9683 84.2429C93.9683 84.2429 93.7957 85.1089 93.5491 85.2078L92.4888 85.48C92.1436 85.48 86.4479 86.7418 84.8945 86.8655C81.9833 87.0738 79.0585 86.9826 76.1658 86.5933C73.3666 86.1918 70.5984 85.5966 67.8811 84.812L66.6975 82.0905L68.2756 80.0122Z" fill="white" stroke="#BE312A" stroke-width="2" stroke-linejoin="round"/>
<path d="M37.7747 78.9237C37.7747 78.9237 37.1583 80.7298 37.7747 81.3978C39.9616 82.061 42.2079 82.5084 44.4814 82.7338C45.4924 82.8822 55.158 83.5255 55.158 83.5255L59.7195 84.0698L60.2373 84.4162L62.703 84.6141L62.9003 80.6803L59.6209 80.9277C59.325 80.9277 56.8346 80.4824 55.01 80.2349C53.1854 79.9875 48.969 79.0969 47.4156 79.0226C45.722 78.8085 44.0183 78.6846 42.3116 78.6515C40.7946 78.6248 39.2778 78.7158 37.7747 78.9237Z" fill="white" stroke="#BE312A" stroke-width="2" stroke-linejoin="round"/>
<path d="M62.1359 83.4018C62.0489 82.5298 62.0489 81.6512 62.1359 80.7792C62.6044 80.037 63.8126 81.2741 65.0208 81.2741C66.229 81.2741 67.2893 80.0865 67.8317 80.5813C68.3742 81.0761 68.029 82.907 68.029 83.4018C68.029 84.5893 66.6728 85.5295 65.0208 85.5295C63.3688 85.5295 62.1359 84.5893 62.1359 83.4018Z" fill="white" stroke="#BE312A" stroke-width="2" stroke-linejoin="round"/>
<path d="M62.1853 81.0266C62.1853 79.8638 63.5414 78.8989 65.1935 78.8989C66.8455 78.8989 68.2016 79.8638 68.2016 81.0266C68.2016 82.1895 66.8455 83.1544 65.1935 83.1544C63.5414 83.1544 62.1853 82.2142 62.1853 81.0266Z" fill="white" stroke="#BE312A" stroke-width="2" stroke-linejoin="round"/>
<path d="M62.7524 80.804C62.7917 80.4792 62.8947 80.1655 63.0555 79.881C63.2163 79.5965 63.4318 79.3468 63.6894 79.1463C64.0642 78.8625 64.5276 78.7222 64.9962 78.7505C65.7113 78.7505 65.7606 78.5278 66.5496 79.0721C66.8212 79.2703 67.0414 79.5311 67.1916 79.8325C67.3418 80.1338 67.4176 80.467 67.4126 80.804C67.4126 81.7441 66.3524 82.5111 65.0702 82.5111C63.788 82.5111 62.7524 81.6452 62.7524 80.804Z" fill="white" stroke="#BE312A" stroke-width="2" stroke-linejoin="round"/>
<path d="M63.7386 78.8494C63.7386 78.3299 64.3551 77.8845 65.0948 77.8845C65.8345 77.8845 66.4509 78.3299 66.4509 78.8494C66.4509 79.369 65.8345 79.8391 65.0948 79.8391C64.3551 79.8391 63.7386 79.3937 63.7386 78.8494Z" fill="white" stroke="#BE312A" stroke-width="2" stroke-linejoin="round"/>
<path d="M64.3798 78.7505C64.3798 78.4536 64.6756 78.2309 65.0702 78.2309C65.4647 78.2309 65.7606 78.4536 65.7606 78.7505C65.7606 79.0473 65.44 79.2453 65.0702 79.2453C64.7003 79.2453 64.3798 79.0226 64.3798 78.7505Z" fill="white" stroke="#BE312A" stroke-width="2" stroke-linejoin="round"/>
<path d="M36.5665 103.195C38.1347 105.317 39.9752 107.222 42.0404 108.86C46.0316 111.958 50.6806 114.092 55.6265 115.095C58.1277 115.458 60.6462 115.69 63.1716 115.788C66.1749 115.82 69.1761 115.613 72.1467 115.169C74.5769 114.762 76.9629 114.124 79.2727 113.264L82.5274 111.854L81.3685 110.741C80.0985 111.457 78.7896 112.101 77.448 112.67C74.7238 113.415 71.9572 113.993 69.1632 114.402C65.0526 114.788 60.9097 114.646 56.8347 113.982C53.9401 113.303 51.0973 112.418 48.328 111.334C45.8571 110.254 43.5693 108.793 41.5473 107.005C40.0622 105.592 38.7614 103.995 37.6761 102.254L36.5665 103.195Z" fill="white" stroke="#BE312A" stroke-width="2" stroke-linejoin="round"/>
<path d="M55.1087 114.872C54.5122 112.076 54.1249 109.24 53.9498 106.386C54.4834 106.349 55.019 106.349 55.5525 106.386C56.3169 106.386 57.5744 113.808 57.6731 114.402C57.6937 114.552 57.6835 114.705 57.6432 114.851C57.6029 114.997 57.5333 115.134 57.4386 115.252C57.344 115.37 57.2263 115.467 57.0928 115.538C56.9592 115.609 56.8127 115.652 56.6621 115.664C55.8977 115.812 55.1827 115.441 55.1087 114.872Z" fill="white" stroke="#BE312A" stroke-width="2" stroke-linejoin="round"/>
<path d="M81.0479 111.334C80.7745 108.489 80.7085 105.628 80.8507 102.774C81.3885 102.806 81.9238 102.872 82.4534 102.972C82.626 102.972 82.8726 102.23 83.0698 104.629C83.2671 107.029 83.6123 110.741 83.6369 111.186C83.644 111.337 83.6194 111.488 83.5649 111.63C83.5104 111.771 83.4271 111.899 83.3204 112.006C83.2136 112.113 83.0857 112.197 82.9449 112.252C82.8042 112.306 82.6535 112.331 82.5027 112.324C81.7137 112.373 81.0726 111.928 81.0479 111.334Z" fill="white" stroke="#BE312A" stroke-width="2" stroke-linejoin="round"/>
<path d="M35.8268 103.096C35.1001 100.332 34.5646 97.5213 34.2241 94.6836C34.4214 94.5352 36.2953 93.7435 36.5419 94.1641C36.7885 94.5847 38.2432 101.933 38.3665 102.502C38.4026 102.651 38.4062 102.806 38.3772 102.956C38.3481 103.106 38.287 103.249 38.198 103.373C38.109 103.498 37.9943 103.601 37.8617 103.677C37.729 103.753 37.5816 103.8 37.4295 103.813C37.1219 103.927 36.7822 103.915 36.4828 103.781C36.1835 103.647 35.9481 103.401 35.8268 103.096Z" fill="white" stroke="#BE312A" stroke-width="2" stroke-linejoin="round"/>
<path d="M35.1365 95.5001C36.7169 97.6417 38.5648 99.5708 40.635 101.24C44.6339 104.336 49.2922 106.461 54.2457 107.45C56.7549 107.82 59.2816 108.06 61.8155 108.167C64.8197 108.201 67.8216 107.985 70.7907 107.524C73.22 107.114 75.6058 106.476 77.9166 105.619C78.7056 105.322 81.1713 104.209 81.1713 104.209L80.8754 103.096C80.8754 103.096 76.7084 104.902 76.1413 104.976C73.423 105.745 70.6547 106.324 67.8565 106.708C63.7461 107.104 59.6019 106.962 55.5279 106.287C52.576 105.571 49.6762 104.653 46.8486 103.541C44.3421 102.489 42.0131 101.053 39.9446 99.2855C38.4173 97.8746 37.0224 96.3259 35.7776 94.6589L35.1365 95.5001Z" fill="white" stroke="#BE312A" stroke-width="2" stroke-linejoin="round"/>
<path d="M34.1501 94.6094C34.1501 94.1146 34.6926 93.694 35.3583 93.694C36.0241 93.694 36.5912 94.1146 36.5912 94.6094C36.5912 95.1042 36.0487 95.5248 35.3583 95.5248C34.6679 95.5248 34.1501 95.1042 34.1501 94.6094Z" fill="white" stroke="#BE312A" stroke-width="2" stroke-linejoin="round"/>
<path d="M53.7279 106.732C53.7279 106.238 54.1224 105.743 54.7882 105.644C55.0628 105.565 55.357 105.596 55.6096 105.73C55.8622 105.863 56.0537 106.09 56.1443 106.361C56.1443 106.856 55.7498 107.351 55.0594 107.45C54.788 107.528 54.4972 107.496 54.2487 107.362C54.0001 107.228 53.8133 107.002 53.7279 106.732Z" fill="white" stroke="#BE312A" stroke-width="2" stroke-linejoin="round"/>
<path d="M80.5301 103.219C80.5301 102.724 81.1712 102.378 81.8616 102.452C82.552 102.527 83.0205 102.997 82.9712 103.516C82.8855 103.788 82.701 104.018 82.4544 104.16C82.2078 104.302 81.9171 104.346 81.6397 104.283C80.974 104.184 80.4808 103.714 80.5301 103.219Z" fill="white" stroke="#BE312A" stroke-width="2" stroke-linejoin="round"/>
<path d="M68.3496 45.4739L68.5715 47.948C68.5715 47.948 68.7688 48.2696 69.0154 48.2696C69.0991 48.27 69.1819 48.2526 69.2584 48.2184C69.3349 48.1843 69.4034 48.1343 69.4592 48.0717V45.7955L68.3496 45.4739Z" fill="white" stroke="#BE312A" stroke-width="2" stroke-linejoin="round"/>
<path d="M68.6208 45.1523C68.6208 45.1523 68.3002 45.3502 68.3989 45.5481C68.4468 45.6468 68.52 45.7308 68.611 45.7917C68.702 45.8526 68.8075 45.888 68.9167 45.8945C69.1046 45.9027 69.289 45.841 69.4345 45.7213L68.818 45.1028L68.6208 45.1523Z" fill="white" stroke="#BE312A" stroke-width="2" stroke-linejoin="round"/>
<path d="M75.0316 55.0734C74.5046 55.4241 74.0929 55.9234 73.848 56.5083C73.6743 57.3229 73.5671 58.1504 73.5275 58.9824C73.5129 59.6969 73.579 60.4107 73.7248 61.1102C73.9587 61.7699 74.3096 62.3817 74.7604 62.9162C75.3299 63.369 75.9408 63.7666 76.585 64.1038C76.7272 64.1542 76.8564 64.236 76.9631 64.343C77.0697 64.45 77.1512 64.5796 77.2014 64.7223" stroke="#BE312A" stroke-width="2" stroke-linejoin="round"/>
<path d="M144.811 40.971C144.811 40.8226 145.206 36.6414 145.452 34.3157C145.452 33.425 145.6 32.8312 145.65 32.7818C146.011 32.7551 146.373 32.7551 146.735 32.7818C147.015 32.8149 147.29 32.8899 147.548 33.0044C147.457 34.2747 147.292 35.5386 147.055 36.7898C146.833 38.8186 146.636 40.9215 146.636 41.0205C146.636 41.1195 146.291 41.6143 145.773 41.6143C145.255 41.6143 144.811 41.2927 144.811 40.971Z" fill="white" stroke="#BE312A" stroke-width="2" stroke-linejoin="round"/>
<path d="M145.674 32.9302C145.674 32.6086 146.118 32.3364 146.636 32.3364C147.154 32.3364 147.622 32.6086 147.622 32.9302C147.622 33.2518 147.178 33.4993 146.636 33.4993C146.093 33.4993 145.674 33.2518 145.674 32.9302Z" fill="white" stroke="#BE312A" stroke-width="2" stroke-linejoin="round"/>
<path d="M149.373 69.8685C149.373 69.6953 149.94 65.044 150.31 62.4462C150.336 61.8687 150.427 61.296 150.581 60.7391C151.024 60.6999 151.47 60.6999 151.912 60.7391C152.259 60.7885 152.599 60.8799 152.923 61.0112C152.936 62.4067 152.804 63.7997 152.529 65.1677C152.184 67.4191 151.789 69.6705 151.789 69.7942C151.789 69.9179 151.197 70.6107 150.532 70.6107C149.866 70.6107 149.348 70.2148 149.373 69.8685Z" fill="white" stroke="#BE312A" stroke-width="2" stroke-linejoin="round"/>
<path d="M150.606 60.8875C150.606 60.5411 151.148 60.269 151.814 60.269C152.48 60.269 152.997 60.5906 152.997 60.937C152.997 61.2834 152.43 61.5802 151.789 61.5555C151.148 61.5308 150.606 61.2586 150.606 60.8875Z" fill="white" stroke="#BE312A" stroke-width="2" stroke-linejoin="round"/>
<path d="M122.077 53.3168C122.13 51.8558 122.337 50.4045 122.694 48.9871C123.68 47.8985 125.727 50.2241 127.896 50.4715C130.066 50.719 132.236 49.2098 133.124 50.1994C134.011 51.189 133.001 53.8363 132.902 54.5785C132.68 56.5083 130.066 57.7701 127.083 57.4238C124.099 57.0774 121.855 55.2218 122.077 53.3168Z" fill="white" stroke="#BE312A" stroke-width="2" stroke-linejoin="round"/>
<path d="M122.275 49.6798C122.497 47.7501 125.184 46.513 128.266 46.8594C131.349 47.2058 133.642 49.0861 133.42 50.9911C133.198 52.8962 130.535 54.158 127.453 53.8116C124.371 53.4652 122.053 51.5849 122.275 49.6798Z" fill="white" stroke="#BE312A" stroke-width="2" stroke-linejoin="round"/>
<path d="M125.875 45.5234C125.438 44.2014 125.278 42.8031 125.406 41.4164C125.425 38.7677 126.005 36.1533 127.107 33.7467C128.192 31.7426 127.872 31.2726 128.34 31.0004C129.137 30.7134 130.009 30.7134 130.806 31.0004C131.096 31.0427 131.374 31.1434 131.624 31.2964C131.874 31.4495 132.091 31.6518 132.261 31.8911C132.425 33.6438 132.425 35.4082 132.261 37.1609C132.261 38.5712 131.348 43.1482 131.274 43.4451C131.2 43.742 130.485 47.6263 130.485 47.6263L128.02 48.2201L125.875 45.5234Z" fill="white" stroke="#BE312A" stroke-width="2" stroke-linejoin="round"/>
<path d="M31.5365 56.1867C32.2606 56.1946 32.9823 56.103 33.6817 55.9146L36.2707 54.826H67.7085L67.0427 56.3352L36.9857 56.063C36.9857 56.063 35.4816 56.4341 34.3721 56.83C33.3606 57.11 32.3144 57.2433 31.2653 57.2258L31.5365 56.1867Z" fill="white" stroke="#BE312A" stroke-width="2" stroke-linejoin="round"/>
<path d="M124.864 48.418C124.879 47.5854 124.978 46.7565 125.16 45.9439C125.653 45.2512 126.762 46.5377 127.946 46.6119C129.129 46.6862 130.264 45.5976 130.757 46.1171C131.25 46.6367 130.757 48.418 130.757 48.9129C130.757 50.0509 129.302 50.9169 127.675 50.7932C126.047 50.6695 124.79 49.4819 124.864 48.418Z" fill="white" stroke="#BE312A" stroke-width="2" stroke-linejoin="round"/>
<path d="M125.086 46.0924C125.086 44.9296 126.54 44.0884 128.168 44.1873C129.795 44.2863 131.053 45.3254 130.979 46.4883C130.905 47.6511 129.524 48.4923 127.897 48.3686C126.269 48.2449 125.012 47.2305 125.086 46.0924Z" fill="white" stroke="#BE312A" stroke-width="2" stroke-linejoin="round"/>
<path d="M125.751 45.9192C125.867 45.2785 126.231 44.7095 126.762 44.3358C127.15 44.0856 127.61 43.9725 128.069 44.0142C128.809 44.0142 128.858 43.8657 129.598 44.4595C129.849 44.673 130.045 44.9442 130.17 45.25C130.294 45.5558 130.343 45.8872 130.313 46.2161C130.313 47.1315 129.179 47.7995 127.847 47.7253C126.516 47.6511 125.603 46.8346 125.751 45.9192Z" fill="white" stroke="#BE312A" stroke-width="2" stroke-linejoin="round"/>
<path d="M126.762 44.0636C126.762 43.5193 127.403 43.1235 128.143 43.173C128.883 43.2225 129.45 43.7173 129.401 44.2368C129.351 44.7564 128.735 45.1522 128.02 45.1028C127.305 45.0533 126.713 44.5337 126.762 44.0636Z" fill="white" stroke="#BE312A" stroke-width="2" stroke-linejoin="round"/>
<path d="M127.379 43.9894C127.393 43.8981 127.428 43.8113 127.481 43.7361C127.535 43.6608 127.605 43.5991 127.687 43.5558C127.768 43.5126 127.858 43.489 127.95 43.487C128.042 43.4849 128.134 43.5045 128.217 43.5441C128.587 43.5441 128.883 43.7915 128.858 44.0637C128.823 44.2196 128.728 44.3556 128.595 44.4433C128.462 44.5309 128.3 44.5633 128.143 44.5337C127.65 44.5337 127.354 44.2616 127.379 43.9894Z" fill="white" stroke="#BE312A" stroke-width="2" stroke-linejoin="round"/>
<path d="M125.431 47.9727C125.85 48.3484 126.324 48.6572 126.836 48.8881C127.477 49.1108 128.414 49.8283 129.302 49.4819C130.19 49.1355 130.066 48.9376 130.066 48.9376C130.066 48.9376 130.461 54.8754 130.436 55.3208C130.618 56.366 130.668 57.43 130.584 58.4876C130.461 59.8909 130.154 61.2717 129.672 62.5946C129.031 64.2028 128.612 65.2419 127.773 65.6872C126.935 66.1326 125.702 65.2666 125.702 65.2666C125.702 65.2666 123.286 64.3265 123.286 63.4853C122.992 61.6449 122.926 59.7752 123.088 57.9186C123.221 55.7128 123.568 53.5252 124.124 51.387C124.454 50.2109 124.891 49.0679 125.431 47.9727Z" fill="white" stroke="#BE312A" stroke-width="2" stroke-linejoin="round"/>
<path d="M26.0133 51.6344C26.0133 49.3335 28.627 47.4779 31.857 47.4779C35.0871 47.4779 37.6761 49.3335 37.6761 51.6344C37.4869 52.7077 36.978 53.6983 36.2165 54.4756C35.455 55.2529 34.4767 55.7805 33.4104 55.9888C32.6097 56.2334 31.7811 56.3747 30.9447 56.4094C30.205 56.3846 26.0133 53.9106 26.0133 51.6344Z" fill="white" stroke="#BE312A" stroke-width="2" stroke-linejoin="round"/>
<path d="M26.0133 51.189C26.0133 48.8881 28.627 47.0326 31.857 47.0326C35.0871 47.0326 37.6761 48.8881 37.6761 51.189C37.4869 52.2623 36.978 53.2529 36.2165 54.0302C35.455 54.8075 34.4767 55.3351 33.4104 55.5435C32.6097 55.7881 31.7811 55.9294 30.9447 55.964C30.205 55.9393 26.0133 53.4652 26.0133 51.189Z" fill="white" stroke="#BE312A" stroke-width="2" stroke-linejoin="round"/>
<path d="M25.5448 51.2138C25.3461 49.7609 25.3461 48.2875 25.5448 46.8346C26.4571 45.5976 29.194 46.9583 31.3638 46.9583C33.0405 46.9583 35.0378 45.5728 36.0734 46.3893C37.109 47.2057 36.6405 49.9025 36.6405 50.8674C36.6405 52.9704 34.446 54.5785 31.3638 54.5785C28.2817 54.5785 25.5448 53.3168 25.5448 51.2138Z" fill="white" stroke="#BE312A" stroke-width="2" stroke-linejoin="round"/>
<path d="M25.3969 47.6511C25.3969 45.5481 27.8626 43.841 30.9694 43.841C34.0762 43.841 36.5419 45.5481 36.5419 47.6511C36.5419 49.7541 34.0762 51.4859 30.9694 51.4859C27.8626 51.4859 25.3969 49.7788 25.3969 47.6511Z" fill="white" stroke="#BE312A" stroke-width="2" stroke-linejoin="round"/>
<path d="M25.89 51.3622C25.5861 51.3823 25.29 51.4678 25.022 51.6129C24.7539 51.7581 24.5202 51.9595 24.3366 52.2034C24.1887 52.4508 24.0901 51.9065 24.0407 52.0797C23.9906 52.5402 23.9906 53.0048 24.0407 53.4652C24.1116 53.9567 24.3164 54.4191 24.6325 54.8012C24.9544 54.9938 25.3185 55.1042 25.6928 55.1229L25.89 51.3622Z" fill="white" stroke="#BE312A" stroke-width="2" stroke-linejoin="round"/>
<path d="M25.9394 50.5458C25.6385 50.5644 25.3455 50.6494 25.0813 50.7948C24.817 50.9403 24.588 51.1425 24.4106 51.387C24.1587 51.7613 24.0138 52.1977 23.9915 52.6488C23.9915 52.6488 24.1887 53.6631 24.6079 53.96C24.9231 54.1706 25.2898 54.2904 25.6681 54.3064L25.9394 50.5458Z" fill="white" stroke="#BE312A" stroke-width="2" stroke-linejoin="round"/>
<path d="M29.5886 43.4204L29.1695 39.5855C29.1293 38.4192 29.2538 37.2531 29.5393 36.1218C30.3557 33.7272 31.3446 31.3954 32.4982 29.1448C33.0622 28.808 33.7188 28.6606 34.3721 28.7242C34.7913 28.7242 35.9009 28.6005 36.0241 29.1696C36.1241 30.198 36.1241 31.2338 36.0241 32.2622C36.0241 32.6828 34.8899 37.8784 34.8899 37.8784L33.1886 44.4595L30.7229 44.9296L29.5886 43.4204Z" fill="white" stroke="#BE312A" stroke-width="2" stroke-linejoin="round"/>
<path d="M27.6654 46.2161C27.5113 45.351 27.4534 44.4715 27.4928 43.5936C27.8873 42.8019 29.2188 43.8905 30.427 43.7667C31.6352 43.643 32.5475 42.3565 33.1393 42.7771C33.731 43.1977 33.5831 45.078 33.6324 45.5728C33.6324 46.7357 32.5228 47.8243 30.8708 48.0469C29.2188 48.2696 27.7887 47.3789 27.6654 46.2161Z" fill="white" stroke="#BE312A" stroke-width="2" stroke-linejoin="round"/>
<path d="M27.4681 43.841C27.3448 42.6781 28.6023 41.5895 30.2297 41.3669C31.857 41.1442 33.3118 41.9854 33.4351 43.173C33.5584 44.3605 32.3255 45.4244 30.6735 45.6471C29.0215 45.8697 27.5914 45.0038 27.4681 43.841Z" fill="white" stroke="#BE312A" stroke-width="2" stroke-linejoin="round"/>
<path d="M28.0105 43.5688C28.0119 43.2415 28.0779 42.9177 28.2049 42.6161C28.3319 42.3146 28.5172 42.0413 28.7502 41.8122C29.0968 41.4946 29.5396 41.3029 30.0077 41.2679C30.7474 41.2679 30.7721 40.971 31.6104 41.4411C31.8981 41.6132 32.1416 41.8506 32.3215 42.1342C32.5013 42.4177 32.6125 42.7396 32.646 43.074C32.646 44.0141 31.783 44.8801 30.5009 45.0038C29.2187 45.1275 28.1091 44.5337 28.0105 43.5688Z" fill="white" stroke="#BE312A" stroke-width="2" stroke-linejoin="round"/>
<path d="M28.7996 41.5153C28.7996 40.971 29.2927 40.4762 30.0324 40.402C30.336 40.3319 30.6547 40.3796 30.9246 40.5357C31.1944 40.6917 31.3955 40.9445 31.4872 41.2432C31.4872 41.7875 30.9694 42.2823 30.2297 42.3565C29.49 42.4308 28.8489 42.0596 28.7996 41.5153Z" fill="white" stroke="#BE312A" stroke-width="2" stroke-linejoin="round"/>
<path d="M29.416 41.3421C29.416 41.0452 29.6626 40.7978 30.0324 40.7483C30.4023 40.6989 30.7475 40.9215 30.7722 41.1937C30.7968 41.4658 30.5256 41.7132 30.1557 41.7627C29.7859 41.8122 29.4407 41.6143 29.416 41.3421Z" fill="white" stroke="#BE312A" stroke-width="2" stroke-linejoin="round"/>
<path d="M28.1338 45.5234C28.3609 45.8889 28.7107 46.1609 29.1201 46.2903C29.9629 46.5745 30.8447 46.7248 31.7338 46.7357C32.0603 46.668 32.3817 46.577 32.6954 46.4635C32.6954 46.4635 32.8433 48.4923 32.6954 50.6448C32.8207 52.1489 32.7461 53.6632 32.4735 55.1476C31.9039 57.0123 31.0737 58.7866 30.0078 60.4174C29.0461 61.5803 28.9475 62.0009 28.479 62.5699C28.0105 63.1389 26.2106 62.2483 25.7667 62.0503C25.3229 61.8524 23.9914 61.5555 24.0161 60.6648C24.0407 59.7742 24.4599 55.2218 24.5832 54.628C24.7065 54.0343 26.2106 48.517 26.6051 47.7995C26.9996 47.0821 28.1338 45.5234 28.1338 45.5234Z" fill="white" stroke="#BE312A" stroke-width="2" stroke-linejoin="round"/>
<path d="M148.534 33.9693C148.189 33.9693 147.573 32.9549 147.548 33.2024C147.524 33.4498 146.562 33.6724 146.069 33.4498C145.576 33.2271 145.6 33.0044 145.551 33.1034C145.541 33.3012 145.541 33.4994 145.551 33.6972C145.551 33.6972 146.562 34.192 146.882 34.3157C147.31 34.4671 147.723 34.6576 148.115 34.8847" fill="white"/>
<path d="M148.534 33.9693C148.189 33.9693 147.573 32.9549 147.548 33.2024C147.524 33.4498 146.562 33.6724 146.069 33.4498C145.576 33.2271 145.6 33.0044 145.551 33.1034C145.541 33.3012 145.541 33.4994 145.551 33.6972C145.551 33.6972 146.562 34.192 146.882 34.3157C147.31 34.4671 147.723 34.6576 148.115 34.8847" stroke="#BE312A" stroke-width="2" stroke-linejoin="round"/>
<path d="M76.018 10.985C76.018 10.985 75.4262 3.56268 75.5495 3.56268C75.6728 3.56268 75.944 3.56268 76.1166 3.56268C76.2902 3.60273 76.4565 3.6695 76.6097 3.76061C76.807 3.76061 77.3248 10.9355 77.3248 11.1829C77.3248 11.4303 77.0289 11.5788 76.6837 11.5788C76.3385 11.5788 76.018 11.2076 76.018 10.985Z" fill="white" stroke="#BE312A" stroke-width="2" stroke-linejoin="round"/>
<path d="M94.6094 9.35208C94.6094 9.35208 94.6094 1.92979 94.7573 1.92979C94.9364 1.8938 95.1207 1.8938 95.2998 1.92979C95.4477 1.92979 95.6943 2.12772 95.7929 2.1772C95.8915 2.22669 95.7929 9.37682 95.7929 9.59949C95.7929 9.82216 95.4724 9.97061 95.1272 9.92112C94.782 9.87164 94.5847 9.55001 94.6094 9.35208Z" fill="white" stroke="#BE312A" stroke-width="2" stroke-linejoin="round"/>
<path d="M110.464 15.7847C110.464 15.7847 110.464 8.36245 110.612 8.36245C110.799 8.32637 110.992 8.32637 111.179 8.36245C111.179 8.36245 111.573 8.56038 111.672 8.60986C111.771 8.65934 111.672 15.8095 111.672 16.0321C111.672 16.2548 111.352 16.4033 110.982 16.3538C110.612 16.3043 110.464 15.9827 110.464 15.7847Z" fill="white" stroke="#BE312A" stroke-width="2" stroke-linejoin="round"/>
<path d="M75.8946 3.29054C75.8946 3.29054 78.0644 2.74624 78.7795 2.62254C79.4945 2.49883 84.5492 1.65764 85.3876 1.58342C86.2259 1.50919 93.697 1.36075 94.1162 1.48445C94.5354 1.60816 94.7819 0.989634 95.4477 1.18756C95.798 1.29829 96.1243 1.47458 96.4093 1.70712C97.8094 1.99147 99.1924 2.35491 100.552 2.79572C101.999 3.14384 103.424 3.58177 104.817 4.107C106.964 5.01484 109.02 6.12491 110.957 7.42228C111.425 7.81814 111.623 7.59547 112.091 7.84288C112.188 7.89939 112.269 7.98057 112.325 8.07828C112.382 8.17598 112.411 8.28678 112.411 8.39955C112.411 8.51233 112.382 8.62312 112.325 8.72083C112.269 8.81853 112.188 8.89971 112.091 8.95622C111.939 9.07241 111.763 9.15426 111.577 9.1962C111.39 9.23815 111.196 9.2392 111.009 9.19928C110.822 9.15936 110.645 9.07942 110.492 8.96489C110.338 8.85036 110.211 8.70395 110.119 8.53563C110.043 8.29405 110.043 8.03498 110.119 7.7934C108.643 6.85935 107.102 6.03254 105.508 5.3193C104.176 4.94819 101.094 3.78536 101.094 3.78536L96.1627 2.47409C96.0203 2.61676 95.8403 2.71578 95.6438 2.75959C95.4473 2.80341 95.2424 2.79019 95.0532 2.7215C94.6267 2.64018 94.2377 2.42332 93.9436 2.10298C93.9436 2.10298 87.0396 1.97927 86.0533 2.10298C85.067 2.22668 80.5055 2.89469 79.4945 3.06788C78.4836 3.24106 77.0288 3.66166 77.0288 3.66166C77.0288 3.66166 76.659 4.40389 76.1658 4.50285C75.9541 4.54454 75.735 4.52478 75.5341 4.4459C75.3332 4.36702 75.1589 4.23229 75.0316 4.05751C74.8097 3.76062 75.2042 3.34003 75.2042 3.34003L75.8946 3.29054Z" fill="white" stroke="#BE312A" stroke-width="2" stroke-linejoin="round"/>
<path d="M75.4508 3.61216C75.4508 3.3895 75.7467 3.21631 76.0919 3.21631C76.4371 3.21631 76.733 3.3895 76.733 3.61216C76.733 3.83483 76.4617 3.98328 76.0919 3.98328C75.722 3.98328 75.4508 3.81009 75.4508 3.61216Z" fill="white" stroke="#BE312A" stroke-width="2" stroke-linejoin="round"/>
<path d="M94.634 1.95452C94.634 1.73185 94.9545 1.5834 95.3244 1.63289C95.6943 1.68237 95.9408 1.85556 95.9408 2.05348C95.9408 2.25141 95.6203 2.39986 95.2504 2.37512C94.8806 2.35037 94.6093 2.15245 94.634 1.95452Z" fill="white" stroke="#BE312A" stroke-width="2" stroke-linejoin="round"/>
<path d="M110.489 8.38717C110.489 8.1645 110.809 8.01605 111.179 8.06553C111.549 8.11502 111.82 8.2882 111.795 8.48613C111.771 8.68406 111.475 8.8325 111.105 8.80776C110.735 8.78302 110.489 8.58509 110.489 8.38717Z" fill="white" stroke="#BE312A" stroke-width="2" stroke-linejoin="round"/>
</g>
<defs>
<clipPath id="clip0_640_5275">
<rect width="160" height="117" fill="white"/>
</clipPath>
</defs>
</svg>
