<svg width="155" height="111" viewBox="0 0 155 111" fill="none" xmlns="http://www.w3.org/2000/svg">
<g clip-path="url(#clip0_640_4846)">
<path d="M132.899 47.5435C128.986 40.6609 117.591 37.781 118.379 33.2658C118.576 32.1919 122.169 29.0679 125.27 27.2863C126.61 26.5196 128.009 25.8586 129.454 25.3093C133.834 22.8687 143.162 28.7506 148.798 38.6352C154.434 48.5198 155.394 59.283 151.013 61.748C150.398 62.0897 148.552 63.7493 146.312 65.1893C144.073 66.6293 140.701 68.1913 139.766 67.8496C135.606 66.312 136.96 54.4749 132.899 47.5435Z" fill="white" stroke="#63BD4C" stroke-width="2" stroke-linejoin="round"/>
<path d="M122.759 53.6939C117.124 43.785 116.114 33.7784 120.495 31.3133C124.876 28.8483 132.998 34.8766 138.634 44.7856C144.269 54.6946 145.279 64.6768 140.898 67.1418C136.517 69.6069 128.395 63.6761 122.759 53.6939Z" fill="white" stroke="#63BD4C" stroke-width="2" stroke-linejoin="round"/>
<path d="M124.753 53.4254C120.077 46.3232 119.142 38.7817 122.661 36.341C126.181 33.9004 132.825 38.0006 137.428 45.1273C142.03 52.2539 143.039 59.7711 139.52 62.2117C136 64.6524 129.429 60.5521 124.753 53.4254Z" fill="white" stroke="#63BD4C" stroke-width="2" stroke-linejoin="round"/>
<path d="M128.199 52.1563C124.384 46.3232 123.276 40.246 125.959 38.562C128.642 36.878 133.736 40.2704 137.575 46.1035C141.415 51.9367 142.498 58.0138 139.815 59.6735C137.132 61.3331 132.038 57.965 128.199 52.1563Z" fill="white" stroke="#63BD4C" stroke-width="2" stroke-linejoin="round"/>
<path d="M129.675 49.7401C129.233 48.9706 128.886 48.1512 128.642 47.2995C128.187 46.1841 128.043 44.9682 128.225 43.7789C128.407 42.5895 128.908 41.4705 129.675 40.5389C131.373 39.4894 134.597 41.7104 137.059 45.4202C139.52 49.1299 140.061 53.1082 138.363 54.1576C137.083 54.9631 133.441 53.7427 131.349 51.4241C130.741 50.9134 130.181 50.3498 129.675 49.7401Z" fill="white" stroke="#63BD4C" stroke-width="2" stroke-linejoin="round"/>
<path d="M128.543 50.3014C128.376 50.0259 128.243 49.7307 128.149 49.4228C127.99 49.0181 127.942 48.5785 128.012 48.1494C128.081 47.7203 128.264 47.3174 128.543 46.9822C129.134 46.6161 130.34 47.3971 131.201 48.7638C132.062 50.1306 132.284 51.5462 131.669 51.9367C131.053 52.3272 129.897 51.7902 129.208 50.936C128.967 50.7456 128.744 50.5331 128.543 50.3014Z" fill="white" stroke="#63BD4C" stroke-width="2" stroke-linejoin="round"/>
<path d="M126.353 51.6438C126.115 51.3271 125.917 50.9829 125.762 50.6187C125.762 50.2526 128.223 48.7882 128.494 48.6418C128.765 48.4954 129.478 48.7882 129.897 49.4228C130.315 50.0574 130.34 50.7896 129.897 51.0092C129.454 51.2289 127.436 53.1082 126.968 52.8153C126.734 52.4407 126.528 52.0491 126.353 51.6438Z" fill="white" stroke="#63BD4C" stroke-width="2" stroke-linejoin="round"/>
<path d="M125.885 52.0343C125.467 51.3753 125.418 50.6675 125.885 50.4479C126.353 50.2282 126.87 50.5943 127.263 51.2289C127.657 51.8634 127.731 52.5956 127.387 52.8153C127.042 53.0349 126.279 52.6932 125.885 52.0343Z" fill="white" stroke="#63BD4C" stroke-width="2" stroke-linejoin="round"/>
<path d="M71.6672 49.9598L99.9699 41.1247L129.06 61.6748L122.883 81.6392L97.2873 89.7421L75.9495 77.5389L66.4497 60.7474L71.6672 49.9598Z" fill="white" stroke="#63BD4C" stroke-width="2" stroke-linejoin="round"/>
<path d="M29.1639 42.3938C27.7357 42.9531 26.456 43.8298 25.423 44.9565C24.6601 46.25 28.6224 54.719 28.6224 54.719L37.6793 54.9142L40.7556 50.4479L34.4552 42.589L29.1639 42.3938Z" fill="white" stroke="#63BD4C" stroke-width="2" stroke-linejoin="round"/>
<path d="M100.487 74.7566L121.48 62.1873" stroke="#63BD4C" stroke-width="2" stroke-linejoin="round"/>
<path d="M96.6472 71.3641L117.96 59.1609" stroke="#63BD4C" stroke-width="2" stroke-linejoin="round"/>
<path d="M125.122 63.7005L124.901 69.436L138.486 62.5534L138.83 59.3074L136.369 57.4769L128.445 59.7711L125.122 63.7005Z" fill="white" stroke="#63BD4C" stroke-width="2" stroke-linejoin="round"/>
<path d="M136.591 55.7197C137.519 55.7739 138.395 56.1648 139.052 56.818C140.077 57.6413 140.789 58.7861 141.07 60.064C141.316 61.0415 141.316 62.064 141.07 63.0416C140.775 64.5304 136.96 63.7738 136.96 63.7738L134.696 59.5026L136.591 55.7197Z" fill="white" stroke="#63BD4C" stroke-width="2" stroke-linejoin="round"/>
<path d="M86.7537 56.1346L105.581 67.0198C106.611 68.0329 107.277 69.3534 107.476 70.7784C107.328 72.56 107.476 79.1253 107.476 79.1253" stroke="#63BD4C" stroke-width="2" stroke-linejoin="round"/>
<path d="M110.011 69.2164V75.1471L113.924 72.8285L114.072 66.8734L110.011 69.2164Z" fill="white" stroke="#63BD4C" stroke-width="2" stroke-linejoin="round"/>
<path d="M90.0515 61.0158L94.4569 63.4565L98.1239 62.2361L99.6498 60.308L95.9828 57.6966L92.045 59.1365L90.0515 61.0158Z" stroke="#63BD4C" stroke-width="2" stroke-linejoin="round"/>
<path d="M110.946 69.436L113.604 67.6299L114.392 68.0937L113.457 71.8766L111.685 74.0732L110.873 73.5363L110.946 69.436Z" fill="white" stroke="#63BD4C" stroke-width="2" stroke-linejoin="round"/>
<path d="M111.759 69.9241L114.392 68.1181V72.3648L111.783 74.0244L111.759 69.9241Z" fill="white" stroke="#63BD4C" stroke-width="2" stroke-linejoin="round"/>
<path d="M101.939 75.1715L104.597 73.3654L105.384 73.8291L104.449 77.6121L102.677 79.8087L101.865 79.2718L101.939 75.1715Z" fill="white" stroke="#63BD4C" stroke-width="2" stroke-linejoin="round"/>
<path d="M102.751 75.6596L105.384 73.8535V78.1002L102.8 79.7599L102.751 75.6596Z" fill="white" stroke="#63BD4C" stroke-width="2" stroke-linejoin="round"/>
<path d="M122.243 44.6148L126.377 47.0554V47.9096L127.362 47.4947L130.856 49.7889C131.247 50.0343 131.568 50.373 131.792 50.7739C132.015 51.1748 132.134 51.625 132.136 52.0831C132.15 53.3817 132.06 54.6794 131.866 55.9637L121.701 51.0825L119.683 45.9083L121.16 43.6385L122.243 44.6148Z" fill="white" stroke="#63BD4C" stroke-width="2" stroke-linejoin="round"/>
<path d="M121.111 49.7401L126.402 52.6444V53.6939L128.125 53.279L132.309 55.7196V56.8667L133.711 56.5006L137.403 56.3542V58.5508C137.447 58.8787 137.402 59.2122 137.272 59.5169C137.142 59.8216 136.932 60.0863 136.665 60.2836L133.834 62.1385L132.653 61.9189C132.653 61.9189 132.653 62.2849 132.653 62.6022C131.588 63.3607 130.44 63.9992 129.232 64.5059C128.431 64.7537 127.572 64.7537 126.771 64.5059C125.469 64.0928 124.222 63.5274 123.055 62.8219V61.8944L121.406 62.0165L117.124 59.405V58.5752L115.696 58.7948L110.774 56.3542L111.438 55.4756L109.962 55.622L105.581 52.7177L106.172 51.6926L104.301 52.3272L99.6743 49.8865L99.8466 48.8371L96.1304 48.3733L107.796 40.7097L121.111 49.7401Z" fill="white" stroke="#63BD4C" stroke-width="2" stroke-linejoin="round"/>
<path d="M121.258 46.5917L126.55 49.4716V50.5211L128.248 50.1062L132.456 52.5468V53.6939L133.859 53.3278L136.886 55.2315C136.886 55.2315 137.92 56.403 137.009 56.9888C136.099 57.5745 134.105 58.7704 134.105 58.7704L132.383 58.5752L132.604 59.4294L129.183 61.3331C128.383 61.5872 127.522 61.5872 126.722 61.3331C125.5 60.8933 124.336 60.3117 123.252 59.6002V58.6728L121.578 58.7948L117.394 56.1345V55.2559L115.942 55.4756L111.02 53.0349L111.66 52.1563L110.208 52.3028L105.827 49.496L106.418 48.471L104.548 49.1055L99.9206 46.6649L100.068 45.6154L96.3521 45.1517L108.042 37.5125L121.258 46.5917Z" fill="white" stroke="#63BD4C" stroke-width="2" stroke-linejoin="round"/>
<path d="M41.494 30.874C40.8271 31.0811 40.209 31.4191 39.6763 31.8677C39.1436 32.3163 38.7072 32.8664 38.393 33.4855C37.4079 35.0857 37.0001 36.9703 37.2363 38.8305C37.5437 41.0958 38.0375 43.3324 38.713 45.5178L72.6269 62.9927L75.4572 51.5218L41.494 30.874Z" fill="white" stroke="#63BD4C" stroke-width="2" stroke-linejoin="round"/>
<path d="M87.6397 52.6445L90.6669 50.7408L91.2083 49.1543L91.9959 49.8621L95.9829 48.0317L96.5489 46.9334L97.238 47.2995L101.52 44.8588L102.062 43.4189L102.579 44.029L106.762 41.2467L109.371 33.8028L77.377 52.2784L78.2137 55.5732L87.6397 52.6445Z" fill="white" stroke="#63BD4C" stroke-width="2" stroke-linejoin="round"/>
<path d="M36.4981 41.9789L32.9295 43.7117V44.566L31.6497 44.2975L28.9179 43.9314L28.6472 46.5673C28.6472 47.4215 28.3765 48.1293 28.6472 48.3733C29.3855 48.9103 30.936 49.8621 30.936 49.8621L32.5603 49.7157L32.1912 50.5211L36.9165 53.157L38.0732 52.7665L37.9009 53.7671L42.5278 56.2078L43.3399 55.9393V56.7935L47.9422 59.5758L48.902 59.0877V60.2348L53.5289 62.6754L54.5133 62.529L54.3164 63.432L58.8202 65.7262L59.8047 65.531L59.977 66.434L64.5054 68.8747L65.9082 68.7282V69.9973L69.7475 72.438H71.2734L71.4949 73.7315L76.2448 76.5871L84.0957 68.9235L36.4981 41.9789Z" fill="white" stroke="#63BD4C" stroke-width="2" stroke-linejoin="round"/>
<path d="M36.9164 38.3668L33.3478 40.0996V40.9782L31.9942 40.6854L29.0163 42.8087C29.0163 42.8087 28.3518 44.1511 29.0163 44.7124C29.6808 45.2738 31.3051 46.2256 31.3051 46.2256L32.954 46.0792L32.5603 46.8846L37.1625 49.5449L38.3192 49.1544L38.147 50.155L42.7738 52.7177L43.586 52.4492V53.3034L48.3359 56.1346L49.2957 55.6464V56.7935L53.898 59.2342L54.8824 59.1121L54.6855 60.0152L59.1893 62.285L60.1738 62.0897L60.3707 62.9928L64.8745 65.4334L66.3019 65.3114V66.5561L70.1412 68.9967H71.6671L71.8886 70.2902L76.6385 73.1458L84.4894 65.5066L36.9164 38.3668Z" fill="white" stroke="#63BD4C" stroke-width="2" stroke-linejoin="round"/>
<path d="M42.1586 66.19L45.5795 68.3621L46.7362 67.5567L47.0562 69.558L50.8217 71.779L52.0522 71.0956L52.2491 72.8041L54.1688 74.4393L64.7023 69.1187L59.7801 66.0679L58.3034 66.9222V65.6042L54.1441 63.0171L53.4058 64.0422L52.9874 62.4314L48.9266 59.9908L48.3852 60.967L47.8191 59.5026L43.4384 56.6471L43.0446 57.6478L42.2078 56.2566L38.8115 53.816L38.2701 54.4993L38.0486 53.3034L34.0124 51.2533L30.9114 52.3028L35.3414 62.7243L42.1586 66.19Z" fill="white" stroke="#63BD4C" stroke-width="2" stroke-linejoin="round"/>
<path d="M38.7376 68.777L42.6754 71.2177L43.8321 72.0231L49.025 75.3423L51.2154 76.8067L53.8242 78.2467H53.5781L53.2827 77.0752L59.5093 69.4604L56.433 68.3377L55.3747 68.8502V67.5323L51.117 64.9452L50.3786 65.9703L49.9357 64.3595L45.8994 61.9188L45.358 62.8951L44.792 61.4307L40.4604 58.5752L40.0666 59.5758L39.2299 58.1847L35.8089 55.744L35.2921 56.4274L35.0706 55.2315L30.5668 52.0587L28.9917 55.8905L32.4618 64.7012L38.7376 68.777Z" fill="white" stroke="#63BD4C" stroke-width="2" stroke-linejoin="round"/>
<path d="M88.5995 71.3885L93.1279 73.6095V74.7322L94.4569 74.3173L98.8869 77.0264L99.0345 78.0759L100.462 77.7586L103.366 76.1234L103.588 78.3931C103.746 79.3326 103.67 80.2963 103.366 81.1999C102.39 82.1551 101.289 82.976 100.093 83.6405L98.9853 83.4452V84.3971L95.6628 85.9591C94.4894 86.2334 93.2677 86.2334 92.0942 85.9591C91.0058 85.4452 89.9677 84.8325 88.9932 84.1286L89.2886 83.3476L87.935 83.5673L83.0128 80.785V79.9796L81.9299 80.1748L75.8018 76.8311L76.1217 73.219L83.2097 71.0224L88.5995 71.3885Z" fill="white" stroke="#63BD4C" stroke-width="2" stroke-linejoin="round"/>
<path d="M88.3288 66.971L92.8572 69.2163V70.3146L94.1862 69.8997L98.6162 72.6088L98.7639 73.6827L100.191 73.3654L102.456 74.9518C102.456 74.9518 103.735 75.9281 103.194 76.7823C102.218 77.7376 101.117 78.5585 99.9206 79.2229L98.8131 79.0277V79.9795L95.4906 81.5659C94.3167 81.8359 93.096 81.8359 91.922 81.5659C90.8336 81.0521 89.7955 80.4393 88.821 79.7355L89.1164 78.9789L87.7874 79.1741L82.8652 76.4162V75.6108L81.7823 75.7816L76.0972 72.7309L83.0375 66.5316L88.3288 66.971Z" fill="white" stroke="#63BD4C" stroke-width="2" stroke-linejoin="round"/>
<path d="M40.3128 40.368C39.8666 39.3299 39.7135 38.191 39.8698 37.0732C40.2146 35.8888 40.8985 34.829 41.8387 34.0224" stroke="#63BD4C" stroke-width="2" stroke-linejoin="round"/>
<path d="M91.5774 97.4301V99.8707H94.6045L96.0074 98.2355L94.7276 96.7711H92.7587L91.5774 97.4301Z" fill="white" stroke="#63BD4C" stroke-width="2" stroke-linejoin="round"/>
<path d="M96.9673 100.505C96.4573 100.931 95.8736 101.262 95.2446 101.482C94.1831 101.609 93.1072 101.542 92.0697 101.286C91.0698 100.946 90.2069 100.296 89.6086 99.4314L91.4299 98.1623C91.5776 98.5983 91.8582 98.978 92.233 99.2491C92.6077 99.5201 93.058 99.6691 93.5218 99.6755C95.0477 99.6755 95.0723 99.2606 95.2199 99.0165C95.5284 98.5646 95.8655 98.1326 96.229 97.723L96.9673 100.505Z" fill="white" stroke="#63BD4C" stroke-width="2" stroke-linejoin="round"/>
<path d="M81.9053 95.5752L84.6863 97.0884L85.4246 96.6003L85.7692 97.6253L90.1992 99.8951L92.2419 88.8391L82.5205 81.1755L77.4507 80.1016L81.9053 95.5752Z" fill="white" stroke="#63BD4C" stroke-width="2" stroke-linejoin="round"/>
<path d="M90.4453 99.8951V96.3806L89.8793 95.1847L90.8883 94.4037L90.593 91.1577C90.6003 90.5437 90.4694 89.9359 90.2096 89.3785C89.9499 88.8212 89.568 88.3284 89.0917 87.936C87.5905 86.9354 85.5477 85.3001 85.5477 85.3001L84.391 85.6174L83.6773 84.4215L79.8626 81.9809L72.8977 73.4631L79.7888 76.9288L80.9209 78.7592H82.0038L86.6799 82.0541L87.1475 83.6161L88.0335 82.7375L91.7743 85.4222C91.7743 85.4222 93.6694 87.1062 93.8663 88.2777C94.0632 89.4492 94.2354 92.5976 94.2354 92.5976L93.4479 93.6227L94.5308 93.94L94.3585 97.2348L90.4453 99.8951Z" fill="white" stroke="#63BD4C" stroke-width="2" stroke-linejoin="round"/>
<path d="M40.8542 38.0983V23.967C42.4294 23.2592 80.6256 13.6431 80.6256 13.6431C82.6034 12.473 84.8269 11.7714 87.1229 11.593C90.9376 11.3245 111.192 20.9162 111.192 20.9162L117.173 18.2071L117.321 24.5528L117.148 30.4347L77.2047 53.3522C76.0691 54.3541 74.6022 54.9075 73.0823 54.9075C71.5625 54.9075 70.0955 54.3541 68.96 53.3522C64.0378 50.0086 47.6715 41.686 47.6715 41.686L40.8542 38.0983Z" fill="white" stroke="#63BD4C" stroke-width="2" stroke-linejoin="round"/>
<path d="M76.0725 41.4908L76.294 52.9861" stroke="#63BD4C" stroke-width="2" stroke-linejoin="round"/>
<path d="M69.4521 41.1491L69.8951 53.816" stroke="#63BD4C" stroke-width="2" stroke-linejoin="round"/>
<path d="M78.2629 49.7157L78.1399 43.4921L78.8044 43.0772V42.0521L80.2072 41.2955L80.5764 42.2474L82.8898 40.7586L83.0129 46.6161L78.2629 49.7157Z" fill="white" stroke="#63BD4C" stroke-width="2" stroke-linejoin="round"/>
<path d="M78.4597 45.3469L82.2744 43.1016V45.8107L78.4351 48.3733L78.4597 45.3469Z" fill="white" stroke="#63BD4C" stroke-width="2" stroke-linejoin="round"/>
<path d="M109.962 32.1187V25.8951L110.651 25.4802V24.4063L112.054 23.6497L112.423 24.6016L114.761 23.1128L114.884 28.9947L109.962 32.1187Z" fill="white" stroke="#63BD4C" stroke-width="2" stroke-linejoin="round"/>
<path d="M84.7356 46.2012V39.9776L85.4247 39.5871V38.5376L86.8275 37.8054L87.1967 38.7328L89.5347 37.2685L89.6578 43.126L84.7356 46.2012Z" fill="white" stroke="#63BD4C" stroke-width="2" stroke-linejoin="round"/>
<path d="M84.908 44.7612L88.5996 42.467V37.8786" fill="white"/>
<path d="M84.908 44.7612L88.5996 42.467V37.8786" stroke="#63BD4C" stroke-width="2" stroke-linejoin="round"/>
<path d="M91.0605 42.6134V36.3898L91.7497 35.9749V34.9498L93.1279 34.1933L93.5216 35.1451L95.8351 33.6563V39.5382L91.0605 42.6134Z" fill="white" stroke="#63BD4C" stroke-width="2" stroke-linejoin="round"/>
<path d="M91.2822 41.1735L94.8754 38.8793V34.1689" fill="white"/>
<path d="M91.2822 41.1735L94.8754 38.8793V34.1689" stroke="#63BD4C" stroke-width="2" stroke-linejoin="round"/>
<path d="M97.3118 39.0501V32.8265L98.0009 32.436V31.3865L99.4037 30.6543L99.7729 31.5818L102.111 30.1174V35.9749L97.3118 39.0501Z" fill="white" stroke="#63BD4C" stroke-width="2" stroke-linejoin="round"/>
<path d="M97.4841 37.6834L101.077 35.3648V30.7764" fill="white"/>
<path d="M97.4841 37.6834L101.077 35.3648V30.7764" stroke="#63BD4C" stroke-width="2" stroke-linejoin="round"/>
<path d="M103.588 35.5112L103.366 29.2876L104.055 28.8971V27.8476L105.458 27.1154L105.827 28.0429L108.288 26.5785V32.436L103.588 35.5112Z" fill="white" stroke="#63BD4C" stroke-width="2" stroke-linejoin="round"/>
<path d="M103.76 34.1689L107.353 31.7282V27.1887" fill="white"/>
<path d="M103.76 34.1689L107.353 31.7282V27.1887" stroke="#63BD4C" stroke-width="2" stroke-linejoin="round"/>
<path d="M79.2228 45.2737L81.6839 44.029C82.4908 44.654 83.3976 45.1407 84.3665 45.469C85.6079 45.6634 86.8167 46.0247 87.9597 46.5429C89.8684 47.3341 91.6379 48.4216 93.2018 49.7645C94.5926 51.4453 95.8828 53.2056 97.0658 55.0363C97.6318 56.159 101.52 65.0673 102.505 67.2394C103.489 69.4116 105.975 74.0732 106.516 75.0251C106.888 76.0441 107.096 77.1148 107.132 78.1979L105.704 79.2962L104.006 78.3687L103.637 75.1471L104.99 76.1966C103.127 73.1761 101.419 70.0644 99.8714 66.8733C99.1511 64.4793 98.2034 62.1585 97.0411 59.9419C96.1755 57.7688 94.9346 55.7619 93.3741 54.0112C91.504 51.9248 89.2045 50.2603 86.6307 49.1299C84.233 48.586 81.8927 47.8178 79.6412 46.8357C78.9767 46.372 79.2228 45.2737 79.2228 45.2737Z" fill="white" stroke="#63BD4C" stroke-width="2" stroke-linejoin="round"/>
<path d="M41.1742 23.6009C41.8879 23.064 45.3581 21.1603 45.3581 21.1603C46.9332 20.4769 80.2318 2.7579 80.2318 2.7579C81.7617 1.68122 83.5982 1.11689 85.474 1.14709C87.5203 1.74046 89.4933 2.5591 91.356 3.58772L115.278 16.3766C115.278 16.3766 118.6 17.2797 115.893 19.1101C113.186 20.9406 76.5156 41.2711 76.5156 41.2711C76.071 41.6437 75.5508 41.9172 74.9903 42.073C74.4298 42.2288 73.842 42.2633 73.2669 42.1741C71.175 41.8141 69.1955 40.9787 67.4833 39.7335C62.3889 36.4631 41.1742 24.4063 41.1742 24.4063C41.1742 24.4063 40.4851 24.1623 41.1742 23.6009Z" fill="white" stroke="#63BD4C" stroke-width="2" stroke-linejoin="round"/>
<path d="M63.9885 21.8193L66.2774 20.5745V19.94L76.8601 14.3997L77.5984 14.6438L79.8134 13.2282C80.1875 13.014 80.612 12.9012 81.044 12.9012C81.476 12.9012 81.9004 13.014 82.2745 13.2282C83.5051 13.8628 94.58 19.9156 94.58 19.9156C94.7175 19.959 94.8421 20.0351 94.9432 20.1373C95.0442 20.2394 95.1186 20.3644 95.1598 20.5015C95.2011 20.6386 95.2079 20.7836 95.1798 20.924C95.1516 21.0643 95.0894 21.1957 94.9984 21.3067C94.3093 22.2098 79.0259 30.4835 79.0259 30.4835C78.6666 30.6461 78.2763 30.7302 77.8815 30.7302C77.4866 30.7302 77.0963 30.6461 76.737 30.4835L64.8253 23.6253C64.8253 23.6253 63.2502 22.8443 63.3241 22.527C63.3979 22.2098 63.9885 21.8193 63.9885 21.8193Z" fill="white" stroke="#63BD4C" stroke-width="2" stroke-linejoin="round"/>
<path d="M64.6038 22.7711L79.5919 14.6438C80.0755 14.3282 80.6375 14.1508 81.2162 14.1313C81.7496 14.1856 82.2633 14.361 82.7174 14.6438L94.26 21.0871L80.5271 28.7751C79.6895 29.3164 78.7777 29.7356 77.8199 30.0198C76.8813 29.7773 75.9966 29.3635 75.2111 28.7995L64.6038 22.7711Z" fill="white" stroke="#63BD4C" stroke-width="2" stroke-linejoin="round"/>
<path d="M87.492 9.2988C87.492 9.2988 85.0309 10.4215 84.4156 10.7876C83.8003 11.1537 83.1604 11.5442 83.4066 11.7882C84.1449 12.5204 97.041 19.4274 97.041 19.4274C97.3277 19.5692 97.6436 19.6431 97.964 19.6431C98.2843 19.6431 98.6002 19.5692 98.8869 19.4274C99.8506 19.0031 100.733 18.4169 101.496 17.6946C101.766 17.3041 101.274 16.9868 101.274 16.9868L87.492 9.2988Z" fill="white" stroke="#63BD4C" stroke-width="2" stroke-linejoin="round"/>
<path d="M85.0557 11.8859V11.0072L88.1813 10.0798L92.3405 11.3489V12.2032L89.3134 14.2045L85.0557 11.8859Z" fill="white" stroke="#63BD4C" stroke-width="2" stroke-linejoin="round"/>
<path d="M85.1047 10.9584L88.1811 9.15237L92.365 11.3489L89.3378 13.3503L85.1047 10.9584Z" fill="white" stroke="#63BD4C" stroke-width="2" stroke-linejoin="round"/>
<path d="M93.1772 16.7915V15.8397L96.3767 14.9855L100.561 16.1326V17.0844L97.558 19.1101L93.1772 16.7915Z" fill="white" stroke="#63BD4C" stroke-width="2" stroke-linejoin="round"/>
<path d="M93.1279 15.7421L96.2043 13.936L100.388 16.1326L97.3856 18.1339L93.1279 15.7421Z" fill="white" stroke="#63BD4C" stroke-width="2" stroke-linejoin="round"/>
<path d="M61.1582 23.6741C61.1582 23.6741 58.6971 24.7968 58.0819 25.1629C57.4666 25.529 56.8267 25.9439 57.0728 26.188C57.8111 26.9202 70.7319 33.8272 70.7319 33.8272C71.0196 33.9654 71.3351 34.0372 71.6548 34.0372C71.9745 34.0372 72.29 33.9654 72.5777 33.8272C73.5391 33.4118 74.4151 32.8244 75.1619 32.0943C75.4326 31.7282 74.9404 31.3865 74.9404 31.3865L61.1582 23.6741Z" fill="white" stroke="#63BD4C" stroke-width="2" stroke-linejoin="round"/>
<path d="M58.7217 26.2612V25.407L61.8227 24.4063L65.9819 25.6998V26.6029L62.9548 28.6042L58.7217 26.2612Z" fill="white" stroke="#63BD4C" stroke-width="2" stroke-linejoin="round"/>
<path d="M58.771 25.3338L61.8474 23.5277L66.0559 25.7243L63.0287 27.7256L58.771 25.3338Z" fill="white" stroke="#63BD4C" stroke-width="2" stroke-linejoin="round"/>
<path d="M66.8435 31.1669L66.7205 30.215L69.9199 29.3608L74.1284 30.5079V31.5574L71.1012 33.5587L66.8435 31.1669Z" fill="white" stroke="#63BD4C" stroke-width="2" stroke-linejoin="round"/>
<path d="M66.7942 30.1174L69.8952 28.3113L74.079 30.5079L71.0519 32.5092L66.7942 30.1174Z" fill="white" stroke="#63BD4C" stroke-width="2" stroke-linejoin="round"/>
<path d="M11.9855 47.5679L5.95581 54.4749L6.10348 61.0158L9.35213 67.9716C9.59824 68.5086 13.9544 74.6346 13.9544 74.6346L20.9931 80.2236L25.5708 78.8569L29.3609 72.8773L28.721 64.0666L22.962 54.6458C22.962 54.6458 17.0554 49.6425 16.4893 49.4716C15.9233 49.3008 11.9855 47.5679 11.9855 47.5679Z" fill="white" stroke="#63BD4C" stroke-width="2" stroke-linejoin="round"/>
<path d="M18.7536 77.7586C18.5355 79.1582 18.6969 80.5903 19.2212 81.9076C20.0826 83.4208 24.3649 84.3483 24.3649 84.3483C24.3649 84.3483 27.712 84.1774 28.4503 83.2012C29.1887 82.2249 30.493 81.1266 30.2469 80.0039C30.0008 78.8812 26.4322 75.6596 26.4322 75.6596L21.953 75.4888L19.6888 76.1477L18.7536 77.7586Z" fill="white" stroke="#63BD4C" stroke-width="2" stroke-linejoin="round"/>
<path d="M23.7742 78.2711C23.3849 79.4609 23.3849 80.7423 23.7742 81.932C24.6549 82.877 25.7647 83.5827 26.9982 83.9822" stroke="#63BD4C" stroke-width="2" stroke-linejoin="round"/>
<path d="M3.32232 58.7216L2.46094 60.308C2.62678 61.9346 3.07647 63.5202 3.78993 64.994C4.62613 66.4955 5.68842 67.8617 6.94014 69.0455H10.0657L10.7548 68.5574L8.66291 63.4565L6.20181 58.8681L4.92204 57.6721L3.32232 58.7216Z" fill="white" stroke="#63BD4C" stroke-width="2" stroke-linejoin="round"/>
<path d="M4.01155 46.372C3.16793 47.0304 2.47923 47.8633 1.99345 48.8126C1.19299 50.9747 1.00572 53.313 1.45201 55.5732C2.32439 56.6103 3.41685 57.4437 4.65144 58.0138L7.38326 56.8667L7.94931 52.6688L6.94026 48.8126L5.93121 46.372H4.01155Z" fill="white" stroke="#63BD4C" stroke-width="2" stroke-linejoin="round"/>
<path d="M11.075 43.5653C11.1661 42.7705 11.5416 42.0345 12.1332 41.4907C13.557 40.631 15.2243 40.254 16.8831 40.4169C18.0341 40.918 19.0846 41.6207 19.9841 42.4914L13.8314 45.5666L11.075 43.5653Z" fill="white" stroke="#63BD4C" stroke-width="2" stroke-linejoin="round"/>
<path d="M7.21105 44.9321C7.21105 44.9321 3.9624 46.7137 3.9624 48.5442C4.02859 49.8041 4.46489 51.0172 5.21756 52.0343L12.847 55.7685C12.847 55.7685 9.42604 52.6201 10.1151 51.1069C10.4099 50.3672 10.8749 49.7061 11.4732 49.1764C12.0714 48.6467 12.7863 48.263 13.5607 48.0561C14.5258 47.9641 15.4953 47.9234 16.4648 47.934L11.9118 44.9809L7.21105 44.9321Z" fill="white" stroke="#63BD4C" stroke-width="2" stroke-linejoin="round"/>
<path d="M31.4527 59.3562C31.4527 59.3562 34.4061 56.3542 33.9138 55.622C33.4216 54.8898 32.3141 54.963 31.4527 55.0851C30.5914 55.2071 28.4748 57.6477 28.4748 57.6477L27.6873 59.6491L31.4527 59.3562Z" fill="white" stroke="#63BD4C" stroke-width="2" stroke-linejoin="round"/>
<path d="M28.4009 58.5752C28.4009 58.5752 31.1081 58.8681 32.0434 58.0626C32.7654 57.3222 33.4011 56.5035 33.9384 55.622C35.2567 57.1453 36.3504 58.8463 37.1871 60.6741C37.9574 62.3064 38.1229 64.1557 37.6547 65.8971C35.7871 67.5506 33.7205 68.9688 31.5019 70.1194L28.3025 60.8694L28.4009 58.5752Z" fill="white" stroke="#63BD4C" stroke-width="2" stroke-linejoin="round"/>
<path d="M36.9165 67.752C37.7001 68.2463 38.2837 68.9978 38.5655 69.8753C38.9851 71.7017 38.8217 73.6122 38.0978 75.3424C37.2119 76.6603 34.9723 79.2962 33.3971 78.7348C31.822 78.1735 31.4529 74.122 31.4529 74.122L31.7974 72.438L36.9165 67.752Z" fill="white" stroke="#63BD4C" stroke-width="2" stroke-linejoin="round"/>
<path d="M20.2057 43.4677C20.2057 43.4677 21.6331 42.0521 22.4699 42.8819C23.3067 43.7117 24.931 44.4439 26.2108 45.5422C27.4905 46.6405 29.2133 47.812 29.4102 49.496C29.5058 50.4292 29.5058 51.3696 29.4102 52.3028L24.3649 54.7434L16.9816 47.5435L16.1941 45.6154L20.2057 43.4677Z" fill="white" stroke="#63BD4C" stroke-width="2" stroke-linejoin="round"/>
<path d="M22.1499 67.752L25.054 68.8747L29.2871 66.8245L29.8285 70.0706L25.4478 72.9505L22.7159 72.6576L21.51 71.12L22.1499 67.752Z" fill="white" stroke="#63BD4C" stroke-width="2" stroke-linejoin="round"/>
<path d="M22.1498 68.0936C22.1498 68.0936 21.0915 70.3878 22.1498 70.7783C22.7221 71.0839 23.3516 71.2698 23.9993 71.3243C24.647 71.3789 25.2991 71.3011 25.9153 71.0956C27.502 70.523 28.8003 69.3581 29.5331 67.8496L32.3387 74.4881L28.1795 79.1497C26.7606 79.1601 25.3543 78.8862 24.0448 78.3443C23.1096 77.6121 21.5837 69.9729 21.5837 69.9729L22.1498 68.0936Z" fill="white" stroke="#63BD4C" stroke-width="2" stroke-linejoin="round"/>
<path d="M14.5452 55.0119C14.5452 55.0119 14.1268 56.7691 14.0283 57.4525C14.7386 59.6009 15.9051 61.5734 17.4492 63.2368C18.4992 64.2733 19.6826 65.1678 20.9686 65.8971C21.9135 66.1437 22.9177 66.0214 23.7743 65.5554C25.2228 64.646 26.5535 63.5641 27.7366 62.3338L20.8456 50.8628L15.3081 53.401L14.5452 55.0119Z" fill="white" stroke="#63BD4C" stroke-width="2" stroke-linejoin="round"/>
<path d="M16.9322 48.0561C15.6291 48.3664 14.3717 48.8422 13.1914 49.4716C12.8335 49.6676 12.5213 49.9363 12.2753 50.2601C12.0293 50.584 11.8551 50.9557 11.7639 51.3509L14.7665 55.0851C15.4786 54.4902 16.2544 53.9745 17.0799 53.5475C18.5812 52.7177 20.8208 51.7902 20.8208 51.7902C21.6603 52.4428 22.4056 53.2066 23.0358 54.06C24.086 55.4729 24.9929 56.9853 25.743 58.5752C26.3336 59.9908 27.2689 61.9921 27.2689 61.9921L23.5526 64.7744C24.4073 66.1427 25.0463 67.6324 25.4476 69.192C25.4476 70.2658 29.5577 67.0442 29.5577 67.0442C30.5965 69.6423 31.3554 72.342 31.8219 75.0983C31.6004 76.3918 27.1212 80.248 26.3829 79.7599C25.6445 79.2718 25.4969 81.3951 25.4969 81.3951L32.3879 78.3931L33.1509 74.0488L37.064 70.7784L36.2273 67.1174L32.2895 69.436C31.7484 67.3448 31.0067 65.3098 30.0745 63.3588C29.0751 61.8246 28.179 60.2266 27.3919 58.5752L31.2805 55.4512C30.5034 53.865 29.6066 52.3394 28.5979 50.8872C27.9334 50.277 24.2171 53.2058 24.2171 53.2058C24.2171 53.2058 18.4827 46.3232 16.8338 46.1768C15.1849 46.0303 19.9348 43.0772 19.9348 43.0772C19.0531 42.684 18.1491 42.3418 17.2276 42.0521C16.5385 41.9057 13.2406 44.1266 13.2406 44.1266L10.7795 43.8826L9.229 44.81L14.7665 46.8113L16.9322 48.0561Z" fill="white" stroke="#63BD4C" stroke-width="2" stroke-linejoin="round"/>
<path d="M28.3765 48.0316C28.3765 48.0316 25.4724 48.2513 24.488 50.1306C24.212 50.619 24.0671 51.1694 24.0671 51.7292C24.0671 52.289 24.212 52.8394 24.488 53.3278" stroke="#63BD4C" stroke-width="2" stroke-linejoin="round"/>
<path d="M10.8287 70.9248C10.8287 70.9248 9.74585 73.0726 10.1642 73.9512C11.695 76.2821 13.514 78.4139 15.5787 80.2968C16.5385 80.7118 18.3843 81.5172 18.9011 80.6873C19.1553 79.48 19.1553 78.2337 18.9011 77.0264L11.5178 69.973L10.8287 70.9248Z" fill="white" stroke="#63BD4C" stroke-width="2" stroke-linejoin="round"/>
<path d="M9.42603 69.558C9.42603 69.558 9.69675 71.657 10.4351 71.2665C10.9001 70.9734 11.2413 70.5221 11.3949 69.9974C13.8531 72.0307 16.1564 74.2414 18.286 76.6115C18.5499 77.3991 18.691 78.2222 18.7044 79.0521C18.7044 79.0521 19.1228 76.221 20.1072 75.7573C20.9215 75.5364 21.7865 75.5879 22.5683 75.9037" stroke="#63BD4C" stroke-width="2" stroke-linejoin="round"/>
<path d="M9.22919 69.9729C9.22919 69.9729 10.7305 69.1919 11.075 69.436C10.9105 67.9193 10.4419 66.4506 9.6968 65.1161C9.0323 64.1398 6.81731 58.8437 5.90671 58.5508C4.9961 58.2579 4.9961 59.8199 4.28238 59.5514C4.14484 59.4688 4.03112 59.3524 3.95219 59.2134C3.87325 59.0745 3.83179 58.9177 3.83179 58.7582C3.83179 58.5988 3.87325 58.442 3.95219 58.303C4.03112 58.1641 4.14484 58.0477 4.28238 57.965C4.72538 57.7454 5.38988 58.3067 5.38988 58.3067C5.78294 58.3124 6.16999 58.2106 6.5086 58.0126C6.84722 57.8145 7.12432 57.5279 7.30953 57.184C7.86294 55.9482 7.97577 54.5625 7.62948 53.2546" stroke="#63BD4C" stroke-width="2" stroke-linejoin="round"/>
<path d="M6.89111 58.9413C8.29264 58.8595 9.69895 58.9579 11.075 59.2342C12.4296 59.3646 13.7145 59.8913 14.7666 60.7473" stroke="#63BD4C" stroke-width="2" stroke-linejoin="round"/>
<path d="M15.308 60.2348C14.8514 61.3407 14.7483 62.559 15.0127 63.7249C15.45 64.7368 16.0668 65.6626 16.8339 66.4584C16.8339 66.4584 19.6888 68.3377 20.4763 67.7275C21.025 67.3198 21.409 66.7313 21.5592 66.0679" stroke="#63BD4C" stroke-width="2" stroke-linejoin="round"/>
<path d="M11.3701 69.4848L15.8493 66.2876" stroke="#63BD4C" stroke-width="2" stroke-linejoin="round"/>
<path d="M62.9056 89.5224C58.9924 82.6398 47.5975 79.7599 48.4097 75.2203C50.1969 72.7296 52.5488 70.6898 55.2762 69.2652C56.6236 68.4959 58.0309 67.8348 59.4846 67.2882C63.9884 64.8232 73.1683 70.7784 78.755 80.5409C84.3417 90.3034 85.3754 101.189 80.9946 103.654C80.3794 103.995 78.5335 105.655 76.2939 107.095C74.0543 108.535 70.7319 110.17 69.772 109.828C65.5143 108.291 66.8679 96.4538 62.9056 89.5224Z" fill="white" stroke="#63BD4C" stroke-width="2" stroke-linejoin="round"/>
<path d="M52.6674 95.746C47.0315 85.9835 46.0225 75.8549 50.4032 73.3898C54.784 70.9248 62.9302 76.9532 68.5661 86.8377C74.202 96.7223 75.2111 106.753 70.8303 109.218C66.4496 111.683 58.3033 105.631 52.6674 95.746Z" fill="white" stroke="#63BD4C" stroke-width="2" stroke-linejoin="round"/>
<path d="M54.661 95.4043C49.9849 88.2777 49.0497 80.7605 52.5691 78.3199C56.0885 75.8793 62.7334 79.9795 67.3357 87.1062C71.9379 94.2328 72.947 101.75 69.4276 104.191C65.9083 106.631 59.3371 102.507 54.661 95.4043Z" fill="white" stroke="#63BD4C" stroke-width="2" stroke-linejoin="round"/>
<path d="M58.131 94.1108C54.2917 88.2777 53.2088 82.2005 55.8668 80.5409C58.5248 78.8812 63.6685 82.2493 67.4832 88.0824C71.2979 93.9155 72.4054 99.9927 69.7228 101.652C67.0402 103.312 61.9457 100.066 58.131 94.1108Z" fill="white" stroke="#63BD4C" stroke-width="2" stroke-linejoin="round"/>
<path d="M59.6078 91.719C59.1464 90.9591 58.7983 90.1371 58.5741 89.2784C58.1218 88.1667 57.9791 86.955 58.161 85.7699C58.3428 84.5849 58.8425 83.4701 59.6078 82.5422C61.2813 81.4927 64.53 83.7137 66.9911 87.4235C69.4522 91.1332 69.969 95.1359 68.2955 96.1853C66.6219 97.2348 63.3733 95.746 61.2813 93.4518C60.6713 92.9261 60.1111 92.346 59.6078 91.719Z" fill="white" stroke="#63BD4C" stroke-width="2" stroke-linejoin="round"/>
<path d="M58.4511 92.2559C58.281 91.9935 58.1563 91.7048 58.0819 91.4017C57.9192 90.9991 57.8676 90.5607 57.9325 90.1317C57.9974 89.7027 58.1764 89.2987 58.4511 88.9611C59.0664 88.5706 60.2477 89.376 61.1091 90.7427C61.9705 92.1095 62.192 93.5251 61.6013 93.8912C61.0106 94.2573 59.8047 93.7447 59.1402 92.9149C58.8848 92.7233 58.6534 92.5021 58.4511 92.2559Z" fill="white" stroke="#63BD4C" stroke-width="2" stroke-linejoin="round"/>
<path d="M56.2606 93.5983C56.0181 93.2845 55.8194 92.9397 55.6699 92.5732C55.6699 92.2315 58.131 90.7427 58.4264 90.6207C58.7217 90.4987 59.3862 90.6207 59.8046 91.4017C60.223 92.1827 60.2722 92.7685 59.8046 92.9881C59.337 93.2078 57.2204 95.0871 56.9005 94.7942C56.6628 94.4088 56.4492 94.0094 56.2606 93.5983Z" fill="white" stroke="#63BD4C" stroke-width="2" stroke-linejoin="round"/>
<path d="M55.793 93.9888C55.3746 93.3542 55.3253 92.6464 55.793 92.4268C56.2606 92.2071 56.7528 92.5488 57.1712 93.2078C57.5896 93.8667 57.6388 94.5745 57.1712 94.7942C56.7036 95.0138 56.2113 94.6477 55.793 93.9888Z" fill="white" stroke="#63BD4C" stroke-width="2" stroke-linejoin="round"/>
<path d="M76.294 73.9024L88.5995 66.3608L87.8366 56.9888L86.9506 56.6959L87.7874 55.4024V51.6926L83.1605 50.4479L74.6697 55.7929L73.5376 61.3819L74.3744 66.5561L76.294 73.9024Z" fill="white" stroke="#63BD4C" stroke-width="2" stroke-linejoin="round"/>
<path d="M73.4638 71.9499L76.1464 73.878L75.3096 64.5059L76.2202 63.6273L75.1128 62.6511C74.9316 61.2312 75.0235 59.7902 75.3835 58.4044C76.6864 56.6947 78.3712 55.308 80.3057 54.3529C80.6125 54.2491 80.9439 54.2402 81.2559 54.3274C81.568 54.4145 81.846 54.5937 82.0531 54.841L82.2499 53.4743C83.1728 52.6637 84.209 51.9896 85.3263 51.473C86.1501 51.2651 87.0214 51.3515 87.7874 51.717C86.8688 50.7712 85.7512 50.0379 84.5141 49.5693C84.2506 49.4284 83.9507 49.3689 83.6528 49.3984C82.2869 49.628 81.0055 50.2086 79.9365 51.0825C79.3951 51.7414 78.9028 52.2784 78.9028 52.2784C78.9028 52.2784 78.6813 51.6438 76.8601 52.6933C75.0389 53.7427 73.833 54.1332 73.0454 55.9637C72.5727 57.8212 72.4558 59.7502 72.7009 61.6504L73.7591 62.407L72.627 63.1636L73.4638 71.9499Z" fill="white" stroke="#63BD4C" stroke-width="2" stroke-linejoin="round"/>
<path d="M77.4752 64.9941C77.4977 64.8232 77.5604 64.6601 77.6582 64.5177C77.756 64.3753 77.8862 64.2578 78.0382 64.1745C78.1903 64.0913 78.36 64.0447 78.5336 64.0385C78.7072 64.0323 78.8798 64.0667 79.0375 64.1389C79.1953 64.2111 79.3337 64.319 79.4415 64.454C79.5494 64.5891 79.6237 64.7474 79.6585 64.9161C79.6933 65.0849 79.6876 65.2594 79.6418 65.4256C79.596 65.5918 79.5114 65.7449 79.3949 65.8727C79.3724 66.0435 79.3098 66.2067 79.212 66.349C79.1142 66.4914 78.984 66.609 78.8319 66.6922C78.6798 66.7755 78.5101 66.8221 78.3365 66.8283C78.1629 66.8345 77.9903 66.8001 77.8326 66.7279C77.6749 66.6557 77.5365 66.5477 77.4286 66.4127C77.3208 66.2777 77.2464 66.1194 77.2116 65.9506C77.1769 65.7818 77.1826 65.6073 77.2284 65.4412C77.2742 65.275 77.3587 65.1218 77.4752 64.9941Z" fill="white" stroke="#63BD4C" stroke-width="2" stroke-linejoin="round"/>
<path d="M76.9832 57.9894C77.3277 57.2817 78.0414 56.8912 78.5583 57.1352C78.8314 57.3231 79.0201 57.609 79.0844 57.9325C79.1487 58.2559 79.0836 58.5914 78.9028 58.8681C78.5829 59.6003 77.8691 59.9908 77.3523 59.7467C77.0783 59.5542 76.8879 59.266 76.8194 58.94C76.751 58.614 76.8094 58.2744 76.9832 57.9894Z" fill="white" stroke="#63BD4C" stroke-width="2" stroke-linejoin="round"/>
<path d="M80.6748 59.6002C81.0193 58.8925 81.7084 58.502 82.2499 58.746C82.5198 58.9421 82.7053 59.232 82.7692 59.5577C82.833 59.8835 82.7706 60.2212 82.5944 60.5033C82.4921 60.8186 82.2717 61.0829 81.9786 61.2419C81.6856 61.4008 81.3422 61.4422 81.0193 61.3575C80.7493 61.1614 80.5639 60.8715 80.5 60.5458C80.4362 60.22 80.4985 59.8824 80.6748 59.6002Z" fill="white" stroke="#63BD4C" stroke-width="2" stroke-linejoin="round"/>
<path d="M83.9726 53.9624C84.3172 53.2546 85.0063 52.8641 85.5477 53.1082C85.8177 53.3043 86.0031 53.5941 86.067 53.9199C86.1309 54.2456 86.0685 54.5833 85.8923 54.8654C85.5477 55.5732 84.8586 55.9637 84.3172 55.7197C84.0472 55.5236 83.8617 55.2337 83.7979 54.9079C83.734 54.5822 83.7964 54.2445 83.9726 53.9624Z" fill="white" stroke="#63BD4C" stroke-width="2" stroke-linejoin="round"/>
<path d="M84.4648 61.0158C84.8094 60.308 85.4985 59.9175 86.0399 60.1616C86.3131 60.3495 86.5017 60.6354 86.566 60.9588C86.6304 61.2822 86.5652 61.6178 86.3845 61.8944C86.0645 62.6266 85.3508 63.0171 84.834 62.7731C84.56 62.5806 84.3696 62.2924 84.3011 61.9664C84.2326 61.6404 84.2911 61.3008 84.4648 61.0158Z" fill="white" stroke="#63BD4C" stroke-width="2" stroke-linejoin="round"/>
<path d="M81.2162 66.3364C81.5608 65.6286 82.2499 65.2381 82.7913 65.4822C83.0595 65.6739 83.2443 65.9595 83.3082 66.2812C83.3722 66.6029 83.3106 66.9367 83.1359 67.215C83.1134 67.3858 83.0507 67.549 82.9529 67.6914C82.8551 67.8337 82.7249 67.9513 82.5729 68.0345C82.4208 68.1178 82.2511 68.1644 82.0775 68.1706C81.9039 68.1768 81.7313 68.1424 81.5736 68.0702C81.4159 67.998 81.2775 67.8901 81.1696 67.755C81.0617 67.62 80.9874 67.4617 80.9526 67.293C80.9178 67.1242 80.9236 66.9497 80.9694 66.7835C81.0151 66.6173 81.0997 66.4642 81.2162 66.3364Z" fill="white" stroke="#63BD4C" stroke-width="2" stroke-linejoin="round"/>
<path d="M111.389 52.4004L122.095 45.8595L121.652 37.4637L120.84 37.0976L121.578 36.0726V32.5824L117.567 31.5818L110.011 36.3166L109.027 41.1979L109.765 45.7863L111.389 52.4004Z" fill="white" stroke="#63BD4C" stroke-width="2" stroke-linejoin="round"/>
<path d="M108.805 50.6675L111.266 52.4004L110.503 44.0778L111.34 43.2724L110.356 42.4182C110.19 41.1546 110.265 39.8713 110.577 38.6352C111.728 37.1197 113.22 35.8913 114.933 35.0475C115.206 34.9572 115.5 34.9508 115.777 35.0292C116.054 35.1076 116.3 35.2671 116.484 35.4868L116.656 34.2665C117.478 33.5486 118.398 32.9489 119.388 32.4848C120.162 32.3251 120.969 32.4555 121.652 32.8509C121.621 32.5832 121.529 32.3259 121.384 32.0979C121.24 31.8698 121.045 31.6768 120.815 31.533C120.042 31.0054 119.218 30.5557 118.354 30.1906C116.949 30.6933 115.603 31.3481 114.343 32.1431C114.081 32.4531 113.881 32.8091 113.752 33.1926C113.752 33.1926 113.58 32.6557 111.955 33.5587C110.331 34.4617 109.273 34.8522 108.559 36.463C108.096 38.0968 107.938 39.8006 108.091 41.4907L109.051 42.1741L108.042 42.8575L108.805 50.6675Z" fill="white" stroke="#63BD4C" stroke-width="2" stroke-linejoin="round"/>
<path d="M112.374 44.4927C112.669 43.8582 113.284 43.5165 113.752 43.7361C113.969 43.9243 114.119 44.1773 114.178 44.4572C114.238 44.737 114.204 45.0284 114.081 45.2874C113.959 45.5464 113.755 45.759 113.5 45.893C113.246 46.027 112.954 46.0752 112.669 46.0303C112.547 45.9494 112.442 45.8451 112.361 45.7236C112.28 45.6022 112.224 45.4659 112.197 45.3228C112.169 45.1798 112.171 45.0327 112.201 44.8901C112.232 44.7476 112.29 44.6125 112.374 44.4927Z" fill="white" stroke="#63BD4C" stroke-width="2" stroke-linejoin="round"/>
<path d="M111.931 38.2691C111.954 38.1199 112.011 37.9781 112.099 37.8548C112.187 37.7314 112.302 37.6299 112.436 37.5583C112.57 37.4866 112.719 37.4467 112.871 37.4418C113.023 37.4368 113.175 37.4668 113.313 37.5296C113.451 37.5924 113.573 37.6861 113.669 37.8034C113.765 37.9208 113.832 38.0585 113.865 38.2058C113.898 38.3532 113.896 38.5061 113.859 38.6526C113.822 38.7991 113.752 38.9352 113.653 39.0501C113.358 39.7091 112.718 40.0508 112.251 39.8311C112.008 39.6588 111.841 39.4021 111.781 39.1124C111.722 38.8227 111.775 38.5215 111.931 38.2691Z" fill="white" stroke="#63BD4C" stroke-width="2" stroke-linejoin="round"/>
<path d="M115.204 39.7091C115.227 39.5599 115.285 39.4181 115.373 39.2947C115.46 39.1714 115.576 39.0699 115.71 38.9983C115.844 38.9266 115.993 38.8867 116.145 38.8817C116.297 38.8767 116.448 38.9068 116.586 38.9696C116.725 39.0323 116.847 39.1261 116.942 39.2434C117.038 39.3607 117.105 39.4985 117.138 39.6458C117.171 39.7932 117.169 39.9461 117.133 40.0926C117.096 40.2391 117.025 40.3751 116.927 40.4901C116.831 40.7687 116.635 41.0024 116.376 41.1465C116.117 41.2906 115.814 41.3349 115.524 41.2711C115.282 41.0988 115.114 40.8421 115.055 40.5524C114.996 40.2627 115.049 39.9614 115.204 39.7091Z" fill="white" stroke="#63BD4C" stroke-width="2" stroke-linejoin="round"/>
<path d="M118.133 34.7058C118.224 34.4251 118.42 34.1898 118.681 34.0489C118.943 33.9081 119.248 33.8723 119.535 33.9492C119.777 34.1169 119.943 34.3714 119.998 34.6586C120.053 34.9457 119.993 35.2428 119.831 35.4868C119.812 35.6399 119.758 35.7864 119.671 35.9144C119.584 36.0425 119.469 36.1484 119.333 36.2235C119.197 36.2985 119.045 36.3407 118.89 36.3464C118.735 36.3522 118.58 36.3213 118.439 36.2565C118.298 36.1916 118.175 36.0946 118.079 35.9733C117.983 35.852 117.917 35.7099 117.887 35.5586C117.857 35.4074 117.864 35.2512 117.907 35.103C117.949 34.9548 118.027 34.8187 118.133 34.7058Z" fill="white" stroke="#63BD4C" stroke-width="2" stroke-linejoin="round"/>
<path d="M118.576 40.8562C118.667 40.5754 118.863 40.3402 119.124 40.1993C119.386 40.0584 119.691 40.0227 119.979 40.0996C120.224 40.2636 120.395 40.5163 120.455 40.8037C120.514 41.0911 120.458 41.3903 120.299 41.6372C119.979 42.2718 119.363 42.6135 118.896 42.3938C118.655 42.2259 118.488 41.9734 118.429 41.6878C118.369 41.4022 118.422 41.1048 118.576 40.8562Z" fill="white" stroke="#63BD4C" stroke-width="2" stroke-linejoin="round"/>
<path d="M115.672 45.6886C115.967 45.0541 116.582 44.7124 117.05 44.932C117.335 44.9648 117.602 45.0864 117.812 45.2793C118.023 45.4721 118.166 45.7264 118.222 46.0053C118.277 46.2842 118.242 46.5734 118.121 46.8312C118.001 47.0891 117.8 47.3022 117.549 47.4399C117.299 47.5776 117.01 47.6327 116.726 47.5974C116.441 47.5621 116.175 47.4381 115.967 47.2433C115.758 47.0486 115.617 46.7931 115.564 46.5137C115.511 46.2343 115.548 45.9454 115.672 45.6886Z" fill="white" stroke="#63BD4C" stroke-width="2" stroke-linejoin="round"/>
<path d="M109.962 27.1887L113.629 25.1385L113.801 27.9208L110.06 30.0198L109.962 27.1887Z" fill="white" stroke="#63BD4C" stroke-width="2" stroke-linejoin="round"/>
<path d="M110.75 27.75L113.211 26.3344C114.095 26.9112 114.919 27.5734 115.672 28.3113C116.139 28.9459 116.582 29.6537 116.582 29.6537C116.582 29.6537 113.851 32.5824 113.137 33.3146C111.809 35.2031 110.734 37.254 109.937 39.4162C109.593 40.6365 108.485 50.3746 109.224 52.1807C109.962 53.9868 110.331 54.182 111.562 54.4749C112.792 54.7678 114.589 54.4749 115.819 55.9393C117.123 58.0224 117.915 60.3798 118.133 62.8219C118.133 64.4815 118.527 69.2163 117.542 70.5099C116.558 71.8034 114.81 72.9505 114.097 72.4624C113.679 72.2016 113.208 72.0349 112.718 71.9743L112.497 70.1438L113.654 69.314H114.712C114.712 69.314 115.278 69.0699 115.376 67.4347C115.512 65.1641 115.454 62.8863 115.204 60.6253C115.082 60.1405 114.833 59.696 114.483 59.3362C114.134 58.9764 113.695 58.714 113.211 58.5752C112.177 58.1603 107.599 57.0864 106.763 55.3047C105.829 53.0373 105.249 50.6427 105.04 48.2025C104.849 45.342 105.191 42.4712 106.049 39.7335C106.818 36.9958 107.874 34.3455 109.199 31.8258C110.405 30.3615 111.094 29.3852 111.094 29.3852L110.75 29.2876V27.75Z" fill="white" stroke="#63BD4C" stroke-width="2" stroke-linejoin="round"/>
<path d="M97.1888 100.261C96.2894 99.8229 95.4601 99.2555 94.7277 98.5772C94.3881 97.9853 94.0841 97.3741 93.8171 96.7467V93.3054L94.3831 92.5244L93.5217 91.963L93.9401 88.3265C94.1686 87.7759 94.4843 87.2651 94.8753 86.8133C96.1162 85.7112 97.423 84.6843 98.7885 83.7381L99.5022 84.2506L99.8221 83.128L104.744 80.0772L105.212 80.8338L105.581 79.6134L110.503 76.5382L110.848 77.3681L111.34 76.0989L115.672 73.219L116.41 73.8291L116.705 72.9017L121.627 69.9485L121.923 70.3878L122.317 69.558L126.894 66.5072L127.436 66.9954L127.953 66.1411L132.506 63.2856L133.022 63.7493L133.515 62.7243C134.475 61.9539 135.545 61.3288 136.689 60.8694C137.945 60.5277 137.723 60.8694 138.831 61.4307C139.938 61.9921 141.292 62.651 141.292 63.4076C141.292 64.1642 138.043 65.2869 138.043 65.2869L137.083 66.5805H138.166L137.846 69.8265C137.534 70.8484 136.986 71.7842 136.246 72.56C135.328 73.3435 134.366 74.0768 133.367 74.7566L132.629 74.3417L132.235 75.4155L127.534 78.1002L126.82 77.5877L126.648 78.564L122.095 81.6148L121.48 81.0046L120.988 82.1761L116.681 84.934L116.016 84.3971L115.499 85.6174L111.094 88.2533L110.405 87.6431L110.11 88.717L105.187 91.9874L104.597 91.3285L104.178 92.4512L99.8221 95.1847L99.1576 94.6477L98.8377 95.5752L99.0346 99.2361C98.5259 99.7394 97.8873 100.094 97.1888 100.261Z" fill="white" stroke="#63BD4C" stroke-width="2" stroke-linejoin="round"/>
<path d="M98.4439 99.6266C97.7056 99.6266 97.2626 98.4551 97.2626 98.4551V94.9894L97.8041 94.2328L96.9673 93.6715L97.3857 90.035C97.6081 89.4813 97.9244 88.9696 98.3209 88.5218C99.5199 87.4232 100.777 86.3886 102.086 85.4222L102.825 85.9591L103.145 84.8364L108.067 81.7856L108.534 82.5422L108.904 81.3219L113.826 78.2467L114.146 79.0765L114.663 77.8074L119.019 74.8786L119.757 75.4888L120.028 74.5613L124.95 71.6082L125.245 72.0475L125.639 71.2177L130.217 68.1669L130.758 68.6306L131.275 67.8008L135.828 64.9452L136.345 65.409L136.812 64.3595L139.864 62.6022C139.864 62.6022 141.267 62.6022 141.292 63.5785C141.316 64.5547 141.292 66.9466 141.292 66.9466L140.283 68.3377H141.341L141.046 71.5838C140.728 72.6035 140.181 73.5383 139.446 74.3173C138.527 75.1008 137.566 75.8341 136.566 76.5138L135.828 76.0745L135.41 77.1484L130.955 79.8331L130.217 79.3206L130.069 80.2968L125.516 83.2744L124.901 82.6642L124.409 83.8357L120.102 86.6181L119.413 86.0811L118.92 87.3258L114.515 89.9617L113.826 89.3516L113.53 90.4255L108.608 93.6959L107.993 93.0369L107.575 94.1596L103.095 96.942L102.456 96.405L102.111 97.308L100.167 98.5284C100.167 98.5284 99.1823 99.6511 98.4439 99.6266Z" fill="white" stroke="#63BD4C" stroke-width="2" stroke-linejoin="round"/>
</g>
<defs>
<clipPath id="clip0_640_4846">
<rect width="155" height="111" fill="white"/>
</clipPath>
</defs>
</svg>
