<svg width="130" height="127" viewBox="0 0 130 127" fill="none" xmlns="http://www.w3.org/2000/svg">
<g clip-path="url(#clip0_640_4965)">
<path d="M12.8756 69.2795C15.0133 61.3498 21.0534 55.2595 25.7513 56.577C28.2873 57.2373 30.709 58.2765 32.9349 59.6594C35.4206 62.891 31.5181 68.0615 29.9024 74.0771C28.5601 79.0487 27.9387 85.1887 24.9311 87.0779C23.216 88.1717 19.2886 86.531 17.5984 86.0339C12.8508 84.7164 10.7628 77.2092 12.8756 69.2795Z" fill="white" stroke="#509ADB" stroke-width="2" stroke-linejoin="round"/>
<path d="M18.1204 70.5721C20.2332 62.6424 25.7514 57.273 30.5487 58.5905C35.346 59.908 37.3345 67.4151 35.2217 75.3449C33.1089 83.2746 27.5907 88.644 22.7934 87.3265C17.9961 86.009 16.0076 78.5018 18.1204 70.5721Z" fill="white" stroke="#509ADB" stroke-width="2" stroke-linejoin="round"/>
<path d="M84.0152 58.4414L81.6787 57.5713L82.2007 45.8383L85.5812 44.2225L84.0152 58.4414Z" fill="white" stroke="#509ADB" stroke-width="2" stroke-linejoin="round"/>
<path d="M35.371 55.707C37.5086 47.7773 43.5488 41.687 48.2467 43.0045C50.7826 43.6648 53.2044 44.704 55.4303 46.0869C57.9159 49.3185 54.0134 54.489 52.3978 60.5046C51.0555 65.4762 50.4341 71.6162 47.4264 73.5054C45.7113 74.5991 41.784 72.9585 40.0937 72.4614C35.3461 71.1439 33.2582 63.6616 35.371 55.707Z" fill="white" stroke="#509ADB" stroke-width="2" stroke-linejoin="round"/>
<path d="M40.6157 56.9996C42.7285 49.0699 48.2467 43.7005 53.044 45.0429C57.8413 46.3852 59.8299 53.8426 57.7171 61.7972C55.6043 69.7518 50.0861 75.0714 45.2888 73.754C40.4914 72.4365 38.4781 64.9293 40.6157 56.9996Z" fill="white" stroke="#509ADB" stroke-width="2" stroke-linejoin="round"/>
<path d="M72.7802 25.579C73.2525 21.9994 74.893 19.265 76.4838 19.4639C78.0746 19.6627 78.9695 22.77 78.4972 26.3496C78.0249 29.9291 76.3844 32.6884 74.8184 32.4647C73.2525 32.2409 72.3328 29.1834 72.7802 25.579Z" fill="white" stroke="#509ADB" stroke-width="2" stroke-linejoin="round"/>
<path d="M73.65 25.7033C74.0974 22.1237 75.7628 19.3893 77.3288 19.5882C78.8947 19.787 79.8144 22.8943 79.367 26.4739C78.9196 30.0534 77.2542 32.8127 75.6634 32.589C74.0726 32.3652 73.1777 29.3077 73.65 25.7033Z" fill="white" stroke="#509ADB" stroke-width="2" stroke-linejoin="round"/>
<path d="M76.1605 26.3247C76.6079 22.7452 78.2733 19.9859 79.8641 20.2096C81.4549 20.4334 82.3498 23.5158 81.8775 27.0953C81.4052 30.6749 79.7647 33.4341 78.1739 33.2104C76.5831 32.9867 75.6882 29.8297 76.1605 26.3247Z" fill="white" stroke="#509ADB" stroke-width="2" stroke-linejoin="round"/>
<path d="M77.0553 26.449C77.5276 22.8695 79.1681 20.1102 80.7589 20.3339C82.3498 20.5577 83.2446 23.6401 82.7723 27.2196C82.3 30.7992 80.6595 33.5584 79.0935 33.3347C77.5276 33.111 76.5582 30.0534 77.0553 26.449Z" fill="white" stroke="#509ADB" stroke-width="2" stroke-linejoin="round"/>
<path d="M78.3232 27.3439C78.7954 23.7643 80.436 21.03 82.0268 21.2288C83.6176 21.4277 84.5125 24.5349 84.065 28.1145C83.6176 31.6941 81.9274 34.4533 80.3614 34.2545C78.7954 34.0556 77.8757 30.8489 78.3232 27.3439Z" fill="white" stroke="#509ADB" stroke-width="2" stroke-linejoin="round"/>
<path d="M79.193 27.3439C79.6404 23.7643 81.3058 21.03 82.8717 21.2288C84.4377 21.4277 85.3574 24.5349 84.91 28.1145C84.4626 31.6941 82.7972 34.4533 81.2063 34.2545C79.6155 34.0556 78.7207 30.9732 79.193 27.3439Z" fill="white" stroke="#509ADB" stroke-width="2" stroke-linejoin="round"/>
<path d="M83.9655 63.7113V53.7681C83.9655 53.7681 84.2886 53.3952 84.3881 53.4698L83.7915 52.8483L84.2886 35.1991L87.2963 34.8013L87.4206 53.1217L86.7494 53.5195L87.4454 53.8923L87.1969 64.9791H83.9406L83.9655 63.7113Z" fill="white" stroke="#509ADB" stroke-width="2" stroke-linejoin="round"/>
<path d="M88.216 13.7465C88.216 13.7465 90.0057 13.1748 90.7017 14.02C91.3976 14.8651 90.7016 63.7361 90.4034 64.8796C90.1051 66.0231 87.4951 63.3136 87.2466 64.5067C87.0974 65.2773 87.2466 47.2552 87.7437 32.3652C87.7437 31.9675 88.3403 31.7438 88.3403 31.3461C88.3403 30.9483 87.6691 30.7743 87.694 30.3269C87.7934 23.0932 88.216 13.7465 88.216 13.7465Z" fill="white" stroke="#509ADB" stroke-width="2" stroke-linejoin="round"/>
<path d="M101.912 33.459C102.061 34.0804 102.285 34.2296 102.285 34.2296L101.713 45.5152C101.713 45.5152 100.421 48.3241 98.9044 48.6721C97.2174 48.701 95.5373 48.449 93.933 47.9264L86.998 46.1863V33.285C86.998 33.285 98.9044 31.9426 101.912 32.1166C102.26 32.1415 101.912 32.8375 101.912 33.459Z" fill="white" stroke="#509ADB" stroke-width="2" stroke-linejoin="round"/>
<path d="M99.6252 34.1799C99.6252 34.1799 99.4263 36.4668 98.7055 37.0137C98.4353 38.1449 98.3763 39.3163 98.5315 40.469C98.5315 43.6011 98.5315 47.6778 98.5315 47.6778C98.5315 47.6778 99.6998 47.6778 99.4015 48.1253" fill="white"/>
<path d="M99.6252 34.1799C99.6252 34.1799 99.4263 36.4668 98.7055 37.0137C98.4353 38.1449 98.3763 39.3163 98.5315 40.469C98.5315 43.6011 98.5315 47.6778 98.5315 47.6778C98.5315 47.6778 99.6998 47.6778 99.4015 48.1253" stroke="#509ADB" stroke-width="2" stroke-linejoin="round"/>
<path d="M96.9407 35.0002V48.6224" stroke="#509ADB" stroke-width="2" stroke-linejoin="round"/>
<path d="M87.4207 33.0861L91.8203 30.1777L101.912 32.3155L98.0593 35.2985L89.7075 33.5833L87.4207 33.0861Z" fill="white" stroke="#509ADB" stroke-width="2" stroke-linejoin="round"/>
<path d="M71.7112 59.9577L70.8164 38.9278L67.3613 49.1942L67.8585 59.9826L71.7112 59.9577Z" fill="white" stroke="#509ADB" stroke-width="2" stroke-linejoin="round"/>
<path d="M111.855 68.484L111.581 76.5132L109.518 78.999L108.275 74.0274L108.076 69.5778L111.855 68.484Z" fill="white" stroke="#509ADB" stroke-width="2" stroke-linejoin="round"/>
<path d="M78.7705 74.5743L71.5869 87.7739L68.803 87.4259L73.8986 77.0601L78.7705 74.5743Z" fill="white" stroke="#509ADB" stroke-width="2" stroke-linejoin="round"/>
<path d="M100.992 74.0771L108.872 67.614L111.855 68.2603L103.354 75.7177L100.992 74.0771Z" fill="white" stroke="#509ADB" stroke-width="2" stroke-linejoin="round"/>
<path d="M90.4781 94.6099L103.627 80.9131L99.7744 77.955L87.4953 91.2789L86.1282 93.7647L90.4781 94.6099Z" fill="white" stroke="#509ADB" stroke-width="2" stroke-linejoin="round"/>
<path d="M45.4129 55.359C46.954 51.7297 50.5085 49.2687 53.0439 50.1885C53.7202 50.3883 54.3586 50.6991 54.933 51.1082C56.3995 52.6246 55.803 55.7567 54.5601 58.5657C53.0439 62.1949 49.7628 64.3576 47.2274 63.5373C44.6921 62.717 43.8967 58.9634 45.4129 55.359Z" fill="white" stroke="#509ADB" stroke-width="2" stroke-linejoin="round"/>
<path d="M46.8796 55.707C48.3958 52.1025 51.6769 49.915 54.2123 50.7354C56.7477 51.5557 57.5431 55.3341 56.0268 58.9385C54.5106 62.5429 51.2046 64.7305 48.6941 63.9101C46.1836 63.0898 45.3633 59.3363 46.8796 55.707Z" fill="white" stroke="#509ADB" stroke-width="2" stroke-linejoin="round"/>
<path d="M34.7993 61.9464C36.3155 58.3419 39.8949 55.8561 42.4054 56.7759C43.0796 56.981 43.7172 57.2914 44.2945 57.6956C45.7859 59.212 45.1645 62.369 43.9465 65.2773C42.4303 68.8818 39.1492 71.0693 36.6138 70.249C34.0784 69.4286 33.3327 65.5508 34.7993 61.9464Z" fill="white" stroke="#509ADB" stroke-width="2" stroke-linejoin="round"/>
<path d="M36.2906 62.3192C37.8317 58.7148 41.1128 56.5273 43.7476 57.3476C46.3824 58.1679 47.1032 61.9215 45.5621 65.5259C44.021 69.1303 40.7648 71.3179 38.1052 70.4975C35.4455 69.6772 34.7992 65.9236 36.2906 62.3192Z" fill="white" stroke="#509ADB" stroke-width="2" stroke-linejoin="round"/>
<path d="M23.042 70.6218C24.7074 66.2468 28.5851 63.1644 31.3441 64.3825C32.0874 64.6308 32.7845 65.0004 33.4072 65.4762C35.0229 67.3157 34.3766 71.119 33.0344 74.624C31.369 78.9742 27.7896 81.6091 25.0306 80.5154C22.2715 79.4216 21.3766 74.972 23.042 70.6218Z" fill="white" stroke="#509ADB" stroke-width="2" stroke-linejoin="round"/>
<path d="M24.6329 71.0444C26.2982 66.6943 29.8776 64.0593 32.6367 65.1779C35.3958 66.2965 36.2906 70.7213 34.6252 75.1212C32.9598 79.521 29.3805 82.0317 26.6214 80.9628C23.8623 79.8939 22.9675 75.4195 24.6329 71.0444Z" fill="white" stroke="#509ADB" stroke-width="2" stroke-linejoin="round"/>
<path d="M47.7992 58.1431L27.6902 72.3122L30.1758 73.754C30.1758 73.754 44.4932 63.0153 45.0898 62.6672C46.3251 61.4093 47.487 60.0814 48.5697 58.6899L45.7609 65.4762L37.2848 71.6907L44.7418 75.1957L51.0802 66.7191L46.1089 65.0039" fill="white"/>
<path d="M47.7992 58.1431L27.6902 72.3122L30.1758 73.754C30.1758 73.754 44.4932 63.0153 45.0898 62.6672C46.3251 61.4093 47.487 60.0814 48.5697 58.6899L45.7609 65.4762L37.2848 71.6907L44.7418 75.1957L51.0802 66.7191L46.1089 65.0039" stroke="#509ADB" stroke-width="2" stroke-linejoin="round"/>
<path d="M110.164 77.7561L107.281 81.634L75.4646 72.0885L77.5277 66.7688L110.164 77.7561Z" fill="white" stroke="#509ADB" stroke-width="2" stroke-linejoin="round"/>
<path d="M108.325 70.2241C108.836 70.4314 109.282 70.7709 109.619 71.2077C109.955 71.6445 110.169 72.163 110.239 72.7099C110.239 74.4748 110.09 77.5324 110.09 77.5324L47.9484 59.8334L47.2275 53.3952C47.2275 53.3952 47.6004 52.0031 48.5947 52.6992C49.5889 53.3952 108.325 70.2241 108.325 70.2241Z" fill="white" stroke="#509ADB" stroke-width="2" stroke-linejoin="round"/>
<path d="M85.457 74.5743L78.9694 80.3911C78.9694 80.3911 78.3728 80.5154 78.0994 82.2803C77.9763 83.9352 77.9763 85.597 78.0994 87.2519L87.7935 90.5083L89.6577 87.0033C89.8782 86.2641 90.2048 85.5608 90.6271 84.9152L97.3881 78.3527L85.457 74.5743Z" fill="white" stroke="#509ADB" stroke-width="2" stroke-linejoin="round"/>
<path d="M78.9941 80.4905L90.9004 84.7661" stroke="#509ADB" stroke-width="2" stroke-linejoin="round"/>
<path d="M78.0745 82.8769L89.9808 87.1276" stroke="#509ADB" stroke-width="2" stroke-linejoin="round"/>
<path d="M83.6672 91.1298L100.744 74.4251C101.238 74.3154 101.755 74.3768 102.21 74.5991C102.662 74.8677 103.031 75.2545 103.279 75.7178L86.998 92.5467L83.6672 91.1298Z" fill="white" stroke="#509ADB" stroke-width="2" stroke-linejoin="round"/>
<path d="M22.9177 75.5935L27.6156 72.2625L94.455 94.8585L90.2542 98.7861L22.9177 75.5935Z" fill="white" stroke="#509ADB" stroke-width="2" stroke-linejoin="round"/>
<path d="M90.1797 98.7861V105.324L23.0669 82.5537L22.9177 75.4443L90.1797 98.7861Z" fill="white" stroke="#509ADB" stroke-width="2" stroke-linejoin="round"/>
<path d="M94.6539 94.7839L94.8279 101.048L90.2543 105.349L90.0803 98.9849L94.6539 94.7839Z" fill="white" stroke="#509ADB" stroke-width="2" stroke-linejoin="round"/>
<path d="M111.407 75.842C112.725 71.0196 114.837 67.3903 116.155 67.788C116.503 67.788 117.547 68.0615 117.721 68.6332C118.193 70.2241 117.149 73.6048 116.18 77.1844C115.654 80.1301 114.647 82.9689 113.197 85.5864C112.7 86.1333 111.855 85.3627 111.432 85.2384C110.115 84.8655 110.115 80.6645 111.407 75.842Z" fill="white" stroke="#509ADB" stroke-width="2" stroke-linejoin="round"/>
<path d="M112.7 76.4635C114.017 71.641 116.13 68.0366 117.472 68.4095C118.815 68.7823 118.79 73.0082 117.472 77.8307C116.155 82.6532 114.042 86.2576 112.7 85.8847C111.358 85.5118 111.407 81.286 112.7 76.4635Z" fill="white" stroke="#509ADB" stroke-width="2" stroke-linejoin="round"/>
<path d="M103.403 85.2136C104.696 80.3911 106.834 76.7867 108.151 77.1595C108.499 77.1595 109.543 77.433 109.717 78.0047C110.189 79.5956 109.145 82.9763 108.176 86.5559C107.639 89.4985 106.632 92.3355 105.193 94.9579C104.696 95.5048 103.851 94.7342 103.428 94.6099C102.111 94.237 102.086 90.036 103.403 85.2136Z" fill="white" stroke="#509ADB" stroke-width="2" stroke-linejoin="round"/>
<path d="M104.696 85.835C106.013 81.0125 108.126 77.4081 109.444 77.781C110.761 78.1538 110.786 82.3797 109.444 87.2022C108.101 92.0247 105.988 95.6291 104.671 95.2562C103.354 94.8833 103.403 90.6575 104.696 85.835Z" fill="white" stroke="#509ADB" stroke-width="2" stroke-linejoin="round"/>
<path d="M113.023 76.4884C115.509 68.2106 119.436 62.0707 121.673 62.7916C122.344 63.0153 127.614 64.1339 127.813 65.4514C128.31 68.3846 122.841 73.3811 121.052 79.0985C119.511 84.0701 121.772 92.2732 119.386 94.4856C117.969 95.8031 113.271 93.0687 112.426 92.7704C110.189 91.975 110.463 84.7661 113.023 76.4884Z" fill="white" stroke="#509ADB" stroke-width="2" stroke-linejoin="round"/>
<path d="M118.715 78.5764C121.201 70.2987 125.128 64.1587 127.34 64.8796C129.553 65.6005 129.254 72.9088 126.769 81.1865C124.283 89.4643 120.356 95.5794 118.119 94.8585C115.881 94.1376 116.155 86.8542 118.715 78.5764Z" fill="white" stroke="#509ADB" stroke-width="2" stroke-linejoin="round"/>
<path d="M119.61 78.8001C121.474 72.7348 124.382 68.2852 126.097 68.8569C127.813 69.4286 127.663 74.7731 125.799 80.8385C123.935 86.9039 121.027 91.3783 119.312 90.7817C117.597 90.1852 117.746 84.8655 119.61 78.8001Z" fill="white" stroke="#509ADB" stroke-width="2" stroke-linejoin="round"/>
<path d="M122.891 77.6318C123.05 76.7558 123.361 75.9144 123.811 75.146C124.507 74.1268 125.501 72.9834 126.122 73.5551C126.73 74.5428 126.96 75.7173 126.769 76.8612" stroke="#509ADB" stroke-width="2" stroke-linejoin="round"/>
<path d="M118.268 84.3435C118.268 84.3435 119.56 85.7604 120.331 84.3435C120.604 83.8961 120.927 83.548 121.25 82.9763C121.629 82.2478 121.929 81.4812 122.145 80.6894C122.256 81.5891 122.256 82.4991 122.145 83.3989C122.05 84.6223 121.63 85.7981 120.927 86.8045C120.18 87.8483 119.349 88.8293 118.442 89.7377" stroke="#509ADB" stroke-width="2" stroke-linejoin="round"/>
<path d="M120.231 76.8861C120.014 78.0021 120.074 79.1543 120.405 80.2419C120.473 80.4526 120.605 80.6365 120.784 80.7669C120.963 80.8973 121.178 80.9676 121.4 80.9676C121.621 80.9676 121.836 80.8973 122.015 80.7669C122.194 80.6365 122.326 80.4526 122.394 80.2419" stroke="#509ADB" stroke-width="2" stroke-linejoin="round"/>
<path d="M122.618 81.3108H123.562C123.894 81.9466 123.965 82.6866 123.761 83.374C123.59 84.9249 123.214 86.4463 122.642 87.8982" stroke="#509ADB" stroke-width="2" stroke-linejoin="round"/>
<path d="M125.526 68.9812C124.666 69.5661 123.993 70.3859 123.587 71.3427C123.012 72.855 122.627 74.4333 122.444 76.0409C122.336 76.9351 122.421 77.842 122.692 78.7007" stroke="#509ADB" stroke-width="2" stroke-linejoin="round"/>
<path d="M122.344 79.2476C122.543 78.303 122.891 77.607 123.14 77.6567C123.388 77.7064 125.054 78.0047 125.029 78.3776C124.958 78.8413 124.85 79.2986 124.706 79.7448C124.638 80.1968 124.547 80.6448 124.432 81.0871C124.233 81.5345 122.543 81.0871 122.394 81.0871C122.245 81.0871 122.145 80.1673 122.344 79.2476Z" fill="white" stroke="#509ADB" stroke-width="2" stroke-linejoin="round"/>
<path d="M124.283 79.5459C124.482 78.6261 124.83 77.9301 125.053 77.9798C125.277 78.0295 125.327 78.825 125.053 79.7448C124.78 80.6645 124.507 81.3605 124.283 81.3108C124.059 81.2611 124.034 80.5651 124.283 79.5459Z" fill="white" stroke="#509ADB" stroke-width="2" stroke-linejoin="round"/>
<path d="M92.8642 95.4302C94.3307 90.0111 96.7169 85.9344 98.2083 86.357C98.606 86.357 99.7743 86.6802 99.9483 87.3265C100.495 89.1163 99.3269 92.9444 98.2332 96.9466C97.1395 100.949 96.1701 104.976 94.8775 106.393C94.3058 107.014 93.3613 106.144 92.889 106.02C91.3976 105.597 91.3976 100.849 92.8642 95.4302Z" fill="white" stroke="#509ADB" stroke-width="2" stroke-linejoin="round"/>
<path d="M94.455 96.1262C95.9215 90.7072 98.3078 86.6553 99.7992 87.0779C101.291 87.5005 101.291 92.2484 99.7992 97.6674C98.3078 103.086 95.847 107.138 94.455 106.716C93.063 106.293 92.8642 101.57 94.455 96.1262Z" fill="white" stroke="#509ADB" stroke-width="2" stroke-linejoin="round"/>
<path d="M94.6787 96.1511C97.5372 86.8542 101.887 79.9436 104.398 80.7639C105.168 81.0125 111.084 82.2554 111.333 83.7469C111.855 87.053 105.69 92.671 103.702 99.0844C101.962 104.777 104.522 113.999 101.837 116.485C100.247 117.952 94.9769 114.869 93.9827 114.546C91.497 113.676 91.7953 105.473 94.6787 96.1511Z" fill="white" stroke="#509ADB" stroke-width="2" stroke-linejoin="round"/>
<path d="M101.067 98.4877C103.95 89.1908 108.3 82.3051 110.786 83.1006C113.271 83.896 112.973 92.1241 110.115 101.446C107.256 110.768 102.881 117.628 100.396 116.833C97.91 116.038 98.2083 107.81 101.067 98.4877Z" fill="white" stroke="#509ADB" stroke-width="2" stroke-linejoin="round"/>
<path d="M102.086 98.7612C104.174 91.9749 107.455 87.0033 109.369 87.5502C111.283 88.0971 111.159 94.2122 109.046 101.023C106.933 107.834 103.677 112.881 101.763 112.234C99.8488 111.588 99.9731 105.597 102.086 98.7612Z" fill="white" stroke="#509ADB" stroke-width="2" stroke-linejoin="round"/>
<path d="M105.765 97.4437C105.962 96.4467 106.341 95.4944 106.883 94.6347C107.679 93.4913 108.797 92.1489 109.493 92.8698C110.163 93.9806 110.419 95.2927 110.214 96.5737" stroke="#509ADB" stroke-width="2" stroke-linejoin="round"/>
<path d="M100.595 105.001C100.595 105.001 102.011 106.592 102.906 105.001C103.205 104.503 103.577 104.106 103.925 103.459C104.345 102.666 104.686 101.833 104.945 100.974C105.068 101.989 105.068 103.016 104.945 104.031C104.822 105.407 104.342 106.726 103.553 107.859C102.754 109.036 101.856 110.142 100.868 111.165" stroke="#509ADB" stroke-width="2" stroke-linejoin="round"/>
<path d="M102.782 96.5985C102.537 97.8553 102.606 99.1529 102.981 100.377C103.066 100.605 103.218 100.802 103.418 100.941C103.618 101.08 103.856 101.155 104.099 101.155C104.343 101.155 104.581 101.08 104.781 100.941C104.981 100.802 105.133 100.605 105.218 100.377" stroke="#509ADB" stroke-width="2" stroke-linejoin="round"/>
<path d="M105.467 101.57L106.535 101.719C106.903 102.434 106.974 103.264 106.734 104.031C106.549 105.737 106.13 107.41 105.491 109.003" stroke="#509ADB" stroke-width="2" stroke-linejoin="round"/>
<path d="M108.748 87.7242C107.788 88.3823 107.03 89.2947 106.56 90.3592C105.917 92.0655 105.483 93.8434 105.268 95.6539C105.124 96.6578 105.227 97.6814 105.566 98.6369" stroke="#509ADB" stroke-width="2" stroke-linejoin="round"/>
<path d="M105.168 99.2584C105.392 98.2143 105.79 97.4189 106.038 97.4934C106.287 97.568 108.201 97.8912 108.201 98.2889C108.105 98.8092 107.981 99.3237 107.828 99.8301C107.828 99.8301 107.604 101.048 107.505 101.346C107.405 101.645 105.367 101.346 105.218 101.346C105.069 101.346 104.92 100.278 105.168 99.2584Z" fill="white" stroke="#509ADB" stroke-width="2" stroke-linejoin="round"/>
<path d="M107.306 99.7058C107.53 98.6618 107.927 97.8912 108.201 97.9409C108.474 97.9906 108.474 98.8855 108.201 99.9295C107.927 100.974 107.554 101.769 107.306 101.694C107.057 101.62 107.082 100.75 107.306 99.7058Z" fill="white" stroke="#509ADB" stroke-width="2" stroke-linejoin="round"/>
<path d="M49.9617 79.7199L54.8087 81.5843L49.9617 87.0033L44.5181 83.8712L49.9617 79.7199Z" fill="white" stroke="#509ADB" stroke-width="2" stroke-linejoin="round"/>
<path d="M44.4187 62.1452L46.1338 66.3711L67.3862 72.9088L69.3747 70.1744L50.2849 60.8278L44.4187 62.1452Z" fill="white" stroke="#509ADB" stroke-width="2" stroke-linejoin="round"/>
<path d="M42.3804 69.4038V74.2014L53.5161 83.026L66.4913 86.531L67.759 78.1041L42.3804 69.4038Z" fill="white" stroke="#509ADB" stroke-width="2" stroke-linejoin="round"/>
<path d="M46.7552 66.3463L42.4302 69.4287L67.759 78.0793L71.8355 74.4251L46.7552 66.3463Z" fill="white" stroke="#509ADB" stroke-width="2" stroke-linejoin="round"/>
<path d="M80.4111 67.4151L67.1128 78.129C67.1128 78.129 70.5928 73.3811 69.1759 70.6716C68.4302 69.1552 66.4169 68.7326 64.6023 68.1857C62.7878 67.6389 58.6367 66.1225 58.6367 66.1225L44.3193 61.8966L48.0478 58.0436L68.8031 63.8604L75.7132 65.5508L80.4111 67.4151Z" fill="white" stroke="#509ADB" stroke-width="2" stroke-linejoin="round"/>
<path d="M80.0134 67.7632L69.7973 76.19L70.021 78.5267L67.8585 79.2973L67.5105 84.6915L80.4608 74.5743L80.0134 67.7632Z" fill="white" stroke="#509ADB" stroke-width="2" stroke-linejoin="round"/>
<path d="M67.9828 78.9493C68.6787 78.3776 69.3002 77.6567 70.0459 78.5018C71.0819 80.0918 72.0039 81.7531 72.8049 83.4735C72.8049 83.4735 73.3766 85.6113 72.3824 85.9593C71.5731 86.1804 70.7267 86.2312 69.8967 86.1084L67.2371 80.8634C67.2375 80.1545 67.5036 79.4716 67.9828 78.9493Z" fill="white" stroke="#509ADB" stroke-width="2" stroke-linejoin="round"/>
<path d="M75.8623 74.0771L76.0114 71.9393L77.652 72.4862L82.2007 72.0885L81.977 73.8783L80.3116 75.494L75.8623 74.0771Z" fill="white" stroke="#509ADB" stroke-width="2" stroke-linejoin="round"/>
<path d="M76.0364 72.0885L77.8509 70.5224L82.1511 71.9642L80.5106 73.5551L76.0364 72.0885Z" fill="white" stroke="#509ADB" stroke-width="2" stroke-linejoin="round"/>
<path d="M63.1358 9.94324L66.3423 10.515L65.87 29.2331L65.0995 30.5009L65.6463 31.4703L64.6272 34.2296L63.5583 34.6025L64.1798 35.6465L63.4092 38.2566H62.4647L63.0612 39.1764L61.7438 42.2588L60.6501 42.8554L61.2467 43.6757L60.0536 45.9626L58.7113 46.9569L59.2333 47.7275L57.9656 50.6111L56.6234 51.7794L57.0708 52.55L56.1262 55.2595L54.7343 55.8064L55.5048 56.6765L54.2371 58.7397L53.2429 59.1125L53.8643 60.2063L52.5717 62.2447H51.6769L52.1989 63.2141L50.8318 65.5011H49.9866L50.7075 66.396L48.9178 69.6027L47.9733 69.8015L48.7687 70.6964L47.7993 72.6105L46.631 73.2568L47.3518 74.0025L46.0593 76.4884L45.0899 76.7618L45.587 77.7313L44.7419 80.2171L43.8968 80.9131L44.3442 81.808L43.9962 83.1752L43.7974 87.7242L43.0268 88.3457L43.6482 89.0417L43.4494 91.0801C42.8647 91.4024 42.2024 91.5573 41.5354 91.5275C40.8951 91.3428 40.335 90.949 39.9446 90.4089L40.1434 88.296L40.7897 87.7242L40.1683 86.7547L40.4666 82.5537L41.1626 80.2171L41.8088 79.9933L41.3614 78.9742L42.4302 75.9912H43.2256L42.8031 74.9472L44.1453 71.8399L44.9656 72.2128L44.717 71.1936L45.587 68.7078H46.4322L45.9102 67.7632L47.2524 65.2774L48.023 64.9791L47.7247 64.283L49.1664 61.7972L50.0612 61.6729L49.2409 60.9272L50.5832 58.4414L51.5775 58.0436L51.2046 57.1736L52.696 54.837L53.3423 55.0607L53.0937 54.0912L54.1626 51.9037L54.8834 51.7048L54.3614 50.984L55.9522 47.479L56.7974 47.1807L56.4494 46.1863L57.9656 42.2588L58.7113 42.4079L58.1893 41.165L59.8796 37.4611H60.7744L60.2773 36.4171L61.023 33.7573L61.8432 33.5336L61.1721 32.6884L62.1415 29.6308L62.9121 29.9789L62.2907 28.6117L62.7878 10.4901L63.1358 9.94324Z" fill="white" stroke="#509ADB" stroke-width="2" stroke-linejoin="round"/>
<path d="M65.3976 13.4979C67.1127 5.94108 71.1644 0.44744 74.5697 1.21804C77.9751 1.98864 79.2427 8.67547 77.5525 16.3318C75.8623 23.9881 71.7858 29.3823 68.455 28.6117C65.1242 27.8411 63.7074 21.0548 65.3976 13.4979Z" fill="white" stroke="#509ADB" stroke-width="2" stroke-linejoin="round"/>
<path d="M67.1128 13.9454C68.8031 6.48797 72.8796 0.8949 76.2103 1.6655C79.5411 2.4361 80.8585 9.12293 79.1683 16.7792C77.478 24.4355 73.4761 29.8297 70.1702 29.0343C66.8643 28.2388 65.4971 21.5023 67.1128 13.9454Z" fill="white" stroke="#509ADB" stroke-width="2" stroke-linejoin="round"/>
<path d="M54.8833 81.1617L57.7418 79.0487L83.2447 7.25857L81.281 5.59308L54.8833 81.1617Z" fill="white" stroke="#509ADB" stroke-width="2" stroke-linejoin="round"/>
<path d="M48.1968 78.5267L75.1165 3.95242L81.3058 5.66763L54.6844 81.3605L48.1968 78.5267Z" fill="white" stroke="#509ADB" stroke-width="2" stroke-linejoin="round"/>
<path d="M73.8737 15.1137C75.5639 7.45741 79.541 2.0632 82.9463 2.85866C86.3517 3.65412 87.5945 10.3161 85.9043 17.9475C84.214 25.579 80.1624 31.0229 76.8316 30.2274C73.5008 29.432 72.084 22.6954 73.8737 15.1137Z" fill="white" stroke="#509ADB" stroke-width="2" stroke-linejoin="round"/>
<path d="M75.6634 15.5612C77.3537 8.10372 81.4302 2.51065 84.7361 3.28125C88.042 4.05185 89.4091 10.7387 87.7189 18.395C86.0286 26.0513 82.0267 31.4455 78.6214 30.6749C75.216 29.9043 73.9732 23.118 75.6634 15.5612Z" fill="white" stroke="#509ADB" stroke-width="2" stroke-linejoin="round"/>
<path d="M84.1146 15.4866L87.346 16.0832L86.8489 34.8013L86.0783 36.0442L86.6251 37.0385L85.606 39.7729L84.5372 40.1458L85.1835 41.1898L84.5123 43.8248H83.5678L84.1644 44.7445L82.847 47.7772L81.7533 48.3738L82.3498 49.1941L81.1567 51.5059L79.8144 52.4754L80.3364 53.246L79.0687 56.1296L77.7265 57.3227L78.1739 58.0933L77.0554 60.8775L75.6883 61.4243L76.4339 62.2944L75.1663 64.3576L74.172 64.7305L74.7934 65.8242L73.5009 67.8626H72.606L73.128 68.832L71.7609 71.119H70.9158L71.6366 72.0387L69.8469 75.1211L68.9273 75.2951L69.6978 76.19L68.7284 78.1041L67.5601 78.7504L68.281 79.521L67.1127 82.0317L66.1185 82.33L66.6156 83.2994L65.7705 85.7853L64.9253 86.4564L65.3728 87.3513L65.0248 88.7434L64.8259 93.2675L64.0554 93.889L64.6768 94.585L64.4779 96.6234C63.8932 96.9458 63.231 97.1006 62.564 97.0708C61.9236 96.8862 61.3636 96.4923 60.9731 95.9522L61.172 93.8393L61.8183 93.2675L61.1969 92.3229L61.4951 88.1219L62.216 85.7853L62.8374 85.5367L62.39 84.5424L63.4588 81.5345H64.2542L63.8317 80.5153L65.1739 77.4081L65.9942 77.781L65.7456 76.7369L66.6404 74.2511H67.4607L66.9387 73.3314L68.281 70.8455L69.0515 70.5472L68.7035 69.6026L70.1452 67.1168L71.0401 66.9925L70.2198 66.2717L71.5621 63.7858L72.5563 63.3633L72.084 62.6424L73.5754 60.3057L74.2217 60.5046L74.0726 59.6594L75.1414 57.4719L75.8622 57.273L75.3403 56.5521L77.0554 52.9229L77.9005 52.6246L77.5525 51.6551L79.0687 47.7524L79.8144 47.9264L79.2925 46.6586L80.9827 42.9796H81.8775L81.4053 41.9356L82.0267 39.3752L82.847 39.1515L82.1758 38.2814L83.2447 35.1742L84.0152 35.5222L83.3938 34.155L83.8909 16.0334L84.1146 15.4866Z" fill="white" stroke="#509ADB" stroke-width="2" stroke-linejoin="round"/>
<path d="M25.1052 103.136L33.0096 106.716C34.7894 106.61 36.546 106.259 38.2295 105.672C38.9247 105.007 39.6729 104.4 40.4666 103.857L38.8758 102.54L37.7821 103.957L35.893 104.18L35.197 102.863L29.4551 100.675L25.8261 101.322L25.1052 103.136Z" fill="white" stroke="#509ADB" stroke-width="2" stroke-linejoin="round"/>
<path d="M30.7725 98.264C30.7725 95.3805 34.6252 93.0438 39.348 93.0438C44.0707 93.0438 47.9235 95.3805 47.9235 98.264C47.9235 101.148 44.0956 103.509 39.348 103.509C34.6004 103.509 30.7725 101.172 30.7725 98.264Z" fill="white" stroke="#509ADB" stroke-width="2" stroke-linejoin="round"/>
<path d="M30.7227 96.5737C30.7227 93.6653 34.5506 91.3286 39.2982 91.3286C44.0458 91.3286 47.8737 93.6653 47.8737 96.5737C47.8737 99.4821 44.0209 101.918 39.2982 101.918C34.5754 101.918 30.7227 99.4323 30.7227 96.5737Z" fill="white" stroke="#509ADB" stroke-width="2" stroke-linejoin="round"/>
<path d="M40.4666 93.8393C40.4666 92.4472 42.3059 91.3535 44.5927 91.3535C46.8796 91.3535 48.7189 92.4721 48.7189 93.8393C48.7189 95.2065 46.8547 96.3251 44.5927 96.3251C42.3308 96.3251 40.4666 95.2313 40.4666 93.8393Z" fill="white" stroke="#509ADB" stroke-width="2" stroke-linejoin="round"/>
<path d="M24.0364 94.9331C24.0364 92.0495 27.8643 89.7129 32.6119 89.7129C37.3595 89.7129 41.1874 92.0495 41.1874 94.9331C41.1874 97.8166 37.2849 100.178 32.6119 100.178C27.9389 100.178 24.0364 97.8415 24.0364 94.9331Z" fill="white" stroke="#509ADB" stroke-width="2" stroke-linejoin="round"/>
<path d="M15.2867 101.123L25.2294 98.9849L30.325 101.471L27.6653 102.937L20.3575 103.907L14.6404 104.876L13.7456 101.819L15.2867 101.123Z" fill="white" stroke="#509ADB" stroke-width="2" stroke-linejoin="round"/>
<path d="M40.392 99.9047L43.3748 108.058L45.8605 107.685L41.7343 96.9466L39.8203 98.5623L40.392 99.9047Z" fill="white" stroke="#509ADB" stroke-width="2" stroke-linejoin="round"/>
<path d="M33.2829 103.211L35.2217 111.687H37.7073L34.9234 100.402L32.8354 101.769L33.2829 103.211Z" fill="white" stroke="#509ADB" stroke-width="2" stroke-linejoin="round"/>
<path d="M14.0936 97.9409L29.7284 95.4551L28.3364 97.6923L12.4282 100.65L13.1739 98.1646L14.0936 97.9409Z" fill="white" stroke="#509ADB" stroke-width="2" stroke-linejoin="round"/>
<path d="M14.6156 96.0019L30.2504 93.5161L28.8336 95.7533L12.8508 98.7115L13.5717 96.2256L14.6156 96.0019Z" fill="white" stroke="#509ADB" stroke-width="2" stroke-linejoin="round"/>
<path d="M48.5698 91.602L49.0172 95.0822L54.6845 89.8123C54.6845 89.8123 55.8777 87.7988 54.4857 86.9536C53.9682 86.5671 53.388 86.2728 52.7706 86.0836L48.8681 91.0552" fill="white"/>
<path d="M48.5698 91.602L49.0172 95.0822L54.6845 89.8123C54.6845 89.8123 55.8777 87.7988 54.4857 86.9536C53.9682 86.5671 53.388 86.2728 52.7706 86.0836L48.8681 91.0552" stroke="#509ADB" stroke-width="2" stroke-linejoin="round"/>
<path d="M35.2962 86.4564L24.3096 96.3997C24.3096 96.3997 22.5945 98.1646 23.4396 99.1838C26.1797 100.761 29.0585 102.084 32.04 103.136C33.4903 103.493 35.0143 103.407 36.4148 102.888C37.9559 101.968 55.3307 85.0147 55.3307 85.0147L44.5926 80.6396L35.2962 86.4564Z" fill="white" stroke="#509ADB" stroke-width="2" stroke-linejoin="round"/>
<path d="M31.7915 76.911C31.6994 75.8799 31.8794 74.8428 32.3135 73.9031C33.2111 72.5536 34.559 71.5668 36.1166 71.119C40.8599 72.3131 45.5321 73.7737 50.1109 75.494L48.4952 83.2001L33.1835 79.9436L31.7915 76.911Z" fill="white" stroke="#509ADB" stroke-width="2" stroke-linejoin="round"/>
<path d="M31.8909 76.8612L32.8106 85.3378L46.2828 89.4891C47.2501 89.1858 48.1404 88.6771 48.8928 87.9976C49.5996 87.2635 50.0973 86.3538 50.3345 85.3627C50.4587 84.2192 49.9865 75.9166 49.9865 75.9166C49.9865 75.9166 48.5945 75.1211 47.5008 77.0849C46.7646 78.3641 46.1568 79.713 45.6863 81.1119L31.8909 76.8612Z" fill="white" stroke="#509ADB" stroke-width="2" stroke-linejoin="round"/>
<path d="M45.5374 81.1368L46.457 89.4891" stroke="#509ADB" stroke-width="2" stroke-linejoin="round"/>
<path d="M32.5374 74.276L46.457 78.6013" stroke="#509ADB" stroke-width="2" stroke-linejoin="round"/>
<path d="M46.4569 110.072C46.4569 110.072 47.7992 109.898 47.6749 111.19C47.6111 111.572 47.4493 111.931 47.2053 112.232C46.9613 112.532 46.6435 112.764 46.2829 112.905L44.7915 112.234L46.4569 110.072Z" fill="white" stroke="#509ADB" stroke-width="2" stroke-linejoin="round"/>
<path d="M22.3709 118.474L20.1587 120.263L20.9044 124.763C20.9044 124.763 22.2715 126.105 23.0669 125.782C23.8623 125.459 36.4646 120.661 38.4531 118.175C40.848 115.981 43.5851 114.193 46.5564 112.881L46.2333 108.829C46.2333 108.829 48.2715 107.113 46.7055 106.691C45.4286 106.483 44.1216 106.56 42.8776 106.915L38.652 109.997L34.7247 107.114L32.5124 108.854C32.7251 109.431 32.782 110.055 32.6772 110.661C32.5725 111.268 32.3099 111.836 31.9159 112.309C30.5527 114.241 28.7228 115.798 26.5965 116.833C25.1797 117.504 22.3709 118.474 22.3709 118.474Z" fill="white" stroke="#509ADB" stroke-width="2" stroke-linejoin="round"/>
<path d="M20.2332 120.214L21.8985 122.476C21.8985 122.476 29.3555 119.244 30.3746 118.697C31.3938 118.15 36.1414 114.67 37.3096 114.024C38.4779 113.378 46.258 108.779 46.258 108.779" stroke="#509ADB" stroke-width="2" stroke-linejoin="round"/>
<path d="M17.8718 105.025C17.2696 105.282 16.6332 105.45 15.9827 105.523C15.4046 105.428 14.8726 105.149 14.4665 104.727L11.6328 106.89L13.0994 108.108L16.7781 106.89L17.8718 105.025Z" fill="white" stroke="#509ADB" stroke-width="2" stroke-linejoin="round"/>
<path d="M17.2007 101.421L12.5774 101.023L14.1931 97.916C14.1931 97.916 15.5353 95.2562 13.6214 95.1319C11.7074 95.0076 11.5831 95.1319 10.5888 96.6234C9.59458 98.1149 3.13187 106.915 3.13187 106.915L1.29248 113.452L3.28101 116.212L5.76667 114.173L9.79344 107.536L13.5716 104.628L17.0018 103.087L17.2007 101.421Z" fill="white" stroke="#509ADB" stroke-width="2" stroke-linejoin="round"/>
<path d="M5.41859 113.577C5.41859 113.577 5.12032 111.091 6.13944 109.922C7.62248 108.066 9.37331 106.441 11.3345 105.1C12.8756 104.404 16.7781 103.26 17.0018 101.918C17.0018 101.57 17.1509 101.471 17.2503 101.52C17.3498 101.57 17.8469 102.738 17.8469 102.738C17.2794 103.457 16.5683 104.05 15.7589 104.479C14.7647 104.901 12.4282 105.622 12.4282 105.622V107.959L14.9138 107.337C14.9138 107.337 17.1012 106.442 17.0763 105.672L17.5983 105.05L18.1452 106.318C18.1452 106.318 16.4052 108.182 15.4855 108.332C14.5658 108.481 12.4282 109.177 12.4282 109.177C11.2667 109.82 10.1896 110.605 9.22165 111.513C7.91086 112.478 6.94382 113.837 6.46257 115.391C5.89087 117.454 5.71687 117.231 5.71687 117.231L5.41859 113.577Z" fill="white" stroke="#509ADB" stroke-width="2" stroke-linejoin="round"/>
<path d="M1.16821 113.775L3.10703 114.869L5.59269 113.03L6.08982 117.057L4.02672 119.021L1.78963 118.026L1.16821 113.775Z" fill="white" stroke="#509ADB" stroke-width="2" stroke-linejoin="round"/>
<path d="M3.10693 114.869L3.77806 118.847" stroke="#509ADB" stroke-width="2" stroke-linejoin="round"/>
</g>
<defs>
<clipPath id="clip0_640_4965">
<rect width="130" height="127" fill="white"/>
</clipPath>
</defs>
</svg>
