<svg width="101" height="116" viewBox="0 0 101 116" fill="none" xmlns="http://www.w3.org/2000/svg">
<g clip-path="url(#clip0_639_4762)">
<path d="M34.0898 77.1266L39.9974 105.928L68.344 109.302L59.706 66.7819L48.4369 66.0377L34.0898 77.1266Z" fill="white" stroke="#D8B13C" stroke-width="2" stroke-linejoin="round"/>
<path d="M30.1184 76.7049L36.8699 104.985L40.2457 105.581L34.4622 77.7468L30.1184 76.7049Z" fill="white" stroke="#D8B13C" stroke-width="2" stroke-linejoin="round"/>
<path d="M44.3909 93.4252C47.9901 88.9846 55.5856 89.1583 61.3194 93.7973C67.0533 98.4363 68.766 105.829 65.1916 110.294C61.6173 114.76 53.997 114.586 48.2632 109.922C42.5293 105.258 40.6677 97.8905 44.3909 93.4252Z" fill="white" stroke="#D8B13C" stroke-width="2" stroke-linejoin="round"/>
<path d="M42.1818 94.7648C45.781 90.2994 53.3764 90.4731 59.1103 95.1369C64.8441 99.8007 66.5816 107.169 63.0073 111.634C59.433 116.099 51.8127 115.926 46.054 111.262C40.2953 106.598 38.5578 99.2301 42.1818 94.7648Z" fill="white" stroke="#D8B13C" stroke-width="2" stroke-linejoin="round"/>
<path d="M48.9829 82.0137C49.7772 81.4679 51.0928 82.0137 51.9367 83.2044C52.7807 84.3952 52.7807 85.8589 51.9367 86.4046C51.0928 86.9504 49.8021 86.4046 48.9829 85.2139C48.1638 84.0231 48.1142 82.5595 48.9829 82.0137Z" fill="white" stroke="#D8B13C" stroke-width="2" stroke-linejoin="round"/>
<path d="M46.4761 74.7699C47.2952 74.2241 48.6107 74.7699 49.4547 75.9855C50.2986 77.201 50.2738 78.6151 49.4547 79.1608C48.6356 79.7066 47.32 79.1608 46.5009 77.9701C45.6818 76.7793 45.6321 75.3405 46.4761 74.7699Z" fill="white" stroke="#D8B13C" stroke-width="2" stroke-linejoin="round"/>
<path d="M54.0715 1.98459L73.9289 3.84515C74.5972 4.20798 75.1869 4.69951 75.6641 5.29135C76.1412 5.8832 76.4964 6.56364 76.709 7.2934C76.9572 7.98801 87.3575 43.1651 87.3575 43.1651C87.3575 43.1651 86.0668 47.9529 84.1059 48.1266C82.1449 48.3002 67.5994 43.1651 67.5994 43.1651C67.5994 43.1651 66.0356 43.7109 65.4647 40.6843C64.8938 37.6578 50.4227 10.2455 49.0823 5.95379C50.6365 4.49961 52.305 3.17229 54.0715 1.98459Z" fill="white" stroke="#D8B13C" stroke-width="2" stroke-linejoin="round"/>
<path d="M49.0327 5.5817L71.149 6.87169C71.149 6.87169 72.6383 6.30111 73.8794 10.6672C75.1205 15.0334 84.5279 46.266 84.5279 46.266C84.5226 46.8002 84.3146 47.3123 83.946 47.6991C83.5774 48.0859 83.0757 48.3185 82.5422 48.3499C80.5564 48.5235 62.4861 46.6382 62.4861 46.6382C62.4861 46.6382 60.8975 47.1839 60.3515 44.1574C59.8054 41.1309 49.0327 5.5817 49.0327 5.5817Z" fill="white" stroke="#D8B13C" stroke-width="2" stroke-linejoin="round"/>
<path d="M46.1781 5.80496L56.3054 44.6535C56.3054 44.6535 57.1741 46.4645 56.9259 47.1343C56.6777 47.8041 33.0721 68.7169 33.0721 68.7169L30.2425 66.2361L20.3137 32.9444L20.4875 28.1565C21.2455 27.0221 22.0746 25.9367 22.9697 24.9068C28.2567 19.846 46.1781 5.80496 46.1781 5.80496Z" fill="white" stroke="#D8B13C" stroke-width="2" stroke-linejoin="round"/>
<path d="M45.632 5.48245H41.1392L18.7996 27.0402C18.3448 27.5822 18.0374 28.2321 17.907 28.9273C17.7766 29.6225 17.8275 30.3396 18.0549 31.0094C18.8989 33.1428 28.6787 66.9803 28.6787 66.9803C28.9274 67.4583 29.2789 67.8753 29.7081 68.2013C30.1373 68.5273 30.6334 68.7542 31.1608 68.8657C32.8735 69.0393 32.9728 68.8657 32.9728 68.8657L21.8775 32.2498C21.8775 32.2498 20.4875 29.0248 22.7214 27.5363C24.9554 26.0479 45.632 5.48245 45.632 5.48245Z" fill="white" stroke="#D8B13C" stroke-width="2" stroke-linejoin="round"/>
<path d="M24.2109 29.4713L44.0683 31.2823C44.7492 31.6354 45.3511 32.1232 45.8376 32.7159C46.324 33.3087 46.6848 33.9941 46.898 34.7305C47.1711 35.4252 57.5466 70.6022 57.5466 70.6022C57.5466 70.6022 56.2807 75.4149 54.2949 75.5637C52.3092 75.7126 37.8132 70.4782 37.8132 70.4782C37.8132 70.4782 36.2246 70.9991 35.6785 67.9974C35.1325 64.9957 20.6117 36.9384 19.2961 32.5227C20.8378 31.3578 22.4829 30.3365 24.2109 29.4713Z" fill="white" stroke="#D8B13C" stroke-width="2" stroke-linejoin="round"/>
<path d="M19.2961 32.994L41.6358 34.5569C41.6358 34.5569 43.274 35.3507 44.5151 39.7169C45.7562 44.083 54.7169 73.7032 54.7169 73.7032C54.7115 74.2307 54.5062 74.7366 54.1422 75.1187C53.7783 75.5009 53.2829 75.7308 52.756 75.7622C50.7702 75.9359 32.6751 74.0753 32.6751 74.0753C32.6751 74.0753 31.0865 74.5963 30.5404 71.5945C29.9943 68.5928 19.2961 32.994 19.2961 32.994Z" fill="white" stroke="#D8B13C" stroke-width="2" stroke-linejoin="round"/>
<path d="M35.0828 61.3242C34.0899 61.3242 31.9801 63.9786 31.9801 63.9786L11.0801 91.2669C10.7545 92.073 10.7364 92.9706 11.0292 93.7892C11.3221 94.6078 11.9055 95.2904 12.6687 95.7074C14.8724 96.8561 17.2887 97.54 19.7677 97.7168C21.9272 98.1386 48.1143 102.009 48.1143 102.009C48.1143 102.009 50.8943 102.257 50.5964 100.247C50.2986 98.2378 41.0897 66.5586 41.0897 66.5586C40.7003 64.8875 39.8387 63.3634 38.6075 62.1677C38.1312 61.7541 37.5621 61.4614 36.9485 61.3146C36.3349 61.1678 35.6949 61.171 35.0828 61.3242Z" fill="white" stroke="#D8B13C" stroke-width="2" stroke-linejoin="round"/>
<path d="M34.4126 61.3242L38.533 58.0248C39.5642 58.1586 40.5392 58.5713 41.3528 59.2183C42.1664 59.8653 42.7878 60.7222 43.1499 61.6963C44.5399 65.1942 53.4261 96.9478 53.4261 96.9478C52.7049 98.5097 51.832 99.997 50.8198 101.388C50.5716 101.587 50.0752 97.0223 48.561 91.0436C47.0469 85.065 44.3413 77.1762 42.7031 71.4705C41.8995 68.6599 40.9467 65.894 39.8486 63.1848C38.9494 62.1301 37.8314 61.2836 36.5721 60.704C36.1887 60.6304 35.7933 60.6482 35.4181 60.7559C35.0429 60.8637 34.6984 61.0584 34.4126 61.3242Z" fill="white" stroke="#D8B13C" stroke-width="2" stroke-linejoin="round"/>
<path d="M21.6294 23.9641C21.6294 23.9641 47.4441 2.62959 48.7348 2.48074C49.4547 2.3319 56.4296 2.48074 61.6918 2.72882C64.1961 2.59125 66.7068 2.83381 69.1384 3.44824C69.3369 3.69631 70.6773 4.83746 68.9646 6.87167C63.4045 13.4705 47.8661 25.9983 47.8661 25.9983L43.3981 28.6031L37.8877 27.4619L22.101 25.4773" fill="white"/>
<path d="M21.6294 23.9641C21.6294 23.9641 47.4441 2.62959 48.7348 2.48074C49.4547 2.3319 56.4296 2.48074 61.6918 2.72882C64.1961 2.59125 66.7068 2.83381 69.1384 3.44824C69.3369 3.69631 70.6773 4.83746 68.9646 6.87167C63.4045 13.4705 47.8661 25.9983 47.8661 25.9983L43.3981 28.6031L37.8877 27.4619L22.101 25.4773" stroke="#D8B13C" stroke-width="2" stroke-linejoin="round"/>
<path d="M21.5051 24.0881L22.9696 27.9085L42.9512 30.3892C44.4058 30.3204 45.821 29.8944 47.0716 29.1488C48.6602 27.9581 70.4538 8.16166 70.4538 8.16166L69.4113 3.37381L46.3518 25.3781C45.1786 26.2967 43.7823 26.8874 42.3058 27.0898C40.6676 26.9658 21.5051 24.0881 21.5051 24.0881Z" fill="white" stroke="#D8B13C" stroke-width="2" stroke-linejoin="round"/>
<path d="M28.9518 67.2036L19.8918 62.4405C18.6357 61.9684 17.2508 61.9684 15.9948 62.4405C14.4062 63.1103 5.39587 72.1403 4.32853 72.8597C3.75199 73.2093 3.25671 73.6778 2.87575 74.2339C2.4948 74.7901 2.23694 75.421 2.11938 76.0847C2.1865 77.3594 2.3441 78.6278 2.591 79.8802L14.704 86.2558L28.9518 67.2036Z" fill="white" stroke="#D8B13C" stroke-width="2" stroke-linejoin="round"/>
<path d="M2.19385 77.5483L15.8459 84.3456L14.7785 86.2062L2.66546 79.8058L2.19385 77.5483Z" fill="white" stroke="#D8B13C" stroke-width="2" stroke-linejoin="round"/>
<path d="M44.7633 1.21557C43.6972 1.06628 42.6111 1.15956 41.5861 1.48845C40.2736 2.06559 39.0592 2.84399 37.987 3.79555C36.5721 4.9367 26.8171 13.3465 26.8171 13.3465L27.9093 18.8289L46.8235 20.5903C48.095 20.9237 49.4462 20.7549 50.5964 20.1189C52.2595 19.077 64.3974 7.93841 64.3974 7.93841V4.53978C64.388 4.16383 64.3017 3.79379 64.1437 3.45246C63.9858 3.11114 63.7595 2.80577 63.479 2.55517C62.8717 2.22734 62.18 2.08907 61.4932 2.15825C58.6139 2.18306 44.7633 1.21557 44.7633 1.21557Z" fill="white" stroke="#D8B13C" stroke-width="2" stroke-linejoin="round"/>
<path d="M27.6362 15.2318L45.6321 16.6459C46.2829 16.868 46.9768 16.9344 47.658 16.8396C48.3392 16.7448 48.9886 16.4915 49.5539 16.1001C52.0361 14.7605 64.0995 3.69632 64.0995 3.69632" fill="white"/>
<path d="M27.6362 15.2318L45.6321 16.6459C46.2829 16.868 46.9768 16.9344 47.658 16.8396C48.3392 16.7448 48.9886 16.4915 49.5539 16.1001C52.0361 14.7605 64.0995 3.69632 64.0995 3.69632" stroke="#D8B13C" stroke-width="2" stroke-linejoin="round"/>
<path d="M83.8079 61.7708C83.8079 61.7708 72.4395 74.0009 71.397 75.5885C70.3545 77.1762 70.7268 76.9033 70.9999 78.9872C71.2729 81.071 75.716 95.7819 75.7905 96.3525C75.865 96.923 79.8116 99.0317 81.2017 98.213C82.5917 97.3944 89.6907 83.0556 89.6907 83.0556C89.6907 83.0556 90.7581 80.3268 90.1375 79.0368C89.517 77.7468 86.5383 64.4996 86.5383 64.4996C86.5383 64.4996 88.2014 63.0856 87.5064 62.3413C86.8114 61.5971 83.8079 61.7708 83.8079 61.7708Z" fill="white" stroke="#D8B13C" stroke-width="2" stroke-linejoin="round"/>
<path d="M87.1341 62.6638C87.1341 62.6638 75.7657 74.8939 74.7232 76.4816C73.6807 78.0693 74.053 77.7964 74.3261 79.8802C74.5991 81.9641 79.0422 96.6749 79.1167 97.2455C79.206 97.4797 79.3496 97.6894 79.5356 97.8576C79.7216 98.0257 79.9448 98.1474 80.1869 98.2127C80.4291 98.278 80.6832 98.2851 80.9286 98.2335C81.174 98.1818 81.4037 98.0728 81.5989 97.9153C83.0137 97.0719 93.0417 83.9487 93.0417 83.9487C93.0417 83.9487 94.109 81.2199 93.4885 79.9299C92.868 78.6399 89.7901 65.5911 89.7901 65.5911C89.5035 64.8541 89.1014 64.1674 88.5986 63.5569C88.2322 63.0947 87.713 62.7781 87.1341 62.6638Z" fill="white" stroke="#D8B13C" stroke-width="2" stroke-linejoin="round"/>
<path d="M86.9356 50.1608L95.2758 81.5423C95.5836 82.0193 95.7473 82.5749 95.7473 83.1424C95.7473 83.71 95.5836 84.2656 95.2758 84.7425C94.2084 86.355 74.3013 110.294 74.3013 110.294L70.6773 108.31L61.2947 74.7451L81.1521 51.6493L86.9356 50.1608Z" fill="white" stroke="#D8B13C" stroke-width="2" stroke-linejoin="round"/>
<path d="M81.4252 50.1608L59.8053 72.8845C59.3621 73.8845 59.1331 74.9662 59.1331 76.0599C59.1331 77.1536 59.3621 78.2353 59.8053 79.2353C61.4684 82.2866 69.3866 109.153 69.3866 109.153L73.4077 110.319L63.7768 79.012C63.4637 77.9292 63.3683 76.7952 63.4961 75.6753C63.6239 74.5555 63.9724 73.4721 64.5215 72.4876C66.3831 70.2053 86.0172 50.3097 86.0172 50.3097L81.4252 50.1608Z" fill="white" stroke="#D8B13C" stroke-width="2" stroke-linejoin="round"/>
<path d="M75.9146 8.83148L86.0668 47.7545C86.0668 47.7545 86.9355 49.5654 86.6873 50.2352C86.4391 50.9051 62.8335 71.8178 62.8335 71.8178L59.979 69.337L50.0503 36.0701L50.1992 31.2575C51.0004 30.1218 51.8709 29.0365 52.8055 28.0077C57.894 22.9222 75.9146 8.83148 75.9146 8.83148Z" fill="white" stroke="#D8B13C" stroke-width="2" stroke-linejoin="round"/>
<path d="M75.4181 8.50897H70.9502L48.4616 30.0667C48.0152 30.6133 47.7131 31.263 47.583 31.9564C47.4529 32.6499 47.499 33.3649 47.717 34.0359C48.6106 36.0701 58.3903 69.9572 58.3903 69.9572C58.639 70.4352 58.9906 70.8522 59.4198 71.1782C59.849 71.5042 60.3451 71.7311 60.8725 71.8426C62.5852 72.0162 62.6845 71.8426 62.6845 71.8426L51.614 35.1523C51.614 35.1523 50.2488 31.9521 52.4828 30.4388C54.7167 28.9256 75.4181 8.50897 75.4181 8.50897Z" fill="white" stroke="#D8B13C" stroke-width="2" stroke-linejoin="round"/>
<path d="M74.9465 21.4089C74.9465 18.3576 76.4855 15.8768 78.3719 15.8768C79.1414 15.8768 82.5917 15.3559 83.1626 16.0505C83.7335 16.7451 81.7974 19.5979 81.7974 21.4089C81.7974 23.2198 83.6094 25.9735 82.9888 26.9658C82.3683 27.9581 79.3152 26.9658 78.3719 26.9658C76.4855 26.9162 74.9465 24.4602 74.9465 21.4089Z" fill="white" stroke="#D8B13C" stroke-width="2" stroke-linejoin="round"/>
<path d="M78.9429 21.6074C78.9429 18.556 80.4818 16.0753 82.3683 16.0753C84.2547 16.0753 85.7937 18.556 85.7937 21.6074C85.7937 24.6587 84.2547 27.1146 82.3683 27.1146C80.4818 27.1146 78.9429 24.6587 78.9429 21.6074Z" fill="white" stroke="#D8B13C" stroke-width="2" stroke-linejoin="round"/>
<path d="M81.5493 21.7066C81.5493 19.6972 82.5422 18.0847 83.7833 18.0847C85.0244 18.0847 86.0421 19.6972 86.0421 21.7066C86.0421 23.716 85.0244 25.3533 83.7833 25.3533C82.5422 25.3533 81.5493 23.716 81.5493 21.7066Z" fill="white" stroke="#D8B13C" stroke-width="2" stroke-linejoin="round"/>
<path d="M77.9005 30.6373C77.9005 30.6373 64.596 41.7511 64.2981 43.6364C64.3267 45.1799 64.8979 46.6641 65.9115 47.8289L83.2868 49.1189C84.3662 49.3373 85.4811 49.3079 86.5475 49.0329C87.6138 48.7579 88.6038 48.2444 89.4426 47.5312C93.4793 43.248 97.243 38.7158 100.712 33.9615C100.712 33.9615 101.034 30.6373 99.6444 30.0667C98.2543 29.4961 77.9005 30.6373 77.9005 30.6373Z" fill="white" stroke="#D8B13C" stroke-width="2" stroke-linejoin="round"/>
<path d="M77.3542 28.3054C77.3542 28.3054 64.0497 39.4192 63.7271 41.3045C63.7716 42.8374 64.3412 44.3085 65.3405 45.4722L78.8187 46.3901C80.9865 46.7995 83.2023 46.8914 85.3965 46.663C87.1837 46.2908 89.6162 43.438 89.6162 43.438L99.396 32.2498C99.4958 32.0919 99.5579 31.9132 99.5774 31.7275C99.5969 31.5417 99.5733 31.354 99.5085 31.1789C99.4437 31.0037 99.3394 30.8458 99.2036 30.7175C99.0679 30.5892 98.9044 30.4938 98.7258 30.4388C97.3358 29.769 77.3542 28.3054 77.3542 28.3054Z" fill="white" stroke="#D8B13C" stroke-width="2" stroke-linejoin="round"/>
<path d="M53.9226 42.3216C53.9226 39.2703 55.4616 36.7896 57.348 36.7896C58.1175 36.7896 61.5677 36.2686 62.1386 36.9632C62.7095 37.6578 60.7734 40.5107 60.7734 42.3216C60.7734 44.1326 62.5854 46.8862 61.9401 47.9033C61.2947 48.9204 58.2912 47.9033 57.348 47.9033C55.5608 47.8289 53.9226 45.373 53.9226 42.3216Z" fill="white" stroke="#D8B13C" stroke-width="2" stroke-linejoin="round"/>
<path d="M58.043 42.5201C58.043 39.4688 59.5571 37.0128 61.4684 37.0128C63.3797 37.0128 64.869 39.4936 64.869 42.5201C64.869 45.5466 63.3548 48.0522 61.4684 48.0522C59.5819 48.0522 58.043 45.5714 58.043 42.5201Z" fill="white" stroke="#D8B13C" stroke-width="2" stroke-linejoin="round"/>
<path d="M60.5251 42.6441C60.5251 40.6347 61.518 38.9974 62.7591 38.9974C64.0002 38.9974 64.9931 40.6347 64.9931 42.6441C64.9931 44.6536 64.0002 46.266 62.7591 46.266C61.518 46.266 60.5251 44.6536 60.5251 42.6441Z" fill="white" stroke="#D8B13C" stroke-width="2" stroke-linejoin="round"/>
<path d="M57.6458 82.0137L61.4931 93.9709" stroke="#D8B13C" stroke-width="2" stroke-linejoin="round"/>
<path d="M55.5608 75.3901L57.1246 80.1779" stroke="#D8B13C" stroke-width="2" stroke-linejoin="round"/>
</g>
<defs>
<clipPath id="clip0_639_4762">
<rect width="101" height="116" fill="white"/>
</clipPath>
</defs>
</svg>
