<svg width="124" height="120" viewBox="0 0 124 120" fill="none" xmlns="http://www.w3.org/2000/svg">
<g clip-path="url(#clip0_640_5107)">
<path d="M88.8639 79.506C89.0255 79.8991 89.14 80.31 89.205 80.7303C89.205 80.9261 88.742 81.0731 88.742 81.0731V81.4158H89.3025C89.511 82.048 89.6739 82.6944 89.7898 83.3501C89.7898 83.546 89.3512 83.644 89.3512 83.644V83.9867H89.8629C90.1504 84.6568 90.3707 85.354 90.5208 86.068C90.5208 86.2883 89.936 86.5087 89.936 86.5087L89.6436 87.2922L83.5764 91.8219L80.4088 89.7407L76.5833 76.2251L78.7275 72.1361L83.4058 71.2302L87.7186 73.948L88.8639 79.506Z" fill="white" stroke="#A85B9F" stroke-width="2" stroke-linejoin="round"/>
<path d="M113.23 86.8025C113.23 86.8025 114.132 87.5126 114.18 87.7329C114.229 87.9533 113.912 88.2471 113.912 88.2471L114.107 88.5654L114.57 88.1981C115.088 88.6656 115.576 89.1644 116.032 89.6917C116.032 89.8876 115.764 90.1814 115.764 90.1814L115.984 90.4507L116.398 90.1569C116.999 90.6068 117.554 91.1153 118.055 91.675C118.055 91.9198 117.738 92.3605 117.738 92.3605V93.2175L114.522 100.245H110.452L100.146 90.0345V85.3334L103.947 82.2483L109.429 82.4932L113.23 86.8025Z" fill="white" stroke="#A85B9F" stroke-width="2" stroke-linejoin="round"/>
<path d="M89.7898 69.1L91.3736 70.0304C91.8249 70.0441 92.2759 69.9946 92.7137 69.8835C93.0037 69.8159 93.2669 69.6624 93.4691 69.4428L93.7615 69.7611L93.5422 71.1812L95.0285 72.4544L92.3482 73.3603L88.9613 69.5162L89.3024 68.7817L89.7898 69.1Z" fill="white" stroke="#A85B9F" stroke-width="2" stroke-linejoin="round"/>
<path d="M83.3571 72.6013L79.1661 74.3152L73.0502 71.8667L74.0248 70.7649L78.8981 69.002L82.8454 66.0394L87.0852 65.8925L92.2995 67.5819L90.2528 68.4144L89.3512 69.8345L87.012 72.4544L83.3571 72.6013Z" fill="white" stroke="#A85B9F" stroke-width="2" stroke-linejoin="round"/>
<path d="M77.5335 66.5046L74.0248 71.1812L79.0686 69.5897L82.1875 70.7404C82.1875 70.7404 83.3083 70.1283 83.7469 70.2997C84.0486 70.3985 84.3419 70.5213 84.6241 70.667L85.282 70.5201C85.282 70.5201 83.7469 69.4428 83.6007 68.8796C83.4451 68.2253 83.3231 67.5633 83.2352 66.8963L77.5335 66.5046Z" fill="white" stroke="#A85B9F" stroke-width="2" stroke-linejoin="round"/>
<path d="M92.1777 75.5884C92.1777 75.5884 86.8658 82.2483 85.4038 82.2483C84.6558 82.3189 83.9014 82.2355 83.1865 82.0035C82.1388 81.6117 81.2372 80.8037 81.1397 80.2406C81.0024 79.7443 80.9127 79.2359 80.8717 78.7225C80.8914 78.0867 81.0407 77.4617 81.3103 76.8861C81.554 76.323 85.9399 70.4466 85.9399 70.4466L84.551 67.9982L87.5237 67.1902L92.2751 73.4583L92.1777 75.5884Z" fill="white" stroke="#A85B9F" stroke-width="2" stroke-linejoin="round"/>
<path d="M115.74 82.5911C115.74 82.5911 112.329 91.0873 110.867 91.6015C110.092 91.9099 109.263 92.0597 108.43 92.0422C107.908 92.0489 107.39 91.9481 106.908 91.7459C106.426 91.5438 105.99 91.2447 105.628 90.867C105.305 90.4097 105.035 89.9168 104.824 89.3979C104.617 88.7418 104.551 88.0493 104.629 87.3656C104.629 86.7046 107.358 79.2857 107.358 79.2857L104.921 77.1065L107.845 75.3191L115.155 80.2161L115.74 82.5911Z" fill="white" stroke="#A85B9F" stroke-width="2" stroke-linejoin="round"/>
<path d="M92.5919 68.1451L93.7859 69.6876V71.1567L95.0285 72.4544L99.9018 66.4312L92.5919 68.1451Z" fill="white" stroke="#A85B9F" stroke-width="2" stroke-linejoin="round"/>
<path d="M101.827 66.9208L99.1952 72.4544L100.852 74.1683L109.405 73.5073L111.646 69.3203L109.38 67.5574L101.827 66.9208Z" fill="white" stroke="#A85B9F" stroke-width="2" stroke-linejoin="round"/>
<path d="M101.047 54.4826L101.754 54.0418V53.3318C101.754 53.3318 104.19 52.5727 104.531 52.5727C104.873 52.5727 104.799 53.2828 104.799 53.2828L106.773 52.9155C106.773 52.9155 106.773 52.23 107.114 52.1565L109.551 51.8137L110.111 52.5727L112.913 52.7441L113.206 52.0831C113.206 52.0831 115.131 51.8627 115.496 51.8872C115.862 51.9117 116.641 52.8421 116.641 52.8421L117.811 53.5277L118.03 55.7558L117.129 56.0006L117.299 56.4903L118.128 56.7107L118.371 58.9143L117.519 59.5019V60.212L118.469 60.0896L118.713 62.1708L117.835 62.7584V63.5909H118.761L119.054 64.8886L117.446 72.7482L100.755 71.5485L103.191 63.5664L101.023 57.7635L101.047 54.4826Z" fill="white" stroke="#A85B9F" stroke-width="2" stroke-linejoin="round"/>
<path d="M99.5119 48.5572C99.998 48.9567 100.439 49.4082 100.828 49.9039C100.867 50.4664 100.867 51.0309 100.828 51.5933L99.9993 52.083L100.657 52.7441V54.0908L100.365 56.0986L90.7644 59.0122L78.5813 52.5483L81.6758 45.2028L88.9857 37.6615L97.0022 38.2981L99.2926 41.9219L99.5119 48.5572Z" fill="white" stroke="#A85B9F" stroke-width="2" stroke-linejoin="round"/>
<path d="M83.284 40.4283C83.284 40.4283 86.1348 40.9669 86.8415 41.1873C87.9825 41.4602 89.081 41.8885 90.1066 42.4605C90.5584 42.8714 90.8589 43.4236 90.9594 44.0275C91.1881 44.3873 91.3332 44.7943 91.3838 45.2182C91.4344 45.6421 91.3893 46.0721 91.2518 46.476C90.9837 48.0675 90.8132 49.2673 89.5461 49.9774C87.0199 50.6965 84.435 51.1881 81.822 51.4464L83.284 40.4283Z" fill="white" stroke="#A85B9F" stroke-width="2" stroke-linejoin="round"/>
<path d="M82.2363 36.3883L81.6515 36.1434V36.829L80.4088 36.9514L83.3815 38.3471V40.4038C85.707 40.8522 87.9779 41.5499 90.1553 42.485C90.5907 42.8569 90.9048 43.3517 91.0569 43.9051L90.935 41.2853L90.5452 37.9553L83.3571 35.7272L81.7733 36.2414" fill="white"/>
<path d="M82.2363 36.3883L81.6515 36.1434V36.829L80.4088 36.9514L83.3815 38.3471V40.4038C85.707 40.8522 87.9779 41.5499 90.1553 42.485C90.5907 42.8569 90.9048 43.3517 91.0569 43.9051L90.935 41.2853L90.5452 37.9553L83.3571 35.7272L81.7733 36.2414" stroke="#A85B9F" stroke-width="2" stroke-linejoin="round"/>
<path d="M100.779 54.9967L100.608 56.1475L104.775 56.6617L105.433 58.7184C105.87 59.7533 105.989 60.896 105.774 61.9994C105.485 62.631 105.319 63.3126 105.287 64.0071L103.679 64.4723L101.51 66.3332C101.426 67.043 101.535 67.7624 101.827 68.4144C102.312 68.9458 102.901 69.3709 103.557 69.6631L108.43 69.1489C108.43 69.1489 109.21 68.4879 108.649 68.0226C108.317 67.7649 108.043 67.4395 107.845 67.0677L108.284 66.5046L107.772 65.4273L110.209 64.8886L110.063 61.4852L108.527 61.6566V58.6695L109.258 55.315L100.876 54.7764" fill="white"/>
<path d="M100.779 54.9967L100.608 56.1475L104.775 56.6617L105.433 58.7184C105.87 59.7533 105.989 60.896 105.774 61.9994C105.485 62.631 105.319 63.3126 105.287 64.0071L103.679 64.4723L101.51 66.3332C101.426 67.043 101.535 67.7624 101.827 68.4144C102.312 68.9458 102.901 69.3709 103.557 69.6631L108.43 69.1489C108.43 69.1489 109.21 68.4879 108.649 68.0226C108.317 67.7649 108.043 67.4395 107.845 67.0677L108.284 66.5046L107.772 65.4273L110.209 64.8886L110.063 61.4852L108.527 61.6566V58.6695L109.258 55.315L100.876 54.7764" stroke="#A85B9F" stroke-width="2" stroke-linejoin="round"/>
<path d="M69.4683 55.9272C69.4683 55.9272 70.7353 56.98 70.2724 57.5676C69.7189 58.1713 69.1246 58.7358 68.4936 59.2571L67.9819 67.2881L57.0415 69.3203L55.0435 60.8731L56.4323 54.3846L69.4683 55.9272Z" fill="white" stroke="#A85B9F" stroke-width="2" stroke-linejoin="round"/>
<path d="M43.567 50.8098L41.5446 51.2751L41.3253 52.0096L30.263 51.4465L26.803 62.6605V75.2212L36.1353 76.8617L40.2775 79.7998L50.024 84.0112L54.8973 72.7727L57.3339 51.7158L43.567 50.8098Z" fill="white" stroke="#A85B9F" stroke-width="2" stroke-linejoin="round"/>
<path d="M104.531 34.5764C104.531 34.5764 106.797 34.2826 107.285 34.3071C107.772 34.3316 111.403 35.4824 111.403 35.4824L105.287 36.878L100.413 37.686C99.9906 37.5552 99.5757 37.3999 99.1708 37.2208C100.889 36.205 102.681 35.321 104.531 34.5764Z" fill="white" stroke="#A85B9F" stroke-width="2" stroke-linejoin="round"/>
<path d="M52.6069 59.2326H47.3438L46.9539 60.212L46.0767 60.7262L45.5406 70.2263L53.8496 70.3732L54.3856 61.02L53.1186 60.4079L52.6069 59.2326Z" fill="white" stroke="#A85B9F" stroke-width="2" stroke-linejoin="round"/>
<path d="M89.5704 39.204V39.9875C89.5704 39.9875 90.5451 41.2608 91.0568 41.1628C91.5859 40.9303 92.0657 40.5978 92.47 40.1834L93.9564 39.8896L94.9067 39.1551V38.0288L93.6396 37.5391L89.5704 39.204Z" fill="white" stroke="#A85B9F" stroke-width="2" stroke-linejoin="round"/>
<path d="M76.0715 25.7864L91.1055 30.2916L91.3736 37.0984L87.1338 36.6331L87.2557 35.5803L84.4779 34.503L83.9175 34.9437L76.1934 32.0545L76.0715 25.7864Z" fill="white" stroke="#A85B9F" stroke-width="2" stroke-linejoin="round"/>
<path d="M78.1671 24.2928L75.9741 25.5905L75.7792 27.5982C75.7792 27.5982 77.8747 27.7696 78.2158 28.5531C78.3729 30.7239 78.324 32.9047 78.0696 35.0661L80.1895 36.1679H81.4078L82.6748 36.4128V37.0983L87.3775 38.9102L88.2791 38.5919V39.1551C88.2791 39.1551 93.1523 38.8368 93.5666 38.6409C93.9808 38.445 93.8102 37.8084 93.8102 37.8084L104.239 36.2659L104.263 28.3817L102.68 27.133L92.933 28.6511C92.4457 28.6511 91.0568 30.2181 91.0568 30.2181L91.4711 37.0494L87.207 36.4617L87.4263 35.4823L84.6485 34.3805L83.9906 34.7233L78.5082 32.789L76.8269 26.7413L78.1671 24.2928Z" fill="white" stroke="#A85B9F" stroke-width="2" stroke-linejoin="round"/>
<path d="M78.289 24.4397L92.7625 28.7001L90.9594 30.2671L75.9985 25.7129L78.289 24.4397Z" fill="white" stroke="#A85B9F" stroke-width="2" stroke-linejoin="round"/>
<path d="M41.1547 43.293L40.7161 48.19L56.7491 55.6823L59.0395 36.8535L47.3681 31.222L41.1547 43.293Z" fill="white" stroke="#A85B9F" stroke-width="2" stroke-linejoin="round"/>
<path d="M38.645 19.7631L32.3098 22.8727L30.726 26.423L38.7181 38.1757L40.6918 41.0404L42.7629 39.0571L44.3954 30.8302L44.9802 28.1369L40.9598 21.4281L38.645 19.7631Z" fill="white" stroke="#A85B9F" stroke-width="2" stroke-linejoin="round"/>
<path d="M58.9664 25.4681C58.8446 25.1987 58.3086 25.1008 58.3086 25.1008L55.5064 24.1459C55.2869 24.061 55.0438 24.061 54.8242 24.1459C54.5536 24.3264 54.3216 24.5595 54.1419 24.8315L53.4597 25.6884L50.3164 24.4152V23.7297C50.4097 23.4769 50.4097 23.1989 50.3164 22.9461C50.1663 22.7209 49.942 22.5562 49.6829 22.4809L47.027 21.4036L45.3701 23.3134L44.5903 29.8509L58.8202 36.927L60.2091 27.6717L58.4791 26.9127L58.6497 26.5699C58.6497 26.5699 59.0883 25.7374 58.9664 25.4681Z" fill="white" stroke="#A85B9F" stroke-width="2" stroke-linejoin="round"/>
<path d="M39.3516 18.1471C40.0245 18.7369 40.6367 19.3931 41.1791 20.1059C41.3009 20.5221 40.8136 20.9139 40.8136 20.9139L41.642 21.0363L42.9822 22.8971V23.7541H43.8106C43.8106 23.7541 44.566 24.8804 44.8584 25.2722C45.1508 25.6639 44.6878 26.3005 44.6878 26.3005H45.6137C45.6137 26.3005 46.5884 27.5737 46.7833 27.9655C46.9782 28.3573 45.833 29.8263 45.833 29.8263L44.371 29.4101L43.8594 27.5982L38.6206 20.5711V19.0041L39.3516 18.1471Z" fill="white" stroke="#A85B9F" stroke-width="2" stroke-linejoin="round"/>
<path d="M28.6792 25.1498V27.3289L37.7678 38.9347L41.4715 40.1589L32.0661 25.4681L29.8731 24.0235L28.6792 25.1498Z" fill="white" stroke="#A85B9F" stroke-width="2" stroke-linejoin="round"/>
<path d="M33.0895 15.7476L35.8429 15.5517L37.378 16.7515L39.4491 18.3185L31.4569 25.0763L27.6802 24.2193V22.383L33.0895 15.7476Z" fill="white" stroke="#A85B9F" stroke-width="2" stroke-linejoin="round"/>
<path d="M30.0437 13.6909L32.2123 11.4138L33.5281 13.6174C33.5932 13.8162 33.5932 14.0307 33.5281 14.2295C33.3929 14.4754 33.2202 14.6984 33.0164 14.8906L33.3088 15.4293L33.991 15.9924V16.8494L32.9677 17.9267L30.0437 13.6909Z" fill="white" stroke="#A85B9F" stroke-width="2" stroke-linejoin="round"/>
<path d="M22.1003 8.3287L19.8586 10.8996L18.421 10.263L16.1062 12.5646L18.1286 14.5234V15.8211L19.2738 15.0865L22.7338 14.6948L24.3664 13.2991L26.2426 15.8945L26.803 15.3069L22.1003 8.3287Z" fill="white" stroke="#A85B9F" stroke-width="2" stroke-linejoin="round"/>
<path d="M19.152 1.84024C19.4922 2.10879 19.7954 2.42168 20.0535 2.77066L20.9063 3.89696L14.8391 8.30423L13.4746 8.91635V7.5452L19.152 1.84024Z" fill="white" stroke="#A85B9F" stroke-width="2" stroke-linejoin="round"/>
<path d="M9.1374 12.7849L11.1354 11.0955L13.3284 9.03877L14.766 8.3532L17.5681 6.34545L19.4931 4.53357L22.3927 3.18691L26.1451 2.99103L25.1704 4.01939H24.5856L23.7328 5.04775L22.3439 5.19466L20.0779 6.68823L19.956 7.37381L18.1773 9.03877V9.62641L17.9336 10.0671L15.8138 12.0994L17.0564 13.6909L17.8118 15.6497L13.8645 18.0981H5.75049L8.55261 14.352L9.1374 12.7849Z" fill="white" stroke="#A85B9F" stroke-width="2" stroke-linejoin="round"/>
<path d="M3.04583 18.5878H11.306L9.47853 29.6794H1.14526L3.04583 18.5878Z" fill="white" stroke="#A85B9F" stroke-width="2" stroke-linejoin="round"/>
<path d="M2.92395 18.7347L6.82255 16.5556V15.5272L7.8703 14.4254L8.2358 12.9074L10.6724 10.312L11.4521 9.99366V9.18566L13.2065 7.74106V9.06324L12.1831 10.1161C12.1831 10.1161 11.7689 10.8017 11.5009 11.1689C10.7267 11.7782 9.91269 12.3344 9.06425 12.8339L9.42975 13.3236L8.47946 14.3764L8.60129 14.9396L7.67537 15.8455V16.4087L6.55453 17.7064H13.2065L17.2026 16.2128C17.9881 15.8752 18.7529 15.4909 19.493 15.062L22.222 14.7192L14.1568 18.5878H11.4034L2.92395 18.7347Z" fill="white" stroke="#A85B9F" stroke-width="2" stroke-linejoin="round"/>
<path d="M9.50293 29.5815L11.4035 18.7347L14.1813 18.5878L22.4414 14.6703C22.8073 14.6459 23.1737 14.7112 23.5089 14.8605C23.8442 15.0097 24.1385 15.2385 24.3664 15.5272C25.289 16.348 25.9714 17.4062 26.34 18.5878C26.3487 20.3954 25.8504 22.1689 24.9024 23.7051C23.9278 25.0763 17.422 31.7362 17.422 31.7362L9.50293 29.5815Z" fill="white" stroke="#A85B9F" stroke-width="2" stroke-linejoin="round"/>
<path d="M1.14526 29.6794L6.01852 31.4668V30.9527C6.01852 30.9527 4.26415 30.5854 4.19105 30.3405C4.11795 30.0957 11.2085 30.5609 11.2085 30.5609L17.3245 31.8831L9.4298 29.7039L1.14526 29.6794Z" fill="white" stroke="#A85B9F" stroke-width="2" stroke-linejoin="round"/>
<path d="M6.23785 30.463L6.01855 32.7645C6.01855 32.7645 12.4756 33.9643 12.6949 33.8419C12.9694 33.1292 13.1734 32.3911 13.3041 31.6382L14.0351 31.8831L14.2787 31.2465L11.2086 30.5119L6.23785 30.463Z" fill="white" stroke="#A85B9F" stroke-width="2" stroke-linejoin="round"/>
<path d="M10.7456 33.5236L11.2573 30.463" stroke="#A85B9F" stroke-width="2" stroke-linejoin="round"/>
<path d="M12.1832 22.5544L14.1325 22.7258L13.6452 26.9127L11.501 26.7413L12.1832 22.5544Z" fill="white" stroke="#A85B9F" stroke-width="2" stroke-linejoin="round"/>
<path d="M14.2299 18.7837C14.2396 19.8438 14.1416 20.9021 13.9375 21.9423C13.6939 22.2606 11.1111 21.7219 11.1111 21.7219L10.4775 25.6884C10.7142 25.8161 10.9152 26.0013 11.0623 26.2271C11.1471 26.5064 11.1471 26.8048 11.0623 27.0841L12.9629 27.3779C12.911 28.4795 12.7807 29.5759 12.573 30.6589" stroke="#A85B9F" stroke-width="2" stroke-linejoin="round"/>
<path d="M13.8888 22.1136L15.0584 22.5299C15.0584 22.5299 14.1325 26.7658 14.035 27.133C13.9376 27.5003 13.036 27.4024 13.036 27.4024" stroke="#A85B9F" stroke-width="2" stroke-linejoin="round"/>
<path d="M19.956 19.7876C19.9752 19.3651 20.1176 18.9576 20.3656 18.6159C20.6137 18.2743 20.9563 18.0135 21.3508 17.8661C21.7452 17.7187 22.1742 17.6912 22.5841 17.7871C22.994 17.883 23.3668 18.0979 23.656 18.4052C23.9452 18.7125 24.1379 19.0985 24.2103 19.5151C24.2827 19.9317 24.2315 20.3606 24.063 20.7481C23.8945 21.1357 23.6163 21.4649 23.2629 21.6946C22.9096 21.9244 22.4967 22.0446 22.0759 22.0402C21.4985 22.021 20.952 21.7736 20.5551 21.3519C20.1581 20.9301 19.9429 20.3679 19.956 19.7876Z" fill="white" stroke="#A85B9F" stroke-width="2" stroke-linejoin="round"/>
<path d="M21.3693 19.8855C21.3559 19.6037 21.453 19.3279 21.6398 19.1173C21.8266 18.9067 22.0882 18.7781 22.3683 18.7592C22.5935 18.7345 22.821 18.7789 23.0206 18.8867C23.2202 18.9945 23.3826 19.1605 23.4864 19.3629C23.5902 19.5653 23.6305 19.7946 23.602 20.0205C23.5736 20.2464 23.4776 20.4583 23.3268 20.6283C23.176 20.7983 22.9775 20.9183 22.7575 20.9726C22.5374 21.027 22.3062 21.013 22.0942 20.9326C21.8822 20.8521 21.6994 20.709 21.57 20.5221C21.4406 20.3352 21.3706 20.1132 21.3693 19.8855Z" fill="white" stroke="#A85B9F" stroke-width="2" stroke-linejoin="round"/>
<path d="M21.9297 8.59802L21.1987 9.21014H20.8088L19.6636 10.3364L18.6402 9.89572H17.5925C17.5925 9.89572 15.1558 10.9241 15.1558 11.5362C15.1558 12.1483 15.0096 12.6135 15.0096 12.6135H16.0818L18.5184 10.3364L19.7611 11.0465L21.9297 8.59802Z" fill="white" stroke="#A85B9F" stroke-width="2" stroke-linejoin="round"/>
<path d="M14.9365 12.5401L16.1548 13.7398C16.3146 13.6678 16.4953 13.658 16.6619 13.7123C16.8285 13.7666 16.9691 13.8811 17.0564 14.0337C17.3394 14.5161 17.4907 15.0651 17.495 15.6252L16.2767 16.5801L18.226 15.7966V14.5233L16.0817 12.5156L14.9365 12.5401Z" fill="white" stroke="#A85B9F" stroke-width="2" stroke-linejoin="round"/>
<path d="M22.6607 12.8584C22.6415 12.8087 22.6327 12.7556 22.6347 12.7023C22.6367 12.649 22.6495 12.5967 22.6723 12.5486C22.6951 12.5004 22.7274 12.4575 22.7673 12.4223C22.8072 12.3872 22.8539 12.3606 22.9043 12.3442C22.9862 12.3071 23.0775 12.2961 23.1658 12.3128C23.2541 12.3295 23.3352 12.373 23.3981 12.4375C23.4609 12.502 23.5026 12.5843 23.5174 12.6734C23.5322 12.7624 23.5194 12.8539 23.4807 12.9354C23.4421 13.0169 23.3795 13.0846 23.3014 13.1291C23.2233 13.1737 23.1334 13.1931 23.0439 13.1847C22.9545 13.1763 22.8698 13.1405 22.8012 13.0822C22.7327 13.0238 22.6836 12.9457 22.6607 12.8584Z" fill="white" stroke="#A85B9F" stroke-width="2" stroke-linejoin="round"/>
<path d="M6.70081 8.03487V8.54906H6.9201L7.30996 8.7939V9.11221H11.7203L13.499 7.6676H6.74954L6.70081 8.03487Z" fill="white" stroke="#A85B9F" stroke-width="2" stroke-linejoin="round"/>
<path d="M6.7251 7.44725L13.0603 1.7178H19.1032L13.4746 7.54519L6.7251 7.44725Z" fill="white" stroke="#A85B9F" stroke-width="2" stroke-linejoin="round"/>
<path d="M8.89375 14.4744H9.67347L12.1101 12.0259L12.8654 12.2463L11.2329 14.4254H12.8411L14.8879 11.9769V12.5401L15.3752 13.2257L13.7183 15.1355L8.84501 15.2824L8.43079 14.6213" stroke="#A85B9F" stroke-width="2" stroke-linejoin="round"/>
<path d="M13.0847 10.263H15.2777V11.2424L13.7182 11.4628L13.0116 10.6303L13.0847 10.263Z" stroke="#A85B9F" stroke-width="2" stroke-linejoin="round"/>
<path d="M13.5721 9.16119L12.9386 10.214H15.3752L16.5692 9.21016L13.5721 9.16119Z" stroke="#A85B9F" stroke-width="2" stroke-linejoin="round"/>
<path d="M24.3663 24.6845L25.1948 26.0067C25.1948 26.0067 25.9745 26.0067 26.1938 25.8353C26.4131 25.6639 24.9999 23.901 24.9999 23.901L24.3663 24.6845Z" fill="white" stroke="#A85B9F" stroke-width="2" stroke-linejoin="round"/>
<path d="M24.9511 23.8521L26.1451 25.5905L28.5817 23.142L28.4599 22.8482L30.6772 21.1588L33.1138 18.7103C33.1864 18.4876 33.1864 18.2474 33.1138 18.0247C32.8458 17.7798 29.9949 13.6909 29.9949 13.6909L34.3078 9.28362V8.54908L34.6245 8.23078L32.1879 4.68048L28.4842 7.96144L22.2465 8.10835L25.3897 12.7115L27.2903 15.16L26.6324 15.7966L27.2415 16.6291L25.9989 17.6329L26.4131 19.0041L26.0232 21.0363L25.8039 22.3095L24.9511 23.8521Z" fill="white" stroke="#A85B9F" stroke-width="2" stroke-linejoin="round"/>
<path d="M29.6782 9.84677L29.0447 11.2424L30.1412 12.5891L31.4813 12.4422L32.1148 11.022L31.2864 9.69986L29.6782 9.84677Z" fill="white" stroke="#A85B9F" stroke-width="2" stroke-linejoin="round"/>
<path d="M32.2854 7.61865L31.6763 8.9898L32.7728 10.3609L34.1129 10.1896L34.7221 8.79392L33.8936 7.47174L32.2854 7.61865Z" fill="white" stroke="#A85B9F" stroke-width="2" stroke-linejoin="round"/>
<path d="M30.2142 6.49235L30.6285 7.03102L31.993 6.85962L32.6265 5.46399L32.0661 4.92532" fill="white"/>
<path d="M30.2142 6.49235L30.6285 7.03102L31.993 6.85962L32.6265 5.46399L32.0661 4.92532" stroke="#A85B9F" stroke-width="2" stroke-linejoin="round"/>
<path d="M26.803 8.23077L24.878 9.23465C24.7261 9.64944 24.6598 10.091 24.6831 10.5323C24.805 10.8751 26.4619 13.4216 26.4619 13.4216L27.4852 14.9396L26.803 15.16L22.0759 8.30423L26.803 8.23077Z" fill="white" stroke="#A85B9F" stroke-width="2" stroke-linejoin="round"/>
<path d="M24.3663 13.3971L22.9287 14.7192C23.4553 14.8298 23.9481 15.0648 24.3663 15.4048C24.9679 16.081 25.5293 16.7923 26.0476 17.535L27.3634 16.5311L26.7299 15.6986L26.3156 15.9925L24.3663 13.3971Z" fill="white" stroke="#A85B9F" stroke-width="2" stroke-linejoin="round"/>
<path d="M21.1256 7.44725L25.1948 3.89696L28.7035 0.420114C30.8897 0.20623 33.0882 0.148955 35.2824 0.24872C35.1606 0.542538 27.9725 6.95756 27.9725 6.95756L21.1256 7.44725Z" fill="white" stroke="#A85B9F" stroke-width="2" stroke-linejoin="round"/>
<path d="M21.1256 7.56967L21.9297 8.59804L22.417 8.15731L28.5817 7.91246L35.8916 1.27708L35.6479 0.322174L27.9725 7.03101L21.1256 7.56967Z" fill="white" stroke="#A85B9F" stroke-width="2" stroke-linejoin="round"/>
<path d="M27.9481 7.03101L28.4354 7.839" stroke="#A85B9F" stroke-width="2" stroke-linejoin="round"/>
<path d="M18.689 9.55293L20.7845 7.74106L21.7104 8.57354L21.1743 9.21015L20.7601 9.06324L19.7611 10.1651L18.689 9.7733V9.55293Z" fill="white" stroke="#A85B9F" stroke-width="2" stroke-linejoin="round"/>
<path d="M23.7815 5.07224L22.2951 5.21914L20.0778 6.7372V7.42278L18.2991 9.08774V9.65089H18.7864V9.40604L20.7113 7.76556L21.2961 7.98593V7.42278L23.7815 5.07224Z" fill="white" stroke="#A85B9F" stroke-width="2" stroke-linejoin="round"/>
<path d="M34.1128 18.9796L35.8428 21.0608C36.5934 21.1659 37.3514 21.2069 38.1089 21.1832C38.2274 21.0341 38.3578 20.8949 38.4987 20.767L38.6693 18.3185L36.8418 16.5556L34.1128 18.9796Z" fill="white" stroke="#A85B9F" stroke-width="2" stroke-linejoin="round"/>
<path d="M27.4608 24.3418L29.5563 24.9049C29.9308 25.2496 30.3698 25.516 30.8477 25.6884C31.4325 25.6884 32.1879 25.9088 32.1879 25.9088L33.2356 25.0763L33.3818 23.6807L34.8194 22.8237L35.4773 21.6729L34.6732 20.4487L32.6508 21.575L31.6762 21.0363L28.6548 23.3624L27.4608 24.3418Z" fill="white" stroke="#A85B9F" stroke-width="2" stroke-linejoin="round"/>
<path d="M31.6763 21.0363L28.7523 23.3379L29.6782 24.0969L32.4804 21.6484L31.6763 21.0363Z" fill="white" stroke="#A85B9F" stroke-width="2" stroke-linejoin="round"/>
<path d="M31.3351 24.2438C31.3156 24.1378 31.3195 24.0289 31.3466 23.9246C31.3737 23.8203 31.4234 23.7233 31.492 23.6405C31.5606 23.5576 31.6465 23.4909 31.7436 23.4452C31.8407 23.3994 31.9466 23.3757 32.0539 23.3757C32.1611 23.3757 32.2671 23.3994 32.3642 23.4452C32.4613 23.4909 32.5472 23.5576 32.6158 23.6405C32.6844 23.7233 32.734 23.8203 32.7611 23.9246C32.7882 24.0289 32.7922 24.1378 32.7727 24.2438C32.7922 24.3498 32.7882 24.4588 32.7611 24.5631C32.734 24.6673 32.6844 24.7643 32.6158 24.8472C32.5472 24.93 32.4613 24.9967 32.3642 25.0425C32.2671 25.0882 32.1611 25.1119 32.0539 25.1119C31.9466 25.1119 31.8407 25.0882 31.7436 25.0425C31.6465 24.9967 31.5606 24.93 31.492 24.8472C31.4234 24.7643 31.3737 24.6673 31.3466 24.5631C31.3195 24.4588 31.3156 24.3498 31.3351 24.2438Z" fill="white" stroke="#A85B9F" stroke-width="2" stroke-linejoin="round"/>
<path d="M36.5494 19.6896C36.5542 19.5455 36.6011 19.406 36.6843 19.2884C36.7675 19.1709 36.8832 19.0806 37.0172 19.0287C37.1511 18.9769 37.2972 18.9658 37.4374 18.9968C37.5775 19.0279 37.7055 19.0997 37.8053 19.2033C37.9051 19.3069 37.9724 19.4378 37.9986 19.5796C38.0249 19.7214 38.0091 19.8678 37.9531 20.0006C37.8972 20.1334 37.8035 20.2467 37.6839 20.3264C37.5643 20.4061 37.4239 20.4486 37.2804 20.4487C37.0843 20.4423 36.8984 20.3595 36.762 20.2179C36.6256 20.0762 36.5493 19.8868 36.5494 19.6896Z" fill="white" stroke="#A85B9F" stroke-width="2" stroke-linejoin="round"/>
<path d="M25.3167 26.1292C25.3167 26.1292 25.9745 27.4513 26.2426 27.3779L26.9005 27.2555L26.3644 27.9166C26.3644 27.9166 27.7289 29.606 28.0213 29.8264C28.1167 29.8848 28.2263 29.9156 28.3381 29.9156C28.4498 29.9156 28.5594 29.8848 28.6548 29.8264L28.2162 30.414L30.1412 32.6421L30.6285 32.4707L30.4336 33.2298L32.0905 35.1641H33.0408L26.4131 25.4926L25.9502 26.0312L25.3167 26.1292Z" fill="white" stroke="#A85B9F" stroke-width="2" stroke-linejoin="round"/>
<path d="M33.0651 35.1885L36.8662 42.7299C38.859 42.7125 40.8468 42.9344 42.7872 43.3909C42.3838 42.3563 41.9284 41.343 41.4227 40.3548L37.9871 39.2775C36.9235 38.9144 35.9272 38.3766 35.0387 37.686C34.2336 36.9826 33.5645 36.1359 33.0651 35.1885Z" fill="white" stroke="#A85B9F" stroke-width="2" stroke-linejoin="round"/>
<path d="M26.4375 25.4191L27.3878 24.5132L29.3371 24.8804L29.1909 26.1047L28.8498 26.8147L30.7747 28.9939C30.7747 28.9939 30.3117 29.2632 30.531 29.4591C30.7471 29.6023 31.0037 29.671 31.262 29.655L32.7727 31.7851C32.7727 31.7851 32.1879 31.7851 32.3829 32.1524C32.5778 32.5197 33.2357 32.3483 33.2357 32.3483L34.722 34.405C34.722 34.405 34.1616 34.7233 34.4053 34.9437C34.6624 35.0692 34.9493 35.1201 35.2337 35.0906L36.7201 37.1473L38.2064 36.829C38.2064 36.829 39.8146 39.3999 40.0826 39.8651C40.3506 40.3303 37.9628 39.4489 36.2815 38.5919C35.6752 38.2338 35.1182 37.7975 34.6246 37.2942L33.5281 35.8251L26.4619 25.3701" fill="white"/>
<path d="M26.4375 25.4191L27.3878 24.5132L29.3371 24.8804L29.1909 26.1047L28.8498 26.8147L30.7747 28.9939C30.7747 28.9939 30.3117 29.2632 30.531 29.4591C30.7471 29.6023 31.0037 29.671 31.262 29.655L32.7727 31.7851C32.7727 31.7851 32.1879 31.7851 32.3829 32.1524C32.5778 32.5197 33.2357 32.3483 33.2357 32.3483L34.722 34.405C34.722 34.405 34.1616 34.7233 34.4053 34.9437C34.6624 35.0692 34.9493 35.1201 35.2337 35.0906L36.7201 37.1473L38.2064 36.829C38.2064 36.829 39.8146 39.3999 40.0826 39.8651C40.3506 40.3303 37.9628 39.4489 36.2815 38.5919C35.6752 38.2338 35.1182 37.7975 34.6246 37.2942L33.5281 35.8251L26.4619 25.3701" stroke="#A85B9F" stroke-width="2" stroke-linejoin="round"/>
<path d="M58.674 36.8045L83.4301 38.445L81.2615 56.1475L56.8953 55.7803L58.674 36.8045Z" fill="white" stroke="#A85B9F" stroke-width="2" stroke-linejoin="round"/>
<path d="M60.6477 38.1757L82.5774 39.4244L80.4088 55.1681L58.4791 54.6784L60.6477 38.1757Z" fill="white" stroke="#A85B9F" stroke-width="2" stroke-linejoin="round"/>
<path d="M80.8474 39.5468L78.4108 54.2377L80.2382 55.2171L82.4556 39.6937L80.8474 39.5468Z" fill="white" stroke="#A85B9F" stroke-width="2" stroke-linejoin="round"/>
<path d="M78.3376 54.1398L70.3211 48.851H59.1126L58.4791 54.6539L80.4088 55.2171L78.3376 54.1398Z" fill="white" stroke="#A85B9F" stroke-width="2" stroke-linejoin="round"/>
<path d="M66.8124 38.7144L64.9606 40.2569L63.6448 52.3279L65.1311 54.3112L66.1301 54.6784H70.0775L72.5141 52.6707L74.1466 40.6242L73.172 39.7182L72.5141 39.1061L66.8124 38.7144Z" fill="white" stroke="#A85B9F" stroke-width="2" stroke-linejoin="round"/>
<path d="M68.0307 38.8368L65.9352 40.6242L64.6194 52.6952L66.1301 54.6784L71.0033 54.9233L73.44 52.9155L74.9507 40.869L73.2938 39.1551L68.0307 38.8368Z" fill="white" stroke="#A85B9F" stroke-width="2" stroke-linejoin="round"/>
<path d="M49.2931 23.142L55.872 21.9667L78.1184 28.3818L63.4986 29.1163L49.3175 24.6845L49.2931 23.142Z" fill="white" stroke="#A85B9F" stroke-width="2" stroke-linejoin="round"/>
<path d="M66.8124 33.0339L66.2764 37.0739L75.0482 37.735L75.3406 33.6705L66.8124 33.0339Z" fill="white" stroke="#A85B9F" stroke-width="2" stroke-linejoin="round"/>
<path d="M47.0757 21.4036L55.3846 21.8443C56.8376 22.1545 58.2458 22.6481 59.5756 23.3134C59.7949 23.7786 59.2345 23.8031 59.2345 23.8031L54.1906 23.999L50.4382 23.6562L50.1702 22.8972L47.0757 21.4036Z" fill="white" stroke="#A85B9F" stroke-width="2" stroke-linejoin="round"/>
<path d="M66.7637 29.7039L66.2764 32.838L71.3689 33.1563L71.7831 29.8508L66.7637 29.7039Z" fill="white" stroke="#A85B9F" stroke-width="2" stroke-linejoin="round"/>
<path d="M71.7831 30.2181L71.6125 32.4462L75.5112 32.6176L75.7548 30.4874L71.7831 30.2181Z" fill="white" stroke="#A85B9F" stroke-width="2" stroke-linejoin="round"/>
<path d="M78.2402 28.3817C76.8536 28.0432 75.4185 27.952 74.0005 28.1124L62.0366 27.8431L60.9158 37.0004L77.6798 38.1512C77.6798 38.1512 78.362 34.2581 78.5326 31.9565C78.7032 29.655 79.0199 29.0428 78.2402 28.3817Z" fill="white" stroke="#A85B9F" stroke-width="2" stroke-linejoin="round"/>
<path d="M62.061 27.9655C62.061 27.9655 60.4285 27.2555 60.2823 27.4758C60.1361 27.6962 58.7472 36.7066 58.7472 36.7066H60.9889L62.061 27.9655Z" fill="white" stroke="#A85B9F" stroke-width="2" stroke-linejoin="round"/>
<path d="M61.7929 23.4848L55.214 23.8766L58.8446 25.1498L67.7383 25.4926L61.7929 23.4848Z" fill="white" stroke="#A85B9F" stroke-width="2" stroke-linejoin="round"/>
<path d="M67.6653 25.5415L58.9421 25.2232C58.984 25.4827 58.984 25.7472 58.9421 26.0067C58.8611 26.2381 58.7549 26.4598 58.6254 26.6678C58.6254 26.8637 67.8602 27.0351 67.8602 27.0351L67.6653 25.5415Z" fill="white" stroke="#A85B9F" stroke-width="2" stroke-linejoin="round"/>
<path d="M77.9722 24.2683L87.475 23.1175L102.655 27.2555L92.7381 28.7735L77.9722 24.2683Z" fill="white" stroke="#A85B9F" stroke-width="2" stroke-linejoin="round"/>
<path d="M111.476 35.5558C111.554 35.8936 111.603 36.2377 111.622 36.5841C111.442 36.9716 111.213 37.3338 110.94 37.6615L110.038 37.7839L109.648 37.3677L100.535 39.0326L100.024 39.7427V38.4695L100.511 37.6615L111.476 35.5558Z" fill="white" stroke="#A85B9F" stroke-width="2" stroke-linejoin="round"/>
<path d="M94.8823 37.8819L95.1747 39.3999L96.0763 40.11H97.1728L98.4885 38.8368L97.4652 40.5507V41.5791L98.0499 42.0932V44.1989L98.8784 44.958L97.7819 46.3536L97.5139 47.7247L98.4642 48.8021L99.9018 48.4348V38.494L100.365 37.7594L99.9018 37.5146L99.2926 37.0739L94.8823 37.8819Z" fill="white" stroke="#A85B9F" stroke-width="2" stroke-linejoin="round"/>
<path d="M38.0359 48.9H36.9638L36.2571 48.1655L34.1129 47.9696L33.6256 48.6797H31.1889L30.3361 47.8472H28.1432V48.5817L26.9492 49.2918L26.1695 49.4876L25.7065 51.7647L26.2426 52.3524L25.5116 52.6952L25.2923 54.7274L25.6822 55.4619H24.9999L24.4882 57.5676L25.1705 58.2042L24.2689 58.6939V60.9221L24.7562 61.3873L24.8781 65.3048L24.7075 68.0226L30.458 74.7804L30.8965 73.0665L28.4599 69.5897C28.4599 69.5897 28.7523 67.6554 28.9229 66.7494C29.0934 65.8435 28.1675 65.5007 28.1675 65.5007L29.2396 61.7056C29.2396 61.7056 29.995 56.0496 29.9463 55.8782C30.0788 54.8382 30.54 53.8683 31.262 53.1114C31.8558 52.7994 32.517 52.6396 33.187 52.6462L38.4745 52.7686L38.7912 52.132L41.0329 52.2789L37.9871 48.8755" fill="white"/>
<path d="M38.0359 48.9H36.9638L36.2571 48.1655L34.1129 47.9696L33.6256 48.6797H31.1889L30.3361 47.8472H28.1432V48.5817L26.9492 49.2918L26.1695 49.4876L25.7065 51.7647L26.2426 52.3524L25.5116 52.6952L25.2923 54.7274L25.6822 55.4619H24.9999L24.4882 57.5676L25.1705 58.2042L24.2689 58.6939V60.9221L24.7562 61.3873L24.8781 65.3048L24.7075 68.0226L30.458 74.7804L30.8965 73.0665L28.4599 69.5897C28.4599 69.5897 28.7523 67.6554 28.9229 66.7494C29.0934 65.8435 28.1675 65.5007 28.1675 65.5007L29.2396 61.7056C29.2396 61.7056 29.995 56.0496 29.9463 55.8782C30.0788 54.8382 30.54 53.8683 31.262 53.1114C31.8558 52.7994 32.517 52.6396 33.187 52.6462L38.4745 52.7686L38.7912 52.132L41.0329 52.2789L37.9871 48.8755" stroke="#A85B9F" stroke-width="2" stroke-linejoin="round"/>
<path d="M47.7092 70.1283C47.1732 70.4569 46.742 70.9327 46.4665 71.4995C46.0856 72.3857 45.9347 73.3545 46.0279 74.3152C46.1741 75.1477 47.9772 79.604 48.0747 79.9957C48.1721 80.3875 50.8524 85.8476 50.8524 85.8476L59.0151 78.5022L58.1136 76.7392C58.1136 76.7392 55.3602 72.3809 54.9703 71.8423C54.6116 71.3901 54.2207 70.9645 53.8007 70.5691C53.8007 70.5691 51.2179 69.002 50.8768 69.1734C50.5357 69.3448 50.292 69.1734 49.7072 69.3448C49.1769 69.4922 48.6561 69.6721 48.1478 69.8835L47.7092 70.1283Z" fill="white" stroke="#A85B9F" stroke-width="2" stroke-linejoin="round"/>
<path d="M24.4882 61.1914L25.2191 61.73L27.8751 49.4876L30.6285 49.2428L33.9179 52.6462" stroke="#A85B9F" stroke-width="2" stroke-linejoin="round"/>
<path d="M38.6693 49.5366H39.1079L43.9812 54.1887L41.9588 54.5805L38.7181 57.788L38.3038 57.3228L40.0826 55.4619L41.5445 54.1153L41.9588 53.797L40.8867 52.181L38.6693 49.5366Z" fill="white" stroke="#A85B9F" stroke-width="2" stroke-linejoin="round"/>
<path d="M30.4335 75.0988C30.4106 72.4551 30.5653 69.8129 30.8965 67.1902C31.2864 66.5781 32.261 64.0806 34.1128 63.8358C34.8598 63.7112 35.624 63.7379 36.3605 63.9145C37.097 64.0912 37.7909 64.414 38.4013 64.8641C38.6206 65.4028 34.4783 64.3744 34.4783 64.3744L31.8224 67.0188L31.6762 77.1555L30.9696 78.1349L32.0661 81.2445C32.0661 81.2445 32.5534 86.6311 32.6752 87.1943C33.0075 88.4582 33.6339 89.6247 34.5027 90.5976C33.7537 90.2344 33.164 89.6069 32.8458 88.8347C32.1428 87.5402 31.6726 86.1311 31.4569 84.6723C31.1645 83.3502 31.2864 81.9055 31.1645 81.6362C30.8234 80.9017 25.6821 74.9519 25.6821 74.9519C25.4541 75.4065 25.402 75.9299 25.5359 76.421C25.6821 77.4493 26.0232 78.8694 26.0232 78.8694L24.3663 74.5111V68.0961" fill="white"/>
<path d="M30.4335 75.0988C30.4106 72.4551 30.5653 69.8129 30.8965 67.1902C31.2864 66.5781 32.261 64.0806 34.1128 63.8358C34.8598 63.7112 35.624 63.7379 36.3605 63.9145C37.097 64.0912 37.7909 64.414 38.4013 64.8641C38.6206 65.4028 34.4783 64.3744 34.4783 64.3744L31.8224 67.0188L31.6762 77.1555L30.9696 78.1349L32.0661 81.2445C32.0661 81.2445 32.5534 86.6311 32.6752 87.1943C33.0075 88.4582 33.6339 89.6247 34.5027 90.5976C33.7537 90.2344 33.164 89.6069 32.8458 88.8347C32.1428 87.5402 31.6726 86.1311 31.4569 84.6723C31.1645 83.3502 31.2864 81.9055 31.1645 81.6362C30.8234 80.9017 25.6821 74.9519 25.6821 74.9519C25.4541 75.4065 25.402 75.9299 25.5359 76.421C25.6821 77.4493 26.0232 78.8694 26.0232 78.8694L24.3663 74.5111V68.0961" stroke="#A85B9F" stroke-width="2" stroke-linejoin="round"/>
<path d="M31.0915 78.1593L34.1129 77.3513L34.2591 75.9067L36.2328 75.3191L36.7201 76.9351L38.8156 76.2985L38.4257 65.1089C37.401 64.4675 36.188 64.1995 34.9901 64.3499C34.2726 64.3808 33.5819 64.6321 33.011 65.0699C32.4402 65.5078 32.0169 66.1111 31.7981 66.7984C30.7747 68.6592 31.0915 78.1593 31.0915 78.1593Z" fill="white" stroke="#A85B9F" stroke-width="2" stroke-linejoin="round"/>
<path d="M53.6058 88.9572L56.0425 87.1453L56.5298 87.8308L59.7949 84.9906L59.2832 84.4764L61.7198 82.6646C61.7198 82.6646 64.6925 87.7574 64.9849 88.4675C65.5455 89.6049 65.9708 90.8048 66.2519 92.0422C66.2151 93.7515 65.7812 95.4284 64.9849 96.9392C63.835 97.6845 62.5222 98.1382 61.1594 98.2614C60.1316 97.7093 59.2211 96.9608 58.4791 96.0577C57.0854 94.3616 55.7995 92.5789 54.6292 90.7201L53.6058 88.9572Z" fill="white" stroke="#A85B9F" stroke-width="2" stroke-linejoin="round"/>
<path d="M19.6393 87.8553L17.69 89.961L18.1042 90.6956L14.766 94.8335L14.1569 97.5268L17.2757 101.836L23.0506 105.215L25.0973 104.676L24.9755 103.942L28.4111 100.808H29.8L30.7503 98.7511L29.9949 95.1273L19.3225 87.9778" fill="white"/>
<path d="M19.6393 87.8553L17.69 89.961L18.1042 90.6956L14.766 94.8335L14.1569 97.5268L17.2757 101.836L23.0506 105.215L25.0973 104.676L24.9755 103.942L28.4111 100.808H29.8L30.7503 98.7511L29.9949 95.1273L19.3225 87.9778" stroke="#A85B9F" stroke-width="2" stroke-linejoin="round"/>
<path d="M18.4697 99.8529L19.2494 100.783L17.5681 101.836L23.0749 105.24L24.9511 104.554L19.7854 99.2163L18.4697 99.8529Z" fill="white" stroke="#A85B9F" stroke-width="2" stroke-linejoin="round"/>
<path d="M26.4862 99.2408L28.9228 100.734C29.2709 100.787 29.6267 100.736 29.9462 100.587C30.2388 100.347 30.4653 100.035 30.6041 99.6815C30.7519 99.3992 30.8742 99.1042 30.9696 98.8C30.9965 98.5616 30.9451 98.3209 30.8234 98.1145L29.6782 97.3554L28.0456 97.6248L26.4862 99.2408Z" fill="white" stroke="#A85B9F" stroke-width="2" stroke-linejoin="round"/>
<path d="M23.5622 94.4907L23.8302 95.1763L22.6607 96.376L21.3692 96.1802L18.9326 99.1673L21.9297 102.424L23.3916 101.126L24.2201 101.42L24.9511 100.661L24.3663 100.098L25.3166 99.0204L26.4618 99.2163L28.2405 97.5268L26.5836 93.6582H23.684L23.5622 94.4907Z" fill="white" stroke="#A85B9F" stroke-width="2" stroke-linejoin="round"/>
<path d="M25.7065 74.9029L25.5847 77.3513L25.9502 78.9184L24.878 80.1916L25.2679 80.8527L24.7806 81.3424L24.2202 80.9261L22.8313 82.6156L23.2699 83.3501L22.5876 83.9622L22.3196 83.4725L20.7358 85.162L21.3206 85.6762L20.6383 86.2393L20.2485 85.8476L18.7134 87.6105L19.1763 88.1981L18.8839 89.6672L22.8069 94.5642L24.9511 94.2948L26.3157 95.3477V96.1067L27.339 96.7188L28.1188 97.6982C28.1188 97.6982 29.3371 97.184 29.7269 97.4289C30.1186 97.6899 30.493 97.9762 30.8478 98.2858L31.5788 98.5307L33.0164 96.8657L32.4072 96.3026L32.9189 95.8619L33.5524 96.1802L34.7708 94.4907L34.2591 93.9031L34.7708 93.3399L35.5017 93.7562L36.6957 92.3605V91.4056L34.7708 90.9159L33.1626 89.2999L32.3098 86.8514L31.3351 84.403L31.0671 80.6568L25.7065 74.9029Z" fill="white" stroke="#A85B9F" stroke-width="2" stroke-linejoin="round"/>
<path d="M28.801 78.747L19.8098 89.4224L22.8556 93.0461L24.4881 91.1608L24.1714 90.5731L24.3907 90.2793L24.7318 90.7935L26.5349 88.9327L25.9988 88.0757H26.2912L26.7298 88.5899L28.606 86.4842L27.9969 85.7741L28.2405 85.6517L28.8741 86.0924L30.336 83.9867L29.9706 83.3746L30.3604 83.1298L30.7015 83.7174L31.1645 83.5215C31.1645 83.5215 31.1645 81.073 30.5066 80.5833C29.8487 80.0936 28.801 78.747 28.801 78.747Z" fill="white" stroke="#A85B9F" stroke-width="2" stroke-linejoin="round"/>
<path d="M43.6401 101.591L42.2268 104.285L42.8847 104.921L40.6187 110.161L40.7648 113.075L45.3701 116.282L52.5581 117.8L54.5562 116.576L54.215 115.89L56.8953 111.63L58.3329 111.091L58.7228 108.643L56.7979 105.24L43.3477 101.836" fill="white"/>
<path d="M43.6401 101.591L42.2268 104.285L42.8847 104.921L40.6187 110.161L40.7648 113.075L45.3701 116.282L52.5581 117.8L54.5562 116.576L54.215 115.89L56.8953 111.63L58.3329 111.091L58.7228 108.643L56.7979 105.24L43.3477 101.836" stroke="#A85B9F" stroke-width="2" stroke-linejoin="round"/>
<path d="M46.0766 114.079L47.1975 114.74L45.6868 116.258L52.5581 117.874L54.3612 116.552L47.2949 113.001L46.0766 114.079Z" fill="white" stroke="#A85B9F" stroke-width="2" stroke-linejoin="round"/>
<path d="M54.3856 110.822L57.3096 111.557C57.6996 111.502 58.0645 111.332 58.3573 111.067C58.5965 110.737 58.7399 110.347 58.7716 109.941C58.8449 109.619 58.8857 109.291 58.8934 108.961C58.8492 108.711 58.7302 108.481 58.5523 108.3L57.0903 107.908L55.4334 108.716L54.3856 110.822Z" fill="white" stroke="#A85B9F" stroke-width="2" stroke-linejoin="round"/>
<path d="M49.8779 107.076L50.3408 107.664L49.488 109.255L48.0504 109.475L46.296 113.295L50.4139 115.499L51.5835 113.736H52.5825L53.1186 112.756L52.2658 112.389L52.948 110.993L54.2151 110.822L55.5796 108.545L52.6313 105.191L49.6098 106.243L49.8779 107.076Z" fill="white" stroke="#A85B9F" stroke-width="2" stroke-linejoin="round"/>
<path d="M46.1255 86.6556L46.7346 89.1041L47.5874 90.5732L46.8321 92.1891L47.4656 92.7278L47.0758 93.3889L46.3691 93.1441L45.4188 95.2987L46.1255 95.9108L45.5894 96.7433L45.1508 96.3516L43.9812 98.5552L44.761 98.8735L44.2005 99.657L43.6645 99.3877L42.568 101.665L43.2259 102.13L43.3964 103.673L49.0494 107.321L51.2668 106.341L53.0211 106.953L53.2161 107.713L54.5075 108.006L55.6283 108.716C55.6283 108.716 56.7735 107.81 57.2609 107.933C57.7482 108.055 58.7228 108.423 58.7228 108.423H59.5513L60.5747 106.292L59.7462 105.925L60.1604 105.337H60.9402L61.6955 103.232L60.9158 102.865L61.2813 102.154L62.2072 102.326L63.4743 100.122C63.4743 100.122 62.8164 99.2897 62.4996 99.4856L62.9626 98.8245L63.8154 99.0694L64.7169 97.3065C64.029 97.7343 63.2695 98.033 62.4752 98.1879C61.2569 98.4328 61.3544 98.5797 60.0386 98.1879C59.1269 97.7323 58.3021 97.119 57.602 96.376L55.3116 94.05L53.2648 90.5487L46.1255 86.6556Z" fill="white" stroke="#A85B9F" stroke-width="2" stroke-linejoin="round"/>
<path d="M50.5845 89.4224L44.298 103.109L48.7326 105.778L49.8778 103.33L49.3662 102.84L49.488 102.497L50.0241 102.865L51.3398 100.416L50.5114 99.7305L50.8281 99.5836L51.4373 99.9753L52.8018 97.233L51.9246 96.7188L52.1439 96.523L52.948 96.7433L53.8739 94.1479L53.3135 93.6582L53.6059 93.2665L54.1419 93.7807L54.5805 93.4134C54.5805 93.4134 53.7521 90.9649 52.9967 90.6711C52.2414 90.3773 50.5845 89.4224 50.5845 89.4224Z" fill="white" stroke="#A85B9F" stroke-width="2" stroke-linejoin="round"/>
<path d="M31.9442 81.1465L39.4003 78.8204L41.179 81.0241C41.2182 83.2644 41.0386 85.5033 40.643 87.7084C39.5881 89.2231 38.1834 90.4581 36.5494 91.3077C35.9294 91.2343 35.3323 91.028 34.7984 90.7028C34.2645 90.3775 33.8064 89.9409 33.4549 89.4224C32.954 88.5399 32.5535 87.6036 32.261 86.6311L31.9442 81.1465Z" fill="white" stroke="#A85B9F" stroke-width="2" stroke-linejoin="round"/>
<path d="M30.9939 78.3797L31.9198 81.22L39.2297 78.7715L35.3798 78.2573L36.3788 77.5472L36.6956 76.9106L36.0864 75.4171L34.1371 75.8578V77.131L30.9939 78.3797Z" fill="white" stroke="#A85B9F" stroke-width="2" stroke-linejoin="round"/>
<path d="M39.5709 78.5022C40.5639 80.2312 41.7054 81.8697 42.9822 83.3991C43.5558 83.7479 44.1016 84.1408 44.6147 84.5744V86.1904L47.4412 91.0873L47.6362 90.4997L46.8077 89.0061L46.1742 86.7291L52.4851 89.1775C53.9862 91.5095 55.6131 93.7573 57.3583 95.9109C57.9918 96.425 59.0152 97.4534 59.9168 98.0655C60.325 98.2662 60.76 98.4064 61.2082 98.4818C60.3821 98.2324 59.6457 97.7476 59.0883 97.0861C58.7228 96.6699 58.333 96.0333 57.9431 95.5925C56.7779 94.1175 55.7038 92.572 54.7267 90.9649C54.3613 90.3773 53.6059 88.9572 53.6059 88.9572L51.3155 86.8515V85.113C49.9006 82.6902 48.6234 80.1887 47.49 77.6207C47.1686 76.8958 46.8919 76.1517 46.6615 75.3926C46.5014 74.7361 46.4358 74.06 46.4666 73.3848C46.4576 72.4351 46.8057 71.517 47.4412 70.8139C47.9329 70.3824 48.4631 69.9971 49.025 69.6631C49.7998 69.356 50.6481 69.2878 51.4617 69.4673C51.9828 69.599 52.4954 69.7625 52.9967 69.957C53.3796 70.1041 53.728 70.3291 54.0201 70.6181C53.4196 69.8843 52.6058 69.3577 51.6927 69.1118C50.7795 68.8659 49.8127 68.9132 48.9276 69.2469C48.0765 69.5493 47.3257 70.0834 46.759 70.7894C46.4929 71.1087 46.2866 71.4737 46.1498 71.8668C46.05 72.2131 45.9687 72.5646 45.9062 72.9196C45.7053 74.0211 45.7722 75.1551 46.1011 76.2251C46.9954 78.764 48.104 81.2214 49.4149 83.5705H49.0981L43.4695 81.93L39.5709 78.5022Z" fill="white" stroke="#A85B9F" stroke-width="2" stroke-linejoin="round"/>
<path d="M44.6147 57.9839L40.0582 57.3962V58.4001L39.4491 59.2081L39.181 76.3475C39.3145 76.6461 39.5061 76.9148 39.7447 77.1377C39.9832 77.3606 40.2638 77.5331 40.5699 77.6452C41.6177 78.0124 45.2482 78.8694 45.2482 78.8694C45.2482 78.8694 43.7619 77.6697 43.6888 76.7637C43.6157 75.8578 43.8837 72.8217 43.8837 72.8217L42.3974 72.234L42.5192 69.7855L41.8126 69.4183H43.2502C43.1256 68.2463 43.1256 67.0644 43.2502 65.8925C43.4695 65.6721 42.2024 65.8925 42.2024 65.8925L43.4695 65.3783C43.2969 64.508 43.2233 63.6209 43.2502 62.7339C43.4208 62.3667 42.2268 62.3422 42.2268 62.3422L43.2746 61.877C43.1345 61.0176 43.1345 60.141 43.2746 59.2816C43.6576 58.7872 44.1088 58.3502 44.6147 57.9839Z" fill="white" stroke="#A85B9F" stroke-width="2" stroke-linejoin="round"/>
<path d="M51.5104 86.778L54.142 84.6968L53.6546 83.2277L51.218 85.0396L51.5104 86.778Z" fill="white" stroke="#A85B9F" stroke-width="2" stroke-linejoin="round"/>
<path d="M57.0415 79.7998L57.3826 82.028L59.4538 80.4854L59.1126 78.3063L57.0415 79.7998Z" fill="white" stroke="#A85B9F" stroke-width="2" stroke-linejoin="round"/>
<path d="M51.3641 86.8759L54.2394 84.6968L56.0425 87.1453L53.6058 88.9082L51.3641 86.8759Z" fill="white" stroke="#A85B9F" stroke-width="2" stroke-linejoin="round"/>
<path d="M57.4314 82.2483L59.4538 80.7547L61.7442 82.8359L59.3076 84.6478L57.4314 82.2483Z" fill="white" stroke="#A85B9F" stroke-width="2" stroke-linejoin="round"/>
<path d="M54.946 85.7007L57.3826 83.5215L58.9177 85.1865L56.1643 87.4391L56.5542 87.8553L59.7218 85.0886L57.2121 82.2483L56.7735 79.7998L53.3622 82.738L54.1663 84.7947L54.946 85.7007Z" fill="white" stroke="#A85B9F" stroke-width="2" stroke-linejoin="round"/>
<path d="M44.4442 50.1487C44.0731 50.2914 43.7644 50.5614 43.5726 50.911C43.3808 51.2606 43.3184 51.6671 43.3964 52.0586C43.6157 53.5521 43.8837 54.0908 44.3223 53.748C44.6753 53.4176 44.9429 53.0058 45.1021 52.5483C45.1021 52.5483 45.1021 53.6256 45.7112 53.7725C46.0409 53.8918 46.3345 54.0941 46.564 54.3601C46.564 54.3601 46.1254 55.1681 46.7833 55.0947C47.4412 55.0212 48.4402 55.0947 48.4402 55.0947L49.0738 54.0418C49.0433 54.6416 49.1345 55.2414 49.3418 55.8047C49.6342 56.1475 49.6098 56.5882 49.9509 56.4903C50.2 56.4065 50.4441 56.3084 50.6819 56.1965L51.6079 56.3924C51.7408 56.3653 51.8655 56.3068 51.9714 56.2216C52.0774 56.1364 52.1616 56.0271 52.217 55.9027C52.3388 55.5354 52.4607 56.7841 52.4607 56.7841C52.4607 56.7841 53.7034 57.1514 53.8983 56.7841C54.0932 56.4169 54.946 56.172 54.946 56.172L55.0679 55.0212L44.4442 50.1487Z" fill="white" stroke="#A85B9F" stroke-width="2" stroke-linejoin="round"/>
<path d="M32.4073 54.605L31.6763 62.6605H37.3536L38.1577 54.6295L32.4073 54.605Z" fill="white" stroke="#A85B9F" stroke-width="2" stroke-linejoin="round"/>
<path d="M57.8455 58.3511L55.75 58.4736C55.75 58.4736 54.5805 58.9877 54.5317 59.7957C54.5394 60.4463 54.6129 61.0944 54.751 61.73L56.0424 62.6605L55.6769 63.1502L54.8485 64.4968L54.9947 65.9414C54.9947 65.9414 54.3855 65.9414 54.1906 66.9453C54.0911 67.5369 54.0911 68.1411 54.1906 68.7327L55.2384 69.7611L57.0415 69.4183L57.5532 65.5252L57.1389 65.1089L57.2851 62.9298L58.0161 62.7584L57.8455 58.3511Z" fill="white" stroke="#A85B9F" stroke-width="2" stroke-linejoin="round"/>
<path d="M58.4791 58.8653L68.6155 58.9877C68.6155 58.9877 69.9069 59.3305 70.2237 60.0161C70.415 60.5672 70.5138 61.1464 70.5161 61.73L59.0395 61.5831C59.0395 61.5831 59.4538 59.9427 59.0395 59.7223C58.8878 59.6313 58.7585 59.5069 58.6614 59.3585C58.5644 59.21 58.502 59.0414 58.4791 58.8653Z" fill="white" stroke="#A85B9F" stroke-width="2" stroke-linejoin="round"/>
<path d="M58.9664 61.4852L58.0161 69.2714L57.2852 69.5162C61.1894 69.7133 65.1011 69.7133 69.0053 69.5162C69.7503 66.8747 70.3041 64.1825 70.6622 61.4607L58.9664 61.4852Z" fill="white" stroke="#A85B9F" stroke-width="2" stroke-linejoin="round"/>
<path d="M83.2109 40.6241C84.6252 40.8604 86.0245 41.1792 87.4019 41.5791C88.2001 41.8752 89.0135 42.1286 89.8385 42.3381C90.3553 42.7955 90.8064 43.3229 91.1787 43.9051C91.5014 44.4667 91.693 45.0946 91.7391 45.7415C91.7311 46.4746 91.6077 47.2018 91.3736 47.8961C91.0366 48.5757 90.5922 49.1958 90.0578 49.7325C89.0832 50.9322 82.0657 51.373 82.0657 51.373L83.2109 40.6241Z" fill="white" stroke="#A85B9F" stroke-width="2" stroke-linejoin="round"/>
<path d="M78.1183 36.2903L83.3814 38.2736L77.7528 38.1757L78.1183 36.2903Z" fill="white" stroke="#A85B9F" stroke-width="2" stroke-linejoin="round"/>
<path d="M93.2985 60.4079L104.215 58.7184C104.142 60.9841 103.914 63.2421 103.532 65.4762C99.8868 66.5064 96.1851 67.3239 92.4457 67.9247L93.2985 60.4079Z" fill="white" stroke="#A85B9F" stroke-width="2" stroke-linejoin="round"/>
<path d="M109.965 74.0704L111.719 75.1967L112.085 74.609L115.204 76.225L114.863 77.18L116.617 78.2573C116.617 78.2573 118.518 74.0949 118.908 72.9441C119.424 71.4183 119.824 69.8548 120.101 68.2675C120.101 67.1412 120.248 64.1785 118.177 63.8112C116.105 63.444 115.496 63.4195 114.863 63.9337C114.382 64.3922 113.941 64.8919 113.547 65.4272C113.11 66.1655 112.727 66.9348 112.402 67.7288C112.085 68.2185 109.965 74.0704 109.965 74.0704Z" fill="white" stroke="#A85B9F" stroke-width="2" stroke-linejoin="round"/>
<path d="M69.7363 56.172L72.441 57.1759C72.5701 58.1857 72.8323 59.1737 73.2207 60.1141C74.0908 60.7984 75.0022 61.4281 75.9497 61.9994L78.8006 63.5909C78.8006 63.5909 78.5326 65.4762 79.1173 65.7211L82.0657 66.8963H86.9389L92.4457 67.8757C92.4457 67.8757 93.5909 67.2636 93.5422 66.4066C93.4934 65.5497 93.1036 58.8164 93.1036 58.8164C92.7893 58.1766 92.264 57.6661 91.6172 57.3718L84.3074 55.413L83.1378 56.3189L82.09 55.9027L81.4078 55.315L81.1154 56.1965L69.7363 56.172Z" fill="white" stroke="#A85B9F" stroke-width="2" stroke-linejoin="round"/>
<path d="M91.9828 57.5921L103.289 55.8047C103.289 55.8047 103.654 55.6333 104.044 56.8331C104.272 57.4406 104.272 58.1109 104.044 58.7184L93.2498 60.212C93.272 59.7046 93.1975 59.1977 93.0305 58.7184C92.8111 58.2394 92.4436 57.8444 91.9828 57.5921Z" fill="white" stroke="#A85B9F" stroke-width="2" stroke-linejoin="round"/>
<path d="M95.5159 51.324L95.6865 49.5366C95.3627 49.1442 94.9948 48.7909 94.59 48.4838C94.2212 48.4859 93.8537 48.5269 93.4935 48.6062L92.6894 50.1242L92.4214 51.9116L95.5159 51.324Z" fill="white" stroke="#A85B9F" stroke-width="2" stroke-linejoin="round"/>
<path d="M81.7001 53.2338L83.4301 53.9194L83.8444 53.2583L85.5013 52.7931L87.9379 52.9645L86.8902 54.4091L84.8678 54.2867V55.2416C84.8678 55.2416 83.8687 56.4168 83.4301 56.3679C83.0287 56.2612 82.6548 56.0692 82.3337 55.8047L81.4808 55.315L81.7001 53.2338Z" fill="white" stroke="#A85B9F" stroke-width="2" stroke-linejoin="round"/>
<path d="M100.901 54.556H109.258C109.258 54.556 110.501 55.2905 110.55 56.123C110.537 56.7013 110.322 57.2564 109.941 57.6901L110.209 59.3305L109.941 60.7017H108.722L108.04 58.5715V56.0006L100.901 55.0212V54.556Z" fill="white" stroke="#A85B9F" stroke-width="2" stroke-linejoin="round"/>
<path d="M108.576 61.6076L109.77 61.4117C109.77 61.4117 110.964 62.0239 111.183 62.5136C111.323 62.8674 111.323 63.2615 111.183 63.6154L110.306 64.962L108.869 65.1089L108.576 61.6076Z" fill="white" stroke="#A85B9F" stroke-width="2" stroke-linejoin="round"/>
<path d="M111.5 55.315C111.5 55.315 111.963 55.315 111.5 56.0006C111.316 56.3635 111.003 56.6433 110.623 56.7841L111.768 65.1089C112.475 64.5153 113.224 63.9752 114.01 63.493C115.264 63.2665 116.537 63.1599 117.811 63.1746L117.08 55.315L116.203 55.4374L115.837 54.556L111.5 55.315Z" fill="white" stroke="#A85B9F" stroke-width="2" stroke-linejoin="round"/>
<path d="M101.412 67.3126L98.5616 72.8707L99.2439 75.0988L107.918 75.8823L109.892 73.8745L112.962 66.725C113.225 66.2498 113.518 65.7918 113.839 65.3538C114.186 64.7478 114.715 64.2677 115.35 63.9827C116.232 63.7478 117.144 63.6488 118.055 63.6889C117.076 63.5829 116.091 63.5338 115.106 63.5419C113.969 64.1694 113.044 65.1244 112.45 66.2842C110.964 68.7327 108.917 72.4054 108.917 72.4054L107.382 73.14L100.487 72.4544L99.9993 71.475L101.412 67.3126Z" fill="white" stroke="#A85B9F" stroke-width="2" stroke-linejoin="round"/>
<path d="M107.967 75.8088L109.941 73.9725L111.719 75.1722L109.746 76.9596L107.967 75.8088Z" fill="white" stroke="#A85B9F" stroke-width="2" stroke-linejoin="round"/>
<path d="M113.035 78.7715L114.765 77.3513L116.666 78.3797L114.936 80.2406L113.035 78.7715Z" fill="white" stroke="#A85B9F" stroke-width="2" stroke-linejoin="round"/>
<path d="M84.8191 70.667H85.8424C85.8424 70.667 81.2616 76.6168 81.091 77.2779C80.7667 78.3895 80.8181 79.5777 81.2372 80.6568C81.7976 81.979 83.82 82.3218 83.82 82.3218C83.82 82.3218 80.8961 82.2483 80.4088 79.7998C80.1133 78.4823 80.2947 77.102 80.9205 75.9067L84.8191 70.667Z" fill="white" stroke="#A85B9F" stroke-width="2" stroke-linejoin="round"/>
<path d="M106.14 79.7998L107.187 79.3836C107.187 79.3836 104.361 86.9494 104.41 87.7084C104.451 88.9645 104.925 90.1671 105.75 91.1118C106.215 91.4835 106.752 91.7556 107.326 91.9114C107.9 92.0672 108.499 92.1034 109.088 92.0178C109.088 92.0178 105.92 92.8502 104.629 90.5976C103.85 89.3609 103.563 87.8749 103.825 86.4352L106.14 79.7998Z" fill="white" stroke="#A85B9F" stroke-width="2" stroke-linejoin="round"/>
<path d="M75.5355 61.9015L77.1193 65.7945C77.1193 65.7945 72.2461 72.3075 72.2461 72.6503C72.071 73.321 71.9971 74.0143 72.0268 74.707C72.308 75.5148 72.7378 76.2623 73.2938 76.9106C72.9758 75.8047 72.7477 74.6747 72.6116 73.5317C72.6116 72.9686 77.7041 66.725 77.7041 66.725L81.7733 66.8719L79.3367 65.7701L77.4848 64.5948L76.9975 63.5419C76.9975 63.5419 76.8513 63.1012 77.1924 62.9053" fill="white"/>
<path d="M75.5355 61.9015L77.1193 65.7945C77.1193 65.7945 72.2461 72.3075 72.2461 72.6503C72.071 73.321 71.9971 74.0143 72.0268 74.707C72.308 75.5148 72.7378 76.2623 73.2938 76.9106C72.9758 75.8047 72.7477 74.6747 72.6116 73.5317C72.6116 72.9686 77.7041 66.725 77.7041 66.725L81.7733 66.8719L79.3367 65.7701L77.4848 64.5948L76.9975 63.5419C76.9975 63.5419 76.8513 63.1012 77.1924 62.9053" stroke="#A85B9F" stroke-width="2" stroke-linejoin="round"/>
<path d="M95.9788 78.8939L95.4184 80.3385C94.9097 81.9782 94.5348 83.6569 94.2975 85.3579C94.1922 86.5389 94.1922 87.7271 94.2975 88.9082C94.4399 89.6028 94.7218 90.261 95.126 90.8425C95.4671 91.4546 97.392 92.2136 97.392 92.2136C96.5241 91.4169 95.7327 90.5397 95.0285 89.5937C94.8336 89.0306 96.2956 80.9996 96.2956 80.9996L96.7585 80.1916L97.5626 79.4081L98.1718 78.6001L101.364 78.3063L106.042 78.8939V79.7998L107.139 79.3101C107.139 79.3101 106.066 78.4532 105.384 77.7676C105.384 77.7676 104.775 77.2044 104.994 76.9841C105.214 76.7637 107.114 75.8578 107.163 75.7598C104.501 75.3437 101.815 75.1065 99.1221 75.0498L96.9535 76.8372L95.9788 78.8939Z" fill="white" stroke="#A85B9F" stroke-width="2" stroke-linejoin="round"/>
<path d="M81.6027 67.5574L79.7509 68.0961L81.2372 69.9325L82.9916 68.8306L81.6027 67.5574Z" stroke="#A85B9F" stroke-width="2" stroke-linejoin="round"/>
<path d="M98.0256 77.5472L95.7352 81.7096L94.7849 85.8721L95.0286 88.4675C95.0286 88.4675 98.513 85.7496 98.7322 85.4558C98.9515 85.162 101.169 80.2406 101.169 80.2406L101.705 76.8861C101.027 76.6506 100.323 76.4945 99.6094 76.4209C99.0591 76.7635 98.5302 77.1397 98.0256 77.5472Z" fill="white" stroke="#A85B9F" stroke-width="2" stroke-linejoin="round"/>
<path d="M75.901 88.1491L76.8513 89.4468L77.2899 90.72L79.361 95.0783L80.0676 96.425L84.0881 98.3593C84.0881 98.3593 84.4536 97.4289 84.3074 97.1106C84.1612 96.7923 83.016 95.0049 83.016 95.0049L82.553 93.144L83.3083 93.3154L83.016 91.5036L75.9741 87.7819L75.901 88.1491Z" fill="white" stroke="#A85B9F" stroke-width="2" stroke-linejoin="round"/>
<path d="M105.603 100.906L107.139 101.591L108.211 102.497L112.304 105.386L113.62 106.268L118.323 105.999C118.323 105.999 118.176 104.995 117.884 104.774C117.592 104.554 115.642 103.501 115.642 103.501L114.278 102.081L115.058 101.885L113.888 100.392L105.506 100.538L105.603 100.906Z" fill="white" stroke="#A85B9F" stroke-width="2" stroke-linejoin="round"/>
<path d="M73.5375 72.0627L79.288 74.3642C78.8684 74.6961 78.5341 75.1244 78.3133 75.613C78.1355 75.9713 78.0358 76.3636 78.0209 76.7637L72.6847 74.9029C72.6847 74.9029 72.173 73.6542 72.6847 73.042C72.9257 72.6799 73.2123 72.3507 73.5375 72.0627Z" fill="white" stroke="#A85B9F" stroke-width="2" stroke-linejoin="round"/>
<path d="M95.321 87.6594L101.802 86.9004C101.587 87.4017 101.495 87.9475 101.534 88.4919C101.551 88.8996 101.65 89.2996 101.827 89.6672L96.0276 90.72C96.0276 90.72 95.0286 89.8386 95.0286 89.104C95.0578 88.6111 95.1562 88.1247 95.321 87.6594Z" fill="white" stroke="#A85B9F" stroke-width="2" stroke-linejoin="round"/>
<path d="M72.2948 74.6825L76.2909 87.8798L82.1631 91.2342L82.6017 90.1814L77.9721 75.6619L73.0989 73.7276L72.2948 74.6825Z" fill="white" stroke="#A85B9F" stroke-width="2" stroke-linejoin="round"/>
<path d="M95.4915 90.6221L105.847 100.416H112.938L112.816 99.3877L101.193 88.6878L95.7839 89.3489L95.4915 90.6221Z" fill="white" stroke="#A85B9F" stroke-width="2" stroke-linejoin="round"/>
<path d="M93.4447 71.2057C93.0199 71.5148 92.5072 71.678 91.9827 71.6709C91.5007 71.5807 91.0334 71.4241 90.5939 71.2057L92.2995 73.3359L95.0285 72.4544L93.4447 71.2057Z" fill="white" stroke="#A85B9F" stroke-width="2" stroke-linejoin="round"/>
<path d="M73.0989 77.0086L72.441 77.8655L73.1233 79.9468L73.5863 80.0937L73.7081 80.5344H73.2451L73.7568 82.4197L74.2929 82.6156V83.0074H73.8543L74.5853 84.9906H75.097V85.4069L74.634 85.5538L75.1944 87.3412L76.4858 88.1002L77.0706 87.8064L74.0492 77.2289L73.0989 77.0086Z" fill="white" stroke="#A85B9F" stroke-width="2" stroke-linejoin="round"/>
<path d="M97.4652 92.2626L97.2703 93.3644L98.9515 94.907H99.4632L99.78 95.2253L99.3901 95.4701L100.779 96.8902H101.388L101.583 97.2085L101.266 97.5513L102.923 98.9714L103.484 98.8245L103.63 99.2163L103.264 99.5836L104.678 100.906H106.261L106.651 100.367L98.5373 92.385L97.4652 92.2626Z" fill="white" stroke="#A85B9F" stroke-width="2" stroke-linejoin="round"/>
<path d="M77.8016 79.1387L77.0463 80.0202L77.8016 82.1504L78.3133 82.2973V82.738H77.9722L78.5326 84.6233L79.1174 84.8437V85.211L78.6544 85.3579L79.4342 87.3656L80.0189 87.5125V87.9288L79.5073 88.0757L80.1408 89.8876L81.554 90.6711L82.1875 90.3773L78.8737 79.6039L77.8016 79.1387Z" fill="white" stroke="#A85B9F" stroke-width="2" stroke-linejoin="round"/>
<path d="M102.826 92.0422L102.582 93.1685L104.361 94.7111H104.897L105.238 95.0294L104.775 95.2987L106.261 96.7433H106.919L107.114 97.0861L106.773 97.4289L108.503 98.849L109.112 98.6776V99.0939L108.698 99.4856L110.209 100.808H112.085L112.523 100.22L104.068 92.2381L102.826 92.0422Z" fill="white" stroke="#A85B9F" stroke-width="2" stroke-linejoin="round"/>
<path d="M82.4556 93.0706L83.1135 94.9559L84.3561 96.9637L84.0881 98.3103C84.0881 98.3103 84.0881 98.8 84.5023 98.5307C84.9166 98.2614 90.6426 95.2497 90.6426 95.2497C90.9472 94.8699 91.1636 94.4266 91.2762 93.952C91.2762 93.4623 90.0091 89.5938 90.0091 89.5938L83.3084 93.242L82.4556 93.0706Z" fill="white" stroke="#A85B9F" stroke-width="2" stroke-linejoin="round"/>
<path d="M114.132 102.081L115.716 103.452L117.86 104.627L118.298 105.95C118.298 105.95 118.615 106.366 118.786 105.95C118.956 105.533 122.806 100.024 122.806 100.024C122.923 99.5416 122.923 99.0379 122.806 98.5552C122.465 98.09 119.395 95.2253 119.395 95.2253L115.033 101.836L114.132 102.081Z" fill="white" stroke="#A85B9F" stroke-width="2" stroke-linejoin="round"/>
<path d="M82.2362 91.0873C82.4983 90.6466 82.8179 90.2431 83.1865 89.8876C83.7135 89.5479 84.3505 89.4251 84.9652 89.5448C85.3262 89.8328 85.6532 90.1614 85.9399 90.5242V91.7729L83.2596 93.2909L82.8454 91.4301L82.2362 91.0873Z" fill="white" stroke="#A85B9F" stroke-width="2" stroke-linejoin="round"/>
<path d="M112.938 100.392C112.965 99.8765 113.055 99.3667 113.206 98.8735C113.543 98.3085 114.07 97.883 114.692 97.6737C115.176 97.7643 115.649 97.9038 116.105 98.09L116.836 99.1428L115.131 101.836L113.791 100.367L112.938 100.392Z" fill="white" stroke="#A85B9F" stroke-width="2" stroke-linejoin="round"/>
<path d="M99.9018 78.5511L98.2449 80.8772V82.6401C98.2449 82.6401 99.049 80.9016 99.6581 80.8527C100.682 80.9548 101.699 81.1183 102.704 81.3424C102.704 81.3424 103.508 80.2895 104.142 80.1181C104.739 80.0314 105.347 80.0314 105.945 80.1181L106.091 78.8939L103.484 77.3513L99.9018 78.5511Z" fill="white" stroke="#A85B9F" stroke-width="2" stroke-linejoin="round"/>
<path d="M85.8912 90.3773V89.6917L87.9136 88.345C88.1573 88.1736 88.2791 87.537 88.2791 87.537L89.1807 87.1453C89.1807 87.1453 90.3503 87.7819 90.4965 87.9043C90.6679 88.3566 90.7265 88.8441 90.667 89.3244C90.667 89.5448 86.1836 91.7729 86.1836 91.7729L85.8912 90.3773Z" fill="white" stroke="#A85B9F" stroke-width="2" stroke-linejoin="round"/>
<path d="M115.959 97.9675L115.691 97.3309L116.885 95.1273C117.031 94.858 116.885 94.2214 116.885 94.2214L117.397 93.3399C117.397 93.3399 118.786 93.3399 118.981 93.3399C119.368 93.6598 119.67 94.0723 119.858 94.5397C119.858 94.76 117.007 99.0449 117.007 99.0449L115.959 97.9675Z" fill="white" stroke="#A85B9F" stroke-width="2" stroke-linejoin="round"/>
<path d="M100.511 78.4042L99.9506 79.2367L101.949 80.363L102.192 79.6529L103.118 78.8694L102.948 78.4042L101.364 78.2083L100.511 78.4042Z" fill="white" stroke="#A85B9F" stroke-width="2" stroke-linejoin="round"/>
<path d="M95.3696 87.7574L98.3423 82.5176C98.3423 82.5176 99.0489 80.9261 99.6337 80.9261C100.682 81.0395 101.723 81.2111 102.753 81.4403C102.753 81.4403 102.948 80.2895 103.776 80.1916L105.774 79.9712L105.287 82.1259H103.873L100.17 85.162V87.0963L95.3696 87.7574Z" fill="white" stroke="#A85B9F" stroke-width="2" stroke-linejoin="round"/>
<path d="M110.818 76.1761L112.694 76.9106L113.328 77.3024L112.987 78.8204L109.965 76.8127L110.818 76.1761Z" fill="white" stroke="#A85B9F" stroke-width="2" stroke-linejoin="round"/>
<path d="M112.67 76.8861L114.229 75.8578L115.155 76.2006L114.79 77.2289L113.108 78.747L113.376 77.2779L112.67 76.8861Z" fill="white" stroke="#A85B9F" stroke-width="2" stroke-linejoin="round"/>
</g>
<defs>
<clipPath id="clip0_640_5107">
<rect width="124" height="120" fill="white"/>
</clipPath>
</defs>
</svg>
