<svg width="134" height="114" viewBox="0 0 134 114" fill="none" xmlns="http://www.w3.org/2000/svg">
<g clip-path="url(#clip0_640_5075)">
<g opacity="0.98">
<path d="M72.7009 32.537C70.5555 28.7828 64.9391 19.4693 64.1677 16.3167C63.1312 12.2014 73.5446 8.25459 75.256 7.26789C78.2692 5.55921 84.7293 11.2147 89.7191 19.9025C94.7088 28.5902 96.2274 37.0133 93.2143 38.722C92.0813 39.3718 83.9579 45.1476 81.1618 45.0994C76.1961 44.9791 75.8104 37.9759 72.7009 32.537Z" fill="white" stroke="#3776C5" stroke-width="2" stroke-linejoin="round"/>
<path d="M67.687 32.3927C62.6732 23.7049 61.1786 15.2818 64.1918 13.5731C67.2049 11.8645 73.6651 17.4959 78.6548 26.1837C83.6446 34.8714 85.1632 43.2945 82.15 45.0032C79.1369 46.7118 72.6285 41.0804 67.687 32.3927Z" fill="white" stroke="#3776C5" stroke-width="2" stroke-linejoin="round"/>
<path d="M10.317 55.5921L69.1092 102.689L75.256 102.954L122.936 71.1146L58.6476 21.3705L8.17163 49.0944L10.317 55.5921Z" fill="white" stroke="#3776C5" stroke-width="2" stroke-linejoin="round"/>
<path d="M15.2585 23.031C14.9933 23.9455 15.5477 32.9462 15.5477 32.9462L14.463 34.6067L14.68 37.4224L43.6301 61.8974C43.6301 61.8974 45.8719 62.8119 46.6192 62.0659C47.3664 61.3198 93.7445 33.981 93.7445 33.981L84.1025 26.0874L83.5963 16.4611" fill="white"/>
<path d="M15.2585 23.031C14.9933 23.9455 15.5477 32.9462 15.5477 32.9462L14.463 34.6067L14.68 37.4224L43.6301 61.8974C43.6301 61.8974 45.8719 62.8119 46.6192 62.0659C47.3664 61.3198 93.7445 33.981 93.7445 33.981L84.1025 26.0874L83.5963 16.4611" stroke="#3776C5" stroke-width="2" stroke-linejoin="round"/>
<path d="M11.1848 64.7612C9.03941 61.007 3.39883 51.6694 2.62747 48.5408C1.61506 44.4256 12.0525 40.4547 13.7158 39.4921C16.753 37.7834 23.1891 43.4389 28.1788 52.1026C33.1686 60.7663 34.6872 69.2134 31.65 70.9221C30.5411 71.5719 22.4177 77.3717 19.5974 77.2996C14.6559 77.2033 14.2702 70.2001 11.1848 64.7612Z" fill="white" stroke="#3776C5" stroke-width="2" stroke-linejoin="round"/>
<path d="M6.14683 64.6169C1.20529 55.9291 -0.361539 47.506 2.65159 45.7251C5.66472 43.9443 12.1249 49.6719 17.1146 58.3597C22.1044 67.0475 23.623 75.4706 20.6099 77.1792C17.5967 78.8879 11.0884 73.2806 6.14683 64.6169Z" fill="white" stroke="#3776C5" stroke-width="2" stroke-linejoin="round"/>
<path d="M59.3949 1.54022C59.3949 1.54022 15.7888 21.1539 15.5237 23.031C15.2585 24.9082 34.8077 38.9386 35.2416 40.1419C35.6755 41.3452 36.0371 39.3236 36.7602 39.5162C37.4834 39.7087 38.5199 40.4066 38.6645 40.9842C38.8092 41.5618 41.2197 40.0215 41.2197 40.0215C41.2197 40.0215 40.2314 36.5561 40.617 36.1469C44.9527 33.5696 49.418 31.2161 53.9953 29.0956C54.6221 29.0956 56.4058 31.6226 56.4058 31.6226C56.4058 31.6226 65.5658 26.8094 66.0479 26.4484C66.53 26.0874 65.5899 23.007 66.0479 22.7422C66.5059 22.4775 78.4861 16.1482 79.0646 15.9557C79.6431 15.7631 79.9565 19.3249 80.4868 19.0361C81.6376 18.0216 82.732 16.945 83.7651 15.8113L62.4803 1.1311L59.3949 1.54022Z" fill="white" stroke="#3776C5" stroke-width="2" stroke-linejoin="round"/>
<path d="M14.9934 35.7378L18.4645 38.722V34.1013L28.1066 42.1393L28.4199 46.9525L35.6514 52.8487C35.8768 53.1623 36.171 53.4202 36.5117 53.6026C36.8524 53.785 37.2304 53.8872 37.6167 53.9011C38.003 53.915 38.3874 53.8404 38.7404 53.683C39.0933 53.5256 39.4055 53.2896 39.6529 52.993C43.0913 50.7601 46.7118 48.8199 50.4761 47.1932L49.9698 42.38L72.7732 29.9861L73.5687 34.0773L83.6205 28.4459L83.0661 17.52" stroke="#3776C5" stroke-width="2" stroke-linejoin="round"/>
<path d="M35.314 40.1419V50.8512C35.314 50.8512 36.0853 53.0652 37.9655 52.3673C39.8457 51.6694 39.4841 51.0437 39.4841 51.0437L38.9779 41.0323" fill="white"/>
<path d="M35.314 40.1419V50.8512C35.314 50.8512 36.0853 53.0652 37.9655 52.3673C39.8457 51.6694 39.4841 51.0437 39.4841 51.0437L38.9779 41.0323" stroke="#3776C5" stroke-width="2" stroke-linejoin="round"/>
<path d="M38.2307 73.4972C35.5372 74.6024 32.981 76.0157 30.6135 77.7087C28.203 79.7062 28.7574 81.5352 28.7574 81.5352L30.3966 86.6371L32.2044 87.2869L55.972 108.946C55.972 108.946 56.9362 113.206 58.3825 112.676C59.8288 112.147 64.0713 110.703 64.0713 110.703L64.7222 107.984C65.9207 107.494 67.0164 106.783 67.9522 105.89C68.3153 103.501 68.4123 101.08 68.2415 98.6701L39.9181 73.7378L38.2307 73.4972Z" fill="white" stroke="#3776C5" stroke-width="2" stroke-linejoin="round"/>
<path d="M29.5287 81.0538L32.2043 78.912C34.1414 81.4218 36.2689 83.7792 38.5681 85.9633C39.1968 86.261 39.8928 86.3887 40.5865 86.3338C41.2802 86.2789 41.9474 86.0433 42.5213 85.6504C42.5213 85.6504 47.1013 84.2065 49.2466 86.7815C50.0374 87.7271 50.5523 88.8716 50.7351 90.0898C50.918 91.3081 50.7616 92.553 50.2831 93.6884C49.6805 95.1564 49.0779 96.2394 50.2831 97.0095C51.4884 97.7796 59.0574 103.122 59.0574 103.122L57.0084 107.382L56.8397 110.703" stroke="#3776C5" stroke-width="2" stroke-linejoin="round"/>
<path d="M34.1087 81.6555C34.1087 81.6555 31.0956 84.0621 32.2044 86.6371" stroke="#3776C5" stroke-width="2" stroke-linejoin="round"/>
<path d="M55.7309 90.7283C55.7309 90.7283 53.5133 92.2445 53.6579 92.6295C53.8025 93.0146 56.7192 96.2635 58.1655 96.2635C59.4293 96.1704 60.6764 95.9198 61.8777 95.5174L55.7309 90.7283Z" stroke="#3776C5" stroke-width="2" stroke-linejoin="round"/>
<path d="M40.9786 77.7087C40.9786 77.7087 38.7851 79.2008 38.9297 79.5858C39.0743 79.9709 41.9669 83.2438 43.4373 83.2438C44.6995 83.1542 45.946 82.9117 47.1495 82.5219L40.9786 77.7087Z" stroke="#3776C5" stroke-width="2" stroke-linejoin="round"/>
<path d="M76.5095 63.1729L91.8403 52.8005L106.303 62.5953L86.7782 77.4199L74.5328 70.4889L76.5095 63.1729Z" fill="white" stroke="#3776C5" stroke-width="2" stroke-linejoin="round"/>
<path d="M89.8395 85.506C90.2911 84.8355 90.9046 84.2892 91.6233 83.9177L109.461 73.425C109.461 73.425 110.787 73.3046 110.907 74.3635C110.495 76.9398 109.891 79.4818 109.099 81.9683C108.751 82.6583 108.194 83.2221 107.509 83.5808C106.665 83.8936 94.5159 90.8005 91.6233 92.4611C91.3099 92.6536 89.2128 94.0975 88.7548 93.9531C88.2968 93.8088 88.5619 92.3889 88.5619 92.3889L89.044 88.057C89.1385 87.1627 89.4088 86.2958 89.8395 85.506Z" fill="white" stroke="#3776C5" stroke-width="2" stroke-linejoin="round"/>
<path d="M100.132 37.5187C100.132 37.5187 110.329 41.9227 110.594 43.6795C110.731 44.7627 110.511 45.8608 109.967 46.8081C111.491 48.3874 113.309 49.6545 115.319 50.5383C117.248 50.7752 119.199 50.7752 121.128 50.5383C125.052 52.9403 128.827 55.5762 132.433 58.4319C133.253 59.6352 129.348 58.7207 128.866 59.4427C128.522 60.4158 128.358 61.4434 128.384 62.475L124.43 65.1704L94.6847 40.3344L100.132 37.5187Z" fill="white" stroke="#3776C5" stroke-width="2" stroke-linejoin="round"/>
<path d="M111.221 44.4256L120.284 50.057" stroke="#3776C5" stroke-width="2" stroke-linejoin="round"/>
<path d="M132.891 58.9373L132.578 64.2077C132.578 64.2077 127.757 68.9006 126.889 69.3819C126.032 69.7982 125.146 70.1521 124.238 70.4408L123.948 65.4351L128.769 62.6435L128.938 59.3464H131.59L132.891 58.9373Z" fill="white" stroke="#3776C5" stroke-width="2" stroke-linejoin="round"/>
<path d="M115.463 54.0038C115.463 54.0038 117.078 51.2603 118.838 52.1748C120.465 53.2401 121.962 54.4921 123.297 55.905L120.332 58.841L115.463 54.0038Z" fill="white" stroke="#3776C5" stroke-width="2" stroke-linejoin="round"/>
<path d="M69.2779 51.7657C69.2779 51.7657 53.5373 60.646 53.3204 61.6327C53.1035 62.6194 52.4285 63.1488 53.682 64.4243C54.9354 65.6998 77.1362 92.2926 77.1362 92.2926C77.6521 92.8511 78.3648 93.1883 79.1245 93.2332C79.8842 93.2781 80.6317 93.0272 81.2099 92.5333C83.741 90.8968 96.0346 82.3775 96.0346 82.3775C96.21 81.7041 96.1798 80.9937 95.9479 80.3376C95.7159 79.6815 95.2928 79.1096 94.7329 78.6954C92.7322 77.0108 77.1362 58.095 77.1362 58.095C75.3603 55.8809 73.4009 53.82 71.2787 51.9341C70.6597 51.6183 69.9412 51.5578 69.2779 51.7657Z" fill="white" stroke="#3776C5" stroke-width="2" stroke-linejoin="round"/>
<path d="M96.6371 35.2324C96.6371 35.2324 81.1135 44.1849 80.8965 45.1476C80.6796 46.1102 80.0529 46.6156 81.3304 47.8189C82.608 49.0222 105.435 74.0507 105.435 74.0507C105.976 74.5764 106.695 74.8805 107.449 74.9028C108.203 74.925 108.938 74.6639 109.509 74.171C111.92 72.5104 124.117 63.9911 124.117 63.9911C124.297 63.3585 124.28 62.6862 124.07 62.0631C123.859 61.44 123.463 60.8955 122.936 60.5016C120.887 58.8651 104.664 41.2489 104.664 41.2489C102.824 39.1556 100.808 37.2232 98.6378 35.4731C98.0278 35.1356 97.31 35.0493 96.6371 35.2324Z" fill="white" stroke="#3776C5" stroke-width="2" stroke-linejoin="round"/>
<path d="M91.1653 87.0462C91.6237 86.3726 92.2457 85.8261 92.9732 85.4579L110.883 74.9652C110.883 74.9652 112.209 74.9652 112.33 75.9038C111.917 78.48 111.313 81.022 110.522 83.5086C110.181 84.2044 109.623 84.7705 108.931 85.121C108.087 85.4338 95.9381 92.3407 93.0455 94.0013C92.7322 94.1938 90.635 95.6378 90.177 95.4934C89.719 95.349 89.9119 93.8569 89.9119 93.8569L90.394 89.501C90.5018 88.6432 90.7631 87.8118 91.1653 87.0462Z" fill="white" stroke="#3776C5" stroke-width="2" stroke-linejoin="round"/>
<path d="M78.7512 97.9962C79.1065 97.4031 79.6034 96.9071 80.1975 96.5523L94.4677 87.0463C94.4677 87.0463 95.5283 86.9259 95.6247 87.8886C95.2872 90.2187 94.8042 92.5255 94.1784 94.7955C94.1784 94.7955 93.6722 95.9506 92.9009 96.2394C92.1295 96.5282 82.5116 102.809 80.1975 104.301C79.9323 104.446 78.2932 105.769 77.787 105.625C77.2808 105.481 77.6183 104.229 77.6183 104.229L78.0039 100.307C78.1206 99.4999 78.3733 98.7187 78.7512 97.9962Z" fill="white" stroke="#3776C5" stroke-width="2" stroke-linejoin="round"/>
<path d="M107.388 79.4174C107.743 78.8243 108.24 78.3282 108.834 77.9734L123.105 68.3471C123.105 68.3471 124.165 68.3471 124.262 69.2134C123.922 71.5353 123.439 73.8339 122.815 76.0963C122.555 76.7078 122.108 77.2216 121.538 77.5643C120.863 77.829 111.148 84.1102 108.834 85.6023C108.593 85.7708 106.954 87.0944 106.544 86.95C106.135 86.8056 106.376 85.5542 106.376 85.5542L106.785 81.824C106.836 80.9916 107.041 80.1758 107.388 79.4174Z" fill="white" stroke="#3776C5" stroke-width="2" stroke-linejoin="round"/>
<path d="M79.836 99.392C80.1838 98.7931 80.6824 98.2953 81.2823 97.9481L95.5525 88.3217C95.5525 88.3217 96.6131 88.3217 96.7096 89.164C96.3735 91.5597 95.8824 93.9312 95.2392 96.2635C95.2392 96.2635 94.733 97.4186 93.9857 97.7074C93.2384 97.9962 83.5964 104.277 81.2823 105.77C81.0172 105.938 79.378 107.238 78.9924 107.093C78.6067 106.949 78.8236 105.697 78.8236 105.697L79.2093 101.775C79.28 100.95 79.492 100.145 79.836 99.392Z" fill="white" stroke="#3776C5" stroke-width="2" stroke-linejoin="round"/>
<path d="M108.473 80.8613C108.825 80.2718 109.323 79.7828 109.919 79.4414L124.189 69.8151C124.189 69.8151 125.25 69.8151 125.346 70.6814C125 73.004 124.509 75.3027 123.876 77.5643C123.619 78.1707 123.182 78.6833 122.622 79.0323C121.947 79.297 112.233 85.5782 109.919 87.0703C109.654 87.2387 108.015 88.5624 107.509 88.418C107.002 88.2736 107.34 87.0222 107.34 87.0222L107.725 83.0754C107.853 82.3017 108.105 81.5539 108.473 80.8613Z" fill="white" stroke="#3776C5" stroke-width="2" stroke-linejoin="round"/>
</g>
</g>
<defs>
<clipPath id="clip0_640_5075">
<rect width="134" height="114" fill="white"/>
</clipPath>
</defs>
</svg>
